<?xml version="1.0" encoding="utf-8"?>
<!-- Generator: Adobe Illustrator 27.1.0, SVG Export Plug-In . SVG Version: 6.00 Build 0)  -->
<svg version="1.1" id="Layer_1" xmlns="http://www.w3.org/2000/svg" xmlns:xlink="http://www.w3.org/1999/xlink" x="0px" y="0px"
	 viewBox="0 0 512 512" style="enable-background:new 0 0 512 512;" xml:space="preserve">
<style type="text/css">
	.st0{fill:#737272;}
</style>
<path class="st0" d="M448,54.9c8.8,0,16,8.2,16,18.3v365.5l-5-7.4L323,230.1c-4.5-6.7-11.6-10.6-19-10.6s-14.4,3.9-19,10.6
	l-83,122.7L171.5,304c-4.5-7.2-11.7-11.4-19.5-11.4s-15,4.2-19.5,11.5l-80,128l-4.5,7.1v-0.3V73.1c0-10.1,7.2-18.3,16-18.3H448z
	 M64,0C0,0,0,0,0,73.1v365.7C0,512,0,512,64,512h384c64,0,64,0,64-73.1V73.1C516,0,512,0,448,0H64z M144,219.4
	c26.5,0,48-24.6,48-54.9s-21.5-54.9-48-54.9s-48,24.6-48,54.9S117.5,219.4,144,219.4z"/>
</svg>
