<svg width="290" height="236" viewBox="0 0 290 236" fill="none" xmlns="http://www.w3.org/2000/svg">
<rect opacity="0.2" width="137.53" height="175.779" rx="24" transform="matrix(0.706704 0.70751 -0.706704 0.70751 132.223 4.29102)" fill="#1B7BD7"/>
<rect opacity="0.4" width="144.425" height="189.529" rx="24" transform="matrix(0.706704 0.70751 -0.706704 0.70751 185 0)" fill="#7B56BD"/>
<path d="M171.149 187.972C170.498 188.009 169.815 188.091 169.155 188.021L169.117 188.103C162.763 190.459 158.345 190.335 151.987 192.682C148.996 193.787 143.731 195.372 140.612 194.298C138.143 193.447 134.535 190.714 132.984 188.642C129.097 183.436 128.957 175.936 127.363 169.789C125.605 163.008 124.647 156.946 122.546 150.264C120.446 143.582 119.161 136.36 116.854 129.759C116.808 128.662 116.379 127.633 116.033 126.589C115.585 125.237 115.13 123.888 114.691 122.527C113.857 119.961 113.051 117.38 112.275 114.785C110.726 109.601 109.296 104.384 107.984 99.134C106.692 93.9569 105.505 88.751 104.422 83.5165C103.342 78.2883 102.545 72.9359 100.847 67.8655C100.188 65.899 99.1195 63.3888 96.5728 63.9408C95.9282 64.083 95.3368 64.4056 94.8666 64.8715C94.8132 64.66 94.4772 64.5668 94.3739 64.7962C93.6389 66.4123 93.0365 68.0861 92.5727 69.801C92.0871 71.6289 91.6371 73.4628 91.1919 75.2967C90.3608 78.7423 89.6555 82.274 88.359 85.5822C87.1574 88.6526 85.4916 91.6227 85.2435 94.9764C84.9858 98.4506 86.8832 100.927 88.676 103.672C92.308 109.23 93.9619 115.707 95.2703 122.149C96.7295 129.337 98.0676 136.552 99.4912 143.748C100.271 147.69 100.868 151.752 102.131 155.576C102.516 156.753 102.962 157.909 103.466 159.04C101.975 163.958 100.689 168.928 98.8892 173.755C96.9364 179.019 94.5619 184.115 91.7891 188.992C90.4071 191.418 88.9214 193.784 87.332 196.088C86.5404 197.24 85.7251 198.374 84.8861 199.492C84.087 200.555 83.0137 201.624 82.9175 203.026C82.7513 205.453 85.7386 207.601 87.4293 208.888C101.551 219.666 119.913 224.834 137.415 225.421C140.217 225.515 143.114 225.648 145.751 224.52C150.856 222.335 152.774 216.836 155.057 212.214C156.482 209.347 157.746 206.599 159.694 204.09C161.447 201.82 162.633 199.593 163.739 196.943C164.689 194.664 166.47 192.284 168.349 190.585C169.337 189.691 170.698 189.363 171.646 188.421C171.793 188.274 171.927 188.114 172.046 187.943C171.747 187.938 171.447 187.947 171.149 187.972Z" fill="#FCD7D1"/>
<path d="M194.912 39.5653C194.584 38.4628 194.013 37.4492 193.241 36.6008C192.468 35.7524 191.515 35.0911 190.452 34.6669C188.656 33.95 185.988 33.8664 184.793 35.5641C184.236 35.625 183.748 36.0958 183.922 36.8544C185.242 42.6178 187.911 48.1148 188.481 54.0502C188.574 55.012 189.685 55.3238 190.249 54.5281C191.829 52.3071 193.407 50.0264 194.228 47.3932C194.972 44.9953 195.639 42.0396 194.912 39.5653Z" fill="#FCD7D1"/>
<path d="M206.45 67.4403C204.353 65.8118 201.495 64.4271 198.812 65.224C197.109 65.7294 195.606 66.819 194.234 68.0448C193.554 68.4462 192.939 68.9492 192.309 69.4653C191.27 70.2922 190.279 71.1781 189.341 72.1188C187.62 73.8847 186.155 75.9157 185.314 78.2562C184.443 80.6803 184.688 83.1809 186.289 85.2263C186.954 86.0757 187.797 86.8869 188.762 87.384C190.028 88.0363 191.391 87.973 192.767 87.8308C195.455 87.5536 197.838 86.8165 200.039 85.2024C202.159 83.6478 204.138 81.907 205.952 80.0005C207.632 78.2395 209.816 76.0579 209.921 73.4581C210.02 71.0281 208.26 68.8477 206.45 67.4403Z" fill="#FCD7D1"/>
<path d="M212.009 92.3261C210.722 90.1756 208.556 89.0036 206.117 88.7611C205.951 88.7434 205.783 88.7708 205.631 88.8403C205.478 88.9098 205.347 89.019 205.251 89.1565C202.282 89.3262 199.281 91.4265 197.02 93.7192C195.403 94.7849 193.869 96.0286 192.379 97.2042C190.281 98.8601 188.223 100.604 186.324 102.497C184.718 104.103 183.246 106.117 183.46 108.516C183.667 110.835 185.455 113.27 187.169 114.755C191.348 118.373 197.001 114.045 200.389 111.41C202.724 109.597 205.096 107.819 207.355 105.914C209.235 104.322 211.193 102.561 212.222 100.265C213.349 97.7682 213.441 94.7216 212.009 92.3261Z" fill="#FCD7D1"/>
<path d="M222.876 128.16C222.436 124.934 220.054 122.903 217.111 122.564C213.653 122.157 209.987 122.67 206.577 123.255C204.61 123.592 202.663 124.042 200.747 124.602C199.822 124.873 198.904 125.168 197.995 125.486C197.173 125.775 196.24 126.009 195.575 126.596C194.877 126.916 194.325 127.757 193.913 128.677C193.255 128.665 192.525 129.219 192.692 130.076C192.802 130.713 192.892 131.356 193.049 131.988C193.055 132.008 193.064 132.025 193.07 132.045C193.308 133.07 193.664 134.044 194.43 134.856C195.617 136.109 197.507 136.848 199.06 137.475C200.969 138.246 202.99 138.507 205.037 138.499C206.788 138.492 208.599 138.238 210.363 138.396C210.933 139.308 211.238 140.394 211.364 141.458C211.454 142.211 212.243 142.913 213 142.403C215.626 140.64 217.951 138.461 219.887 135.952C221.721 133.587 223.304 131.307 222.876 128.16Z" fill="#FCD7D1"/>
<path d="M187.075 74.5763C185.637 77.4067 187.348 81.1306 190.162 82.5811C192.976 84.0315 196.445 83.5679 199.304 82.2119C203.617 80.1641 206.84 76.2836 209.103 72.0566C209.469 74.9921 208.31 77.9706 206.47 80.2788C204.629 82.587 202.161 84.3003 199.613 85.7746C197.595 86.943 195.449 88.0016 193.138 88.2716C190.826 88.5416 188.298 87.9048 186.768 86.139C185.503 84.6802 185.066 82.6157 185.321 80.697C185.577 78.7782 186.466 76.9921 187.075 74.5763Z" fill="#F8C1BA"/>
<path d="M186.502 103.024C186.027 104.618 186.671 106.41 187.85 107.577C189.029 108.744 190.66 109.357 192.296 109.608C196.645 110.287 201.115 108.601 204.589 105.882C208.063 103.163 210.67 99.49 212.996 95.7266C213.081 98.294 212 100.79 210.469 102.845C208.937 104.9 206.97 106.577 205.02 108.237C201.962 110.839 198.829 113.486 195.102 114.964C193.322 115.671 191.355 116.097 189.476 115.71C186.759 115.148 184.526 112.803 183.969 110.069C183.412 107.336 184.497 104.359 186.502 103.024Z" fill="#F8C1BA"/>
<path d="M196.099 126.383C195.2 127.263 195.183 128.785 195.782 129.895C196.38 131.005 197.463 131.766 198.579 132.345C201.465 133.844 204.753 134.376 208.004 134.495C210.686 134.594 213.41 134.42 215.959 133.587C218.508 132.754 220.896 131.223 222.42 129C222.012 135.018 217.851 140.614 212.23 142.708C211.725 141.336 211.221 139.964 210.717 138.592C206.877 138.678 202.964 138.711 199.294 137.576C196.8 136.806 194.324 135.323 193.349 132.895C192.374 130.468 193.679 127.094 196.099 126.383Z" fill="#F8C1BA"/>
<path d="M184.017 36.533C185.141 36.3765 186.329 36.3024 187.37 36.7552C188.438 37.2188 189.211 38.1769 189.816 39.1769C192.736 44.0072 192.362 50.638 188.917 55.1051C188.885 52.1183 187.934 49.2318 186.992 46.4015C185.933 43.2175 184.874 40.0335 184.017 36.533Z" fill="#F8C1BA"/>
<path d="M97.2139 63.9004C100.807 68.2707 101.139 74.4344 100.903 80.0998C100.685 85.3015 100.129 90.4833 99.2406 95.6122C99.0613 96.6504 98.8678 97.7113 99.0483 98.7496C99.2347 99.8248 99.8069 100.781 100.411 101.684C103.247 105.906 107.011 109.416 111.411 111.941C108.851 96.9154 105.174 82.1049 100.41 67.6339C99.9411 66.1931 99.3035 64.5886 97.2139 63.9004Z" fill="#F8C1BA"/>
<path d="M137.522 193.031C141.954 194.086 145.831 196.778 148.382 200.575C151.575 205.369 152.3 211.355 152.932 217.091C154.067 212.214 157.264 208.13 159.673 203.75C162.822 198.016 165.099 191.128 170.825 188.01L157.867 191.885C151.756 193.716 145.322 195.562 137.522 193.031Z" fill="#F8C1BA"/>
<path d="M217.424 163.878L210.876 138.986C208.999 139.218 207.102 139.255 205.217 139.096C203.733 138.996 202.257 138.783 200.804 138.461C199.558 138.172 198.292 137.892 197.105 137.402C195.85 136.883 194.73 136.124 193.936 135C193.158 133.922 192.75 132.618 192.773 131.286C192.803 129.937 193.324 128.645 194.237 127.656C195.187 126.65 196.442 125.893 197.717 125.401C199.142 124.853 200.665 124.697 202.11 124.247C203.618 123.78 205.096 123.212 206.668 123.013L203.119 109.524C202.234 110.321 201.274 111.031 200.205 111.516C200.127 111.556 200.04 111.574 199.952 111.568C199.865 111.562 199.781 111.533 199.71 111.482C198.466 112.73 197.216 113.999 195.837 115.081C194.337 116.254 192.631 117.061 190.69 116.816C189.203 116.628 187.787 116.12 186.605 115.18C184.512 113.508 183.731 110.76 184.112 108.165C184.319 106.788 184.827 105.474 185.6 104.319C186.09 103.611 186.649 102.955 187.269 102.358C188.073 101.551 188.906 100.773 189.753 100.011C191.367 98.5567 193.001 97.1134 194.678 95.7311C195.452 95.0943 196.229 94.4611 196.96 93.7741C197.532 93.2365 198.089 92.6666 198.517 92.0047L197.198 86.9869C195.831 87.6141 194.374 88.0143 192.829 88.0287C191.228 88.0368 189.645 87.6819 188.199 86.9904C187.199 86.5125 186.283 85.8304 185.657 84.9008C184.511 83.2019 184.723 81.0311 185.369 79.1864C186.137 76.9953 187.432 75.0049 188.825 73.1722C189.956 71.695 191.166 70.2819 192.451 68.9392L177.4 11.7258C174.945 4.98754 167.006 2.94215 164.006 3.75099L98.3752 20.8273C95.3748 21.6361 90.8737 30.3852 91.6776 33.4067L131.747 188.052C132.552 191.071 142.24 195.705 145.241 194.896L209.963 177.675C212.965 176.867 217.973 170.611 217.424 163.878Z" fill="#97989D"/>
<path d="M212.365 161.275L206.357 138.866C204.594 139.105 203.441 138.578 201.691 138.445C200.304 138.338 198.906 137.81 197.549 137.489C196.377 137.218 195.649 135.551 194.534 135.09C193.355 134.602 193.733 133.428 192.991 132.372C192.278 131.354 192.484 130.67 192.516 129.416C192.548 128.162 193.275 128.543 194.141 127.624C195.028 126.679 195.983 126.346 197.182 125.883C198.517 125.367 198.912 125.04 200.276 124.617C201.692 124.177 201.054 124.119 202.532 123.931L199.227 112.323C198.396 113.072 199.027 112.442 198.022 112.904C197.864 112.975 196.893 113.637 196.764 113.537C195.597 114.709 195.125 114.789 193.828 115.807C192.419 116.91 190.335 115.979 188.513 115.748C187.117 115.573 186.654 114.158 185.545 113.274C183.579 111.709 183.253 109.905 183.605 107.47C183.791 106.183 184.199 105.225 184.911 104.146C185.363 103.468 185.806 103.086 186.38 102.511C187.135 101.751 187.891 101.116 188.687 100.4C190.204 99.0339 191.464 97.7938 193.038 96.4963C193.765 95.899 194.292 95.9802 194.978 95.3351C195.516 94.8297 193.948 94.2156 194.349 93.5943L193.091 88.1595C191.806 88.7485 191.712 88.1451 190.26 88.1595C188.77 88.1738 188.353 87.3232 187.009 86.6816C186.069 86.2336 186.077 84.7581 185.488 83.8859C184.411 82.2898 184.619 81.6625 185.226 79.929C185.947 77.8692 185.443 76.4642 186.752 74.7426C187.809 73.3496 187.641 72.9637 188.843 71.6972L174.288 16.2222C172.171 8.23302 165.795 7.46003 162.975 8.21749L100.253 25.4647C97.4336 26.2245 95.5779 33.1109 96.3354 35.9461L134.417 182.463C135.172 185.3 139.997 191.226 142.817 190.468L206.884 173.675C209.701 172.916 213.491 169.277 212.365 161.275Z" fill="#F9FAFF"/>
<path d="M103.944 83.9025C103.621 88.0841 102.848 92.2011 101.974 96.2931C101.8 97.1043 103.042 97.4508 103.212 96.6372C104.11 92.4329 104.896 88.194 105.231 83.9025C105.295 83.0662 104.01 83.0769 103.946 83.9025H103.944Z" fill="#6F6F6F"/>
<path d="M86.6042 90.344C89.3979 85.5997 90.8096 80.2342 92.0777 74.9152C92.6974 72.3131 93.1795 69.6082 94.045 67.073C94.3929 66.0575 95.0554 64.6931 96.2178 64.4577C97.5654 64.1841 98.6731 65.5509 99.4591 66.4601C100.003 67.0897 100.908 66.1722 100.367 65.5473C98.9094 63.8568 96.7058 62.1423 94.5924 63.8747C92.5407 65.5473 92.1952 68.8926 91.617 71.3012C90.1079 77.5855 88.8102 84.0693 85.4952 89.7001C85.0725 90.4169 86.1827 91.068 86.6042 90.3524V90.344Z" fill="#6F6F6F"/>
<path d="M85.2043 90.3494C83.0672 94.2335 84.8481 98.4736 86.8274 101.994C89.1533 106.14 91.2798 110.358 92.9194 114.831C94.548 119.229 95.7023 123.791 96.3626 128.437C97.0418 133.336 97.2211 138.295 98.0344 143.183C98.9423 148.592 100.391 153.895 102.36 159.011C102.654 159.779 103.896 159.444 103.598 158.667C101.904 154.264 100.593 149.722 99.68 145.092C98.742 140.313 98.4404 135.473 97.9133 130.636C96.9385 121.69 94.1685 113.132 90.0319 105.164C87.8948 101.053 83.6656 95.795 86.3085 90.9993C86.7098 90.2717 85.5961 89.6194 85.1996 90.347L85.2043 90.3494Z" fill="#6F6F6F"/>
<path d="M184.067 36.4394C184.961 35.7492 186.014 35.2968 187.128 35.1239C188.242 34.951 189.381 35.0632 190.44 35.4502C192.853 36.3271 194.268 38.5839 194.616 41.0654C195.383 46.5433 191.605 51.1274 188.717 55.3401C188.242 56.0259 189.359 56.6734 189.826 55.9924C193.133 51.1681 197.438 45.6496 195.565 39.3928C194.021 34.2554 187.739 31.9795 183.418 35.3199C182.773 35.8193 183.411 36.9424 184.067 36.4358V36.4394Z" fill="#6F6F6F"/>
<path d="M193.084 88.7569C196.033 88.3459 198.73 86.8871 201.167 85.2312C203.459 83.6781 205.672 81.9433 207.408 79.7593C209.038 77.708 210.389 75.1465 210.149 72.4392C209.963 70.3305 208.873 68.3986 207.318 66.9984C205.744 65.57 203.758 64.6844 201.649 64.4703C199.268 64.2469 197.224 65.2684 195.238 66.4775C190.857 69.1429 186.781 73.26 184.817 78.0879C183.82 80.5419 183.729 83.4009 185.336 85.6207C187.086 88.04 190.024 89.0795 192.916 88.7796C193.729 88.6948 193.738 87.4021 192.916 87.4869C190.384 87.7497 187.737 86.9325 186.267 84.7091C185.073 82.9087 185.198 80.6853 185.939 78.7355C187.57 74.4726 191.163 70.7307 194.886 68.2361C196.572 67.1059 198.494 65.8467 200.573 65.7368C202.432 65.6412 204.295 66.3066 205.786 67.4094C207.305 68.5253 208.503 70.1776 208.82 72.0688C209.245 74.6053 207.93 77.0867 206.39 78.9983C204.747 81.0377 202.675 82.6637 200.524 84.1249C198.166 85.727 195.6 87.1225 192.748 87.5203C191.928 87.6243 192.274 88.8692 193.084 88.7569Z" fill="#6F6F6F"/>
<path d="M191.438 97.529C188.201 100.298 183.446 103.345 183.087 108.058C182.745 112.554 187.582 117.771 192.165 117.131C193.293 116.973 194.215 116.43 195.149 115.817C196.637 114.835 198.078 113.786 199.515 112.726C200.175 112.241 199.535 111.119 198.867 111.61C197.467 112.638 196.062 113.663 194.617 114.623C193.646 115.27 192.707 115.869 191.499 115.899C188.6 115.97 185.99 113.345 184.887 110.849C182.513 105.466 188.91 101.386 192.346 98.4465C192.976 97.9065 192.063 96.9961 191.438 97.5326V97.529Z" fill="#6F6F6F"/>
<path d="M194.349 94.9009C193.579 95.5987 192.816 96.3051 192.062 97.0204C191.459 97.5927 192.368 98.5054 192.97 97.9344C193.724 97.2175 194.486 96.511 195.257 95.8149C195.873 95.2582 194.963 94.3466 194.349 94.9009Z" fill="#6F6F6F"/>
<path d="M212.9 143.295C216.086 141.144 218.892 138.45 221.072 135.269C222.962 132.508 224.291 128.855 222.6 125.658C221.092 122.808 217.689 122.06 214.74 122.007C210.542 121.933 206.243 122.654 202.154 123.56C201.347 123.74 201.689 124.986 202.495 124.806C206.097 124.006 209.772 123.453 213.462 123.314C216.17 123.211 219.725 123.425 221.318 126.014C223.19 129.057 221.393 132.668 219.538 135.214C217.528 137.942 215.063 140.299 212.252 142.179C211.569 142.64 212.212 143.76 212.9 143.295Z" fill="#6F6F6F"/>
<path d="M206.088 139.224L213.33 139.245C214.161 139.245 214.161 137.954 213.33 137.952L206.088 137.932C205.257 137.932 205.257 139.222 206.088 139.224Z" fill="#6F6F6F"/>
<path d="M102.713 159.553C102.525 161.385 101.808 163.216 101.193 164.929C100.163 167.797 98.9877 170.619 97.7636 173.412C94.8879 179.969 91.7273 186.414 88.2509 192.669C86.5412 195.744 84.7543 198.788 82.7394 201.673C82.2645 202.356 83.3758 203.002 83.8483 202.326C87.7142 196.789 90.8808 190.737 93.8894 184.693C96.9277 178.591 99.8259 172.369 102.179 165.965C102.937 163.908 103.771 161.749 103.998 159.549C104.084 158.723 102.798 158.729 102.713 159.549V159.553Z" fill="#6F6F6F"/>
<path d="M164.903 192.867C160.877 200.204 156.925 207.584 152.934 214.94C152.058 216.554 151.18 218.167 150.3 219.779C149.899 220.507 151.012 221.16 151.409 220.431C155.435 213.094 159.387 205.714 163.378 198.357C164.254 196.743 165.133 195.13 166.014 193.52C166.413 192.791 165.301 192.139 164.903 192.867Z" fill="#6F6F6F"/>
<path d="M199.171 92.0102C198.776 90.4037 198.38 88.7972 197.984 87.1907C197.787 86.3842 196.547 86.7259 196.746 87.5348C197.142 89.1405 197.537 90.7466 197.933 92.3531C198.131 93.1608 199.37 92.8191 199.171 92.0102Z" fill="#6F6F6F"/>
<path d="M192.97 68.5198C191.209 61.7226 189.449 54.9257 187.689 48.1293C186.343 42.9202 184.992 37.7116 183.635 32.5034C182.487 28.1044 181.339 23.7054 180.192 19.3063C179.334 16.0208 178.746 12.3124 176.879 9.42709C173.559 4.30169 167.285 1.95045 161.429 3.44267C159.896 3.83335 158.371 4.25031 156.842 4.65533L132.815 11.0065L107.704 17.6457C105.769 18.157 103.834 18.6636 101.902 19.1785C97.1389 20.4497 93.2742 23.9216 91.7628 28.6898C90.4057 32.9717 91.6441 36.8713 92.7126 40.9669L96.8207 56.7003C98.8787 64.5736 100.934 72.4465 102.988 80.319L110.23 108.052C112.673 117.411 115.116 126.77 117.559 136.129C119.712 144.371 121.863 152.615 124.015 160.86L128.56 178.267C129.195 180.7 129.709 183.215 130.509 185.602C132.601 191.844 138.929 195.936 145.445 195.177C147.226 194.969 148.995 194.396 150.728 193.937L173.54 187.898L199.503 181.041L206.485 179.195C210.311 178.183 213.633 176.127 215.738 172.666C217.441 169.855 218.125 166.538 217.673 163.278C217.508 162.107 217.176 160.962 216.881 159.813C215.794 155.576 214.705 151.34 213.616 147.103C212.92 144.387 212.222 141.671 211.523 138.955C211.316 138.15 210.077 138.492 210.285 139.298L215.643 160.156C215.941 161.312 216.294 162.481 216.44 163.667C216.843 167.053 215.909 170.464 213.837 173.163C211.713 175.919 208.779 177.247 205.544 178.101L185.692 183.349L159.159 190.36L150.029 192.773C148.073 193.291 146.1 193.933 144.064 193.968C138.156 194.058 132.999 189.98 131.462 184.291C131.261 183.552 131.075 182.81 130.881 182.071C129.74 177.701 128.599 173.332 127.459 168.963L121.83 147.403C119.517 138.543 117.202 129.682 114.887 120.819C112.463 111.541 110.041 102.262 107.619 92.982L100.911 67.2821C99.187 60.6847 97.4635 54.0838 95.7403 47.4794C94.8324 43.9979 93.9221 40.5164 93.0095 37.035C92.3541 34.5261 92.1534 32.0004 92.8682 29.4628C94.1837 24.8033 97.8786 21.5775 102.45 20.3697L119.992 15.7329L146.847 8.63259C151.812 7.31839 156.769 5.96356 161.745 4.68998C167.875 3.12726 174.414 6.24313 176.871 12.1702C178.052 15.0208 178.586 18.2633 179.365 21.2311C180.839 26.8726 182.31 32.5153 183.78 38.1592L190.153 62.7624C190.678 64.7942 191.205 66.8253 191.732 68.8555C191.94 69.6596 193.179 69.3191 192.97 68.5114V68.5198Z" fill="#6F6F6F"/>
<path d="M206.903 122.556C205.889 118.308 204.875 114.059 203.86 109.811C203.667 109.003 202.428 109.345 202.622 110.155C203.636 114.403 204.65 118.651 205.665 122.899C205.858 123.708 207.097 123.365 206.903 122.556Z" fill="#6F6F6F"/>
<path d="M205.867 139.3L210.996 159.787C211.262 160.848 211.532 161.908 211.794 162.97C212.572 166.124 211.694 169.463 209.219 171.628C207.508 173.124 205.377 173.54 203.264 174.096L182.492 179.592L156.829 186.377L148.428 188.598C146.098 189.214 143.894 189.897 141.451 189.159C138.357 188.226 136.405 185.695 135.61 182.652C135.318 181.537 135.027 180.422 134.735 179.307C133.477 174.485 132.218 169.663 130.958 164.841L125.237 142.926C122.963 134.219 120.69 125.513 118.418 116.808C116.055 107.759 113.693 98.7118 111.331 89.6645L104.891 64.992L99.927 45.9874L97.2947 35.9026C96.701 33.6147 96.6262 31.2934 97.7494 29.1154C98.8726 26.9374 100.836 25.432 103.18 24.7868C103.691 24.6459 104.205 24.5156 104.724 24.3794L124.15 19.2421L150.181 12.3604L159.454 9.90883C160.793 9.55041 162.137 9.1227 163.499 8.86225C167.117 8.16811 170.813 10.0116 172.507 13.2828C172.907 14.0558 173.13 14.8718 173.348 15.7057C173.922 17.8992 174.494 20.0927 175.066 22.2863L181.513 46.9922L187.361 69.3898L188.291 72.9525C188.501 73.7566 189.741 73.4161 189.53 72.6096C188.316 67.9621 187.102 63.3138 185.888 58.6647C183.56 49.744 181.231 40.8234 178.902 31.9027C177.428 26.2588 175.97 20.6113 174.482 14.9721C173.211 10.1633 168.745 6.80492 163.729 7.51459C162.186 7.73322 160.663 8.24696 159.163 8.64361L136.923 14.5289L111.458 21.2612L103.985 23.2373C100.915 24.0497 98.184 25.4822 96.6429 28.463C94.6767 32.2647 95.9685 35.905 96.9539 39.6768L100.904 54.8081L106.831 77.508L113.836 104.337L121.01 131.816L127.444 156.458C129.04 162.568 130.635 168.678 132.23 174.788C132.972 177.633 133.703 180.481 134.459 183.323C135.52 187.32 138.782 190.337 142.929 190.759C145.051 190.974 147.077 190.288 149.103 189.753L170.628 184.063L196.427 177.241L204.428 175.126C207.146 174.409 209.638 173.501 211.433 171.112C213.271 168.665 213.765 165.591 213.039 162.645C212.776 161.577 212.504 160.51 212.237 159.443L209.006 146.54L207.106 138.956C206.905 138.149 205.665 138.491 205.868 139.298L205.867 139.3Z" fill="#6F6F6F"/>
<path d="M198.571 112.334L201.709 124.353C201.919 125.157 203.157 124.816 202.947 124.01L199.809 111.99C199.599 111.186 198.361 111.527 198.571 112.334Z" fill="#6F6F6F"/>
<path d="M192.418 88.7144L194.08 95.2353C194.286 96.0405 195.525 95.6988 195.319 94.8924C194.765 92.718 194.208 90.5444 193.649 88.3715C193.443 87.5663 192.205 87.908 192.411 88.7144H192.418Z" fill="#6F6F6F"/>
<path d="M166.416 193.128L172.384 188.17C173.021 187.639 172.108 186.73 171.475 187.256L165.508 192.214C164.87 192.744 165.783 193.648 166.416 193.128Z" fill="#6F6F6F"/>
<path d="M195.969 95.2872C199.864 91.6683 207.643 85.746 211.673 92.378C214.862 97.6253 209.936 103.021 206.165 106.273C204.129 108.028 201.924 109.564 199.679 111.035C198.989 111.488 199.632 112.607 200.327 112.151C205.056 109.045 210.447 105.38 212.961 100.106C214.217 97.4771 214.386 94.5452 212.917 91.9551C211.199 88.9228 208.198 87.4951 204.805 88.2884C201.071 89.1594 197.817 91.8129 195.061 94.3732C194.453 94.9395 195.363 95.8511 195.969 95.2872Z" fill="#6F6F6F"/>
<path d="M202.191 123.588C197.982 124.185 191.149 126.642 192.13 132.142C193.255 138.411 200.237 139.179 205.36 139.191C206.191 139.191 206.191 137.899 205.36 137.898C200.911 137.889 194.597 137.509 193.422 132.064C192.387 127.271 199.055 125.326 202.533 124.834C203.347 124.714 203.001 123.473 202.191 123.588Z" fill="#6F6F6F"/>
<g opacity="0.8">
<g clip-path="url(#clip0_6447_154717)">
<path fill-rule="evenodd" clip-rule="evenodd" d="M150.746 93.6055L153.212 102.295C153.287 102.559 153.429 102.8 153.624 102.994C153.788 103.156 154.089 103.337 154.294 103.395C154.662 103.5 154.722 103.486 159.284 102.225C163.84 100.966 163.909 100.949 164.473 101.007C165.175 101.078 166.182 101.563 166.623 102.041C167.136 102.597 167.444 103.259 167.491 103.905C167.577 105.079 167.183 106.049 166.307 106.82C165.968 107.118 165.569 107.34 165.137 107.47L162.247 108.34L158.698 109.36L157.989 112.999C157.597 114.975 157.097 116.746 157.106 116.785C157.115 116.824 160.514 115.799 164.432 114.659L170.775 112.812C171.29 112.662 171.775 112.421 172.206 112.1C173.788 110.924 174.731 109.388 175.008 107.537C175.214 106.157 175.338 106.679 172.048 95.0777C168.696 83.2592 168.935 83.9646 167.877 82.7688C166.866 81.6258 165.553 80.8944 164.033 80.6284C162.542 80.3675 162.776 80.3178 155.073 82.5296L148.166 84.5125L150.746 93.6055ZM159.116 88.4352C157.895 89.0193 157.181 90.3286 157.291 91.7816C157.369 92.8095 158.197 93.9763 159.138 94.3828C159.947 94.7324 160.645 94.7821 161.461 94.5478C162.069 94.3729 162.252 94.2768 162.671 93.9115C164.586 92.2427 164.079 89.1872 161.743 88.3224C160.863 87.9968 159.95 88.036 159.116 88.4352Z" fill="#0E4AA4"/>
<path d="M163.302 90.6156C163.732 92.1291 162.854 93.7082 161.342 94.1427C159.83 94.5772 158.256 93.7024 157.826 92.1889C157.397 90.6754 158.274 89.0962 159.787 88.6618C161.299 88.2273 162.873 89.1021 163.302 90.6156Z" fill="url(#paint0_linear_6447_154717)" stroke="#666565"/>
<ellipse cx="3.34866" cy="3.34866" rx="3.34866" ry="3.34866" transform="matrix(0.961116 -0.276145 0.27298 0.96202 156.432 89.1055)" fill="white"/>
<path fill-rule="evenodd" clip-rule="evenodd" d="M140.136 87.0109C138.447 88.0298 137.288 89.7166 136.944 91.6562C136.673 93.1905 136.516 92.5109 139.863 104.312C143.215 116.131 142.976 115.426 144.033 116.621C145.047 117.767 146.368 118.501 147.876 118.757C149.319 119.001 149.497 118.971 153.603 117.79L157.262 116.738L157.985 113.055L158.698 109.359L155.141 110.359C151.176 111.457 151.207 111.453 150.168 111.068C149.629 110.868 148.99 110.377 148.578 109.847C148.398 109.615 147.83 107.704 145.045 97.9666L141.726 86.3628L141.215 86.5153C140.934 86.5992 140.449 86.8222 140.136 87.0109Z" fill="#0E4AA4"/>
</g>
</g>
<path fill-rule="evenodd" clip-rule="evenodd" d="M157.104 44.2368C157.418 43.9211 157.922 43.9211 158.236 44.2368L160.824 46.9596C162.352 46.1521 164.154 45.7683 166 45.7683C167.846 45.7683 169.648 46.1521 171.176 46.9596L173.764 44.2368C174.078 43.9211 174.582 43.9211 174.896 44.2368C175.211 44.5524 175.211 45.1123 174.896 45.428L172.47 47.8105C175.19 49.8217 176.999 53.0071 176.999 56.6596C176.999 56.7497 177.001 56.9104 176.999 57H155.001C154.999 56.9104 155.001 56.7497 155.001 56.6596C155.001 53.0071 156.81 49.8217 159.53 47.8105L157.104 45.428C156.789 45.1123 156.789 44.5524 157.104 44.2368ZM161.633 53.2561C162.225 53.2561 162.765 52.8303 162.765 52.2351C162.765 51.6398 162.225 51.0438 161.633 51.0438C161.04 51.0438 160.662 51.6398 160.662 52.2351C160.662 52.8303 161.04 53.2561 161.633 53.2561ZM171.338 52.2351C171.338 52.8303 170.96 53.2561 170.367 53.2561C169.775 53.2561 169.235 52.8303 169.235 52.2351C169.235 51.6398 169.775 51.0438 170.367 51.0438C170.96 51.0438 171.338 51.6398 171.338 52.2351Z" fill="#80D8C8"/>
<path fill-rule="evenodd" clip-rule="evenodd" d="M139.928 130.345C140.34 131.017 140.293 131.87 140.105 132.55C139.916 133.231 139.375 133.974 138.63 134.19C138.219 133.517 138.291 132.731 138.479 132.05C138.733 131.344 139.3 130.667 139.928 130.345ZM146.459 140.976C146.582 140.321 146.651 139.915 146.683 139.22C144.349 139.226 142.9 136.458 144.52 134.609C143.625 134.05 142.622 133.989 141.771 134.323C141.183 134.554 140.841 134.839 140.5 135.125C140.224 135.385 139.987 135.553 139.66 135.682C139.268 135.836 138.955 135.807 138.512 135.829C138.068 135.851 137.625 135.874 137.167 136.053C136.251 136.413 135.474 137.324 135.268 138.542C134.928 140.192 136.053 142.708 138.243 144.275C139.138 144.834 140.123 145.433 140.974 145.099C141.366 144.945 141.511 144.737 141.747 144.568C142.023 144.308 142.299 144.048 142.823 143.843C143.411 143.612 143.724 143.641 144.102 143.644C144.415 143.673 144.637 143.662 145.029 143.508C145.945 143.149 146.216 141.905 146.459 140.976Z" fill="#353738" stroke="#353738" stroke-width="1.5" stroke-miterlimit="10" stroke-linecap="round" stroke-linejoin="round"/>
<g opacity="0.5">
<path d="M120.837 45.4258C120.523 45.4258 120.268 42.6443 120.268 39.2129C120.268 35.7817 120.523 33 120.837 33C121.152 33 121.407 35.7817 121.407 39.2129C121.407 42.6443 121.152 45.4258 120.837 45.4258Z" fill="#CFD1FF"/>
<path d="M114.624 39.2138C114.624 38.8994 117.405 38.6445 120.837 38.6445C124.268 38.6445 127.05 38.8994 127.05 39.2138C127.05 39.5282 124.268 39.7831 120.837 39.7831C117.405 39.7831 114.624 39.5282 114.624 39.2138Z" fill="#CFD1FF"/>
<path d="M123.211 36.8535L118.463 41.576L123.211 36.8535Z" fill="#CFD1FF"/>
<path d="M118.463 41.5774C118.241 41.3546 119.124 40.1167 120.435 38.8126C121.747 37.5085 122.989 36.6321 123.211 36.8549C123.433 37.0778 122.55 38.3159 121.238 39.6198C119.927 40.9239 118.685 41.8003 118.463 41.5774Z" fill="#CFD1FF"/>
<path d="M123.197 41.5877L118.474 36.8398L123.197 41.5877Z" fill="#CFD1FF"/>
<path d="M118.476 36.8407C118.699 36.619 119.937 37.5022 121.241 38.8134C122.545 40.1245 123.421 41.3671 123.198 41.5889C122.975 41.8106 121.738 40.9275 120.433 39.6163C119.129 38.3052 118.253 37.0625 118.476 36.8407Z" fill="#BBBEFF"/>
<g opacity="0.4">
<path d="M184.955 150.905L183.485 148.205C183.469 148.174 183.443 148.149 183.413 148.132L180.718 146.652C180.592 146.582 180.592 146.401 180.719 146.332L183.419 144.861C183.45 144.845 183.475 144.82 183.492 144.789L184.972 142.095C185.041 141.968 185.223 141.969 185.292 142.095L186.762 144.795C186.779 144.826 186.804 144.851 186.835 144.868L189.529 146.348C189.656 146.417 189.655 146.599 189.528 146.668L186.829 148.138C186.798 148.155 186.773 148.18 186.756 148.211L185.276 150.905C185.206 151.032 185.024 151.031 184.955 150.905Z" fill="#7BB0FF"/>
</g>
<g opacity="0.4">
<path d="M148.03 179.447L147.214 177.947C147.204 177.93 147.19 177.916 147.173 177.907L145.676 177.084C145.606 177.046 145.606 176.945 145.677 176.906L147.177 176.09C147.194 176.08 147.208 176.066 147.217 176.049L148.039 174.553C148.078 174.482 148.179 174.483 148.217 174.553L149.034 176.053C149.043 176.07 149.057 176.084 149.074 176.093L150.571 176.916C150.641 176.954 150.641 177.055 150.571 177.094L149.071 177.91C149.054 177.92 149.04 177.934 149.031 177.951L148.208 179.447C148.17 179.518 148.069 179.517 148.03 179.447Z" fill="#BBD6FF"/>
</g>
</g>
<defs>
<linearGradient id="paint0_linear_6447_154717" x1="156.876" y1="90.4157" x2="161.395" y2="95.8813" gradientUnits="userSpaceOnUse">
<stop stop-color="#633BB3"/>
<stop offset="1" stop-color="#6941B7"/>
</linearGradient>
<clipPath id="clip0_6447_154717">
<rect width="33.4866" height="33.4866" fill="white" transform="matrix(0.961116 -0.276145 0.27298 0.96202 135.292 88.2109)"/>
</clipPath>
</defs>
</svg>
