<?xml version="1.0" encoding="utf-8"?>
<!-- Generator: Adobe Illustrator 27.1.0, SVG Export Plug-In . SVG Version: 6.00 Build 0)  -->
<svg version="1.1" id="Layer_1" xmlns="http://www.w3.org/2000/svg" xmlns:xlink="http://www.w3.org/1999/xlink" x="0px" y="0px"
	 viewBox="0 0 119.1 26" style="enable-background:new 0 0 119.1 26;" xml:space="preserve">
<style type="text/css">
	.st0{fill:url(#SVGID_1_);stroke:#FFFFFF;stroke-width:0.25;stroke-miterlimit:10;}
	
		.st1{fill:url(#SVGID_00000135673685118852875180000001289695204439948932_);stroke:#FFFFFF;stroke-width:0.25;stroke-miterlimit:10;}
	.st2{fill:#4570B7;}
	.st3{fill:#3DB372;}
</style>
<linearGradient id="SVGID_1_" gradientUnits="userSpaceOnUse" x1="26.4747" y1="-1612.2726" x2="2.0615" y2="-1612.2726" gradientTransform="matrix(1 0 0 -1 0 -1602.1101)">
	<stop  offset="7.458905e-08" style="stop-color:#3CB371"/>
	<stop  offset="1" style="stop-color:#3B71CA"/>
</linearGradient>
<path class="st0" d="M24.3,18.1v-7l-10,5.1c-0.1,0.1-0.3,0.1-0.4,0L2.4,10C2,9.8,2,9.4,2.4,9.2L14,1.9c0.2-0.1,0.3-0.1,0.4,0l12,6.6
	c0.2,0.1,0.3,0.3,0.3,0.3v9.3c0,0.3-0.2,0.4-0.4,0.4h-1.4C24.5,18.5,24.3,18.3,24.3,18.1z"/>
<linearGradient id="SVGID_00000112625149208957718270000013205038755424319646_" gradientUnits="userSpaceOnUse" x1="23.06" y1="-1620.3699" x2="4.2194" y2="-1620.3699" gradientTransform="matrix(1 0 0 -1 0 -1602.1101)">
	<stop  offset="4.262231e-08" style="stop-color:#3CB371"/>
	<stop  offset="1" style="stop-color:#3B71CA"/>
</linearGradient>
<path style="fill:url(#SVGID_00000112625149208957718270000013205038755424319646_);stroke:#FFFFFF;stroke-width:0.25;stroke-miterlimit:10;" d="
	M13.9,24.7l-9.5-5.4C4.2,19.2,4.1,19,4.1,19v-6.8c0-0.3,0.3-0.5,0.6-0.3l9.3,5.2l8.4-4.3c0.3-0.2,0.6,0.1,0.6,0.3v6.8
	c0,0.2-0.1,0.3-0.3,0.3l-8.5,4.4C14.1,24.7,14.1,24.7,13.9,24.7z"/>
<g>
	<g>
		<path class="st2" d="M31.7,5.1h2.1v15h-2.1V5.1z M32.8,18.1h8.6v2h-8.6V18.1z"/>
		<path class="st2" d="M43.6,5.1h2.1v2.1h-2.1V5.1z M43.6,9.4h2.1v10.7h-2.1V9.4z"/>
		<path class="st2" d="M48.9,9.4H51v10.7h-2.1V9.4z M55.4,13.6c0-0.8-0.2-1.3-0.6-1.8c-0.4-0.4-0.9-0.6-1.7-0.6
			c-0.7,0-1.2,0.2-1.6,0.5c-0.4,0.4-0.6,0.9-0.6,1.5l-0.2-2.1c0.3-0.6,0.8-1.1,1.3-1.5c0.5-0.4,1.1-0.5,1.8-0.5
			c1.2,0,2.1,0.4,2.7,1.1c0.6,0.8,1,1.8,1,3.2v6.5h-2.1V13.6z"/>
		<path class="st2" d="M62.1,19.8c-0.6-0.3-1-0.8-1.3-1.5c-0.3-0.7-0.4-1.4-0.4-2.4v-2.4c0-0.9,0.1-1.7,0.4-2.4
			c0.3-0.7,0.7-1.2,1.2-1.5c0.5-0.3,1.2-0.5,1.9-0.5c0.6,0,1.2,0.2,1.7,0.5c0.5,0.3,1,0.8,1.3,1.4l-0.2,2.2c0-0.5-0.1-0.8-0.2-1.2
			c-0.2-0.3-0.4-0.6-0.7-0.7c-0.3-0.2-0.7-0.3-1.1-0.3c-0.7,0-1.2,0.2-1.6,0.6s-0.6,1-0.6,1.8v2.3c0,0.8,0.2,1.4,0.6,1.8
			c0.4,0.4,0.9,0.6,1.6,0.6c0.4,0,0.8-0.1,1.1-0.3c0.3-0.2,0.6-0.4,0.7-0.8c0.2-0.3,0.2-0.7,0.2-1.2l0.1,2.3c-0.2,0.5-0.6,1-1,1.3
			c-0.5,0.4-1.1,0.5-1.8,0.5C63.3,20.3,62.7,20.1,62.1,19.8z M62.2,24c-0.6-0.3-1.1-0.7-1.5-1.3l1.4-1.3c0.3,0.4,0.6,0.7,1,0.9
			c0.4,0.2,0.8,0.3,1.2,0.3c0.8,0,1.4-0.2,1.9-0.7c0.4-0.4,0.7-1.1,0.7-1.9V9.4h2.1v10.4c0,1-0.2,1.8-0.5,2.5
			c-0.4,0.7-0.9,1.2-1.6,1.6c-0.7,0.4-1.5,0.5-2.5,0.5C63.5,24.4,62.8,24.3,62.2,24z"/>
		<path class="st2" d="M73.8,19.7c-0.7-0.4-1.2-0.9-1.5-1.6c-0.3-0.7-0.5-1.5-0.5-2.5v-1.7c0-1,0.2-1.8,0.5-2.5
			c0.3-0.7,0.9-1.2,1.5-1.6s1.5-0.5,2.4-0.5c0.9,0,1.7,0.2,2.4,0.5c0.7,0.4,1.2,0.9,1.5,1.6s0.5,1.5,0.5,2.5v1.8
			c0,1-0.2,1.8-0.5,2.5s-0.9,1.2-1.5,1.6c-0.7,0.4-1.5,0.5-2.4,0.5C75.3,20.2,74.5,20.1,73.8,19.7z M77.9,17.6
			c0.4-0.5,0.6-1.1,0.6-1.9v-1.8c0-0.8-0.2-1.5-0.6-1.9c-0.4-0.5-1-0.7-1.7-0.7c-0.7,0-1.3,0.2-1.7,0.7c-0.4,0.5-0.6,1.1-0.6,1.9
			v1.8c0,0.8,0.2,1.5,0.6,1.9c0.4,0.5,1,0.7,1.7,0.7C77,18.2,77.5,18,77.9,17.6z"/>
	</g>
</g>
<g>
	<g>
		<path class="st3" d="M83.7,5.1h2.1v15h-2.1V5.1z M84.7,18.1h8.6v2h-8.6V18.1z"/>
		<path class="st3" d="M96.1,19.4c-0.7-0.5-1-1.4-1-2.5c0-1.1,0.3-1.9,0.9-2.4c0.6-0.5,1.5-0.8,2.7-0.8h3l0.1,1.7h-3.2
			c-0.6,0-1,0.1-1.2,0.4s-0.4,0.6-0.4,1.1c0,0.5,0.2,0.9,0.5,1.2c0.4,0.3,0.9,0.4,1.6,0.4c0.8,0,1.4-0.1,1.8-0.3s0.6-0.4,0.6-0.8
			l0.2,1.5c-0.2,0.3-0.4,0.5-0.7,0.7s-0.6,0.3-0.9,0.4s-0.8,0.1-1.2,0.1C97.7,20.2,96.7,20,96.1,19.4z M101.6,13.3
			c0-0.7-0.2-1.2-0.6-1.6c-0.4-0.4-0.9-0.6-1.6-0.6c-0.4,0-0.8,0.1-1.3,0.2s-0.8,0.3-1.1,0.5l-1.5-1.1c0.4-0.5,0.9-0.9,1.6-1.1
			c0.7-0.3,1.4-0.4,2.2-0.4c0.9,0,1.6,0.2,2.3,0.5c0.6,0.3,1.1,0.8,1.4,1.4c0.3,0.6,0.5,1.3,0.5,2.2v6.9h-2V13.3z"/>
		<path class="st3" d="M106.8,5.1h2.1v15h-2.1V5.1z M109.9,19.8c-0.5-0.3-0.9-0.8-1.1-1.4l0.1-2.2c0,0.5,0.1,0.9,0.2,1.2
			s0.4,0.6,0.7,0.7c0.3,0.2,0.7,0.3,1.1,0.3c0.7,0,1.2-0.2,1.6-0.6s0.6-1,0.6-1.8v-2.3c0-0.8-0.2-1.4-0.6-1.8
			c-0.4-0.4-0.9-0.6-1.6-0.6c-0.4,0-0.8,0.1-1.1,0.2c-0.3,0.2-0.6,0.4-0.7,0.7s-0.2,0.7-0.2,1.2l-0.2-2.1c0.3-0.6,0.7-1.1,1.3-1.5
			c0.5-0.3,1.1-0.5,1.7-0.5c0.8,0,1.4,0.2,1.9,0.5c0.5,0.3,1,0.8,1.2,1.5s0.4,1.4,0.4,2.4v2.3c0,0.9-0.1,1.7-0.4,2.3
			c-0.3,0.6-0.7,1.1-1.3,1.5c-0.6,0.3-1.2,0.5-2,0.5C111,20.2,110.4,20.1,109.9,19.8z"/>
	</g>
</g>
</svg>
