<?xml version="1.0" encoding="utf-8"?>
<!-- Generator: Adobe Illustrator 27.1.0, SVG Export Plug-In . SVG Version: 6.00 Build 0)  -->
<svg version="1.1" id="Layer_1" xmlns="http://www.w3.org/2000/svg" xmlns:xlink="http://www.w3.org/1999/xlink" x="0px" y="0px"
	 viewBox="0 0 500 500" style="enable-background:new 0 0 500 500;" xml:space="preserve">
<style type="text/css">
	.st0{fill:#488FCC;}
	.st1{fill:#95C8EC;}
	.st2{fill:none;stroke:#000000;stroke-miterlimit:10;}
	.st3{fill:#FCB64D;}
	.st4{fill:#FAA629;}
	.st5{fill:#FFDF81;}
	.st6{fill:#465B65;}
</style>
<g>
	<path class="st0" d="M276.4,212.2l46.3,17.6c1.9,0.7,3.5,1.8,5,3.1l-36.2-54.8c-4.8-7.2-14.5-9.2-21.7-4.4
		c-7.2,4.8-9.2,14.5-4.4,21.7L276.4,212.2z"/>
	<path class="st0" d="M252.8,160h-15.5c-38,0-68.8,31.1-68.8,69.5v2.5l26.7,17.7v46.2h90.7v-89.6C285.9,180.7,278.1,160,252.8,160z"
		/>
	<path class="st1" d="M249.9,195h-19.9c-14.2,0-25.8-11.6-25.8-25.8v-13.9c0-14.2,11.6-25.8,25.8-25.8h19.9
		c14.2,0,25.8,11.6,25.8,25.8v13.9C275.7,183.5,264.2,195,249.9,195z"/>
	<path class="st2" d="M216.2,77.7"/>
	<path class="st3" d="M195.4,249.9l-26.9-17.8v77.8c0,7.4,6,13.4,13.4,13.4l0,0c7.4,0,13.4-6,13.4-13.4L195.4,249.9L195.4,249.9z"/>
	<path class="st3" d="M277,86.1L261.2,67l-56.1,19.1l-0.9,27.6l-8.9-10.4V84.2c-0.8,3.4-1.3,7-1.3,10.7v10.1
		c0,25.1,20.3,45.4,45.4,45.4h1c25.1,0,45.4-20.3,45.4-45.4l-8.9,8.8L277,86.1L277,86.1z"/>
	<path class="st4" d="M240.5,150.3h-1c-6,0-11.6-1.2-16.9-3.2v15.2c0,8.4,6.8,15.2,15.2,15.2h5.7c8.4,0,15.2-6.8,15.2-15.2v-15.9
		C253.2,148.9,247,150.3,240.5,150.3z"/>
	<path class="st5" d="M258.4,49.8l-4.1-9.1h-13.5c-24.4,0-44.2,19.2-45.3,43.3c0,0.1,0,0.1-0.1,0.2v1.9l0,0v17.2l8.9,10.4l0.9-27.6
		L261.3,67L277,86.1v27.6l8.9-8.8V81.4C285.9,65.3,273.9,51.9,258.4,49.8z"/>
	<path class="st3" d="M310.2,257.9l-60.5-23c-8.1-3.1-12.2-12.1-9.1-20.2l0,0c3.1-8.1,12.1-12.2,20.2-9.1l60.5,23
		c8.1,3.1,12.2,12.1,9.1,20.2l0,0C327.4,256.9,318.3,261,310.2,257.9z"/>
	<polygon class="st6" points="241.4,295.9 239.8,295.9 195.4,295.9 204.3,459.3 232.6,459.3 240.6,310.5 248.7,459.3 277,459.3 
		285.9,295.9 	"/>
</g>
</svg>
