<?xml version="1.0" encoding="utf-8"?>
<!-- Designed by Vexels.com - 2016 All Rights Reserved - https://vexels.com/terms-and-conditions/  -->

<svg version="1.1" id="Layer_1" xmlns="http://www.w3.org/2000/svg" xmlns:xlink="http://www.w3.org/1999/xlink" x="0px" y="0px"
	 width="1200px" height="1200px" viewBox="0 0 1200 1200" enable-background="new 0 0 1200 1200" xml:space="preserve">
<g>
	<g>
		<defs>
			<path id="SVGID_1_" d="M599.409,474.561c21.429,72.591-33.344,117.059-92.244,133.359c-8.904,2.461-11.175-35.093-6.466-36.471
				c22.836-6.67,43.479-21.527,53.733-40.801C577.813,486.647,571.241,489.052,599.409,474.561z"/>
		</defs>
		<use xlink:href="#SVGID_1_"  overflow="visible" fill-rule="evenodd" clip-rule="evenodd" fill="#50494E"/>
		<clipPath id="SVGID_2_">
			<use xlink:href="#SVGID_1_"  overflow="visible"/>
		</clipPath>
		<g clip-path="url(#SVGID_2_)">
			<path fill-rule="evenodd" clip-rule="evenodd" fill="#50494E" d="M450.125,349.439c49.996,8.381,101.088-9.024,109.113,43.849
				c12.095,79.769-66.722,35.162-136.315,87.817c-31.804,24.066-21.133,62.041,34.006,17.396
				c29.325-23.737,113.169-33.33,140.917-2.424c3.279,3.663,10.033,8.117,12.294,12.428l16.318-48.849L600.69,339.545
				L450.125,349.439z"/>
		</g>
	</g>
	<path fill-rule="evenodd" clip-rule="evenodd" fill="#393235" d="M558.729,522.443c7.141,9.755,2.304,33.626-1.517,41.161
		c-21.12,41.564-48.886,27.313-50.99,30.708c-0.028,0.042-1.008,7.729-0.439,13.664c0.444,0.083,0.902,0.064,1.383-0.055
		c58.9-16.3,113.673-60.768,92.244-133.359C573.119,488.09,577.087,486.896,558.729,522.443z"/>
	<path fill-rule="evenodd" clip-rule="evenodd" fill="#E62A37" d="M631.912,457.1c32.049-2.539,129.672-10.268,143.979,10.601
		c6.818,9.945,9.866,35.398,6.938,52.808c-11.217,66.837,22.345,183.285-83.571,168.734c-23.275-3.196-10.227-16.888-10.648-46.124
		c-0.823-57.345,10.662-80.306,13.437-125.468c1.531-24.931-39.163,5.768-43.238-18.58
		C658.443,496.832,631.621,457.118,631.912,457.1z"/>
	<path fill-rule="evenodd" clip-rule="evenodd" fill="#C02D31" d="M633.855,461.216c29.884-2.359,120.912-9.57,134.247,9.884
		c6.369,9.274,9.2,33.012,6.48,49.242c-7.271,43.275,1.027,123.419-19.82,156.296c-9.413,14.839-27.91,5.185-58.108,1.036
		c-21.716-2.983-9.542-15.749-9.931-43.002c-0.768-53.474,9.94-74.889,12.525-116.995c1.429-23.247-36.518,5.38-40.31-17.317
		C658.591,498.275,633.581,461.239,633.855,461.216z"/>
	<path fill-rule="evenodd" clip-rule="evenodd" fill="#E62A37" d="M633.855,462.863c29.116-2.341,117.799-9.501,130.796,9.81
		c6.203,9.204,8.964,32.766,6.309,48.867c-6.813,41.29,1.318,124.922-19.019,157.411c-10.13,16.175-24.926,3.206-56.901-1.263
		c-21.147-2.96-9.297-15.638-9.676-42.692c-0.749-53.058,9.681-74.307,12.206-116.102c1.392-23.067-35.574,5.337-39.269-17.193
		C657.957,499.639,633.591,462.882,633.855,462.863z"/>
	<path fill-rule="evenodd" clip-rule="evenodd" fill="#9B2B2C" d="M672.814,465.846c32.054-2.54,63.562-8.673,77.869,12.197
		c6.832,9.954,9.871,35.407,6.947,52.812c-11.226,66.846,22.341,183.281-83.576,168.734c-23.275-3.191-10.232-16.887-10.653-46.129
		c-0.823-57.341,10.662-80.297,13.441-125.464c1.536-24.926,2.428-22.488-1.646-46.832
		C674.822,478.927,672.518,465.869,672.814,465.846z"/>
	<path fill-rule="evenodd" clip-rule="evenodd" fill="#7A2728" d="M737.542,467.225c-14.552,24.057-3.816,182.513,11.591,176.588
		c0.351-0.139,1.356-0.162,2.562-0.162c-1.97,12.248-5.264,23.358-10.768,32.461l-37.808-19.991L689.826,464.32
		C708.009,462.669,724.988,461.651,737.542,467.225z"/>
	<g>
		<defs>
			<path id="SVGID_3_" d="M586.888,692.837c-7.678,36.67-6.577,142.327-9.334,210.765l-4.889,214.548
				c-0.537,9.098,57.41,16.323,59.728,7.267c2.123-8.279,2.609-343.518,3.446-371.164
				C638.244,674.053,623.554,701.643,586.888,692.837z"/>
		</defs>
		<use xlink:href="#SVGID_3_"  overflow="visible" fill-rule="evenodd" clip-rule="evenodd" fill="#293151"/>
		<clipPath id="SVGID_4_">
			<use xlink:href="#SVGID_3_"  overflow="visible"/>
		</clipPath>
	</g>
	<path fill-rule="evenodd" clip-rule="evenodd" fill="#E6B88E" d="M506.536,579.117l-1.073-3.039
		c-0.745-0.967-53.474-1.818-65.167-6.152c-22.678-8.404-23.358-23.562-24.996-22.757c-5.657,2.784-27.438,14.639-33.247,17.743
		c9.202,24.667,37.137,36.133,55.657,40.893c16.79,4.302,54.653,1.327,60.005-2.322
		C504.372,598.248,507.161,580.889,506.536,579.117z"/>
	<path fill-rule="evenodd" clip-rule="evenodd" fill="#CDCBCA" d="M488.821,571.504c0.027-0.028,16.147-7.188,17.683-4.246
		c8.617,16.503,8.339,25.014,3.682,44.413c-3.247,0.986-29.228,6.545-26.231,3.039C494.159,602.827,488.728,571.638,488.821,571.504
		z"/>
	<path fill-rule="evenodd" clip-rule="evenodd" fill="#E6B88E" d="M433.164,531.462c-1.818-1.129-0.8-0.699-1.647-1.434
		c0.171-2.424-3.293-7.359-1.637-16.79c1.004-5.735,0.819-12.128-0.213-18.187c0.13-3.057-5.745-9.098-13.145-5.347
		c-5.703,2.9-3.205,19.015-4.473,25.666c-0.708-3.201-6.984-40.56-17.292-30.574c-4.813,4.667-6.062,22.151-5.178,28.937
		c-2.081,0.421-4.824-29.954-14.19-25.759c-9.161,4.103-4.963,33.96-2.357,45.375c2.384,10.476,5.837,21.092,8.557,30.551
		c3.002,10.435,28.749,2.738,38.213,4.861c4.311-12.845,3.557-13.358,25.157-24.149c4.274-2.128,11.998-2.678,10.143-10.472
		c-1.688-7.123-15.74-4.07-20.916-2.909L433.164,531.462z"/>
	<path fill-rule="evenodd" clip-rule="evenodd" fill="#A04C2D" d="M683.443,364.051l46.864-35.879
		c-5.666,25.62-26.633,89.894-4.533,89.894c3.404,0-12.664,11.67-31.096-4.898c-3.973-3.576-1.152,17.308,16.369,19.464
		c7.988,0.98,3.33,5.56-4.44,6.549c-9.612,1.212-29.01,2.128-33.58-16.98c-0.615-2.549-11.934-38.506-14.112-45.014L683.443,364.051
		z"/>
	<path fill-rule="evenodd" clip-rule="evenodd" fill="#1D5885" d="M714.17,698.475c5.717,28.016-4.514,365.206-5.698,426.862
		c-0.176,9.14-56.046,10.796-54.769,1.036c1.915-14.709,2.983-274.031,3.636-360.229c-22.29-4.991-54.381-18.085-70.426-33.909
		c-10.976-10.833,22.702-42.979,19.991-57.799c-2.387-13.044-6.124-33.011-4.736-46.42c0.232-2.197,14.061,3.145,16.587,3.821
		c8.473,2.275,74.973,6.79,77.082,27.336c-1.947,2.54,1.355,19.681,3.159,39.672C703.707,699.604,708.776,699.728,714.17,698.475z"
		/>
	<path fill-rule="evenodd" clip-rule="evenodd" fill="#2A4169" d="M714.613,701.588c4.704,43.682-4.991,363.828-6.142,423.75
		c-0.014,0.703-0.361,1.369-0.99,1.985c-20.93,3.571-45.477,7.41-37.211-8.687c26.129-50.866,22.198-274.484,19.982-348.06
		c-1.466-48.668-28.423-10.93-47.341-52.891L714.613,701.588z"/>
	<path fill-rule="evenodd" clip-rule="evenodd" fill="#C59A70" d="M511.597,309.004c-3.594-9.598-40.269-20.458-28.77,27.382
		c1.328,5.56,11.578,23.807,28.506,24.029C528.891,360.638,517.087,325.582,511.597,309.004z"/>
	<g>
		<defs>
			<path id="SVGID_5_" d="M563.577,85.002c100.024,38.381,133.021,25.726,154.682,59.737
				c22.609,35.49,26.295,117.512,12.225,184.155c-8.011,37.979-24.672,67.003-39.658,89.52
				c-4.343,17.086-90.093,18.113-133.831-3.737c-29.417-14.709-26.503-22.942-42.049-57.193
				c-21.563-47.489-42.706-69.261-47.984-139.728c-1.374-18.256-3.099-53.308,14.089-56.98
				C468.021,96.107,541.278,67.837,563.577,85.002z"/>
		</defs>
		<use xlink:href="#SVGID_5_"  overflow="visible" fill-rule="evenodd" clip-rule="evenodd" fill="#A04C2D"/>
		<clipPath id="SVGID_6_">
			<use xlink:href="#SVGID_5_"  overflow="visible"/>
		</clipPath>
		<g clip-path="url(#SVGID_6_)">
			<path fill-rule="evenodd" clip-rule="evenodd" fill="#76321B" d="M498.673,122.398c-17.706,34.774,30.042,47.84,55.884,57.84
				c41.98,16.23,108.534-17.318,129.122,0.176c16.138,13.719-5.176-30.828-41.86-30.828c-28.118,0-106.883,7.854-122.073-19.191
				C516.518,124.651,504.043,111.862,498.673,122.398z"/>
			<path fill-rule="evenodd" clip-rule="evenodd" fill="#7B331C" d="M512.535,161.848c-67.84-7.206-10.824,163.771-10.037,155.69
				c5.49-56.236-11.36-68.794,9.232-131.796C514.77,176.432,521.31,162.782,512.535,161.848z"/>
		</g>
	</g>
	<path fill-rule="evenodd" clip-rule="evenodd" fill="#666265" d="M689.424,459.866c18.164,20.49,33.862,21.531,33.83,35.18
		c-0.116,55.801-4.26,169.007-10.99,219.664c-3.807,14.783-142.12,22.674-143.849-4.255c-5.467-27.817-5.542-126.703,9.338-199.442
		c3.927-19.233,17.53-29.427,19.862-41.281C599.719,459.089,681.473,460.079,689.424,459.866z"/>
	<path fill-rule="evenodd" clip-rule="evenodd" fill="#50494E" d="M569.03,571.162c6.79-36.517,10.583-68.053,51.782-68.053
		c70.204,0,93.696,213.026-42.938,217.369c31.532,14.325,131.167,6.744,134.391-5.768c2.493-18.732,4.62-46.018,6.327-75.786
		c-2.562-6.513-5.569-12.868-9.103-18.89c-17.572-29.987-16.328-103.96,11.138-133.229c-5.194-7.081-17.498-11.471-31.203-26.938
		c-7.951,0.213-91.536,0.592-93.641,11.23c-2.331,11.859-14.103,20.684-18.03,39.917
		C573.886,529.866,571.042,550.477,569.03,571.162z"/>
	<path fill-rule="evenodd" clip-rule="evenodd" fill="#F3CBA9" d="M688.383,185.484c9.653,25.948,7.78,106.86,0.046,172.786
		c-5.629,47.988,2.738,77.549,0.435,99.353c0.407,17.012-60.051,35.204-81.897,25.107c-41.763-19.297-84.593-48.058-99.612-94.45
		c-14.459-23.316-18.492-198.221-1.078-218.665c10.962-26.235,48.631,10.213,78.835,2.197
		C661.857,153.397,684.044,172.056,688.383,185.484z"/>
	<path fill-rule="evenodd" clip-rule="evenodd" fill="#E6B485" d="M693.628,215.128c-60.861-53.613-141.06-30.153-161.856-17.234
		c-32.012,19.889-31.207,44.621,7.128,41.758c0.333-0.018-42.364,5.527-35.962,67.124c6.619,63.729,28.904,94.242,48.886,116.749
		c24.792,27.928,117.702,53.844,136.93,12.544c0.541,8.034,0.791,15.134,0.111,21.554c0.407,17.012-60.051,35.204-81.897,25.107
		c-41.763-19.297-84.593-48.058-99.612-94.45c-14.459-23.316-18.492-198.221-1.078-218.665
		c10.962-26.235,48.631,10.213,78.835,2.197c76.745-18.414,98.932,0.245,103.271,13.673
		C690.858,192.14,692.569,202.422,693.628,215.128z"/>
	<path fill-rule="evenodd" clip-rule="evenodd" fill="#F3CBA9" d="M690.927,308.232c3.612-10.574,43.238-23.562,32.211,28.941
		c-1.281,6.105-11.868,26.314-30.319,27.086C673.688,365.055,685.464,326.465,690.927,308.232z"/>
	<path fill-rule="evenodd" clip-rule="evenodd" fill="#FFFFFF" d="M539.242,251.964c-17.859-2.567-34.219,8.409-36.541,24.524
		c-2.317,16.119,10.278,31.267,28.146,33.844c17.854,2.567,34.228-8.414,36.541-24.533
		C569.705,269.684,557.101,254.541,539.242,251.964z"/>
	<path fill-rule="evenodd" clip-rule="evenodd" fill="#FFFFFF" d="M639.077,251.909c17.775-3.081,34.45,7.429,37.225,23.469
		c2.784,16.041-9.362,31.545-27.151,34.625c-17.785,3.081-34.45-7.423-37.235-23.465
		C609.141,270.498,621.292,254.994,639.077,251.909z"/>
	<path fill-rule="evenodd" clip-rule="evenodd" fill="#1A1414" d="M637.791,266.178c10.033-0.148,18.275,7.872,18.423,17.896
		c0.148,10.033-7.863,18.28-17.9,18.428c-10.028,0.139-18.28-7.873-18.423-17.91C619.747,274.568,627.759,266.317,637.791,266.178z"
		/>
	<path fill-rule="evenodd" clip-rule="evenodd" fill="#FFFFFF" d="M629.414,275.863c0.259-2.29,2.317-3.931,4.607-3.682
		c2.29,0.264,3.936,2.322,3.673,4.611c-0.25,2.29-2.313,3.936-4.602,3.677C630.806,280.207,629.155,278.149,629.414,275.863z"/>
	<path fill-rule="evenodd" clip-rule="evenodd" fill="#BC8E61" d="M638.85,326.544c0.074-1.661,1.48-2.956,3.145-2.877
		c1.661,0.07,2.951,1.475,2.882,3.141c-0.226,5.162-1.397,10.125-3.34,14.778c-5.014,12.026-15.166,22.155-27.507,29.107
		c-12.229,6.892-26.707,10.685-40.463,10.083c-6.697-0.287-13.242-1.623-19.288-4.14c-1.536-0.638-2.266-2.41-1.624-3.941
		c0.638-1.54,2.405-2.271,3.941-1.628c5.389,2.239,11.23,3.428,17.225,3.691c12.613,0.546,25.944-2.956,37.262-9.334
		c11.221-6.318,20.407-15.435,24.875-26.152C637.647,335.24,638.665,330.966,638.85,326.544z"/>
	<path fill-rule="evenodd" clip-rule="evenodd" fill="#BC8E61" d="M582.513,387.562c-0.032-0.731,9.205,0.389,17.253-1.707
		c7.535-1.961,13.904-7.165,14.047-6.716c-0.032,7.317-6.022,12.665-12.285,14.204C590.395,396.082,583.568,391.073,582.513,387.562
		z"/>
	<path fill-rule="evenodd" clip-rule="evenodd" fill="#BC8E61" d="M650.224,339.254c-5.948-9.644-12.354-12.378-23.057-11.045
		C636.204,315.799,655.085,324.744,650.224,339.254z"/>
	<path fill-rule="evenodd" clip-rule="evenodd" fill="#1A1414" d="M534.274,267.343c10.028-0.148,18.275,7.872,18.423,17.9
		c0.134,10.033-7.877,18.28-17.905,18.423c-10.032,0.148-18.275-7.873-18.423-17.9C516.222,275.734,524.238,267.487,534.274,267.343
		z"/>
	<path fill-rule="evenodd" clip-rule="evenodd" fill="#FFFFFF" d="M525.893,277.029c0.25-2.29,2.322-3.936,4.607-3.677
		c2.29,0.259,3.945,2.317,3.682,4.616c-0.263,2.285-2.327,3.927-4.611,3.668C527.286,281.382,525.634,279.319,525.893,277.029z"/>
	<path fill-rule="evenodd" clip-rule="evenodd" fill="#A04C2D" d="M710.363,298.431l-14.764-61.68
		c-0.44,14.209-12.396,100.741-21.818,108.577C693.744,350.712,697.81,295.919,710.363,298.431z"/>
	<path fill-rule="evenodd" clip-rule="evenodd" fill="#F3CBA9" d="M501.55,298.445c3.673,29.848,69.145,21.083,70.902-12.891
		C563.216,291.169,524.316,305.836,501.55,298.445z"/>
	<path fill-rule="evenodd" clip-rule="evenodd" fill="#F3CBA9" d="M606.171,286.553c-6.577,29.343,58.021,43.09,71.106,11.684
		C666.69,300.42,625.131,301.16,606.171,286.553z"/>
	<path fill-rule="evenodd" clip-rule="evenodd" fill="#E6B485" d="M568.942,233.62c-9.565-28.506-71.952-6.837-66.893,26.804
		C509.982,253.084,545.158,230.928,568.942,233.62z"/>
	<path fill-rule="evenodd" clip-rule="evenodd" fill="#F3CBA9" d="M680.566,259.406c7.622-29.084-56.453-45.107-70.639-14.191
		C620.575,243.412,662.148,244.143,680.566,259.406z"/>
	<path fill-rule="evenodd" clip-rule="evenodd" fill="#1A1414" d="M631.093,1115.375c0.592-3.566-26.11-5-56.98-3.168
		c-21.009,1.23-76.023,9.306-65.144,27.9c14.306,7.137,89.219,9.172,121.106,3.548
		C633.489,1141.147,637.398,1116.758,631.093,1115.375z"/>
	<path fill-rule="evenodd" clip-rule="evenodd" fill="#1A1414" d="M656.316,1115.139c-0.662-3.668,23.214-3.228,51.365-0.666
		c19.153,1.743,69.482,11.249,60.227,30.023c-12.752,6.985-80.824,7.364-110.024,0.897
		C654.692,1142.757,650.635,1116.406,656.316,1115.139z"/>
	<g>
		<defs>
			<path id="SVGID_7_" d="M712.305,518.007l-6.244-37.988c74.973-10.31,111.865,46.082,119.136,106.763
				c1.101,9.167-36.365,5.777-37.026,0.916C782.834,547.975,753.61,510.907,712.305,518.007z"/>
		</defs>
		<use xlink:href="#SVGID_7_"  overflow="visible" fill-rule="evenodd" clip-rule="evenodd" fill="#666265"/>
		<clipPath id="SVGID_8_">
			<use xlink:href="#SVGID_7_"  overflow="visible"/>
		</clipPath>
		<g clip-path="url(#SVGID_8_)">
			<path fill-rule="evenodd" clip-rule="evenodd" fill="#50494E" d="M561.097,604.409c15.782-48.178,6.235-101.3,59.714-101.3
				c80.676,0,24.755,71.24,66.379,147.929c19.024,35.06,58.173,30.208,22.299-31.004c-19.071-32.544-15.976-116.897,18.738-139.682
				c4.112-2.701,9.528-8.705,14.135-10.301l-45.846-23.456l-122.614,7.461L561.097,604.409z"/>
		</g>
	</g>
	<path fill-rule="evenodd" clip-rule="evenodd" fill="#F3CBA9" d="M796.64,583.081l-3.168,0.602
		c-1.073,0.601-9.825,52.591-15.856,63.502c-11.712,21.166-26.804,19.57-26.244,21.309c1.901,6.004,10.351,29.311,12.553,35.528
		c25.763-5.402,41.286-31.295,48.765-48.895c6.776-15.953,9.519-53.835,6.707-59.681C815.225,588.086,798.476,582.73,796.64,583.081
		z"/>
	<path fill-rule="evenodd" clip-rule="evenodd" fill="#9B2B2C" d="M714.757,479.103c-27.169,12.202-25.213,88.049-23.02,113.641
		c1.235,14.366,13.025,53.265,26.249,57.637c4.028,11.078,7.368,7.771,1.915,26.152c-0.879,2.947-16.281,1.559-17.258,3.959
		c-46.073-15.916-36.836-171.708-12.979-212.522C699.632,466.517,710.677,469.459,714.757,479.103z"/>
	<path fill-rule="evenodd" clip-rule="evenodd" fill="#F3CBA9" d="M715.996,667.767c-0.379,2.1-0.347,0.999-0.726,2.058
		c-2.322,0.726-5.624,5.763-15,7.71c-5.698,1.184-11.577,3.71-16.822,6.901c-2.896,1.004-6.342,8.696-0.13,14.191
		c4.797,4.237,18.853-4.029,25.5-5.31c-2.715,1.851-35.125,21.453-22.035,27.35c6.115,2.748,22.817-2.539,28.797-5.846
		c1.166,1.771-26.059,15.518-18.705,22.678c7.188,7.003,33.395-7.914,43.044-14.533c8.862-6.091,17.461-13.21,25.25-19.223
		c8.594-6.642-8.058-27.734-9.575-37.313c-13.529,0.731-13.728,1.619-31.721-14.482c-3.552-3.187-6.91-10.162-13.478-5.569
		c-5.999,4.204,2.017,16.138,5.014,20.518L715.996,667.767z"/>
	<path fill-rule="evenodd" clip-rule="evenodd" fill="#BC8E61" d="M578.1,244.971c1.67-1.092,3.908-0.611,4.995,1.059
		c1.091,1.674,0.615,3.918-1.06,5c-0.698,0.458-1.401,1.045-2.095,1.743l-0.162,0.148c-8.284,8.478-11.966,29.505-13.122,49.195
		c-1.157,19.477-0.009,37.086,1.568,40.07c1.045,1.216,1.142,2.969,0.291,4.292c-1.341,2.678-1.563,4.741-1.008,6.212
		c0.347,0.953,1.096,1.73,2.081,2.322l0.018,0.004v-0.004c1.207,0.698,2.771,1.142,4.529,1.276c4.44,0.356,9.755-1.189,13.668-4.829
		c1.466-1.36,3.751-1.277,5.111,0.189c1.365,1.462,1.281,3.746-0.18,5.111c-5.486,5.093-12.932,7.253-19.158,6.753
		c-2.831-0.217-5.472-0.99-7.65-2.266l0.009-0.014c-2.396-1.415-4.228-3.427-5.199-6.022c-1.115-2.988-1.041-6.61,0.763-10.763
		c-1.836-6.216-3.178-24.033-2.063-42.762c1.24-21.041,5.435-43.793,15.153-53.798c0.074-0.088,0.143-0.171,0.217-0.25
		C575.815,246.64,576.911,245.747,578.1,244.971z"/>
	<path fill-rule="evenodd" clip-rule="evenodd" fill="#A04C2D" d="M615.27,126.436c-30.777-9.399-14.269,6.721-52.678,4.454
		c-10.833-0.634-28.266-10.069-28.169-10.241c5.245-8.51,2.997-2.849-25.574-7.105c-3.682-0.537-9.889,4.251-14.399,3.117
		c-13.543-3.414-15.25-14.066-9.676-14.907c1.915-0.292,2.512,3.904,9.695,8.622c8.381,5.504,11.549,2.965,11.651,1.203
		c0.19-3.062-8.927-6.623-14.963-12.04c-3.802-3.414-8.122-9.311-7.303-12.891c0.861-3.774,3.636,2.433,8.733,7.146
		c3.594,3.335,4.838,3.27,5.218,2.831c1.3-1.499,2.511,2.039-2.248-6.096c-8.612-14.714,6.966-34.626,6.462-28.595
		c-0.023,0.176,2.067,18.941,9.02,4.607c13.076-26.985,20.352,28.918,21.471,4.371c0.833-18.229,16.138,19.75,22.711,7.215
		c0.833-1.587,17.322-8.321,10.162,3.265c-10.356,16.754,15.925-4.112,28.474,5.19c2.983,2.216-15.565,20.925-1.605,15.671
		c10.092-3.807-20.472,8.895,12.946,25.083C610.94,130.122,629.525,119.29,615.27,126.436z"/>
	<path fill-rule="evenodd" clip-rule="evenodd" fill="#A04C2D" d="M499.164,235.59c-3.007,2.142-2.516,6.684,0.485,9.408
		c1.818,1.263,18.071-6.272,34.802-10.167c12.632-2.937,25.509-5.291,32.377-5.249c6.309-0.703-0.028-5.19-3.076-6.985
		C548.174,213.481,507.286,228.758,499.164,235.59z"/>
	<path fill-rule="evenodd" clip-rule="evenodd" fill="#C59A70" d="M700.099,324.929c1.624-4.348,18.21-9.255,13.016,12.387
		c-0.606,2.512-5.245,10.768-12.895,10.856C692.273,348.278,697.616,332.418,700.099,324.929z"/>
	<path fill-rule="evenodd" clip-rule="evenodd" fill="#A04C2D" d="M580.672,107.74l31.99-8.585
		c-12.531-8.57-38.997-13.168-57.207-22.498c-11.559-5.92-21.411-18.177-17.058-20.407c0.042-0.555,1.767-7.04-2.632-6.17
		C520.2,50.751,519.844,103.535,580.672,107.74z"/>
	<path fill-rule="evenodd" clip-rule="evenodd" fill="#E6B485" d="M688.85,233.727c3.33,2.47,5.726,7.567-2.498,10.129
		c-1.026,0.245-14.149-5.884-28.538-10.333c-14.172-4.371-29.57-7.044-35.815-7.118c-7.081-0.921-9.005-6.716-5.536-8.663
		C634.173,207.806,679.849,225.858,688.85,233.727z"/>
	<path fill-rule="evenodd" clip-rule="evenodd" fill="#A04C2D" d="M688.314,227.861c3.33,2.47,5.74,7.562-2.493,10.139
		c-1.027,0.241-14.153-5.893-28.534-10.338c-14.177-4.371-29.57-7.049-35.814-7.123c-7.077-0.921-9.015-6.716-5.541-8.659
		C633.637,201.941,679.317,219.993,688.314,227.861z"/>
	<path fill-rule="evenodd" clip-rule="evenodd" fill="#50494E" d="M630.177,487.47c-1.702-10.245-11.628-15.185-17.141-0.435
		c-1.943,5.19-3.34,12.821-3.64,23.515c-0.898,31.633-5.62,67.207,3.705,101.847c3.076,11.452,5.958,25.273,25.921,17.188
		c8.33-3.372-7.331-7.748,10.967-17.465c11.078-5.897,14.015-29.052-3.969-39.63c-10.319-6.073-33.983-20.694-4.801-27.304
		c28.862-6.54,25.176-34.283,2.914-48.691C638.378,492.766,631.033,492.655,630.177,487.47z"/>
	<path fill-rule="evenodd" clip-rule="evenodd" fill="#1A1414" d="M625.395,488.465c-0.263-9.847-8.663-16.244-15.49-3.52
		c-2.396,4.477-4.607,11.323-6.193,21.217c-4.727,29.297-13.395,61.55-9.223,95.491c1.383,11.226,2.285,24.616,21.383,20.713
		c7.974-1.624-5.685-8.543,12.1-14.265c10.777-3.455,16.3-24.482,1.3-37.604c-8.608-7.535-28.256-25.449-0.985-26.295
		c26.98-0.832,27.063-27.327,8.663-44.787C632.176,494.899,625.538,493.451,625.395,488.465z"/>
	<path fill-rule="evenodd" clip-rule="evenodd" fill="#50494E" d="M709.29,499.653c2.544-2.207,6.624-4.704,15.218-6.906
		c47.008-12.068,77.794,53.862,76.18,68.506c-1.6,14.515-7.511,20.976-12.873,23.992c0.125,0.819,0.254,1.633,0.356,2.452
		l0.019,0.046c7.114,0.87,22.743,1.762,35.523,2.095c1.068-0.814,1.633-1.823,1.485-3.057
		c-7.183-59.954-43.284-115.709-116.444-107.101c-0.818,1.48-1.484,3.062-1.966,4.764L709.29,499.653z"/>
	<path fill-rule="evenodd" clip-rule="evenodd" fill="#CDCBCA" d="M786.45,599.441c-0.027-0.018-4.685-17.031-1.549-18.108
		c17.609-6.046,25.985-4.501,44.469,3.02c0.49,3.349,2.081,29.871-0.93,26.378C818.222,598.868,786.575,599.566,786.45,599.441z"/>
</g>
</svg>
