<?xml version="1.0" encoding="utf-8"?>
<!-- Generator: Adobe Illustrator 27.1.0, SVG Export Plug-In . SVG Version: 6.00 Build 0)  -->
<svg version="1.1" id="Layer_1" xmlns="http://www.w3.org/2000/svg" xmlns:xlink="http://www.w3.org/1999/xlink" x="0px" y="0px"
	 viewBox="0 0 118 175" style="enable-background:new 0 0 118 175;" xml:space="preserve">
<style type="text/css">
	.st0{fill-rule:evenodd;clip-rule:evenodd;fill:#6CBE45;}
	.st1{fill-rule:evenodd;clip-rule:evenodd;fill:#244A23;}
	.st2{fill-rule:evenodd;clip-rule:evenodd;fill:#FFB100;stroke:#FFB100;stroke-width:1.3387;stroke-linejoin:round;}
	.st3{fill-rule:evenodd;clip-rule:evenodd;fill:#FFB100;}
	.st4{fill-rule:evenodd;clip-rule:evenodd;fill:#FFC6B7;}
	.st5{fill:#F3A577;}
	.st6{fill-rule:evenodd;clip-rule:evenodd;fill:#FFFFFF;}
	.st7{fill-rule:evenodd;clip-rule:evenodd;fill:#3D3D3D;}
	.st8{fill-rule:evenodd;clip-rule:evenodd;fill:#F3A577;}
	.st9{fill:#FFC6B7;}
	.st10{fill-rule:evenodd;clip-rule:evenodd;fill:#EBE3E3;}
</style>
<path id="Rectangle" class="st0" d="M22.1,96.9h73.7c4.7,0,8.9,2.8,10.7,7.2l5.1,12.4c3,7.3-0.5,15.6-7.8,18.6
	c-1.7,0.7-3.5,1.1-5.4,1.1h-79c-7.9,0-14.2-6.4-14.2-14.2c0-1.9,0.4-3.7,1.1-5.4l5.1-12.4C13.2,99.7,17.4,96.9,22.1,96.9z"/>
<path id="Rectangle-Copy-16" class="st1" d="M43.5,150.3h18c0.6,0,1,0.5,1,1.2V163c0,0.7-0.5,1.2-1,1.2h-18c-0.6,0-1-0.5-1-1.2
	v-11.6C42.4,150.8,42.9,150.3,43.5,150.3z"/>
<path id="Rectangle-Copy-17" class="st2" d="M100.8,82.7c0.2,3.8-1.3,7.3-3.8,9.8c-2.3,2.3-5.5,3.8-9.1,3.8l0,0h-59
	c-3.5,0-6.7-1.4-9-3.7c-2.5-2.4-4-5.8-3.9-9.6l0,0L100.8,82.7z"/>
<path id="Rectangle-Copy-37" class="st1" d="M57.5,150.3h18c0.6,0,1,0.5,1,1.2V163c0,0.7-0.5,1.2-1,1.2h-18c-0.6,0-1-0.5-1-1.2
	v-11.6C56.4,150.8,56.9,150.3,57.5,150.3z"/>
<path id="Rectangle-Copy-18" class="st3" d="M39,25.2h39.3c6.9,0,12.5,5.6,12.5,12.5v46.6H26.5V37.7C26.5,30.8,32.1,25.2,39,25.2z"
	/>
<path id="Path" class="st1" d="M91.3,136.1l-1.9,8.6c-1.4,6-6.7,10.3-12.9,10.3H41.7c-6.2,0-11.5-4.3-12.9-10.3l-1.9-8.6H91.3z"/>
<path id="Mask_00000009563847177503757230000004443828402031486892_" class="st4" d="M42.6,33.8h31.1c6.5,0,11.8,5.3,11.8,11.8v50.9
	H30.8V45.5C30.8,39.1,36.1,33.8,42.6,33.8z"/>
<path id="Path_00000145761668864231295900000001461580663766943674_" class="st3" d="M81.8,33.8L81.8,33.8c2.6,1.3,4.4,4,4.5,7
	l0,0.3l0,0l-0.2,11.6c-3.2-0.2-5.7-2.9-5.7-6.2v-8.8C80.4,36.2,80.9,34.8,81.8,33.8z"/>
<path id="Path_00000132056830311837572050000007969064316548032907_" class="st3" d="M36.5,37.7v8.8c0,3.4-2.8,6.2-6.2,6.2l-0.2,0
	L30,41.1c-0.1-3.4,2-6.3,4.9-7.5C35.9,34.7,36.5,36.1,36.5,37.7z"/>
<path id="Path_00000109012540062535709660000000303271952067511728_" class="st5" d="M46.8,61c0.5-0.2,1,0.1,1.1,0.5
	c1.6,4.4,5,6.3,10.5,5.9c0.5,0,0.9,0.3,0.9,0.8c0,0.5-0.3,0.9-0.8,0.9c-6.2,0.5-10.4-1.9-12.3-7.1C46.1,61.7,46.3,61.2,46.8,61z"/>
<path id="Rectangle-130-Copy-42" class="st6" d="M50.6,41.5c3.9,0,7,3.1,7,7v4.3c0,3.9-3.1,7-7,7s-7-3.1-7-7v-4.3
	C43.6,44.6,46.7,41.5,50.6,41.5z"/>
<path class="st7" d="M52.6,45.6c-0.2,0-0.4,0-0.6,0.1c0.1,0.2,0.1,0.4,0.1,0.6c0,1.3-1,2.3-2.3,2.3c-0.1,0-0.2,0-0.4,0
	c0,0.1,0,0.1,0,0.2v4c0,1.7,1.4,3.1,3.1,3.1c1.7,0,3.1-1.4,3.1-3.1v-4C55.7,47,54.3,45.6,52.6,45.6z"/>
<path id="Rectangle-130-Copy-42_00000005229835306349949640000009842252444024079503_" class="st6" d="M67.1,41.5c-3.9,0-7,3.1-7,7
	v4.3c0,3.9,3.1,7,7,7s7-3.1,7-7v-4.3C74.1,44.6,71,41.5,67.1,41.5z"/>
<path class="st7" d="M65.2,45.6C65.2,45.6,65.1,45.6,65.2,45.6c0,0.2,0,0.4,0,0.7c0,1.3-1,2.3-2.3,2.3c-0.3,0-0.6-0.1-0.8-0.2
	c0,0.1,0,0.2,0,0.3v4c0,1.7,1.4,3.1,3.1,3.1s3.1-1.4,3.1-3.1v-4C68.3,47,66.9,45.6,65.2,45.6z"/>
<path id="Oval-Copy-16" class="st8" d="M58.8,63.5c1.7,0,3.1-1.4,3.1-3.1c0-0.6-0.4-1.6-0.9-2.5l-0.2-0.4l0,0l-0.3-0.4l0,0l-0.3-0.4
	l0,0L60,56.3l0,0l-0.2-0.4l0,0l-0.4-0.6l0,0l-0.5-0.7l0,0l-0.4,0.5l0,0L58,55.7l0,0l-0.4,0.5l0,0l-0.4,0.6c0,0.1-0.1,0.1-0.1,0.2
	l-0.3,0.4c0,0.1-0.1,0.1-0.1,0.2l-0.2,0.4c-0.5,0.9-0.8,1.7-0.8,2.3C55.7,62.1,57.1,63.5,58.8,63.5z"/>
<path id="Path_00000111180123182942715890000013580331986102388914_" class="st9" d="M44,55.7c3.9,0.2,7.1,1.9,9.4,4.9l0.2,0.3
	l-2.3,1.7c-1.8-2.4-4.2-3.8-7.2-4l-0.3,0L44,55.7z"/>
<circle id="Oval-Copy-31" class="st4" cx="28.4" cy="54.2" r="6"/>
<circle id="Oval-Copy-32" class="st4" cx="88.3" cy="54.2" r="6"/>
<path id="Rectangle-Copy-44" class="st0" d="M26.7,31.1h63.9c1.1,0,1.9,0.9,1.9,1.9v4c0,1.1-0.9,1.9-1.9,1.9H26.7
	c-1.1,0-1.9-0.9-1.9-1.9v-4C24.7,32,25.6,31.1,26.7,31.1z"/>
<path id="Rectangle-Copy-73" class="st0" d="M29.9,89.6h56.7c0.9,0,1.6,0.7,1.6,1.6v5.7c0,0.9-0.7,1.6-1.6,1.6H29.9
	c-0.9,0-1.6-0.7-1.6-1.6v-5.7C28.3,90.3,29,89.6,29.9,89.6z"/>
<polygon id="Rectangle-Copy-522" class="st10" points="56.9,89.3 60.9,89.3 60.9,134.3 56.9,134.3 "/>
<path id="Rectangle-Copy-523" class="st10" d="M57.1,89.3h3.6c0.5,0,1,0.4,1.2,0.9l2.4,10c0.2,0.6-0.2,1.3-0.9,1.4
	c-0.1,0-0.2,0-0.3,0h-8.4c-0.7,0-1.2-0.5-1.2-1.2c0-0.1,0-0.2,0-0.3l2.4-10C56,89.7,56.5,89.3,57.1,89.3z"/>
<path id="Rectangle_00000158732927919594166050000015318246316033846682_" class="st4" d="M36.8,106.7c5.2,0,9.5,4.3,9.5,9.5
	c0,5.2-4.3,9.5-9.5,9.5s-9.5-4.3-9.5-9.5C27.3,111,31.5,106.7,36.8,106.7z"/>
<path id="Rectangle_00000008114424785481972160000018339536696569434546_" class="st0" d="M24.4,115.1h60.9c2.8,0,5.1,2.3,5.1,5.1
	v10.9c0,2.8-2.3,5.1-5.1,5.1H24.4c-2.8,0-5.1-2.3-5.1-5.1v-10.9C19.3,117.4,21.6,115.1,24.4,115.1z"/>
<path class="st4" d="M89.9,111.8c0-0.1-0.1-0.1-0.1-0.1c-1.4-3.5-4.8-5.9-8.8-5.9c-5.2,0-9.5,4.3-9.5,9.5s4.3,9.5,9.5,9.5
	c2.7,0,5-3,6.7-6.1C90.1,117.3,91.1,114.3,89.9,111.8z"/>
<path id="Rectangle-Copy-5" class="st0" d="M56.9,108.1l40.6,8.6c5.1,1.1,8.4,6.1,7.3,11.3c-1.1,5.1-6.1,8.4-11.3,7.3l-59.2-12.6
	C36.5,112.4,46.6,105.9,56.9,108.1z"/>
<path id="Path-48-Copy-4" class="st3" d="M26.5,77.7c0,1.2,0,4.3-3.4,4.3c1.5,1.4,2.3,2.1,2.4,1.9l1.6-0.8l0.4-3.6
	C26.9,77.5,26.5,76.9,26.5,77.7z"/>
<path id="Path-48-Copy-5" class="st3" d="M90.8,77.6l0,0.5l0,0l0,0.2l0,0l0,0.2l0,0l0,0.2c0,0,0,0.1,0,0.1l0,0.3c0,0,0,0.1,0,0.1
	l0.1,0.3c0.3,1.2,1.1,2.4,3.2,2.4l-0.5,0.5l0,0l-0.3,0.3l0,0L93,83.1l0,0l-0.3,0.2l0,0l-0.2,0.2c0,0-0.1,0.1-0.1,0.1l-0.2,0.1l0,0
	l-0.2,0.1c-0.2,0.1-0.3,0.1-0.3,0.1L90.2,83l-0.4-3.6l0.3-0.8l0,0l0.1-0.3l0,0l0.1-0.3l0,0l0.1-0.2l0,0l0.1-0.2l0,0l0.1-0.1
	C90.7,77.3,90.8,77.3,90.8,77.6L90.8,77.6z"/>
<polygon id="Rectangle_00000101794981851178977010000006040603983296258729_" class="st1" points="42.4,152.7 76.5,152.7 
	76.5,155.7 42.4,155.7 "/>
</svg>
