<?xml version="1.0" encoding="utf-8"?>
<!-- Generator: Adobe Illustrator 27.1.0, SVG Export Plug-In . SVG Version: 6.00 Build 0)  -->
<svg version="1.1" id="Layer_1" xmlns="http://www.w3.org/2000/svg" xmlns:xlink="http://www.w3.org/1999/xlink" x="0px" y="0px"
	 viewBox="0 0 118 175" style="enable-background:new 0 0 118 175;" xml:space="preserve">
<style type="text/css">
	.st0{fill-rule:evenodd;clip-rule:evenodd;fill:#FF4B4B;}
	.st1{fill-rule:evenodd;clip-rule:evenodd;fill:#D22121;}
	.st2{fill-rule:evenodd;clip-rule:evenodd;fill:#FFB100;stroke:#FFB100;stroke-width:1.3387;stroke-linejoin:round;}
	.st3{fill-rule:evenodd;clip-rule:evenodd;fill:#FFB100;}
	.st4{fill-rule:evenodd;clip-rule:evenodd;fill:#FFC6B7;}
	.st5{fill:#F3A577;}
	.st6{fill-rule:evenodd;clip-rule:evenodd;fill:#FFFFFF;}
	.st7{fill-rule:evenodd;clip-rule:evenodd;fill:#3D3D3D;}
	.st8{fill-rule:evenodd;clip-rule:evenodd;fill:#F3A577;}
	.st9{fill:#FFC6B7;}
	.st10{fill-rule:evenodd;clip-rule:evenodd;fill:#EBE3E3;}
</style>
<path id="Rectangle" class="st0" d="M21.9,109.2h73.7c4.7,0,8.9,2.8,10.7,7.2l5.1,12.4c3,7.3-0.5,15.6-7.8,18.6
	c-1.7,0.7-3.5,1.1-5.4,1.1h-79c-7.9,0-14.2-6.4-14.2-14.2c0-1.9,0.4-3.7,1.1-5.4l5.1-12.4C12.9,112,17.2,109.2,21.9,109.2z"/>
<path id="Rectangle-Copy-16" class="st1" d="M43.2,162.6h18c0.6,0,1,0.5,1,1.2v11.6c0,0.7-0.5,1.2-1,1.2h-18c-0.6,0-1-0.5-1-1.2
	v-11.6C42.2,163.2,42.6,162.6,43.2,162.6z"/>
<path id="Rectangle-Copy-17" class="st2" d="M100.5,95c0.2,3.8-1.3,7.3-3.8,9.8c-2.3,2.3-5.5,3.8-9.1,3.8l0,0h-59
	c-3.5,0-6.7-1.4-9-3.7c-2.5-2.4-4-5.8-3.9-9.6l0,0L100.5,95z"/>
<path id="Rectangle-Copy-37" class="st1" d="M57.2,162.6h18c0.6,0,1,0.5,1,1.2v11.6c0,0.7-0.5,1.2-1,1.2h-18c-0.6,0-1-0.5-1-1.2
	v-11.6C56.2,163.2,56.6,162.6,57.2,162.6z"/>
<path id="Rectangle-Copy-18" class="st3" d="M38.8,37.5H78c6.9,0,12.5,5.6,12.5,12.5v46.6H26.3V50C26.3,43.1,31.9,37.5,38.8,37.5z"
	/>
<path id="Mask" class="st0" d="M34.2,109.1h49.1c7.3,0,13.2,5.9,13.2,13.2c0,1-0.1,2-0.3,2.9L89,157.1c-1.4,6-6.7,10.3-12.9,10.3
	H41.4c-6.2,0-11.5-4.3-12.9-10.3l-7.2-31.8c-1.6-7.1,2.9-14.2,10-15.8C32.2,109.2,33.2,109.1,34.2,109.1z"/>
<path id="Path" class="st1" d="M91,148.4l-1.9,8.6c-1.4,6-6.7,10.3-12.9,10.3H41.4c-6.2,0-11.5-4.3-12.9-10.3l-1.9-8.6H91z"/>
<path id="Mask_00000045592132274210636320000007102011564414395557_" class="st4" d="M42.3,46.2h31.1c6.5,0,11.8,5.3,11.8,11.8v50.9
	H30.6v-51C30.6,51.4,35.8,46.2,42.3,46.2z"/>
<path id="Path_00000085235616922342101340000012792155482324595345_" class="st3" d="M81.6,46.1L81.6,46.1c2.6,1.3,4.4,4,4.5,7v0.3
	l0,0L85.8,65c-3.2-0.2-5.7-2.9-5.7-6.2V50C80.1,48.6,80.7,47.2,81.6,46.1z"/>
<path id="Path_00000165947161169679809210000001078210858173033368_" class="st3" d="M36.2,50.1v8.8c0,3.4-2.8,6.2-6.2,6.2h-0.2
	l-0.2-11.6c-0.1-3.4,2-6.3,4.9-7.5C35.6,47,36.2,48.5,36.2,50.1z"/>
<path id="Path_00000142892854203632454840000015471975457304396979_" class="st5" d="M65.7,75.4c-0.4-0.4-0.9-0.3-1.2,0
	c-3.4,3.3-7.2,3.5-12,0.8c-0.5-0.2-0.9-0.1-1.2,0.3s-0.1,0.9,0.3,1.2c5.4,3.1,10.2,2.8,14.2-1.1C65.9,76.3,65.9,75.7,65.7,75.4z"/>
<path id="Rectangle-130-Copy-42" class="st6" d="M50.3,53.8c3.9,0,7,3.1,7,7v4.3c0,3.9-3.1,7-7,7s-7-3.1-7-7v-4.3
	C43.3,57,46.5,53.8,50.3,53.8z"/>
<path id="Path_00000168090997312768176090000016450086653367535753_" class="st7" d="M50.3,53.6c1.7,0,3.1,0.7,3.1,1.6v2
	c0,0.9-1.4,1.6-3.1,1.6s-3.1-0.7-3.1-1.6v-2C47.1,54.3,48.5,53.6,50.3,53.6z"/>
<circle id="Oval" class="st6" cx="52.5" cy="67.1" r="2.3"/>
<path id="Rectangle-130-Copy-42_00000064317990426522726200000010800963258016508598_" class="st6" d="M66.9,53.8c-3.9,0-7,3.1-7,7
	v4.3c0,3.9,3.1,7,7,7s7-3.1,7-7v-4.3C73.9,57,70.7,53.8,66.9,53.8z"/>
<path id="Path_00000166667381114924738310000007338841165316814473_" class="st7" d="M65.9,53.6c-1.7,0-3.1,0.7-3.1,1.6v2
	c0,0.9,1.4,1.6,3.1,1.6s3.1-0.7,3.1-1.6v-2C69.1,54.3,67.7,53.6,65.9,53.6z"/>
<path id="Oval-Copy-16" class="st8" d="M58.6,74.9c1.7,0,3.1-1.4,3.1-3.1c0-0.6-0.4-1.6-0.9-2.5l-0.2-0.4l0,0l-0.3-0.4l0,0L60,68
	l0,0l-0.3-0.4l0,0l-0.2-0.4l0,0L59,66.6l0,0L58.6,66l0,0l-0.4,0.5l0,0l-0.4,0.6l0,0l-0.4,0.5l0,0L57,68.2c0,0.1-0.1,0.1-0.1,0.2
	l-0.3,0.4c0,0.1-0.1,0.1-0.1,0.2l-0.2,0.4c-0.5,0.9-0.8,1.7-0.8,2.3C55.4,73.5,56.8,74.9,58.6,74.9z"/>
<path id="Path_00000088122540992133148620000006939818046669329804_" class="st9" d="M55.9,70.7c-3.5-1.7-7.2-1.7-10.6-0.2L45,70.8
	l1.2,2.6c2.7-1.3,5.5-1.3,8.2-0.1l0.3,0.1L55.9,70.7z"/>
<path id="Path_00000109719853899395228830000014495068961022918572_" class="st9" d="M72.5,70.7c-3.5-1.7-7.2-1.7-10.6-0.2l-0.3,0.2
	l1.2,2.6c2.7-1.3,5.5-1.3,8.2-0.1l0.3,0.1L72.5,70.7z"/>
<circle id="Oval-Copy-31" class="st4" cx="28.1" cy="66.6" r="6"/>
<circle id="Oval-Copy-32" class="st4" cx="88.1" cy="66.6" r="6"/>
<path id="Rectangle-Copy-44" class="st0" d="M26.4,43.5h63.9c1.1,0,1.9,0.9,1.9,1.9v4c0,1.1-0.9,1.9-1.9,1.9H26.4
	c-1.1,0-1.9-0.9-1.9-1.9v-4C24.5,44.3,25.3,43.5,26.4,43.5z"/>
<path id="Rectangle-Copy-73" class="st0" d="M29.7,101.9h56.7c0.9,0,1.6,0.7,1.6,1.6v5.7c0,0.9-0.7,1.6-1.6,1.6H29.7
	c-0.9,0-1.6-0.7-1.6-1.6v-5.7C28,102.7,28.8,101.9,29.7,101.9z"/>
<polygon id="Rectangle-Copy-522" class="st10" points="56.6,101.6 60.6,101.6 60.6,146.6 56.6,146.6 "/>
<path id="Rectangle-Copy-523" class="st10" d="M56.8,101.6h3.6c0.5,0,1,0.4,1.2,0.9l2.4,10c0.2,0.6-0.2,1.3-0.9,1.4
	c-0.1,0-0.2,0-0.3,0h-8.4c-0.7,0-1.2-0.5-1.2-1.2c0-0.1,0-0.2,0-0.3l2.4-10C55.8,102,56.2,101.6,56.8,101.6z"/>
<path id="Rectangle_00000062165006211423574610000003535376897797341064_" class="st4" d="M36.5,119.1c5.2,0,9.5,4.3,9.5,9.5
	c0,5.2-4.3,9.5-9.5,9.5s-9.5-4.3-9.5-9.5C27,123.4,31.3,119.1,36.5,119.1z"/>
<path id="Rectangle-Copy-4" class="st4" d="M80.7,118.1c4.2,0,7.8,2.7,9,6.5c0.3,0.9-3.8,12.5-9,12.5s-9.5-4.3-9.5-9.5
	C71.2,122.4,75.5,118.1,80.7,118.1z"/>
<path id="Rectangle_00000086672622958626461810000010842268622735921334_" class="st0" d="M24.1,127.5H85c2.8,0,5.1,2.3,5.1,5.1
	v10.9c0,2.8-2.3,5.1-5.1,5.1H24.1c-2.8,0-5.1-2.3-5.1-5.1v-10.9C19.1,129.7,21.3,127.5,24.1,127.5z"/>
<path id="Rectangle-Copy-5" class="st0" d="M56.6,120.4l40.6,8.6c5.1,1.1,8.4,6.1,7.3,11.3s-6.1,8.4-11.3,7.3L34,135
	C36.2,124.8,46.3,118.2,56.6,120.4z"/>
<path id="Rectangle_00000114752854422673042590000013232562052685308801_" class="st4" d="M73.1,123.8l8-3.1c3.3-1.3,7,0.2,8.5,3.4
	c1.3,2.6,0.2,5.8-2.5,7.1c-0.2,0.1-0.5,0.2-0.8,0.3h-0.1c-3.2,1-6.7-0.6-8-3.7c-0.7-1.5-1.2-2.4-1.7-2.7
	C75.5,124.5,74.4,124.1,73.1,123.8z"/>
<path id="Path-48-Copy-4" class="st3" d="M26.3,90.1c0,1.2,0,4.3-3.4,4.3c1.5,1.4,2.3,2.1,2.4,1.9l1.6-0.8l0.4-3.6
	C26.6,89.9,26.3,89.3,26.3,90.1z"/>
<path id="Path-48-Copy-5" class="st3" d="M90.5,90v0.5l0,0v0.2l0,0v0.2l0,0v0.2v0.1v0.3v0.1l0.1,0.3c0.3,1.2,1.1,2.4,3.2,2.4
	l-0.5,0.5l0,0L93,95.1l0,0l-0.3,0.3l0,0l-0.3,0.2l0,0l-0.2,0.2l-0.1,0.1L92,96.1l0,0l-0.2,0.1c-0.2,0.1-0.3,0.1-0.3,0.1l-1.6-0.8
	l-0.4-3.6l0.3-0.8l0,0l0.1-0.3l0,0l0.1-0.3l0,0l0.1-0.2l0,0l0.1-0.2l0,0l0.1-0.1C90.4,89.7,90.5,89.7,90.5,90L90.5,90z"/>
<polygon id="Rectangle_00000134937156787017043930000011720657932683634073_" class="st1" points="42.2,165.1 76.2,165.1 
	76.2,168.1 42.2,168.1 "/>
</svg>
