<?xml version="1.0" encoding="utf-8"?>
<!-- Generator: Adobe Illustrator 27.1.0, SVG Export Plug-In . SVG Version: 6.00 Build 0)  -->
<svg version="1.1" id="Layer_1" xmlns="http://www.w3.org/2000/svg" xmlns:xlink="http://www.w3.org/1999/xlink" x="0px" y="0px"
	 viewBox="0 0 500 500" style="enable-background:new 0 0 500 500;" xml:space="preserve">
<style type="text/css">
	.st0{fill:#FAA629;}
	.st1{fill:none;stroke:#010101;stroke-miterlimit:10;}
	.st2{fill:#FFDF81;}
	.st3{fill:#FCB74D;}
	.st4{fill:#616262;}
	.st5{fill:#434343;}
	.st6{fill:#488FCC;}
	.st7{fill:#FCB64D;}
	.st8{fill:#79481D;}
</style>
<ellipse class="st0" cx="274.4" cy="155.14" rx="11.57" ry="13.8"/>
<ellipse class="st0" cx="165.01" cy="155.14" rx="11.57" ry="13.8"/>
<path class="st1" d="M254.09,107.61"/>
<path class="st2" d="M194.36,68.11l5.8-12.88h19.11c41.6,0,64.56,34.18,66.12,68.29c0,0.14,0,0.14,0.14,0.28v2.69l0,0v24.35
	l-18.6,4.72l-0.27-33.07l-79.41-27.04l-25.22,26.04v34.07l-8.6-5.46v-37.26C153.44,90.05,172.42,71.09,194.36,68.11z"/>
<path class="st3" d="M267.55,155.56l-0.27-33.07l-80.41-27.04l-24.83,25.63v37.6c0,31.62,25.63,57.25,57.25,57.25h0
	c31.62,0,57.25-25.63,57.25-57.25v-5.66L267.55,155.56z"/>
<g>
	<polygon class="st4" points="297.68,360.51 390.89,330.51 341.89,172.02 245.68,191.02 	"/>
	<polygon class="st5" points="255.47,373.51 297.68,360.51 245.68,191.02 203.47,204.02 	"/>
</g>
<path class="st6" d="M297.59,360.51l-42.21,13l-48.48-158.03c-46.15,3.24-73.79,50.23-57.72,94.88l43.79,132.81h150.13l-11.5-93.6
	L297.59,360.51z"/>
<path class="st7" d="M367.66,245.14l-11.99,3.91c-11.85,3.86-24.59-2.61-28.46-14.46v0c-3.86-11.85,2.61-24.59,14.46-28.46
	l11.99-3.91c4.09-1.33,8.48,0.9,9.81,4.99l9.17,28.12C373.98,239.41,371.75,243.81,367.66,245.14z"/>
<path class="st7" d="M318.48,280.16L318.48,280.16c-7.31-10.76-22.26-12.94-32.34-4.72l-47.68,38.91l-11.59-13.79l-36.81,25
	l28.15,33.51c0.59,0.7,1.22,1.34,1.88,1.95c7.95,7.84,20.85,8.65,29.76,1.17l64.3-52.41C323.05,302.52,324.93,289.66,318.48,280.16z
	"/>
<g>
	<circle class="st8" cx="192.02" cy="150.19" r="6.13"/>
	<circle class="st8" cx="239.51" cy="150.19" r="6.13"/>
</g>
<path class="st8" d="M195.51,180.7c0,0,20.6,16.34,37.87,0"/>
</svg>
