<?xml version="1.0" ?><svg id="Layer_1" style="enable-background:new 0 0 512 512;" version="1.1" viewBox="0 0 512 512" xml:space="preserve" xmlns="http://www.w3.org/2000/svg" xmlns:xlink="http://www.w3.org/1999/xlink"><style type="text/css">
	.st0{fill:#F22E24;}
	.st1{fill:#F4756E;}
	.st2{fill:#731611;}
	.st3{fill:#F29F18;}
	.st4{fill:#F4BC62;}
	.st5{fill:#595959;}
	.st6{fill:#734B0B;}
	.st7{fill:#EBDEE5;}
	.st8{fill:#C6BEC3;}
	.st9{fill:#E9F449;}
	.st10{fill:#6B7300;}
	.st11{fill:#E2F200;}
</style><g id="XMLID_362_"><path class="st0" d="M256,507.1c92.6,0,173.5-50.1,217-124.7c-43.2-75-124.2-125.5-217-125.5S82.2,307.3,39,382.4   C82.5,457,163.4,507.1,256,507.1z" id="XMLID_3096_"/><path class="st1" d="M78.5,330.7c-15.3,15.4-28.6,32.7-39.5,51.7c10.9,18.7,24.2,35.9,39.5,51.2V330.7z" id="XMLID_4476_"/><path class="st2" d="M381.5,290.6v136c0,16.7-13.6,30.5-30.3,30.5h-246c42,31.4,94.2,50.1,150.7,50.1   c92.6,0,173.5-50.2,217-124.8C451.1,344.4,419.5,312.6,381.5,290.6z" id="XMLID_4475_"/><polygon class="st3" id="XMLID_3093_" points="255.9,297.2 255.9,297.2 227.4,268.7 227.4,228.9 284.3,228.9 284.3,268.7  "/><path class="st3" d="M324.6,155.1h24.5c13.5,0,24.5-11,24.5-24.5v0c0-13.5-11-24.5-24.5-24.5h-24.5V155.1z" id="XMLID_937_"/><path class="st3" d="M187.3,155.1h-24.5c-13.5,0-24.5-11-24.5-24.5v0c0-13.5,11-24.5,24.5-24.5h24.5V155.1z" id="XMLID_936_"/><path class="st4" d="M256,238.8L256,238.8c-44.4,0-80.4-36-80.4-80.4v-55.9c0-44.4,36-80.4,80.4-80.4h0   c44.4,0,80.4,36,80.4,80.4v55.9C336.4,202.8,300.4,238.8,256,238.8z" id="XMLID_934_"/><path class="st3" d="M255.8,22h0.1c-4.2,0-8.2,0.4-12.2,1c38.6,5.9,68.3,39.3,68.3,79.5v55.9   c0,40.3-29.6,73.7-68.2,79.6c4,0.6,8.1,1,12.2,1h-0.2c44.4,0,80.2-36.2,80.2-80.6v-55.9C336,58.1,300.2,22,255.8,22z" id="XMLID_932_"/><g id="XMLID_902_"><g id="XMLID_44_"><rect class="st5" height="10" id="XMLID_45_" width="25" x="211" y="115"/></g></g><g id="XMLID_874_"><g id="XMLID_41_"><rect class="st5" height="19" id="XMLID_42_" width="10" x="231" y="135"/></g></g><g id="XMLID_665_"><g id="XMLID_38_"><rect class="st5" height="10" id="XMLID_39_" width="25" x="276" y="115"/></g></g><g id="XMLID_179_"><g id="XMLID_35_"><rect class="st5" height="19" id="XMLID_36_" width="10" x="271" y="135"/></g></g><rect class="st6" height="9.8" id="XMLID_131_" width="9.8" x="344.3" y="125.7"/><rect class="st6" height="9.8" id="XMLID_104_" width="9.8" x="157.9" y="125.7"/><g id="XMLID_3092_"><g id="XMLID_32_"><rect class="st2" height="85" id="XMLID_33_" width="10" x="251" y="297"/></g></g><path class="st1" d="M255.9,297.2L234.1,319l-51.2-51.3c14.4-4.4,29-7.5,44.6-9.2v10.2L255.9,297.2L255.9,297.2z" id="XMLID_3267_"/><path class="st1" d="M328.8,267.6l-51.3,51.2L256,297.2l28.5-28.5v-10.2C299.1,260.1,314.5,263.2,328.8,267.6z" id="XMLID_3097_"/><path class="st7" d="M412.9,312.1c-14.7-11.9-30.9-22.1-48.1-30.4v0c0,55.2-44.7,99.9-99.9,99.9h-18   c-55.2,0-99.9-44.7-99.9-99.9v0c-17.2,8.3-33.3,18.6-48.1,30.4V452c43,34.5,97.5,55.1,156.9,55.1s113.9-20.6,156.9-55.1V312.1z" id="XMLID_3091_"/><path class="st8" d="M105.6,457c41.9,31,94,50.1,150.4,50.1c59.4,0,114-20.6,157-55V312.2c0-0.3-0.9-0.7-1.3-1   c-1.1-0.8-2.2-1.7-3.2-2.5c-0.8-0.6-1.6-1.2-2.4-1.8c-1.1-0.8-2.2-1.7-3.4-2.5c-0.8-0.6-1.7-1.2-2.5-1.8c-1-0.7-2.1-1.5-3.1-2.2   c-0.8-0.5-1.5-1-2.3-1.5c-1.3-0.9-2.6-1.7-3.9-2.6c-0.6-0.4-1.2-0.8-1.8-1.2c-1.5-1-3-1.9-4.6-2.8c-0.6-0.3-0.9-0.7-1.5-1   c-0.4-0.2-1-0.5-1-0.7v136c0,16.7-14,30.4-30.7,30.4H105.6z" id="XMLID_2474_"/><rect class="st2" height="44.3" id="XMLID_3081_" width="69.4" x="295.2" y="408.4"/><path class="st0" d="M295.2,433.6H336c6.9,0,12.5-5.6,12.5-12.5v-12.7h-53.3V433.6z" id="XMLID_4566_"/><g id="XMLID_3080_"><rect class="st2" height="25" id="XMLID_4553_" width="9" x="325" y="396"/></g><g id="XMLID_133_"><path class="st6" d="M256,196.2c-13.5,0-24.5-11-24.5-24.5h9.8c0,8.1,6.6,14.7,14.7,14.7    c8.1,0,14.7-6.6,14.7-14.7h9.8C280.5,185.2,269.5,196.2,256,196.2z" id="XMLID_156_"/></g><path class="st9" d="M193.2,46.8L193.2,46.8l0,40.8c0,10.2-8.3,18.5-18.5,18.5h-12.4V77.7   C162.4,60.6,176.2,46.8,193.2,46.8z" id="XMLID_4406_"/><path class="st10" d="M317.8,16.7h-21.2v58c0,17.4,14.1,31.4,31.4,31.4h21.2v-58   C349.2,30.7,335.1,16.7,317.8,16.7z" id="XMLID_4403_"/><path class="st11" d="M296.5,16.7L296.5,16.7l0,58.6c0,17,13.8,30.8,30.8,30.8h0V47.5   C327.3,30.5,313.5,16.7,296.5,16.7z" id="XMLID_4400_"/><path class="st9" d="M214.2,4.9h70c6.8,0,12.3,5.5,12.3,12.3v47.6c0,13.2-10.7,23.9-23.9,23.9H162.4v-32   C162.4,28.1,185.6,4.9,214.2,4.9z" id="XMLID_4397_"/><path class="st11" d="M245,4.9h39.1c6.8,0,12.3,5.5,12.3,12.3v47.6c0,13.2-10.7,23.9-23.9,23.9h-56.4   c-12.7,0-23-10.3-23-23v-9C193.2,28.1,216.4,4.9,245,4.9z" id="XMLID_4394_"/></g></svg>