<?xml version="1.0" encoding="utf-8"?>
<!-- Generator: Adobe Illustrator 27.1.0, SVG Export Plug-In . SVG Version: 6.00 Build 0)  -->
<svg version="1.1" id="Layer_1" xmlns="http://www.w3.org/2000/svg" xmlns:xlink="http://www.w3.org/1999/xlink" x="0px" y="0px"
	 viewBox="0 0 500 500" style="enable-background:new 0 0 500 500;" xml:space="preserve">
<style type="text/css">
	.st0{fill:#95C8EC;}
	.st1{fill:#488FCC;}
	.st2{fill:none;stroke:#010101;stroke-miterlimit:10;}
	.st3{fill:#FCB74D;}
	.st4{fill:#FAA629;}
	.st5{fill:#FFDF81;}
	.st6{fill:#475C66;}
	.st7{fill:#4655A5;}
	.st8{fill:#F15B2D;}
</style>
<g>
	<path class="st0" d="M132.13,189.43h-21.57c-15.39,0-27.97-12.57-27.97-27.97V146.4c0-15.39,12.57-27.97,27.97-27.97h21.57
		c15.39,0,27.97,12.57,27.97,27.97v15.07C160.1,176.97,147.63,189.43,132.13,189.43z"/>
	<path class="st1" d="M185.89,184.81c0,0-9.64-16.02-25.8-23.34v0.04v0.05c0,0,0,0,0,0c-0.03,15.48-12.48,27.92-27.97,27.92h-21.57
		c-15.39,0-27.97-12.57-27.97-27.97v-0.73c-23.07,12.81-38.7,37.58-38.7,66.06v2.71l28.94,19.19v50.08h98.32v-67.58l12.16,15.67
		l25.58-25L185.89,184.81z"/>
	<path class="st2" d="M95.6,62.28"/>
	<path class="st3" d="M73.05,248.95l-29.16-19.3v84.34c0,8.02,6.5,14.53,14.53,14.53l0,0c8.02,0,14.53-6.5,14.53-14.53L73.05,248.95
		L73.05,248.95z"/>
	<path class="st3" d="M161.51,71.39l-17.13-20.7l-60.81,20.7l-0.98,29.92l-9.65-11.27v-20.7c-0.87,3.69-1.41,7.59-1.41,11.6v10.95
		c0,27.21,22.01,49.21,49.21,49.21h1.08c27.21,0,49.21-22.01,49.21-49.21l-9.65,9.54L161.51,71.39L161.51,71.39z"/>
	<path class="st4" d="M121.94,140.98h-1.08c-6.5,0-12.57-1.3-18.32-3.47v16.48c0,9.11,7.37,16.48,16.48,16.48h6.18
		c9.11,0,16.48-7.37,16.48-16.48v-17.24C135.71,139.46,128.99,140.98,121.94,140.98z"/>
	<path class="st5" d="M141.34,32.04l-4.44-9.86h-14.63c-26.45,0-47.91,20.81-49.11,46.94c0,0.11,0,0.11-0.11,0.22v2.06l0,0v18.64
		l9.65,11.27l0.98-29.92l60.81-20.7l17.02,20.7v29.92l9.65-9.54V66.29C171.15,48.84,158.15,34.31,141.34,32.04z"/>
	<polygon class="st6" points="122.91,298.81 121.18,298.81 73.05,298.81 82.7,475.94 113.38,475.94 122.05,314.64 130.83,475.94 
		161.51,475.94 171.15,298.81 	"/>
	<path class="st3" d="M261.23,201.87l-52.34,20.03l-25.58,25l5.9,7c4.96,5.88,12.94,7.62,19.68,4.99v0l64.69-24.75
		c6.69-2.56,11.1-8.97,11.1-16.13v0C284.68,205.9,272.54,197.55,261.23,201.87z"/>
</g>
<g>
	<path class="st7" d="M427.67,239.93L424.87,228l25.69-23.75c-10.1-29.34-39.45-50.63-72.34-50.63l0,0
		c-33.86,0-62.45,22.57-71.16,53.21l24.83,21.07l-2.79,11.93l-27.09,121.57c22.36,11.72,48.26,18.38,75.99,18.38
		c27.84,0,53.85-6.77,76.31-18.59l-26.87-121.35L427.67,239.93L427.67,239.93z"/>
	<path class="st8" d="M340.6,151.15V88.91l57.18-33.21l19.02,23.22v72.23l19.67-28.16V80.74c0-26.87-13.22-48.8-40.2-48.8h-36.55
		c-26.87,0-35.9,21.82-35.9,48.8v42.24L340.6,151.15z"/>
	<path class="st3" d="M417.03,78.92L398,55.7l-57.29,33.21v35.26c9.46,10.32,23.11,16.77,38.26,16.77
		c15.05,0,28.48-6.34,38.05-16.55V78.92L417.03,78.92z"/>
	<g>
		<g>
			<path class="st3" d="M331.58,372.14l5.7,104.8h33.97l5.37-98.13C360.92,378.59,345.76,376.33,331.58,372.14z"/>
			<path class="st3" d="M379.73,378.69l5.37,98.13h33.97l5.7-104.69C410.58,376.33,395.42,378.59,379.73,378.69z"/>
		</g>
	</g>
	<path class="st3" d="M314.92,303.45L329,239.93l2.79-11.93l-24.83-21.07c0.11-0.32,0.21-0.75,0.32-1.07
		c-0.32,0.97-0.54,1.93-0.75,2.9l-15.16,76.74c-1.5,9.14,4.62,17.84,13.87,19.45C308.57,305.28,312.01,304.85,314.92,303.45z"/>
	<path class="st3" d="M441.68,302.45l-14.08-63.52L424.81,227l24.83-21.07c-0.11-0.32-0.21-0.75-0.32-1.07
		c0.32,0.97,0.54,1.93,0.75,2.9l15.16,76.74c1.5,9.14-4.62,17.84-13.87,19.45C448.03,304.28,444.59,303.85,441.68,302.45z"/>
	<path class="st4" d="M377.79,153.62L377.79,153.62c6.56,0,13.01,0.86,19.13,2.47c0.43-1.61,0.75-3.33,0.75-5.16V137.6
		c-5.59,2.26-11.72,3.44-18.17,3.44h-1.07c-6.99,0-13.65-1.5-19.78-4.19v13.97c0,1.72,0.21,3.44,0.64,4.94
		C365.33,154.37,371.45,153.62,377.79,153.62z"/>
</g>
</svg>
