<svg xmlns="http://www.w3.org/2000/svg" xmlns:xlink="http://www.w3.org/1999/xlink" viewBox="0 0 1080 1080" width="1080" height="1080" preserveAspectRatio="xMidYMid meet" style="width: 100%; height: 100%; transform: translate3d(0px, 0px, 0px); content-visibility: visible;"><defs><clipPath id="__lottie_element_6524"><rect width="1080" height="1080" x="0" y="0"></rect></clipPath><g id="__lottie_element_6538"><g clip-path="url(#__lottie_element_6539)" transform="matrix(0.9995037317276001,-0.03150132670998573,0.03150132670998573,0.9995037317276001,30.803924560546875,4.043212890625)" opacity="1" style="display: block;"><g transform="matrix(1,0,0,1,539.8609619140625,533.9439697265625)" opacity="1" style="display: block;"><g opacity="1" transform="matrix(1,0,0,1,540,540)"><path fill="rgb(255,255,255)" fill-opacity="1" d=" M-543.6270141601562,-709.1430053710938 C-543.6270141601562,-725.7130126953125 -530.093994140625,-748.1099853515625 -515.3610229492188,-748.1099853515625 C-506.4530029296875,-748.1099853515625 -503.99798583984375,-740.3410034179688 -503.8840026855469,-736.4569702148438 C-503.8840026855469,-736.4569702148438 -503.8840026855469,-712.0570068359375 -503.8840026855469,-712.0570068359375 C-503.8840026855469,-706.051025390625 -505.177001953125,-699.3820190429688 -507.5260009765625,-693.2739868164062 C-513.87890625,-689.2465209960938 -518.4441528320312,-688.765869140625 -527.8622436523438,-683.7433471679688 C-531.8580932617188,-681.61376953125 -538.2227172851562,-678.7830810546875 -539.2369995117188,-677.8599853515625 C-542.8820190429688,-682.8079833984375 -543.698974609375,-690.3250122070312 -543.6270141601562,-694.9400024414062 C-543.6270141601562,-694.9400024414062 -543.6270141601562,-709.1430053710938 -543.6270141601562,-709.1430053710938z"></path></g><g opacity="1" transform="matrix(1,0,0,1,540,540)"><path fill="rgb(255,255,255)" fill-opacity="1" d=" M-586.4550170898438,-732.3679809570312 C-586.4550170898438,-732.3679809570312 -586.4550170898438,-732.3679809570312 -586.4550170898438,-732.3679809570312 C-569.7559814453125,-732.3679809570312 -556.219970703125,-718.8319702148438 -556.219970703125,-702.1329956054688 C-556.219970703125,-702.1329956054688 -556.219970703125,-686.2009887695312 -556.219970703125,-686.2009887695312 C-556.219970703125,-680.4929809570312 -557.802001953125,-675.1539916992188 -560.551025390625,-670.5989990234375 C-565.187744140625,-670.2101440429688 -573.824951171875,-671.414306640625 -587.2839965820312,-671.7057495117188 C-600.141357421875,-671.9842529296875 -610.0741577148438,-673.2603759765625 -614.0150146484375,-673.7470092773438 C-615.7340087890625,-677.5449829101562 -616.6900024414062,-681.760986328125 -616.6900024414062,-686.2009887695312 C-616.6900024414062,-686.2009887695312 -616.6900024414062,-702.1329956054688 -616.6900024414062,-702.1329956054688 C-616.6900024414062,-718.8319702148438 -603.1539916992188,-732.3679809570312 -586.4550170898438,-732.3679809570312z"></path></g></g></g></g><clipPath id="__lottie_element_6539"><path d="M0,0 L1080,0 L1080,1080 L0,1080z"></path></clipPath><mask id="__lottie_element_6538_1" mask-type="alpha"><use xlink:href="#__lottie_element_6538"></use></mask><g id="__lottie_element_6548"><g clip-path="url(#__lottie_element_6549)" transform="matrix(0.9995037317276001,-0.03150132670998573,0.03150132670998573,0.9995037317276001,31.143096923828125,4.48773193359375)" opacity="1" style="display: block;"><g transform="matrix(1,0,0,1,539.8609619140625,533.9439697265625)" opacity="1" style="display: block;"><g opacity="1" transform="matrix(1,0,0,1,540,540)"><path fill="rgb(255,255,255)" fill-opacity="1" d=" M-543.6270141601562,-709.1430053710938 C-543.6270141601562,-725.7130126953125 -530.093994140625,-748.1099853515625 -515.3610229492188,-748.1099853515625 C-506.4530029296875,-748.1099853515625 -503.99798583984375,-740.3410034179688 -503.8840026855469,-736.4569702148438 C-503.8840026855469,-736.4569702148438 -503.8840026855469,-712.0570068359375 -503.8840026855469,-712.0570068359375 C-503.8840026855469,-706.051025390625 -505.177001953125,-699.3820190429688 -507.5260009765625,-693.2739868164062 C-513.87890625,-689.2465209960938 -518.4441528320312,-688.765869140625 -527.8622436523438,-683.7433471679688 C-531.8580932617188,-681.61376953125 -538.2227172851562,-678.7830810546875 -539.2369995117188,-677.8599853515625 C-542.8820190429688,-682.8079833984375 -543.698974609375,-690.3250122070312 -543.6270141601562,-694.9400024414062 C-543.6270141601562,-694.9400024414062 -543.6270141601562,-709.1430053710938 -543.6270141601562,-709.1430053710938z"></path></g><g opacity="1" transform="matrix(1,0,0,1,540,540)"><path fill="rgb(255,255,255)" fill-opacity="1" d=" M-586.4550170898438,-732.3679809570312 C-586.4550170898438,-732.3679809570312 -586.4550170898438,-732.3679809570312 -586.4550170898438,-732.3679809570312 C-569.7559814453125,-732.3679809570312 -556.219970703125,-718.8319702148438 -556.219970703125,-702.1329956054688 C-556.219970703125,-702.1329956054688 -556.219970703125,-686.2009887695312 -556.219970703125,-686.2009887695312 C-556.219970703125,-680.4929809570312 -557.802001953125,-675.1539916992188 -560.551025390625,-670.5989990234375 C-565.187744140625,-670.2101440429688 -573.824951171875,-671.414306640625 -587.2839965820312,-671.7057495117188 C-600.141357421875,-671.9842529296875 -610.0741577148438,-673.2603759765625 -614.0150146484375,-673.7470092773438 C-615.7340087890625,-677.5449829101562 -616.6900024414062,-681.760986328125 -616.6900024414062,-686.2009887695312 C-616.6900024414062,-686.2009887695312 -616.6900024414062,-702.1329956054688 -616.6900024414062,-702.1329956054688 C-616.6900024414062,-718.8319702148438 -603.1539916992188,-732.3679809570312 -586.4550170898438,-732.3679809570312z"></path></g></g></g></g><clipPath id="__lottie_element_6549"><path d="M0,0 L1080,0 L1080,1080 L0,1080z"></path></clipPath><mask id="__lottie_element_6548_1" mask-type="alpha"><use xlink:href="#__lottie_element_6548"></use></mask><clipPath id="__lottie_element_6559"><path d="M0,0 L1080,0 L1080,1080 L0,1080z"></path></clipPath><g id="__lottie_element_6571"><g clip-path="url(#__lottie_element_6572)" transform="matrix(0.9995037317276001,-0.03150132670998573,0.03150132670998573,0.9995037317276001,30.803924560546875,4.043212890625)" opacity="1" style="display: block;"><g transform="matrix(1,0,0,1,540,534)" opacity="1" style="display: block;"><path fill="rgb(0,132,194)" fill-opacity="1" d=" M66.02200317382812,-243.3249969482422 C66.02200317382812,-160.35699462890625 -1.2369999885559082,-101.49199676513672 -84.20600128173828,-101.49199676513672 C-167.1739959716797,-101.49199676513672 -234.43299865722656,-160.35699462890625 -234.43299865722656,-243.3249969482422 C-234.43299865722656,-326.2929992675781 -167.1739959716797,-393.552001953125 -84.20600128173828,-393.552001953125 C-1.2369999885559082,-393.552001953125 66.02200317382812,-326.2929992675781 66.02200317382812,-243.3249969482422z"></path></g></g></g><clipPath id="__lottie_element_6572"><path d="M0,0 L1080,0 L1080,1080 L0,1080z"></path></clipPath><clipPath id="__lottie_element_6580"><path d="M0,0 L1080,0 L1080,1080 L0,1080z"></path></clipPath><mask id="__lottie_element_6571_1" mask-type="alpha"><use xlink:href="#__lottie_element_6571"></use></mask></defs><g clip-path="url(#__lottie_element_6524)"><g transform="matrix(1,0,0,1,540,540)" opacity="0.3" style="display: block;"><path fill="rgb(175,175,175)" fill-opacity="1" d=" M-32.3129997253418,143.2480010986328 C58.983001708984375,143.2480010986328 132.9929962158203,204.04299926757812 132.9929962158203,279.0379943847656 C132.9929962158203,354.0329895019531 58.983001708984375,414.8280029296875 -32.3129997253418,414.8280029296875 C-123.60900115966797,414.8280029296875 -197.61900329589844,354.0329895019531 -197.61900329589844,279.0379943847656 C-197.61900329589844,204.04299926757812 -123.60900115966797,143.2480010986328 -32.3129997253418,143.2480010986328z"></path></g><g transform="matrix(1,0,0,1,551.4910278320312,564.81103515625)" opacity="1" style="display: block;"><g opacity="1" transform="matrix(1,0,0,1,0,0)"><path fill="rgb(198,119,92)" fill-opacity="1" d=" M153.48199462890625,28.263999938964844 C145.89500427246094,47.137001037597656 124.44599914550781,56.2869987487793 105.572998046875,48.70000076293945 C86.69999694824219,41.112998962402344 77.54900360107422,19.663999557495117 85.13600158691406,0.7910000085830688 C92.7229995727539,-18.082000732421875 114.1729965209961,-27.232999801635742 133.04600524902344,-19.645999908447266 C151.91900634765625,-12.059000015258789 161.06900024414062,9.390999794006348 153.48199462890625,28.263999938964844z"></path></g></g><g transform="matrix(1,0,0,1,558.3734130859375,524.6565551757812)" opacity="1" style="display: block;"><g opacity="1" transform="matrix(1,0,0,1,0,0)"><path stroke-linecap="round" stroke-linejoin="miter" fill-opacity="0" stroke-miterlimit="10" stroke="rgb(204,52,141)" stroke-opacity="1" stroke-width="70" d=" M56.59543228149414,-46.12947463989258 C99.50904083251953,-51.12281799316406 124.2366943359375,-8.67000675201416 76.90998840332031,38.03960418701172"></path></g></g><g transform="matrix(1,0,0,1,540.2579345703125,540)" opacity="1" style="display: block;"><g opacity="1" transform="matrix(1,0,0,1,0,0)"><path stroke-linecap="round" stroke-linejoin="round" fill-opacity="0" stroke="rgb(204,52,141)" stroke-opacity="1" stroke-width="58" d=" M-6.407222747802734,245.4090576171875 C-6.407222747802734,245.4090576171875 25.7549991607666,268.7139892578125 25.7549991607666,268.7139892578125 M-47.14756774902344,274.60400390625 C-47.14756774902344,274.60400390625 -37.76275634765625,311.8625183105469 -37.76275634765625,311.8625183105469"></path></g><g opacity="1" transform="matrix(1,0,0,1,0,0)"><path stroke-linecap="round" stroke-linejoin="round" fill-opacity="0" stroke="rgb(0,132,194)" stroke-opacity="1" stroke-width="62" d=" M-3.382427453994751,103.84274291992188 C-3.382427453994751,103.84274291992188 -0.0605178102850914,209.77891540527344 -4.485241889953613,226.02255249023438 M-53.94086456298828,135.2510223388672 C-35.31869125366211,191.4243621826172 -47.91835403442383,242.51214599609375 -49.35059356689453,251.90394592285156"></path></g></g><g transform="matrix(1,0,0,1,565.043212890625,530.8383178710938)" opacity="1" style="display: block;"><path fill="rgb(249,221,170)" fill-opacity="1" d=" M-196.63499450683594,92.31300354003906 C-201.3520050048828,89.50399780273438 -206.32899475097656,86.66500091552734 -211.68800354003906,84.59200286865234 C-215.5570068359375,83.09500122070312 -217.0449981689453,82.68399810791016 -220.2449951171875,87.36599731445312 C-233.33999633789062,106.52400207519531 -236.79299926757812,122.25399780273438 -237.48399353027344,145.07899475097656 C-237.6529998779297,150.65699768066406 -235.7969970703125,151.41700744628906 -231.50399780273438,152.52499389648438 C-225.55799865722656,154.0590057373047 -218.0709991455078,154.35000610351562 -212.2270050048828,154.1269989013672 C-208.00799560546875,153.96600341796875 -205.43899536132812,153.06100463867188 -205.36900329589844,148.26199340820312 C-205.08099365234375,128.625 -202.44000244140625,117.85299682617188 -193.8509979248047,100.1760025024414 C-191.7519989013672,95.85600280761719 -193.22900390625,94.34100341796875 -196.63499450683594,92.31300354003906z M-196.43299865722656,101.0770034790039 C-196.84800720214844,95.08000183105469 -198.70899963378906,87.85800170898438 -200.86099243164062,82.1449966430664 C-202.41400146484375,78.0199966430664 -204.18600463867188,76.45700073242188 -208.96200561523438,77.41400146484375 C-228.5030059814453,81.3290023803711 -246.54800415039062,88.2229995727539 -264.3909912109375,97.06900024414062 C-268.75201416015625,99.23100280761719 -269.18499755859375,101.44400024414062 -268.09698486328125,105.8239974975586 C-266.5899963378906,111.89099884033203 -264.15899658203125,119.11699676513672 -261.23199462890625,124.57099914550781 C-259.1189880371094,128.50900268554688 -257.43499755859375,130.08799743652344 -252.8509979248047,127.76499938964844 C-234.09500122070312,118.26200103759766 -222.35000610351562,112.20500183105469 -201.3699951171875,108.65599822998047 C-196.24200439453125,107.78900146484375 -196.13400268554688,105.40699768066406 -196.43299865722656,101.0770034790039z"></path></g><g transform="matrix(1,0,0,1,564.4127197265625,524.6575317382812)" opacity="1" style="display: block;"><g opacity="1" transform="matrix(1,0,0,1,0,0)"><path fill="rgb(0,132,194)" fill-opacity="1" d=" M-33.17599868774414,-94.00700378417969 C58.82500076293945,-94.00700378417969 127.40599822998047,-27.926000595092773 127.40599822998047,64.07499694824219 C127.40599822998047,156.0760040283203 52.82500076293945,230.65699768066406 -39.17599868774414,230.65699768066406 C-131.177001953125,230.65699768066406 -205.75799560546875,156.0760040283203 -205.75799560546875,64.07499694824219 C-199.5,-20 -125.177001953125,-94.00700378417969 -33.17599868774414,-94.00700378417969z"></path></g><path fill="rgb(249,221,170)" fill-opacity="1" d=" M-205.5500030517578,72.46299743652344 C-164.1540069580078,-6.380000114440918 -126.86100006103516,-85.34700012207031 -39.17499923706055,-85.72200012207031 C50.0099983215332,-86.10299682617188 122.8280029296875,-15.633999824523926 127.1989974975586,72.46800231933594 C126.73799896240234,81.75299835205078 124.44999694824219,97.73200225830078 122.52999877929688,106.55699920654297 C89.05500030517578,161.36199951171875 28.67799949645996,197.9429931640625 -40.242000579833984,197.9429931640625 C-109.16200256347656,197.9429931640625 -169.53799438476562,161.36199951171875 -203.01300048828125,106.55699920654297 C-204.24200439453125,95.37000274658203 -205.08900451660156,81.75 -205.5500030517578,72.46299743652344z"></path></g><g transform="matrix(1,0,0,1,564.4127197265625,524.6575317382812)" opacity="1" style="display: block;"><g opacity="1" transform="matrix(1,0,0,1,0,0)"><path fill="rgb(204,52,141)" fill-opacity="1" d=" M-205.2429962158203,77.26799774169922 C-205.58399963378906,72.91500091552734 -205.75799560546875,68.51499938964844 -205.75799560546875,64.07499694824219 C-205.75799560546875,40.77399826049805 -200.9739990234375,18.590999603271484 -192.3350067138672,-1.5460000038146973 C-183.66700744628906,-21.750999450683594 -167.1179962158203,-35.895999908447266 -151.625,-51.04399871826172 C-121.59200286865234,-80.40799713134766 -84.49700164794922,-102.50800323486328 -39.17599868774414,-102.50800323486328 C52.82500076293945,-102.50800323486328 127.40599822998047,-27.926000595092773 127.40599822998047,64.07499694824219 C127.40599822998047,68.51499938964844 127.23300170898438,72.91500091552734 126.89199829101562,77.26899719238281 C94.18499755859375,135.1719970703125 32.06999969482422,174.26400756835938 -39.17599868774414,174.26400756835938 C-110.4209976196289,174.26400756835938 -172.53700256347656,135.1719970703125 -205.2429962158203,77.26799774169922z"></path></g></g><g transform="matrix(1,0,0,1,569.6947021484375,534.550537109375)" opacity="1" style="display: block;"><g opacity="1" transform="matrix(1,0,0,1,0,0)"><path stroke-linecap="round" stroke-linejoin="round" fill-opacity="0" stroke="rgb(167,30,110)" stroke-opacity="1" stroke-width="13.165" d=" M76.90899658203125,-3.888000011444092 C76.90899658203125,-3.888000011444092 70.98799896240234,14.527000427246094 70.98799896240234,14.527000427246094 C70.98799896240234,14.527000427246094 52.06399917602539,10.517000198364258 52.06399917602539,10.517000198364258 M3.252000093460083,32.33700180053711 C3.252000093460083,32.33700180053711 24.75200080871582,37.630001068115234 24.75200080871582,37.630001068115234 C24.75200080871582,37.630001068115234 36.540000915527344,18.88599967956543 36.540000915527344,18.88599967956543 M-50.805999755859375,47.775001525878906 C-50.805999755859375,47.775001525878906 -30.062000274658203,55.516998291015625 -30.062000274658203,55.516998291015625 C-30.062000274658203,55.516998291015625 -16.18600082397461,38.262001037597656 -16.18600082397461,38.262001037597656"></path></g></g><g transform="matrix(1,0,0,1,564.4127197265625,524.6575317382812)" opacity="1" style="display: block;"><path fill="rgb(249,221,170)" fill-opacity="1" d=" M128.3930206298828,71.17471313476562 C129.13848876953125,-40.227169036865234 47.27079772949219,-102.14859008789062 -44.72920227050781,-102.14859008789062 C-44.72920227050781,-102.14859008789062 -160.14292907714844,-89.94876098632812 -192.50599670410156,-1.1460000276565552 C-192.50599670410156,-1.1460000276565552 -106.4867935180664,8.68669319152832 -67.13379669189453,111.12569427490234 C-67.13379669189453,111.12569427490234 -39.68008804321289,225.9810028076172 -37.825439453125,231.54733276367188 C-35.958717346191406,239.72344970703125 -28.95026969909668,244.6881866455078 -21.023836135864258,243.73464965820312 C49.81377029418945,235.21432495117188 134.6488800048828,188.0436553955078 143.43479919433594,139.04721069335938 C143.96766662597656,134.57684326171875 143.27499389648438,133.17947387695312 141.3264923095703,129.63026428222656 C132.2564239501953,109.88824462890625 128.2316436767578,79.19607543945312 128.3930206298828,71.17471313476562z M-50.93453598022461,82.99635314941406 C-68.9541244506836,45.22938919067383 -96.80314636230469,11.69326400756836 -116.98236846923828,-1.8398022651672363 C-136.53964233398438,-16.01552963256836 -134.60516357421875,-21.54309844970703 -134.60516357421875,-21.54309844970703 C-134.60516357421875,-21.54309844970703 -109.70478057861328,-34.67502975463867 -109.70478057861328,-34.67502975463867 C-109.70478057861328,-34.67502975463867 2.5139999389648438,-70.25499725341797 2.5139999389648438,-70.25499725341797 C91.10181427001953,-48.19326400756836 99.53548431396484,20.40359878540039 99.53548431396484,20.40359878540039 C73.46617126464844,66.85506439208984 -2.9188339710235596,87.02894592285156 -50.93453598022461,82.99635314941406z"></path></g><g transform="matrix(1,0,0,1,564.4127197265625,524.6575317382812)" opacity="1" style="display: block;"><g opacity="1" transform="matrix(1,0,0,1,0,0)"><path stroke-linecap="butt" stroke-linejoin="miter" fill-opacity="0" stroke-miterlimit="4" stroke="rgb(249,221,170)" stroke-opacity="1" stroke-width="24" d=" M113.5,53.5 C115.5,12.5 99.5,-30.5 60.5,-53.5"></path></g></g><g transform="matrix(0.7437547445297241,-0.6684526205062866,0.6684526205062866,0.7437547445297241,505.4712219238281,502.0469665527344)" opacity="1" style="display: block;"><path stroke-linecap="round" stroke-linejoin="miter" fill-opacity="0" stroke-miterlimit="10" stroke="rgb(204,52,141)" stroke-opacity="1" stroke-width="70" d=" M-122.39437103271484,7.106302261352539 C-122.39437103271484,7.106302261352539 -89.25886535644531,113.72893524169922 10.935999870300293,142.1280059814453"></path></g><g transform="matrix(0.7437547445297241,-0.6684526205062866,0.6684526205062866,0.7437547445297241,505.4712219238281,502.0469665527344)" opacity="1" style="display: block;"><g opacity="1" transform="matrix(1,0,0,1,0,0)"><path fill="rgb(198,119,92)" fill-opacity="1" d=" M57.900001525878906,158.94200134277344 C49.11199951171875,180.80499267578125 24.263999938964844,191.4029998779297 2.4010000228881836,182.61500549316406 C-19.461999893188477,173.82699584960938 -30.06100082397461,148.97900390625 -21.273000717163086,127.11599731445312 C-12.484999656677246,105.25299835205078 12.36400032043457,94.65399932861328 34.22700119018555,103.44200134277344 C56.09000015258789,112.2300033569336 66.68800354003906,137.07899475097656 57.900001525878906,158.94200134277344z"></path></g></g><g transform="matrix(0.7437547445297241,-0.6684526205062866,0.6684526205062866,0.7437547445297241,500.1291809082031,513.649169921875)" opacity="1" style="display: block;"><g opacity="1" transform="matrix(1,0,0,1,0,0)"><path fill="rgb(255,150,0)" fill-opacity="1" d=" M95.87999725341797,227.33999633789062 C95.87999725341797,227.33999633789062 85.52999877929688,211.33999633789062 85.52999877929688,211.33999633789062 C85.52999877929688,211.33999633789062 85.66000366210938,196.67999267578125 85.66000366210938,196.67999267578125 C82.73999786376953,183.41000366210938 78.9229965209961,176.7899932861328 74.62999725341797,174.72999572753906 C74.62999725341797,174.72999572753906 33.698001861572266,153.4429931640625 33.698001861572266,153.4429931640625 C28.641000747680664,150.81300354003906 26.784000396728516,144.5070037841797 29.608999252319336,139.55599975585938 C29.608999252319336,139.55599975585938 29.608999252319336,139.55599975585938 29.608999252319336,139.55599975585938 C32.24700164794922,134.9320068359375 38.03499984741211,133.1699981689453 42.801998138427734,135.5399932861328 C42.801998138427734,135.5399932861328 83.68000030517578,155.86000061035156 83.68000030517578,155.86000061035156 C83.68000030517578,155.86000061035156 83.81999969482422,155.9499969482422 84.12999725341797,156.07000732421875 C84.1500015258789,156.07000732421875 84.16000366210938,156.0800018310547 84.18000030517578,156.08999633789062 C86.30000305175781,156.8800048828125 104.65481567382812,154.01060485839844 121.87672424316406,152.0838623046875 C135.55044555664062,150.9753875732422 124.00201416015625,162.43431091308594 116.47200775146484,182.17431640625 C116.47200775146484,182.17431640625 95.87999725341797,227.33999633789062 95.87999725341797,227.33999633789062z"></path></g><g opacity="1" transform="matrix(1,0,0,1,0,0)"><path fill="rgb(255,150,0)" fill-opacity="1" d=" M290.2449951171875,220.41400146484375 C290.2449951171875,220.41400146484375 296.00799560546875,208.55799865722656 296.00799560546875,208.55799865722656 C296.00799560546875,208.55799865722656 296.1610107421875,226.33799743652344 296.1610107421875,226.33799743652344 C296.1610107421875,226.33799743652344 285.8139953613281,242.32899475097656 285.8139953613281,242.32899475097656 C285.8139953613281,242.32899475097656 290.2449951171875,220.41400146484375 290.2449951171875,220.41400146484375z"></path></g><g opacity="1" transform="matrix(1,0,0,1,0,0)"><path fill="rgb(75,75,75)" fill-opacity="1" d=" M299.1528625488281,220.3834686279297 C301.125732421875,191.7650909423828 244.82064819335938,160.22576904296875 195.1168670654297,151.32139587402344 C128.49313354492188,139.0553741455078 87.21700286865234,148.80499267578125 85.71600341796875,191.72999572753906 C84.21499633789062,234.65499877929688 133.3267059326172,260.1455993652344 193.5567169189453,270.9239501953125 C252.12525939941406,281.3790283203125 296.111083984375,263.2679443359375 299.1528625488281,220.3834686279297z"></path></g><g opacity="1" transform="matrix(1,0,0,1,0,0)"><path fill="rgb(119,119,119)" fill-opacity="1" d=" M291.5859680175781,232.2028350830078 C291.2173767089844,209.06298828125 233.7451629638672,181.69049072265625 186.02757263183594,172.97142028808594 C124.29602813720703,161.43011474609375 87.03929138183594,168.95343017578125 88.42997741699219,204.09457397460938 C90.21778869628906,247.18553161621094 156.0558624267578,270.1184387207031 199.3654022216797,272.16552734375 C242.67404174804688,274.2126159667969 292.5047912597656,275.3748474121094 291.5859680175781,232.2028350830078z"></path></g></g><g transform="matrix(0.860602855682373,-0.5092766880989075,0.5092766880989075,0.860602855682373,525.3471069335938,519.6376342773438)" opacity="1" style="display: none;"><g opacity="1" transform="matrix(1,0,0,1,0,0)"><path fill="rgb(255,245,211)" fill-opacity="1" d=" M275.2140808105469,220.3213348388672 C274.0400695800781,253.87933349609375 243.9671173095703,262.17169189453125 200.26312255859375,260.6437072753906 C156.55911254882812,259.1156921386719 115.2375259399414,244.17283630371094 116.41152954101562,210.61483764648438 C116.41152954101562,210.61483764648438 116.759521484375,198.41488647460938 116.759521484375,198.41488647460938 C116.759521484375,198.41488647460938 275.153076171875,209.3523406982422 275.153076171875,209.3523406982422 C275.153076171875,209.3523406982422 275.2140808105469,220.3213348388672 275.2140808105469,220.3213348388672z"></path></g><g opacity="1" transform="matrix(1,0,0,1,0,0)"><path fill="rgb(242,172,95)" fill-opacity="1" d=" M275.17205810546875,212.31834411621094 C276.1910705566406,183.1873321533203 242.47784423828125,169.95668029785156 199.28070068359375,165.55551147460938 C155.69363403320312,161.11546325683594 118.188232421875,170.25950622558594 116.78726959228516,199.16111755371094 C115.28658294677734,228.25921630859375 155.8062744140625,244.15261840820312 199.5299835205078,245.71749877929688 C243.14398193359375,247.2764129638672 274.153076171875,241.4493408203125 275.17205810546875,212.31834411621094z"></path></g></g><g transform="matrix(0.7437547445297241,-0.6684526205062866,0.6684526205062866,0.7437547445297241,500.1291809082031,513.649169921875)" opacity="1" style="display: block;"><g opacity="1" transform="matrix(1,0,0,1,0,0)"><path fill="rgb(255,150,0)" fill-opacity="1" d=" M296.6482849121094,240.61846923828125 C290.3702697753906,275.6195068359375 254.00167846679688,292.47271728515625 194.96231079101562,285.0094299316406 C134.78466796875,277.3405456542969 81.84282684326172,244.34744262695312 84.96224975585938,199.7919158935547 C82.51863861083984,179.8565673828125 88.82460021972656,175.60165405273438 88.82460021972656,175.60165405273438 C83.63202667236328,205.92031860351562 147.6524658203125,248.52394104003906 199.71286010742188,253.7344207763672 C251.01837158203125,258.84112548828125 286.5187683105469,248.25328063964844 294.82952880859375,231.0470428466797 C299.8993835449219,224.15072631835938 299.0860290527344,218.83819580078125 299.33563232421875,217.90090942382812 C300.0523376464844,220.2082061767578 296.6482849121094,240.61846923828125 296.6482849121094,240.61846923828125z"></path></g></g><g clip-path="url(#__lottie_element_6580)" transform="matrix(0.9995037317276001,-0.03150132670998573,0.03150132670998573,0.9995037317276001,30.803924560546875,4.043212890625)" opacity="1" style="display: block;"><g transform="matrix(1,0,0,1,540,534)" opacity="1" style="display: block;"><path fill="rgb(0,132,194)" fill-opacity="1" d=" M66.02200317382812,-243.3249969482422 C66.02200317382812,-160.35699462890625 -1.2369999885559082,-101.49199676513672 -84.20600128173828,-101.49199676513672 C-167.1739959716797,-101.49199676513672 -234.43299865722656,-160.35699462890625 -234.43299865722656,-243.3249969482422 C-234.43299865722656,-326.2929992675781 -167.1739959716797,-393.552001953125 -84.20600128173828,-393.552001953125 C-1.2369999885559082,-393.552001953125 66.02200317382812,-326.2929992675781 66.02200317382812,-243.3249969482422z"></path></g></g><g mask="url(#__lottie_element_6571_1)" style="display: block;"><g transform="matrix(0.9995037317276001,-0.03150132670998573,0.03150132670998573,0.9995037317276001,587.357666015625,520.7674560546875)" opacity="1"><path stroke-linecap="butt" stroke-linejoin="miter" fill-opacity="0" stroke-miterlimit="10" stroke="rgb(0,106,173)" stroke-opacity="1" stroke-width="10" d=" M-2.4473488330841064,-382.9049987792969 C13.131097793579102,-351.9587097167969 14.909753799438477,-322.8289489746094 8.485753059387207,-291.2299499511719 C1.5697534084320068,-257.2139587402344 -11.187531471252441,-236.08753967285156 -13.190531730651855,-233.0765380859375"></path></g></g><g transform="matrix(0.9995037317276001,-0.03150132670998573,0.03150132670998573,0.9995037317276001,587.357666015625,520.7674560546875)" opacity="1" style="display: block;"><path stroke-linecap="round" stroke-linejoin="round" fill-opacity="0" stroke="rgb(61,61,61)" stroke-opacity="1" stroke-width="190" d=" M-86.4800033569336,-65.3239974975586 C-86.4800033569336,-65.3239974975586 0,-93.51100158691406 0,-93.51100158691406"></path></g><g clip-path="url(#__lottie_element_6559)" style="display: block;" transform="matrix(1,0,0,1,0,0)" opacity="1"><g transform="matrix(-0.0889829620718956,-0.9960331916809082,0.9960331916809082,-0.0889829620718956,819.5358276367188,522.0470581054688)" opacity="1" style="display: block;"><g opacity="1" transform="matrix(1,0,0,1,0,0)"><path fill="rgb(255,245,211)" fill-opacity="1" d=" M211.0872039794922,-72.86371612548828 C214.81785583496094,-36.07523727416992 203.40147399902344,16.43574333190918 245.3538818359375,32.3828010559082 C286.2965393066406,47.9787712097168 313.3080139160156,3.4489998817443848 315.49798583984375,-18.655000686645508 C321.8429870605469,-82.6969985961914 272.99981689453125,-129.9824981689453 250.12362670898438,-126.33106231689453 C221.4774627685547,-120.61219787597656 209.9056396484375,-87.69527435302734 211.0872039794922,-72.86371612548828z"></path></g></g><g transform="matrix(-0.9804567098617554,0.19673508405685425,-0.19673508405685425,-0.9804567098617554,972.7149047851562,430.110107421875)" opacity="1" style="display: block;"><g opacity="1" transform="matrix(1,0,0,1,0,0)"><path fill="rgb(255,245,211)" fill-opacity="1" d=" M269.6545715332031,216.66224670410156 C262.7024841308594,245.2892303466797 228.89869689941406,259.8551330566406 185.19468688964844,258.3271484375 C141.49069213867188,256.79913330078125 112.51316833496094,235.5774383544922 113.68717193603516,202.01942443847656 C113.68717193603516,202.01942443847656 113.27799987792969,203.8800048828125 113.27799987792969,203.8800048828125 C113.27799987792969,203.8800048828125 271.1400146484375,207.63999938964844 271.1400146484375,207.63999938964844 C271.1400146484375,207.63999938964844 269.6545715332031,216.66224670410156 269.6545715332031,216.66224670410156z"></path></g><g opacity="1" transform="matrix(1,0,0,1,0,0)"><path fill="rgb(242,172,95)" fill-opacity="1" d=" M271.15899658203125,210.6060028076172 C269.4120178222656,166.73011779785156 213.8878936767578,169.59031677246094 189.923828125,168.28759765625 C169.95327758789062,167.23472595214844 120.64654541015625,159.09194946289062 111.26863098144531,204.21377563476562 C104.61824035644531,237.39344787597656 147.47573852539062,262.3022766113281 188.7150115966797,264.02215576171875 C211.30528259277344,262.5047302246094 263.43731689453125,263.1090393066406 271.15899658203125,210.6060028076172z"></path></g></g></g><g transform="matrix(0.9995037317276001,-0.03150132670998573,0.03150132670998573,0.9995037317276001,587.357666015625,520.7674560546875)" opacity="1" style="display: block;"><path fill="rgb(198,119,92)" fill-opacity="1" d=" M-50.33300018310547,-109.04100036621094 C-92.2750015258789,-109.04100036621094 -117.40899658203125,-122.58999633789062 -130.76600646972656,-130.4499969482422 C-134.94700622558594,-132.91099548339844 -139.63400268554688,-138.781005859375 -139.63400268554688,-143.6320037841797 C-139.63400268554688,-144.052001953125 -139.40899658203125,-146.02000427246094 -139.03900146484375,-146.2169952392578 C-84.13099670410156,-175.56300354003906 -15.286282539367676,-239.0061798095703 -15.286282539367676,-239.0061798095703 C-15.286282539367676,-239.0061798095703 -7.425532341003418,-234.1890106201172 34.49300003051758,-211.9459991455078 C39.166236877441406,-209.46551513671875 42.48699951171875,-205.0019989013672 42.7599983215332,-199.718994140625 C43.20100021362305,-191.18800354003906 43.016998291015625,-179.34800720214844 42.70800018310547,-169.3769989013672 C42.32099914550781,-156.86700439453125 38.19300079345703,-144.35299682617188 28.95199966430664,-135.91200256347656 C15.46399974822998,-123.59100341796875 -8.446000099182129,-109.04100036621094 -50.33300018310547,-109.04100036621094z"></path></g><g mask="url(#__lottie_element_6548_1)" style="display: block;"><g transform="matrix(0.9995037317276001,-0.03150132670998573,0.03150132670998573,0.9995037317276001,588.61328125,504.2607421875)" opacity="1"><g opacity="1" transform="matrix(1,0,0,1,-22.823999404907227,-145.92999267578125)"><path fill="rgb(255,255,255)" fill-opacity="1" d=" M147.1634979248047,-102.1135025024414 C147.1634979248047,-102.1135025024414 147.1634979248047,102.1135025024414 147.1634979248047,102.1135025024414 C147.1634979248047,102.1135025024414 -147.1634979248047,102.1135025024414 -147.1634979248047,102.1135025024414 C-147.1634979248047,102.1135025024414 -147.1634979248047,-102.1135025024414 -147.1634979248047,-102.1135025024414 C-147.1634979248047,-102.1135025024414 147.1634979248047,-102.1135025024414 147.1634979248047,-102.1135025024414z"></path></g><g opacity="1" transform="matrix(1,0,0,1,0,0)"><g opacity="1" transform="matrix(1,0,0,1,0,0)"><path fill="rgb(61,61,61)" fill-opacity="1" d=" M4.599999904632568,-148.30999755859375 C4.599999904632568,-155.2570037841797 8.326000213623047,-162.94500732421875 13.645999908447266,-166.9739990234375 C21.2189998626709,-172.70899963378906 28.56999969482422,-168.67799377441406 28.56999969482422,-158.7899932861328 C28.56999969482422,-158.7899932861328 28.56999969482422,-148.44700622558594 28.56999969482422,-148.44700622558594 C28.56999969482422,-141.5 24.843000411987305,-133.81100463867188 19.523000717163086,-129.78199768066406 C11.951000213623047,-124.0469970703125 4.599999904632568,-128.0780029296875 4.599999904632568,-137.96600341796875 C4.599999904632568,-137.96600341796875 4.599999904632568,-148.30999755859375 4.599999904632568,-148.30999755859375z"></path></g></g><g opacity="1" transform="matrix(1,0,0,1,0,0)"><g opacity="1" transform="matrix(1,0,0,1,0,0)"><path fill="rgb(61,61,61)" fill-opacity="1" d=" M-46.027000427246094,-143.04600524902344 C-46.027000427246094,-149.8699951171875 -41.393001556396484,-155.82200622558594 -34.77799987792969,-157.4949951171875 C-25.361000061035156,-159.87600708007812 -16.219999313354492,-152.75900268554688 -16.219999313354492,-143.04600524902344 C-16.219999313354492,-143.04600524902344 -16.219999313354492,-132.88499450683594 -16.219999313354492,-132.88499450683594 C-16.219999313354492,-126.06099700927734 -20.854999542236328,-120.10900115966797 -27.469999313354492,-118.43599700927734 C-36.88600158691406,-116.05500030517578 -46.027000427246094,-123.1719970703125 -46.027000427246094,-132.88499450683594 C-46.027000427246094,-132.88499450683594 -46.027000427246094,-143.04600524902344 -46.027000427246094,-143.04600524902344z"></path></g></g></g></g><g mask="url(#__lottie_element_6538_1)" style="display: block;"><g transform="matrix(0.9995037317276001,-0.03150132670998573,0.03150132670998573,0.9995037317276001,586.2415771484375,510.18035888671875)" opacity="1"><g opacity="1" transform="matrix(1,0,0,1,0,0)"><g opacity="1" transform="matrix(1,0,0,1,0,0)"><path fill="rgb(255,255,255)" fill-opacity="1" d=" M6.77400016784668,-172.5330047607422 C11.430999755859375,-174.572998046875 15.206999778747559,-171.29299926757812 15.206999778747559,-165.20799255371094 C15.206999778747559,-159.1230010986328 11.430999755859375,-152.53700256347656 6.77400016784668,-150.4969940185547 C2.117000102996826,-148.45700073242188 -1.659999966621399,-151.73699951171875 -1.659999966621399,-157.82200622558594 C-1.659999966621399,-163.90699768066406 2.117000102996826,-170.4929962158203 6.77400016784668,-172.5330047607422z"></path></g></g><g opacity="1" transform="matrix(1,0,0,1,0,0)"><g opacity="1" transform="matrix(1,0,0,1,0,0)"><path fill="rgb(255,255,255)" fill-opacity="1" d=" M-44.26599884033203,-164.21499633789062 C-38.180999755859375,-164.21499633789062 -33.24800109863281,-159.28199768066406 -33.24800109863281,-153.19700622558594 C-33.24800109863281,-147.11199951171875 -38.180999755859375,-142.1790008544922 -44.26599884033203,-142.1790008544922 C-50.35100173950195,-142.1790008544922 -55.284000396728516,-147.11199951171875 -55.284000396728516,-153.19700622558594 C-55.284000396728516,-159.28199768066406 -50.35100173950195,-164.21499633789062 -44.26599884033203,-164.21499633789062z"></path></g></g></g></g><g transform="matrix(0.9950535297393799,-0.09934034198522568,0.09934034198522568,0.9950535297393799,620.048828125,539.7119140625)" opacity="1" style="display: none;"><g opacity="1" transform="matrix(1,0,0,1,0,0)"><path stroke-linecap="round" stroke-linejoin="round" fill-opacity="0" stroke="rgb(37,37,37)" stroke-opacity="1" stroke-width="7" d=" M-38.06597900390625,-87.08285522460938 C-29.4612979888916,-75.41140747070312 -12.493755340576172,-68.3770751953125 -0.8275243043899536,-73.75396728515625"></path></g></g><g transform="matrix(0.9974047541618347,0.0719989538192749,-0.0719989538192749,0.9974047541618347,532.9542236328125,525.5940551757812)" opacity="1" style="display: block;"><g opacity="1" transform="matrix(1,0,0,1,49.244998931884766,-92.25499725341797)"><path fill="rgb(37,37,37)" fill-opacity="1" d=" M0,-7.744999885559082 C4.274465560913086,-7.744999885559082 7.744999885559082,-4.274465560913086 7.744999885559082,0 C7.744999885559082,4.274465560913086 4.274465560913086,7.744999885559082 0,7.744999885559082 C-4.274465560913086,7.744999885559082 -7.744999885559082,4.274465560913086 -7.744999885559082,0 C-7.744999885559082,-4.274465560913086 -4.274465560913086,-7.744999885559082 0,-7.744999885559082z"></path></g></g><g transform="matrix(0.9995037317276001,-0.03150132670998573,0.03150132670998573,0.9995037317276001,595.9339599609375,516.3668823242188)" opacity="1" style="display: block;"><g opacity="1" transform="matrix(1,0,0,1,0,0)"><path fill="rgb(198,119,92)" fill-opacity="1" d=" M-1.8569999933242798,-139.09500122070312 C7.953000068664551,-139.09500122070312 15.904999732971191,-131.14199829101562 15.904999732971191,-121.33200073242188 C15.904999732971191,-111.52200317382812 7.953000068664551,-103.56999969482422 -1.8569999933242798,-103.56999969482422 C-11.666999816894531,-103.56999969482422 -19.6200008392334,-111.52200317382812 -19.6200008392334,-121.33200073242188 C-19.6200008392334,-131.14199829101562 -11.666999816894531,-139.09500122070312 -1.8569999933242798,-139.09500122070312z"></path></g></g></g></svg>