<?xml version="1.0" encoding="utf-8"?>
<!-- Generator: Adobe Illustrator 23.0.3, SVG Export Plug-In . SVG Version: 6.00 Build 0)  -->
<svg version="1.1" id="Layer_1" xmlns="http://www.w3.org/2000/svg" xmlns:xlink="http://www.w3.org/1999/xlink" x="0px" y="0px"
	 viewBox="0 0 1200 1200" enable-background="new 0 0 1200 1200" xml:space="preserve">
<g>
	<g>
		<path fill="#64BCBD" d="M353.224,447.526c-7.634,5.707-11.521,15.009-15.067,23.856c-13.124,32.736-26.433,66.332-27.408,101.588
			c-0.363,13.147,1.313,27.118,9.373,37.511s24.161,15.375,34.84,7.699c5.832-4.192,8.97-11.097,11.725-17.729
			c15.189-36.56,26.484-74.734,33.658-113.668c2.057-11.166,11.709-36.564-1.555-42.624
			C387.048,438.794,363.458,439.875,353.224,447.526z"/>
	</g>
	<g>
		<path fill="#5A599B" d="M504.841,303.276c-18.496,9.149-34.215,23.045-48.68,37.761c-32.711,33.28-60.232,71.651-81.268,113.305
			c-6.2,12.276-11.842,24.841-16.697,37.708c-8.72,23.11-14.887,47.183-18.353,71.64c-3.347,23.626-2.874,50.99,14.72,67.11
			c12.683,11.621,30.971,14.199,48.052,16.244c11.408,1.366,23.38,2.665,34.054-1.588c14.522-5.786,23.271-20.373,30.668-34.145
			C509.285,533.21,542,450.157,564.583,364.43c1.764-6.696,3.47-13.425,4.417-20.284c1.624-11.755,3.269-42.014-8.47-49.465
			C546.891,286.024,517.366,297.08,504.841,303.276z"/>
	</g>
	<g>
		<path fill="#FEA386" d="M587.802,1140.434c-15.032-0.311-27.662-0.386-40.275-0.9c-8.145-0.332-16.193-1.671-24.122-3.725
			c-8.78-2.274-15.382-7.191-19.351-15.381c-1.936-3.996-3.807-8.054-5.297-12.23c-9.491-26.587-16.855-53.772-21.732-81.57
			c-4.67-26.618-9.317-53.26-13.005-80.024c-2.422-17.574-4.698-35.211-5.518-53.005c-0.561-12.169-2.294-24.283-3.472-36.425
			c-0.143-1.475-0.12-2.968-0.133-4.453c-0.099-11.126-0.181-22.252-0.287-33.379c-0.01-1.1,0.264-2.499-0.287-3.252
			c-4.832-6.608-0.526-12.162,2.27-17.532c10.179-19.547,25.297-34.632,43.5-46.779c28.5-19.019,59.463-22.343,91.532-12.298
			c18.263,5.721,32.924,17.007,39.324,36.418c1.058,3.21,1.928,6.414,1.908,9.783c-0.052,8.889,0.51,17.785-1.542,26.602
			c-1.353,5.816-1.304,11.939-0.222,17.716c1.042,5.565,0.975,11.053,1.111,16.597c0.246,10.018-0.207,20.112,0.894,30.034
			c1.354,12.19,0.951,24.455,2.247,36.572c1.423,13.308,0.957,26.692,2.264,39.91c2.199,22.228-0.064,44.542,2.181,66.669
			c1.202,11.843,0.971,23.673,1.731,35.493c0.974,15.147,1.804,30.305,2.484,45.469c0.249,5.555,1.908,10.883,1.7,16.55
			c-0.329,8.989-3.907,15.64-11.765,20.003c-2.986,1.657-6.134,2.377-9.578,2.421
			C611.374,1139.883,598.387,1140.214,587.802,1140.434z"/>
	</g>
	<g>
		<path fill="#D07153" d="M566.136,947.02c-0.933,0-1.72-0.722-1.786-1.666c-1.689-24.176-4.527-50.398-7.272-75.755
			c-2.32-21.426-4.719-43.583-6.375-64.128c-0.08-0.988,0.655-1.853,1.642-1.931c1.006-0.095,1.853,0.655,1.931,1.642
			c1.653,20.497,4.049,42.629,6.365,64.033c2.75,25.389,5.592,51.645,7.285,75.888c0.069,0.988-0.676,1.845-1.663,1.914
			C566.219,947.02,566.177,947.02,566.136,947.02z"/>
	</g>
	<g>
		<path fill="#3B1A11" d="M679.666,809.181c0,3.763-0.418,7.387-2.973,10.081c-0.743,0.186-1.115,0.418-1.44,0.371
			c-13.38-1.672-26.573,0.14-39.814,2.044c-8.409,1.254-16.817,2.788-25.273,3.345c-14.82,0.975-29.268,4.599-44.088,5.854
			c-2.555,0.186-5.11,0.836-7.665,0.929c-21.138,0.79-42.276,2.509-63.367,1.951c-19.559-0.511-39.349-0.743-58.49-5.9
			c-2.183-0.604-4.367-1.208-6.504-1.812c-1.161-0.325-2.276-0.604-3.391-0.975c-0.697-0.139-1.394-0.372-2.044-0.558
			c-1.161-0.325-2.323-0.65-3.484-0.975c-6.143-1.72-10.652-4.461-15.829-8.229c-3.537-2.574-2.956-4.999-2.986-9.006
			c-0.046-6.225,0.14-12.45,0.464-18.676c0.046-1.208,0.139-2.416,0.233-3.624c0.186-3.299,0.418-6.643,0.697-9.942
			c1.672-19.512,3.763-39.024,5.621-58.536c0.975-9.988,1.44-19.976,2.741-29.872c3.996-30.522,7.526-61.091,15.61-90.87
			c6.736-24.715,14.68-49.059,24.901-72.566c1.487-3.392,2.602-7.015,5.528-10.081c1.765-0.371,3.902-0.836,6.365-1.347
			c7.108-9.756,15.052-19.047,24.158-27.317c21.184-19.233,45.621-31.452,74.331-34.843c6.969-0.79,13.937-1.58,20.998-1.394
			c13.147,0.325,25.737,2.973,37.677,8.548c10.22,4.785,17.375,12.404,21.974,22.671c3.995,8.92,6.086,18.444,6.132,28.06
			c0.047,10.128,1.672,19.976,3.484,29.779c3.67,20.069,6.736,40.139,8.78,60.441c1.44,14.727,3.345,29.407,4.413,44.181
			c1.161,15.516,2.695,30.987,4.413,46.457c1.812,16.167,3.066,32.427,4.646,48.594c1.069,10.36,1.161,20.766,2.323,31.034
			c0.557,5.064,0.929,10.128,1.208,15.191c0.093,1.161,0.139,2.276,0.186,3.438C679.573,793.479,679.666,801.33,679.666,809.181z"/>
	</g>
	<g>
		<path fill="#FFECD9" d="M522.088,594.751c2.708-2.416,6.079-5.401,9.454-4.065c1.202,0.476,2.13,1.445,3.013,2.391
			c21.832,23.377,41,49.24,57.012,76.929c8.985,15.537,17.144,34.273,10.294,50.862c-1.934,4.683-5.579,9.24-10.604,9.885
			c-5.379,0.69-10.151-3.233-14.062-6.99c-20.713-19.899-38.755-42.565-53.567-67.171c-6.989-11.609-16.34-25.365-19.764-38.594
			C500.124,603.553,513.216,602.668,522.088,594.751z"/>
	</g>
	<g>
		<path fill="#F0DED4" d="M642.361,1119.514c-18.769,8.037-38.652,5.11-58.721,2.602c-2.277,1.858-4.599,3.624-6.876,5.482
			c-8.269,6.829-17.979,10.081-28.246,12.404c-10.035,2.323-19.883,2.23-29.686-0.557c-3.299-0.929-6.458-0.79-9.663-0.65
			c-5.203-3.159-7.526-8.316-9.663-13.426c-2.694-6.504-5.017-13.194-7.201-19.883c-8.594-26.527-14.495-53.658-19.651-81.021
			c-2.137-11.475-4.135-22.996-6.039-34.517c-0.186-1.161-0.418-2.369-0.604-3.577c-0.557-3.438-1.115-6.875-1.673-10.36
			c-0.046-0.279-0.093-0.557-0.139-0.836c-0.139-0.929-0.279-1.858-0.372-2.788c-0.464-3.856-0.511-7.758-0.65-11.614
			c-0.186-5.528,0.372-11.103-1.068-15.609c1.068-2.416,2.276-3.159,3.856-3.391c9.524-1.394,19.094-2.462,28.757-2.462
			c8.92,0.046,17.839,0.046,26.759,0c8.873-0.047,17.746,0.093,26.62-1.394c6.179-1.022,12.59-1.022,18.862-0.697
			c17.096,0.883,34.146,0.976,51.196-0.047c3.716-0.232,7.387-0.232,11.057-1.254c2.137-0.65,4.413-0.418,7.154,1.533
			c1.533,2.788,2.323,5.575,2.555,8.595c0.604,7.805,1.394,15.609,1.998,23.414c0.093,1.161,0.139,2.369,0.232,3.577
			c0.233,2.927,0.372,5.9,0.465,8.873c0.093,1.161,0.093,2.277,0.093,3.438c0.093,1.672,0.093,3.345,0.093,5.064
			c-0.093,20.023,0.418,40.139-0.139,60.162c-0.511,16.771,2.276,33.31,2.462,49.988c0,1.068,0.279,2.183,0.604,3.252
			C646.31,1109.108,645.566,1114.079,642.361,1119.514z"/>
	</g>
	<g>
		<path fill="#FEA386" d="M905.772,274.591c-6.411,4.599-15.238,3.949-22.485,6.736c-1.347,0.511-2.648,1.161-3.903,1.951
			c4.181,0.557,8.362-1.022,12.543-1.347c1.208-0.093,2.787,0.232,2.973,1.44c0.046,0.511-0.186,0.976-0.511,1.394
			c-2.509,3.67-7.34,4.088-11.336,4.878c-7.99,1.533-16.025,3.623-24.114,4.739c-16.518,2.279-18.181,9.665-19.589,25.086
			c-1.594,17.465-3.394,15.409-5.391,32.832c-2.78,24.256-5.948,48.467-9.502,72.622c-3.024,20.551-7.292,40.823-14.417,60.415
			c-9.952,27.365-37.758,21.173-59.482,11.932c-8.409-3.577-16.585-7.758-24.529-12.543c-2.183-1.254-4.274-2.602-6.411-3.949
			c-7.99-5.11-12.59-12.172-15.516-20.859c-5.343-15.842-4.599-31.312,1.812-46.643c2.277-5.528,5.668-10.406,10.035-14.495
			c4.924-4.646,10.732-6.643,17.375-5.203c5.507,1.2,10.961,3.055,15.954,5.694c2.773,1.466,7.101,6.144,9.976,6.699
			c8.014,1.547,7.098-12.623,8.41-19.667c5.884-31.593,11.362-63.564,17.37-94.871c1.89-9.851,4.936-19.883,14.075-25.344
			c3.809-2.276,7.665-5.063,11.892-6.55c4.181-1.486,8.548-2.694,12.822-4.042c3.531-1.208,7.108-2.369,10.499-3.995
			c2.788-1.394,5.389-3.113,7.898-4.924c1.905-1.394,3.995-3.81,6.179-4.692c5.621-2.276,4.042,5.482,2.509,8.362
			c-1.487,2.741-2.973,5.528-4.46,8.269c0.372-0.65,11.986-1.672,13.333-1.719c6.69-0.232,13.38-0.79,20.023-1.161
			c4.971-0.279,11.243-2.23,15.981-0.093c9.013,4.042-9.384,7.619-11.707,8.966c1.951,0.279,3.949-0.046,5.9-0.325
			c3.903-0.65,7.619-1.115,11.522-1.208c2.276-0.093,6.643,0.325,4.738,3.717c-1.254,2.23-7.897,3.252-10.22,4.042
			c2.88,0.047,5.761,0.139,8.641,0.372c0.929,0.046,2.091,0.279,2.369,1.161C907.352,273.197,906.516,274.08,905.772,274.591z"/>
	</g>
	<g>
		<path fill="#E88464" d="M754.415,487.653c-0.883,3.345-1.905,6.876-3.856,9.616c-8.409-3.577-16.585-7.758-24.529-12.543
			c-0.232-1.115-0.418-2.23-0.557-3.345c-2.602-19.001,1.672-38.281,7.619-56.492c1.998-6.086,4.227-12.265,8.362-17.096
			c3.02-3.531,6.969-6.04,10.825-6.922c4.274,2.23,8.316,4.785,12.218,7.619c0.186,0.697,0.279,1.487,0.371,2.323
			C767.377,436.689,760.966,462.519,754.415,487.653z"/>
	</g>
	<g>
		<path fill="#FFC08B" d="M567.088,293.081c4.764,7.578,12.383,10.516,19.993,13.496c4.148,1.624,8.137,3.759,12.393,4.981
			c13.85,3.977,27.132,3.713,37.979-6.153c4.596-1.795,8.027-0.411,11.306,1.477c13.838,7.966,27.246,16.455,39.245,27.195
			c12.753,11.415,27.418,20.325,41.807,29.532c13.532,8.658,25.326,19.29,35.66,30.637c0.989,4.71-0.801,8.145-2.208,11.475
			c-5.218,12.35-8.535,25.284-12.389,38.068c-5.468,18.138-11.95,35.914-21.416,52.439c-1.289,2.251-2.773,4.394-4.221,6.55
			c-0.62,0.923-1.38,1.751-1.766,2.234c-6.178,2.156-11.395,1.332-16.696-1.134c-9.754-4.538-19.659-8.751-29.496-13.111
			c-1.668-0.739-3.199-1.984-5.314-1.191c-1.63,1.745-1.106,4.056-1.119,6.194c-0.063,10.031-0.01,20.064-0.043,30.096
			c-0.011,3.356,0.605,6.601,1.117,9.905c1.295,8.361-0.251,16.185-6.18,23.4c-7.32,1.666-14.817,3.759-22.45,5.027
			c-15.708,2.609-31.399,5.456-47.444,5.34c-4.773-0.035-9.543,1.096-14.333,1.384c-11.911,0.719-23.636-1.63-35.451-2.489
			c-10.687-0.776-21.313-2.381-31.976-3.514c-15.837-1.684-31.699-3.164-47.23-6.921c-11.613-2.809-22.721-6.92-33.066-12.947
			c-1.886-1.099-3.605-2.487-5.426-3.758c-0.473-7.726-0.313-14.94,1.54-22.307c10.961-43.576,23.959-86.506,39.974-128.498
			c7.153-18.756,15.725-36.839,25.981-54.135c9.891-16.68,24.236-27.854,42.014-34.918c4.126-1.64,8.416-2.901,12.696-4.108
			C555.89,295.826,561.28,294.562,567.088,293.081z"/>
	</g>
	<g>
		<path fill="#5A599B" d="M540.602,343.933c7.314,15.912,9.283,33.725,10.107,51.219c1.208,25.667,0.156,51.44-3.14,76.923
			c0.453-3.504,8.827-11.134,10.884-14.671c3.391-5.83,5.846-11.986,8.143-18.304c4.161-11.442,6.05-23.514,7.672-35.62
			c4.372-32.629,5.823-70.369-18.21-95.595c-2.475-2.598-5.19-5.084-8.488-6.497c-5.588-2.395-11.982-1.397-17.953-0.255
			c-12.315,2.355-28.695,4.099-13.068,14.743C527.092,323.057,535.242,332.271,540.602,343.933z"/>
	</g>
	<g>
		<path fill="#5A599B" d="M572.636,728.656c1.914,2.421,3.957,4.919,6.786,6.153c4.781,2.086,10.264,0.009,15.028-2.115
			c49.757-22.181,96.301-50.859,142.648-79.489c17.729-10.951,26.575-19.425,14.516-40.121
			c-20.129-34.543-42.18-67.965-66.018-100.061c-0.897-1.208-1.908-2.491-3.364-2.87c-1.447-0.377-2.946,0.241-4.314,0.846
			c-23.573,10.427-47.632,20.148-70.85,31.34c-20.301,9.785-38.837,23.522-59.057,33.795c-6.977,2.616-13.229,5.671-19.711,9.372
			c-3.628,2.073-8.675,5.763-5.723,10.335c14.229,22.037,28.458,44.075,42.687,66.112c7.341,11.37,35.703,43.874,24.875,58.364
			c-0.841,1.125-1.959,2.128-3.33,2.434c-2.703,0.605-5.159-1.589-7.025-3.635c-30.759-33.729-49.541-76.423-74.951-114.345
			c-7.067-10.547-10.686-2.092-8.126,6.14c2.244,7.215,7.721,13.273,11.292,19.836c5.643,10.373,11.553,20.6,17.722,30.669
			C540.008,684.733,555.68,707.202,572.636,728.656z"/>
	</g>
	<g>
		<path fill="#FEA386" d="M699.085,678.219c-0.14,0.511-0.418,0.929-0.836,1.301c-0.372,0.372-0.836,0.697-1.301,0.929
			c-5.25,3.113-11.568,4.32-17.607,3.391c3.531,3.67,19.883,15.935,10.917,22.16c-3.623,2.509-10.453-2.137-11.753,3.902
			c-0.093,0.557-0.093,1.161-0.372,1.672c-0.557,1.161-2.137,1.347-3.438,1.347c-3.995,0.047-7.944,0.139-11.939,0.186
			c1.44,1.858,0.047,4.831-2.091,5.854c-2.183,0.976-4.692,0.511-7.015-0.139c-2.276-0.65-4.646-1.44-7.015-1.115
			c1.115,2.137-0.697,4.832-2.973,5.575c-9.524,3.066-17.932-6.365-22.067-13.194c-6.225-10.407-13.658-20.673-20.859-30.43
			c-15.331-20.813-29.826-42.276-42.462-64.807c-13.937-24.994-27.41-50.267-39.21-76.329c-0.976-1.998-1.858-3.995-2.741-5.993
			c-2.044-4.553-3.949-9.198-5.853-13.891c-1.719-4.274-3.392-8.595-5.064-12.869c-1.068-2.741-1.858-5.714-1.998-8.641
			c-0.79-15.981-0.093-31.869,4.599-47.34c1.394-4.646,3.206-9.059,5.854-13.194c5.25-8.176,13.008-9.57,21.37-6.736
			c3.113,1.068,6.179,2.834,8.687,4.971c11.196,9.431,20.58,20.302,25.319,34.564c3.299,9.942,7.062,19.28,11.01,28.711
			c1.347,3.206,2.695,6.457,4.088,9.756c0.557,1.394,1.161,2.834,1.765,4.274c6.179,14.959,11.8,30.337,20.627,43.995
			c3.206,4.971,6.829,9.709,9.895,14.773c3.484,5.761,6.225,11.939,9.059,18.025c9.802,21.091,21.045,41.533,33.542,61.137
			c3.299,5.157,6.736,10.36,11.382,14.355c6.504,5.575,14.913,8.502,23.414,9.756C696.437,674.549,699.642,675.85,699.085,678.219z"
			/>
	</g>
	<g>
		<path fill="#E88464" d="M584.336,507.861c-7.851,4.831-18.722,11.986-20.487,12.869c-8.92,4.553-18.118,8.501-27.549,11.753
			c-5.157,1.812-11.243,4.367-17.236,6.039c-0.976-1.998-1.858-3.995-2.741-5.993c-2.044-4.553-3.949-9.198-5.853-13.891
			c4.227-4.32,9.616-7.619,14.913-10.267c8.641-4.32,17.793-7.712,27.27-9.756c9.013-1.951,18.722-2.602,27.595-0.511
			C581.595,501.311,582.943,504.563,584.336,507.861z"/>
	</g>
	<g>
		<path fill="#FEA386" d="M697.738,217.505c-0.558,13.24-6.411,24.204-14.634,34.1c-6.829,8.316-15.145,14.216-25.04,17.561
			c-2.137,0.743-4.32,1.347-6.597,1.858c-0.372,0.047-0.697,0.279-1.394,0.604c-2.369,3.113-2.788,7.247-3.856,11.103
			c-0.372,1.44-0.79,2.88-1.301,4.32c-2.09,7.108-4.738,13.984-7.805,20.72c-1.347,3.066-2.88,6.039-4.692,8.827
			c-7.108,11.103-16.214,14.587-29.454,12.497c-10.267-1.673-19.233-5.25-26.341-13.008c-7.666-8.409-10.592-17.7-5.714-28.571
			c3.206-7.108,6.504-14.123,9.803-21.231c1.533-3.345,3.113-6.643,4.692-10.128c-3.02-2.648-5.807-5.11-8.594-7.479
			c-4.413-0.836-8.734-1.626-13.101-2.416c-15.888-2.927-25.598-12.497-29.779-27.921c-0.279-1.068-0.557-2.137-0.976-3.577
			c0.325-1.115,0.883-2.509,1.161-3.949c1.672-8.083,7.433-12.357,14.82-12.915c7.619-0.558,13.24-4.088,18.769-8.502
			c8.455-6.736,15.888-14.495,22.253-23.275c10.221-14.123,19.372-28.943,27.409-44.459c3.206-6.272,6.829-12.311,10.36-18.397
			c0.697-1.254,1.905-2.183,3.066-3.438c14.309,2.462,26.666,8.92,38.42,16.771c1.394,0.882,2.462,2.834,2.973,4.506
			c1.161,3.995,2.323,7.99,3.345,12.079c0.372,1.673,0.79,3.392,1.115,5.11c0.14,0.79,0.325,1.579,0.511,2.369
			c1.487,6.504,3.949,12.59,6.829,18.536c1.812,3.67,3.252,7.526,5.25,11.057c5.25,9.291,7.154,19.465,8.13,29.779
			C697.924,205.798,700.572,211.651,697.738,217.505z"/>
	</g>
	<g>
		<path fill="#E88464" d="M658.063,269.165c-2.137,0.743-4.32,1.347-6.597,1.858c-0.372,0.047-0.697,0.279-1.394,0.604
			c-2.369,3.113-2.788,7.247-3.856,11.103c-0.372,1.44-0.79,2.88-1.301,4.32c-0.65-0.093-1.301-0.232-1.951-0.325
			c-8.966-1.719-71.497-27.177-47.479-39.396c4.181-2.137,9.105-1.765,13.751-1.254c9.71,1.068,19.512,2.509,28.478,6.318
			C645.985,255.832,653.604,261.5,658.063,269.165z"/>
	</g>
	<g>
		<path fill="#FECEBA" d="M677.03,132.973c-6.045-4.865-11.518-9.869-17.586-13.997c-7.333-4.989-15.172-9.236-22.516-13.638
			c-2.985,0.786-3.608,3.018-4.396,5.043c-9.806,25.202-24.876,47.178-41.777,68.009c-5.633,6.943-12.003,13.23-19.705,17.864
			c-2.931,1.764-5.177,4.1-7.579,6.426c-7.5-0.637-15.427-4.003-21.949,3.472c-0.62,2.644-1.293,5.511-2.046,8.724
			c1.179,4.68,0.969,10.242,4.552,14.343c6.905,7.905,14.189,15.395,25.933,15.23c1.015-0.014,2.122,0.588,3.029,1.156
			c0.521,0.326,0.727,1.159,1.073,1.763c-6.249,5.168-12.58,7.286-20.245,6.256c-13.745-1.847-20.165-1.991-37.897-11.735
			c-1.666,0.189-2.651,1.298-3.114,2.713c-4.718,14.427-13.721,26.203-23.23,37.661c-13.217,15.926-29.135,28.462-47.577,37.837
			c-3.967,2.017-7.799,4.299-11.711,6.425c-16.4,8.912-33.749,15.277-51.899,19.592c-5.762,1.37-11.526,2.953-17.047,5.07
			c-10.499,4.025-20.08,9.569-27.34,18.506c-2.089,2.572-4.494,4.887-6.536,7.085c-3.072,1.29-5.392,0.386-7.508-1.386
			c-4.378-3.668-7.599-8.263-9.305-13.627c-4.835-15.203-6.287-30.461,0.406-45.614c0.897-2.031,1.726-4.122,2.308-6.26
			c4.38-16.081,14.339-28.417,26.77-38.812c12.295-10.281,26.024-18.448,40.68-24.983c7.496-3.342,15.394-5.454,23.449-6.819
			c13.505-2.288,27.098-4.068,40.577-6.489c18.086-3.249,34.925-9.869,50.34-19.954c0.583-0.382,0.934-1.119,1.49-1.809
			c-1.617-5.581-3.229-11.257-4.907-16.912c-4.877-16.431-4.649-32.992-0.536-49.436c7.551-30.186,23.8-54.922,48.144-74.243
			c13.342-10.588,28.594-17.154,45.445-19.66c6.212-0.924,12.603-1.321,18.76,0.537c3.345,1.01,6.704,1.159,9.888,0.286
			c12.089-3.317,23.721-0.485,34.949,3.182c15.571,5.085,28.48,14.209,36.882,28.816c4.993,8.682,6.799,17.927,5.468,27.851
			c-0.975,7.268-4.174,13.421-9.174,18.636C680.374,131.354,678.546,132.039,677.03,132.973z"/>
	</g>
	<g>
		<path fill="#3A3A80" d="M612.176,199.833c28.753-2.199,53.524-14.483,78.237-30.572c0.339,5.367,3.592,10.036,5.631,15.013
			c2.986,7.288,3.376,15.34,3.652,23.211c0.56,15.973-2.738,30.669-12.66,43.696c-8.922,11.714-22.418,20.139-37.344,20.838
			c-17.204,0.806-34.094-4.272-50.441-9.693c-11.246-3.729-22.819-7.88-31.311-16.142c7.491-0.229,14.982-0.457,22.473-0.686
			c2.208-0.067,4.458-0.142,6.542-0.877c4.627-1.631,7.568-6.174,9.462-10.7c3.857-9.218,3.887-23.348-7.485-26.139
			c-4.866-1.194-9.751-2.305-14.636-3.416c-6.93-1.576-13.861-3.152-20.791-4.729c1.302,0.296,5.321-2.308,7.252-2.294
			c2.478,0.018,4.929,0.913,7.407,1.264c6.595,0.935,13.412,1.233,20.063,1.486C602.985,200.276,607.63,200.181,612.176,199.833z"/>
	</g>
	<g>
		<path fill="#FFC08B" d="M488.697,327.333c-9.295,12.086-13.833,27.17-16.517,42.179c-8.552,47.826-0.037,96.866,8.469,144.7
			c0.607,3.415,1.283,6.986,3.446,9.698c6.257,7.845,14.6,3.9,21.864,0.738c9.107-3.964,18.496-7.253,28.013-10.084
			c19.14-5.693,38.767-9.517,58.35-13.32c-0.775-11.517-5.573-23.143-8.788-34.251c-3.513-12.139-7.027-24.278-10.54-36.417
			c-7.027-24.278-14.057-48.555-21.081-72.834c-4.227-14.605-9.391-37.377-22.568-46.973
			C516.526,301.433,496.711,316.913,488.697,327.333z"/>
	</g>
	<g>
		<path fill="#5A599B" d="M683.551,345.431c4.865,22.89,7.945,46.356,6.166,69.689c-1.78,23.333-8.64,46.631-22.244,65.671
			c10.251-55.753,5.182-127.605-23.181-177.624c10.634,4.099,21.445,4.621,28.057,14.434
			C678.02,326.017,681.45,335.549,683.551,345.431z"/>
	</g>
	<g>
		<path fill="#5A599B" d="M499.477,1137.407c0.705,2.824,1.764,5.865,4.273,7.34c1.595,0.938,3.521,1.075,5.368,1.185
			c22.961,1.367,45.957,2.021,68.953,2.433c11.711,0.209,23.494-0.044,35.193,0.497c2.28,0.105,8.142,1.872,10.181,0.788
			c3.86-2.052,2.888-8.216-1.535-8.804c20.832,2.772,42.69,1.833,63.69,2.614c2.368,0.088,4.876,0.143,6.935-1.03
			c2.058-1.173,3.33-4.057,1.967-5.994c-0.623-0.886-1.641-1.393-2.616-1.864c-17.742-8.578-35.485-17.155-53.227-25.733
			c-3.355,4.886-9.731,6.568-15.61,7.319c-13.317,1.703-27.003,0.465-39.798-3.6c-13.552,17.586-40.95,14.166-60.784,12.524
			c-5.15-0.426-18.025-4.773-22.523-2.834C494.672,1124.52,498.463,1133.347,499.477,1137.407z"/>
	</g>
	<g>
		<g>
			<g>
				<path fill="#E6AA93" d="M568.42,173.568c-0.367,0-0.74-0.116-1.055-0.358c-0.764-0.583-0.912-1.676-0.327-2.441
					c13.699-17.927,26.157-37.045,37.025-56.821c4.478-8.15,8.829-16.872,8.566-26.035c-0.027-0.962,0.73-1.765,1.692-1.792
					c0.964,0.032,1.765,0.73,1.792,1.692c0.288,10.035-4.287,19.243-8.997,27.813c-10.952,19.928-23.505,39.194-37.311,57.257
					C569.463,173.332,568.946,173.568,568.42,173.568z"/>
			</g>
		</g>
		<g>
			<g>
				<path fill="#E6AA93" d="M577.153,140.479c-0.356,0-0.717-0.109-1.028-0.336c-0.776-0.569-0.944-1.658-0.377-2.436
					c7.486-10.221,14.284-21.076,20.207-32.261c2.756-5.206,5.437-10.773,5.308-16.587c-0.02-0.962,0.742-1.758,1.704-1.781
					c1.107-0.1,1.758,0.744,1.781,1.704c0.147,6.649-2.872,12.93-5.712,18.292c-6.002,11.335-12.891,22.332-20.475,32.692
					C578.219,140.232,577.691,140.479,577.153,140.479z"/>
			</g>
		</g>
		<g>
			<g>
				<path fill="#E6AA93" d="M584.355,109.288c-0.367,0-0.74-0.116-1.055-0.358c-0.764-0.583-0.912-1.676-0.327-2.441
					c4.183-5.478,6.916-11.986,7.903-18.819c0.136-0.95,1.041-1.595,1.974-1.474c0.953,0.138,1.613,1.021,1.474,1.974
					c-1.071,7.418-4.04,14.484-8.584,20.434C585.399,109.052,584.881,109.288,584.355,109.288z"/>
			</g>
		</g>
		<g>
			<g>
				<path fill="#E6AA93" d="M507.56,240.348c-0.542,0-1.075-0.252-1.415-0.724c-3.559-4.941-6.179-10.641-7.626-16.562
					c-0.354-0.265-0.542-0.656-0.456-1.193l0.186,0.029c-0.014-0.066-0.027-0.129-0.041-0.195l0.324-0.07l-0.406-0.166
					c0.134-0.828,0.871-1.647,1.708-1.667c0.898,0.023,1.606,0.356,1.781,1.177c1.263,5.936,3.809,11.68,7.356,16.609
					c0.563,0.78,0.386,1.869-0.395,2.432C508.268,240.241,507.912,240.348,507.56,240.348z"/>
			</g>
		</g>
		<g>
			<g>
				<path fill="#E6AA93" d="M498.451,240.627c-0.449,0-0.898-0.172-1.241-0.519c-3.845-3.897-6.578-8.994-7.701-14.35
					c-0.197-0.941,0.406-1.865,1.35-2.062c0.946-0.186,1.865,0.411,2.062,1.35c0.984,4.707,3.389,9.189,6.771,12.617
					c0.676,0.685,0.667,1.788-0.018,2.464C499.335,240.459,498.893,240.627,498.451,240.627z"/>
			</g>
		</g>
		<g>
			<g>
				<path fill="#E6AA93" d="M357.176,337.402c-0.692,0-1.345-0.415-1.617-1.096c-0.358-0.894,0.077-1.908,0.971-2.264
					c8.445-3.371,17.111-6.572,25.492-9.668c16.766-6.195,34.103-12.601,50.359-20.613c28.16-13.876,48.871-31.002,61.562-50.903
					c0.519-0.81,1.592-1.046,2.407-0.533c0.812,0.519,1.05,1.595,0.533,2.407c-13.041,20.445-34.223,37.994-62.962,52.155
					c-16.416,8.091-33.84,14.529-50.692,20.756c-8.359,3.087-17.006,6.281-25.406,9.634
					C357.61,337.363,357.392,337.402,357.176,337.402z"/>
			</g>
		</g>
		<g>
			<g>
				<path fill="#E6AA93" d="M433.912,290.223c-0.594,0-1.173-0.304-1.499-0.851c-0.492-0.828-0.22-1.896,0.606-2.389
					c16.566-9.852,31.531-22.085,44.479-36.358c0.647-0.715,1.747-0.767,2.461-0.12c0.712,0.646,0.767,1.749,0.12,2.461
					c-13.182,14.529-28.414,26.983-45.277,37.011C434.52,290.144,434.214,290.223,433.912,290.223z"/>
			</g>
		</g>
	</g>
	<g>
		<g>
			<path fill="#EB8F6A" d="M497.97,528.549c-0.286,0-0.569-0.07-0.826-0.209c-0.433-0.234-0.746-0.637-0.864-1.112
				c-6.832-27.439-14.379-55.102-22.435-82.228c-0.274-0.923,0.252-1.892,1.173-2.166c0.93-0.286,1.892,0.252,2.166,1.173
				c7.889,26.565,15.291,53.646,22.013,80.524c29.589-10.267,60.256-17.814,91.224-22.446
				c-11.809-29.319-19.47-60.115-22.775-91.567c-0.1-0.957,0.594-1.812,1.552-1.915c0.951-0.091,1.812,0.594,1.915,1.552
				c3.346,31.86,11.21,63.037,23.369,92.667c0.204,0.497,0.168,1.059-0.098,1.527c-0.265,0.465-0.733,0.783-1.263,0.86
				c-32.123,4.659-63.942,12.481-94.572,23.242C498.36,528.517,498.165,528.549,497.97,528.549z"/>
		</g>
	</g>
	<g>
		<g>
			<g>
				<path fill="#FFC08B" d="M470.702,564.26c-8.223,24.343-11.707,50.359-15.052,75.539c-2.276,16.91-4.599,34.424-8.362,51.335
					c-2.23,9.988-5.017,19.976-7.665,29.686c-3.206,11.614-6.551,23.646-8.92,35.632c-2.183,11.103-3.623,22.346-4.599,33.635
					c-0.047,1.208-0.139,2.369-0.232,3.577c-0.743,10.267-1.115,20.58-1.254,30.847c-1.161-0.325-2.323-0.65-3.484-0.975
					c0.14-10.174,0.511-20.441,1.347-30.662c0.046-1.208,0.139-2.416,0.232-3.577c0.929-11.243,2.416-22.439,4.599-33.542
					c2.369-12.125,5.714-24.204,8.92-35.865c2.695-9.663,5.435-19.605,7.619-29.5c3.763-16.771,6.086-34.192,8.316-51.056
					c3.392-25.365,6.922-51.567,15.238-76.189c0.325-0.929,1.301-1.44,2.23-1.115C470.563,562.355,471.027,563.331,470.702,564.26z"
					/>
			</g>
		</g>
		<g>
			<g>
				<path fill="#FFC08B" d="M480.551,568.302l-44.552,223.83l-0.511,2.555c-0.047,0.279-0.093,0.557-0.186,0.836
					c-1.998,10.035-3.995,20.255-5.25,30.522c-1.161-0.325-2.276-0.604-3.391-0.975c1.254-10.174,3.252-20.255,5.203-30.197
					c0.093-0.279,0.139-0.604,0.186-0.883l0.511-2.555l44.552-223.83c0.186-0.929,1.115-1.533,2.044-1.347
					C480.087,566.444,480.737,567.373,480.551,568.302z"/>
			</g>
		</g>
		<g>
			<g>
				<path fill="#FFC08B" d="M679.201,785.628c-20.859,0.511-41.811,3.438-62.392,6.318l-7.99,1.068
					c-34.192,4.739-69.221,8.455-103.971,8.455c-23.414,0-46.736-1.672-69.546-5.947c-1.161-0.186-2.323-0.418-3.438-0.65
					c-1.998-0.372-3.995-0.79-5.993-1.208c-1.115-0.279-2.276-0.511-3.391-0.79c-6.597-1.486-13.194-3.252-19.698-5.25
					c0.046-1.208,0.139-2.416,0.233-3.624c6.504,2.044,13.054,3.81,19.698,5.296c1.115,0.325,2.23,0.557,3.391,0.79
					c2.137,0.511,4.274,0.929,6.458,1.347c1.115,0.232,2.276,0.465,3.438,0.697c56.213,10.406,115.492,5.25,172.309-2.555
					l8.037-1.115c20.627-2.88,41.672-5.761,62.67-6.272C679.109,783.351,679.155,784.466,679.201,785.628z"/>
			</g>
		</g>
	</g>
	<g>
		<g>
			<g>
				<path fill="#B4A79F" d="M587.37,1118.692c-0.1,0-0.2-0.007-0.302-0.02c-0.646-0.093-2.185-0.581-2.513-3.162l-21.768-171.161
					c-0.12-0.955,0.554-1.826,1.508-1.949c0.98-0.113,1.828,0.556,1.949,1.508l21.659,170.307c0.324,0.048,0.628,0.161,0.855,0.343
					c0.878,0.701,0.96,1.942,0.59,2.804C588.992,1118.183,588.223,1118.692,587.37,1118.692z"/>
			</g>
		</g>
		<g>
			<g>
				<path fill="#B4A79F" d="M641.153,973.035c-22.625,5.575-46.828,5.11-69.082-1.719c-0.511-0.14-1.487-0.465-2.462-0.929
					c-1.068-0.557-2.137-1.301-2.834-2.416c-0.325,0.093-0.651,0.186-0.976,0.279c-22.207,6.69-45.249,10.081-68.338,10.081
					c-11.057,0-22.16-0.79-33.124-2.323c-0.046-0.279-0.093-0.557-0.139-0.836c-0.139-0.929-0.279-1.858-0.372-2.788
					c33.914,4.971,68.617,2.369,101.555-7.619c0.604-0.186,1.254-0.371,1.858-0.557c0.511-0.186,1.022-0.093,1.44,0.139
					c0.047,0.047,0.139,0.093,0.186,0.186l0.047,0.047c0.279,0.232,0.511,0.557,0.604,0.976c0.14,0.929,1.347,1.765,3.577,2.462
					c21.835,6.643,45.621,7.062,67.827,1.44C641.014,970.62,641.06,971.827,641.153,973.035z"/>
			</g>
		</g>
		<g>
			<g>
				<path fill="#B4A79F" d="M641.711,985.347c-11.8,1.208-24.251-0.186-36.422-1.533c-7.015-0.79-14.309-1.58-21.277-1.858
					c-4.274-0.186-8.594-0.139-12.915,0c-1.161,0.047-2.323,0.14-3.484,0.232c-12.079,0.697-24.297,2.555-36.236,4.367
					c-15.378,2.323-30.987,4.692-46.457,4.692c-6.132,0-12.265-0.372-18.304-1.301c-0.186-1.161-0.418-2.369-0.604-3.577
					c20.813,3.391,42.322,0.186,64.854-3.252c11.893-1.812,24.111-3.67,36.283-4.413c1.161-0.093,2.323-0.139,3.531-0.186
					c4.506-0.186,9.013-0.232,13.473-0.047c7.108,0.279,14.448,1.069,21.51,1.858c12.079,1.347,24.39,2.741,35.958,1.579
					C641.711,983.07,641.711,984.185,641.711,985.347z"/>
			</g>
		</g>
	</g>
	<g>
		<g>
			<g>
				<path fill="#3A3A80" d="M395.51,501.7c-0.122,0-0.245-0.011-0.367-0.039c-0.941-0.202-1.54-1.127-1.338-2.069
					c12.873-60.047,48.873-113.772,80.635-161.173c0.535-0.801,1.613-1.016,2.418-0.476c0.798,0.535,1.012,1.617,0.476,2.418
					c-31.588,47.138-67.39,100.568-80.122,159.961C397.037,501.14,396.313,501.7,395.51,501.7z"/>
			</g>
		</g>
		<g>
			<g>
				<path fill="#3A3A80" d="M391.858,523.255c-0.222,0-0.449-0.043-0.667-0.134c-0.889-0.367-1.311-1.388-0.941-2.275
					c1.486-3.58,2.237-7.52,2.175-11.392c-0.016-0.962,0.753-1.753,1.715-1.769c1.016,0.145,1.753,0.753,1.769,1.715
					c0.068,4.344-0.776,8.765-2.443,12.78C393.19,522.851,392.541,523.255,391.858,523.255z"/>
			</g>
		</g>
		<g>
			<g>
				<path fill="#3A3A80" d="M384.338,557.419c-0.091,0-0.184-0.007-0.279-0.023c-0.948-0.152-1.595-1.046-1.443-1.996l2.293-14.296
					c0.15-0.948,1.016-1.617,1.996-1.443c0.948,0.152,1.595,1.046,1.443,1.996l-2.293,14.295
					C385.919,556.809,385.178,557.419,384.338,557.419z"/>
			</g>
		</g>
		<g>
			<g>
				<path fill="#3A3A80" d="M383.751,634.851c-0.61,0-1.2-0.32-1.52-0.887c-5.567-9.888-8.173-22.019-7.742-36.059
					c0.379-12.313,2.992-24.476,5.521-36.238c0.204-0.944,1.143-1.538,2.069-1.338c0.941,0.202,1.54,1.13,1.338,2.069
					c-2.495,11.612-5.077,23.619-5.444,35.616c-0.413,13.395,2.042,24.914,7.293,34.239c0.472,0.839,0.175,1.901-0.662,2.373
					C384.334,634.779,384.039,634.851,383.751,634.851z"/>
			</g>
		</g>
		<g>
			<g>
				<path fill="#3A3A80" d="M393.859,626.889c-0.601,0-1.184-0.311-1.508-0.867c-9.103-15.666-10.131-35.657-2.686-52.173
					c0.395-0.878,1.425-1.261,2.305-0.871c0.876,0.395,1.266,1.427,0.871,2.305c-6.991,15.507-6.025,34.278,2.522,48.989
					c0.483,0.833,0.202,1.899-0.631,2.382C394.455,626.814,394.156,626.889,393.859,626.889z"/>
			</g>
		</g>
		<g>
			<g>
				<path fill="#3A3A80" d="M408.794,377.276c-2.266,0-4.119-0.837-5.367-2.518c-1.041-1.397-1.42-3.058-1.093-4.798
					c0.66-3.502,4.026-6.71,6.957-8.545c15.427-9.659,32.141-17.04,49.676-21.94c5.294-1.474,9.021-0.873,11.079,1.801
					c0.585,0.762,0.445,1.856-0.32,2.443c-0.762,0.588-1.856,0.442-2.443-0.32c-1.102-1.434-3.586-1.626-7.379-0.567
					c-17.213,4.809-33.62,12.054-48.764,21.536c-2.375,1.486-4.959,3.99-5.381,6.236c-0.15,0.792-0.002,1.45,0.463,2.073
					c2.08,2.808,7.844-0.438,8.981-1.114l45.781-27.38c0.828-0.49,1.896-0.225,2.389,0.601c0.495,0.826,0.225,1.894-0.601,2.389
					l-45.781,27.38C413.959,376.366,411.153,377.276,408.794,377.276z"/>
			</g>
		</g>
		<g>
			<g>
				<path fill="#3A3A80" d="M424.022,394.368c-0.549,0.002-1.109-0.048-1.679-0.15c-0.515-0.093-0.96-0.413-1.214-0.869
					s-0.29-1.003-0.098-1.488c8.951-22.537,26.593-41.535,48.403-52.126c0.254-0.122,0.506-0.179,0.792-0.175
					c0.542-0.762,1.597-0.966,2.384-0.442c0.801,0.533,1.019,1.613,0.488,2.416c-10.988,16.562-23.616,32.148-37.535,46.325
					C432.354,391.134,428.518,394.368,424.022,394.368z M466.343,345.275c-18.145,10.126-32.858,26.379-41.079,45.468
					c2.804-0.581,5.48-2.947,7.812-5.324C445.243,373.027,456.41,359.548,466.343,345.275z"/>
			</g>
		</g>
	</g>
	<g>
		<g>
			<path fill="#64BCBD" d="M296.011,510.676c-0.928,0-1.785-0.311-2.513-0.946c-0.504-0.44-0.712-1.132-0.533-1.776
				c3.482-12.621,11.905-24.762,24.354-35.108c11.018-9.153,23.789-15.979,36.14-22.577c0.851-0.451,1.905-0.132,2.357,0.715
				c0.454,0.848,0.134,1.903-0.715,2.357c-0.905,0.483-1.812,0.969-2.72,1.456c0.052,0.497-0.111,1.014-0.488,1.4l-50.767,51.81
				C299.402,509.765,297.601,510.676,296.011,510.676z M343.806,459.467c-8.477,4.739-16.818,9.874-24.261,16.06
				c-11.242,9.341-19.032,20.15-22.634,31.379c0.506-0.265,1.116-0.717,1.726-1.338L343.806,459.467z"/>
		</g>
	</g>
	<g>
		<g>
			<g>
				<g>
					<path fill="#3A3A80" d="M687.007,1061.671c0.202-1.835-0.454-3.815-1.71-5.167c-1.034-1.116-2.341-1.663-3.793-1.658
						c-1.708,0.061-3.042,0.973-4.262,1.901c-19.304,14.701-34.559,35.307-43.008,58.052c0.478,0.132,0.967,0.2,1.426,0.415
						c-0.501-0.235,1.223,0.426,1.248,0.433c0.479,0.145,0.964,0.269,1.449,0.391c0.387,0.098,0.776,0.191,1.164,0.283
						c0.055-0.033,0.122-0.015,0.174-0.054l21.416-16.494c4.961-3.822,10.276-7.463,15.704-6.44c0.801,0.152,1.18,0.392,1.263,0.551
						c0.134,0.261-0.265,1.134-1.552,2.184c-10.265,8.361-21.784,14.876-34.239,19.365c-0.591,0.214-0.967,0.722-1.086,1.295
						c0.331,0.081,0.663,0.155,0.992,0.241c0.947,0.248,1.778,0.683,2.477,1.252c12.359-4.607,23.825-11.118,34.056-19.454
						c2.597-2.116,3.487-4.482,2.443-6.49c-0.637-1.225-1.883-2.021-3.707-2.368c-6.866-1.291-13.139,2.987-18.481,7.102
						l-1.695,1.307c9.035-9.62,17.759-19.549,26.084-29.684C684.773,1066.929,686.692,1064.59,687.007,1061.671z M639.044,1112.036
						c8.466-20.552,22.652-39.073,40.307-52.518c0.808-0.612,1.588-1.166,2.273-1.189c0.014-0.002,0.027-0.002,0.041-0.002
						c0.381,0,0.742,0.184,1.077,0.547c0.572,0.612,0.894,1.586,0.801,2.42c-0.188,1.747-1.409,3.357-2.863,5.131
						C667.669,1082.266,653.669,1097.602,639.044,1112.036z"/>
				</g>
			</g>
			<g>
				<g>
					<path fill="#3A3A80" d="M615.004,1064.624c-2.132-2.286-5.714-2.051-8.005-0.665c-2.107,1.27-3.419,3.242-4.684,5.319
						c-9.084,14.92-15.615,31.025-19.495,47.972c1.451,0.623,2.623,1.745,3.375,3.164c0.364,0.214,0.635,0.528,0.945,0.802
						c0.542,0.002,1.077-0.217,1.417-0.69c10.485-14.463,19.431-30.088,26.593-46.441
						C615.834,1072.516,617.921,1067.743,615.004,1064.624z M611.955,1072.688c-6.935,15.843-15.573,30.991-25.678,45.042
						c3.815-16.378,10.317-32.354,19.014-46.638c1.032-1.695,2.076-3.285,3.509-4.151c0.572-0.345,1.307-0.556,1.998-0.556
						c0.646,0,1.254,0.184,1.66,0.619C613.354,1067.961,613.187,1069.875,611.955,1072.688z"/>
				</g>
			</g>
		</g>
		<g>
			<g>
				<path fill="#3A3A80" d="M622.882,1141.228c-0.311,0-0.626-0.084-0.912-0.259l-37.191-22.915
					c-0.819-0.506-1.073-1.579-0.569-2.398c0.501-0.817,1.572-1.073,2.398-0.569l37.191,22.916c0.819,0.506,1.073,1.579,0.569,2.398
					C624.039,1140.933,623.467,1141.228,622.882,1141.228z"/>
			</g>
		</g>
	</g>
	<g>
		<g>
			<path fill="#D07153" d="M835.129,285.299c-0.392,0-0.777-0.194-1.006-0.549c-1.769-2.739-4.205-6.239-7.369-9.01
				c-2.179-1.908-5.687-4.302-10.02-4.862c-0.655-0.084-1.118-0.684-1.032-1.337c0.082-0.657,0.701-1.116,1.337-1.032
				c3.904,0.503,7.807,2.383,11.292,5.434c3.384,2.965,5.946,6.641,7.799,9.513c0.358,0.554,0.2,1.293-0.356,1.651
				C835.575,285.236,835.35,285.299,835.129,285.299z"/>
		</g>
		<g>
			<path fill="#D07153" d="M847.253,279.475c-0.322,0-0.642-0.13-0.878-0.385c-3.48-3.765-5.944-8.393-7.125-13.381
				c-0.15-0.644,0.246-1.287,0.889-1.44c0.638-0.145,1.284,0.248,1.438,0.888c1.086,4.592,3.352,8.848,6.554,12.311
				c0.448,0.486,0.417,1.242-0.067,1.689C847.834,279.368,847.545,279.475,847.253,279.475z"/>
		</g>
	</g>
	<g>
		<path fill="#E88464" d="M551.556,212.639c-0.953,0.362-1.733,1.096-2.29,1.949c-1.393,2.135-1.417,4.947-0.613,7.367
			s2.346,4.518,3.954,6.496c2.328,2.863,5.32,5.787,9.009,5.739c1.021-0.013,2.15-0.348,2.644-1.242
			c0.499-0.903,0.176-2.029-0.233-2.977c-1.023-2.369-2.521-4.509-3.543-6.879C558.889,219.394,559.133,209.76,551.556,212.639z"/>
	</g>
	<g>
		
			<ellipse transform="matrix(0.0065 -1 1 0.0065 436.9891 796.7445)" fill="#26130C" cx="619.479" cy="178.445" rx="7.281" ry="5.579"/>
	</g>
	<g>
		
			<ellipse transform="matrix(0.0065 -1 1 0.0065 507.0183 833.3189)" fill="#26130C" cx="672.901" cy="161.488" rx="7.281" ry="5.579"/>
	</g>
	<g>
		<g>
			<path fill="#803520" d="M612.741,160.052c-0.756,0.147-1.535,0.185-2.236-0.109c-1.598-0.671-1.448-2.697-0.495-3.851
				c0.443-0.532,10.906-12.987,23.718-7.4c1.568,0.682,2.283,2.506,1.6,4.072c-1.074,2.462-3.627,1.636-5.717,1.682
				c-2.59,0.058-5.102,0.905-7.464,1.911c-2.909,1.24-5.722,2.76-8.783,3.552C613.16,159.962,612.951,160.011,612.741,160.052z"/>
		</g>
	</g>
	<g>
		<g>
			<path fill="#803520" d="M677.157,140.665c-3.531,0.464-7.015,1.44-10.267,2.973c-0.976,0.465-1.951,0.976-2.973,1.161
				c-0.372,0.093-0.743,0.14-1.115,0.093c-0.697,0-1.394-0.232-1.951-0.65c-3.299-2.787,4.506-7.433,6.365-8.455
				c2.602-1.486,5.435-2.416,8.316-2.602c0.372,1.673,0.79,3.392,1.115,5.11C676.786,139.086,676.971,139.875,677.157,140.665z"/>
		</g>
	</g>
</g>
</svg>
