<?xml version="1.0" encoding="utf-8"?>
<!-- Generator: Adobe Illustrator 27.1.0, SVG Export Plug-In . SVG Version: 6.00 Build 0)  -->
<svg version="1.1" id="Layer_1" xmlns="http://www.w3.org/2000/svg" xmlns:xlink="http://www.w3.org/1999/xlink" x="0px" y="0px"
	 viewBox="0 0 500 500" style="enable-background:new 0 0 500 500;" xml:space="preserve">
<style type="text/css">
	.st0{fill:#478FCC;}
	.st1{fill:#95C8EC;}
	.st2{fill:#FCB64D;}
	.st3{fill:#FAA629;}
	.st4{fill:#FFDF81;}
	.st5{fill:#465B65;}
	.st6{fill:#F1592B;}
	.st7{fill:#4554A5;}
</style>
<image style="display:none;overflow:visible;enable-background:new    ;" width="512" height="512" xlink:href="B468E174.png"  transform="matrix(0.8254 0 0 0.8254 38.7097 38.7097)">
</image>
<path class="st0" d="M129.6,212.5l-46.3,17.6c-1.9,0.7-3.6,1.8-5,3.1l36.2-54.8c4.8-7.2,14.5-9.2,21.7-4.4
	c7.2,4.8,9.2,14.5,4.4,21.7L129.6,212.5z"/>
<path class="st0" d="M153.2,160.3h15.5c38,0,68.8,31.1,68.8,69.5v2.5L210.8,250v46.2h-90.7v-89.6
	C120.1,180.9,127.9,160.3,153.2,160.3"/>
<path class="st1" d="M156.1,195.3h19.9c14.2,0,25.8-11.5,25.8-25.8v-13.9c0-14.2-11.6-25.8-25.8-25.8H156
	c-14.2,0-25.8,11.6-25.8,25.8v13.9C130.3,183.7,141.8,195.3,156.1,195.3"/>
<path class="st2" d="M210.6,250.1l26.9-17.8v77.8c0,7.4-6,13.4-13.4,13.4s-13.4-6-13.4-13.4L210.6,250.1L210.6,250.1z"/>
<path class="st2" d="M203,86.3l-15.8-19.1l-56.1,19.1l-0.9,27.6l-8.9-10.4V84.4c-0.8,3.4-1.3,7-1.3,10.7v10.1
	c0,25.1,20.3,45.4,45.4,45.4h1c25.1,0,45.4-20.3,45.4-45.4l-8.9,8.8V86.3z"/>
<path class="st3" d="M165.5,150.5h1c6,0,11.6-1.2,16.9-3.2v15.2c0,8.4-6.8,15.2-15.2,15.2h-5.7c-8.4,0-15.2-6.8-15.2-15.2v-15.9
	C152.8,149.1,159,150.5,165.5,150.5"/>
<path class="st4" d="M184.1,50l-4.1-9.1h-13.5c-24.4,0-44.2,19.2-45.3,43.3c0,0.1,0,0.1-0.1,0.2v1.9v17.2l8.9,10.4l0.9-27.6
	L187,67.2l15.8,19.1v27.6l8.9-8.8V81.6C211.6,65.5,199.6,52.2,184.1,50"/>
<path class="st2" d="M95.8,258.1l60.5-23c8.1-3.1,12.2-12.1,9.1-20.2c-3.1-8.1-12.1-12.2-20.2-9.1l-60.5,23
	c-8.1,3.1-12.2,12.1-9.1,20.2C78.6,257.1,87.7,261.2,95.8,258.1"/>
<polygon class="st5" points="164.4,295.6 165.9,295.6 210.4,295.6 201.5,459.1 173.2,459.1 165.2,310.3 157.1,459.1 128.8,459.1 
	119.9,295.6 "/>
<path class="st2" d="M316.3,232.1l-0.1,64.8c0,8.7,7,15.7,15.6,15.7c8.7,0,15.7-7,15.7-15.6l0.1-64.8c0-8.7-7-15.7-15.6-15.7
	S316.3,223.5,316.3,232.1"/>
<path class="st6" d="M299.9,153.9V96l53.2-30.9l17.7,21.6v67.2l18.3-26.2V88.4c0-25-12.3-45.4-37.4-45.4h-34
	c-25,0-33.4,20.3-33.4,45.4v39.3L299.9,153.9z"/>
<path class="st2" d="M371,86.7l-17.7-21.6L300,96v32.8c8.8,9.6,21.5,15.6,35.6,15.6c14,0,26.5-5.9,35.4-15.4L371,86.7L371,86.7z"/>
<g>
	<g>
		<path class="st2" d="M291.5,359.5l5.3,97.5h31.6l5-91.3C318.8,365.5,304.7,363.4,291.5,359.5z"/>
		<path class="st2" d="M336.3,365.6l5,91.3h31.6l5.3-97.4C365,363.4,350.9,365.5,336.3,365.6z"/>
	</g>
</g>
<path class="st2" d="M276,295.6l13.1-59.1l2.6-11.1l-23.1-19.6c0.1-0.3,0.2-0.7,0.3-1c-0.3,0.9-0.5,1.8-0.7,2.7l-14.1,71.4
	c-1.4,8.5,4.3,16.6,12.9,18.1C270.1,297.3,273.3,296.9,276,295.6z"/>
<path class="st7" d="M380.9,236.5l-2.6-11.1l23.9-22.1c-9.4-27.3-36.7-47.1-67.3-47.1l0,0c-31.5,0-58.1,21-66.2,49.5l23.1,19.6
	l-2.6,11.1L264,349.5c20.8,10.9,44.9,17.1,70.7,17.1c25.9,0,50.1-6.3,71-17.3l-25-112.9L380.9,236.5L380.9,236.5z"/>
<path class="st3" d="M334.5,156.2L334.5,156.2c6.1,0,12.1,0.8,17.8,2.3c0.4-1.5,0.7-3.1,0.7-4.8v-12.4c-5.2,2.1-10.9,3.2-16.9,3.2
	h-1c-6.5,0-12.7-1.4-18.4-3.9v13c0,1.6,0.2,3.2,0.6,4.6C322.9,156.9,328.6,156.2,334.5,156.2z"/>
<path class="st2" d="M335.3,205.8l52,38.5c7,5.1,16.8,3.7,21.9-3.3s3.7-16.8-3.3-21.9l-52-38.5c-7-5.1-16.8-3.7-21.9,3.3
	S328.3,200.7,335.3,205.8"/>
<path class="st3" d="M405.9,219.2c6.5,4.8,8.2,13.8,4.1,20.6c3-4.3,3-10.4,0.4-16.6l-9.5-22.5l-8.7,8.4L405.9,219.2z"/>
</svg>
