<?xml version="1.0" encoding="utf-8"?>
<!-- Generator: Adobe Illustrator 27.1.0, SVG Export Plug-In . SVG Version: 6.00 Build 0)  -->
<svg version="1.1" id="Layer_1" xmlns="http://www.w3.org/2000/svg" xmlns:xlink="http://www.w3.org/1999/xlink" x="0px" y="0px"
	 viewBox="0 0 500 500" style="enable-background:new 0 0 500 500;" xml:space="preserve">
<style type="text/css">
	.st0{fill:#FCB64D;}
	.st1{fill:#434343;}
	.st2{fill:#6D4D41;}
	.st3{fill:#488FCC;}
	.st4{fill:#F8981D;}
	.st5{fill:#465B65;}
	.st6{fill:#66BC6A;}
</style>
<g>
	<path class="st0" d="M167.49,58.93L153.1,77.88c-4.89,8.96-16.14,8.15-16.14,8.15c-9.62-2.04-13.19,10.59-13.19,10.59l-5.3,17.93
		H94.9c7.48,15.89,23.63,26.89,42.35,26.89c25.85,0,46.8-20.95,46.8-46.8C184.05,80.32,177.62,67.51,167.49,58.93z"/>
	<path class="st1" d="M118.35,114.54l5.3-17.93c0,0,3.56-12.63,13.19-10.59c0,0,11.25,0.81,16.14-8.15l14.44-19.01
		c0,0,7.15-8.69,6.75-20.51h-43.18c0,0-40.64,4.99-41.45,45.12c-0.35,10.08,0.81,21.69,5.11,31.06L118.35,114.54z"/>
	<path class="st0" d="M332.51,58.93l14.39,18.95c4.89,8.96,16.14,8.15,16.14,8.15c9.62-2.04,13.19,10.59,13.19,10.59l5.3,17.93
		h23.57c-7.48,15.89-23.63,26.89-42.35,26.89c-25.85,0-46.8-20.95-46.8-46.8C315.95,80.32,322.38,67.51,332.51,58.93z"/>
	<path class="st2" d="M381.65,114.54l-5.3-17.93c0,0-3.56-12.63-13.19-10.59c0,0-11.25,0.81-16.14-8.15l-14.44-19.01
		c0,0-7.15-8.69-6.75-20.51h43.18c0,0,40.64,4.99,41.45,45.12c0.35,10.08-0.81,21.69-5.11,31.06L381.65,114.54z"/>
	<path class="st3" d="M187.32,176.86l-35.42-21.28c-13.07-7.86-30.04-3.63-37.89,9.45l-1.22,2.04c-3.38,5.62-4.51,11.95-3.68,17.98
		v107.94h57.03v-78.07l21.68-36.08C188.22,178.15,188,177.27,187.32,176.86z"/>
	<path class="st4" d="M151.6,155.88l4.76,2.86v-21.88c-5.91,2.7-12.48,4.21-19.4,4.21c-6.57,0-12.81-1.36-18.49-3.8v22.15
		C127.25,151.17,140.76,149.37,151.6,155.88z"/>
	<path class="st4" d="M377.92,155.88l4.76,2.86v-21.88c-5.91,2.7-12.48,4.21-19.4,4.21c-6.57,0-12.81-1.36-18.49-3.8v22.15
		C353.57,151.17,367.08,149.37,377.92,155.88z"/>
	<path class="st0" d="M278.09,172.97c-2.64-8.67-11.8-13.57-20.48-10.93l-62.78,19.07l-6.9-3.45c0.12,0.38,0.1,0.8-0.12,1.17
		l-16.39,27.28l14.02,7.02c1.62,0.81,3.31,1.32,5.01,1.56c2.59,0.53,5.35,0.45,8.06-0.38l68.64-20.85
		C275.83,190.81,280.72,181.64,278.09,172.97z"/>
	<polygon class="st5" points="165.35,292.98 109.1,292.98 109.1,461.64 147.4,461.64 	"/>
	<path class="st6" d="M358.65,151.63h9.37c13.16,0,23.83,10.67,23.83,23.83v117.52h-57.03V175.46
		C334.82,162.3,345.49,151.63,358.65,151.63z"/>
	<polygon class="st5" points="335.61,292.98 391.86,292.98 391.86,461.64 353.56,461.64 	"/>
	<path class="st0" d="M347.17,217.22l0,88.6c0,7.57,6.14,13.72,13.72,13.72l5.4,0c7.57,0,13.72-6.14,13.72-13.72l0-88.6
		L347.17,217.22z"/>
</g>
</svg>
