<svg xmlns="http://www.w3.org/2000/svg" xmlns:xlink="http://www.w3.org/1999/xlink" viewBox="0 0 1080 1080" width="1080" height="1080" preserveAspectRatio="xMidYMid meet" style="width: 100%; height: 100%; transform: translate3d(0px, 0px, 0px); content-visibility: visible;"><defs><clipPath id="__lottie_element_9026"><rect width="1080" height="1080" x="0" y="0"></rect></clipPath><clipPath id="__lottie_element_9039"><path d="M0,0 L1080,0 L1080,1080 L0,1080z"></path></clipPath><g id="__lottie_element_9042"><g clip-path="url(#__lottie_element_9043)" transform="matrix(0.999995231628418,-0.003089227946475148,0.003089227946475148,0.999995231628418,-1.4486083984375,1.509765625)" opacity="1" style="display: block;"><g transform="matrix(1,0,0,1,0,0)" opacity="1" style="display: block;"><path fill="rgb(206,125,251)" fill-opacity="1" d=" M463.85400390625,397.4429931640625 C463.85400390625,397.4429931640625 317.1610107421875,588.5449829101562 317.1610107421875,588.5449829101562 C311.7090148925781,595.64697265625 301.5329895019531,596.9860229492188 294.4309997558594,591.5339965820312 C294.4309997558594,591.5339965820312 258.3320007324219,564.3790283203125 258.3320007324219,564.3790283203125 C248.7830047607422,556.5859985351562 239.26739501953125,541.153564453125 246.6003875732422,515.3575439453125 C246.6003875732422,515.3575439453125 380.7659912109375,344.7950744628906 380.7659912109375,344.7950744628906 C397.4439697265625,330.8930969238281 419.69000244140625,342.48699951171875 426.7919921875,347.9389953613281 C426.7919921875,347.9389953613281 460.864990234375,374.7130126953125 460.864990234375,374.7130126953125 C467.9670104980469,380.1650085449219 469.3059997558594,390.34100341796875 463.85400390625,397.4429931640625z M434.14801025390625,364.7659912109375 C490.12200927734375,407.73199462890625 500.6659851074219,487.93798828125 457.70001220703125,543.9119873046875 C414.7340087890625,599.885986328125 334.52801513671875,610.4299926757812 278.5539855957031,567.4639892578125 C222.5800018310547,524.4979858398438 212.03599548339844,444.2919921875 255.0019989013672,388.3179931640625 C297.9679870605469,332.343994140625 378.17401123046875,321.79998779296875 434.14801025390625,364.7659912109375z"></path></g></g></g><clipPath id="__lottie_element_9043"><path d="M0,0 L1080,0 L1080,1080 L0,1080z"></path></clipPath><mask id="__lottie_element_9042_1" mask-type="alpha"><use xlink:href="#__lottie_element_9042"></use></mask><g id="__lottie_element_9052"><g clip-path="url(#__lottie_element_9053)" transform="matrix(0.999995231628418,-0.003089227946475148,0.003089227946475148,0.999995231628418,-1.4486083984375,1.509765625)" opacity="1" style="display: block;"><g transform="matrix(1,0,0,1,0,0)" opacity="1" style="display: block;"><path fill="rgb(206,125,251)" fill-opacity="1" d=" M463.85400390625,397.4429931640625 C463.85400390625,397.4429931640625 317.1610107421875,588.5449829101562 317.1610107421875,588.5449829101562 C311.7090148925781,595.64697265625 301.5329895019531,596.9860229492188 294.4309997558594,591.5339965820312 C294.4309997558594,591.5339965820312 258.3320007324219,564.3790283203125 258.3320007324219,564.3790283203125 C248.7830047607422,556.5859985351562 239.26739501953125,541.153564453125 246.6003875732422,515.3575439453125 C246.6003875732422,515.3575439453125 380.7659912109375,344.7950744628906 380.7659912109375,344.7950744628906 C397.4439697265625,330.8930969238281 419.69000244140625,342.48699951171875 426.7919921875,347.9389953613281 C426.7919921875,347.9389953613281 460.864990234375,374.7130126953125 460.864990234375,374.7130126953125 C467.9670104980469,380.1650085449219 469.3059997558594,390.34100341796875 463.85400390625,397.4429931640625z M434.14801025390625,364.7659912109375 C490.12200927734375,407.73199462890625 500.6659851074219,487.93798828125 457.70001220703125,543.9119873046875 C414.7340087890625,599.885986328125 334.52801513671875,610.4299926757812 278.5539855957031,567.4639892578125 C222.5800018310547,524.4979858398438 212.03599548339844,444.2919921875 255.0019989013672,388.3179931640625 C297.9679870605469,332.343994140625 378.17401123046875,321.79998779296875 434.14801025390625,364.7659912109375z"></path></g></g></g><clipPath id="__lottie_element_9053"><path d="M0,0 L1080,0 L1080,1080 L0,1080z"></path></clipPath><clipPath id="__lottie_element_9061"><path d="M0,0 L1080,0 L1080,1080 L0,1080z"></path></clipPath><mask id="__lottie_element_9052_1" mask-type="alpha"><use xlink:href="#__lottie_element_9052"></use></mask><clipPath id="__lottie_element_9071"><path d="M0,0 L1080,0 L1080,1080 L0,1080z"></path></clipPath><g id="__lottie_element_9074"><g clip-path="url(#__lottie_element_9075)" transform="matrix(0.999995231628418,-0.003089227946475148,0.003089227946475148,0.999995231628418,-1.4486083984375,1.509765625)" opacity="1" style="display: block;"><g transform="matrix(1,0,0,1,0,0)" opacity="1" style="display: block;"><path fill="rgb(206,125,251)" fill-opacity="1" d=" M463.85400390625,397.4429931640625 C463.85400390625,397.4429931640625 317.1610107421875,588.5449829101562 317.1610107421875,588.5449829101562 C311.7090148925781,595.64697265625 301.5329895019531,596.9860229492188 294.4309997558594,591.5339965820312 C294.4309997558594,591.5339965820312 258.3320007324219,564.3790283203125 258.3320007324219,564.3790283203125 C248.7830047607422,556.5859985351562 239.26739501953125,541.153564453125 246.6003875732422,515.3575439453125 C246.6003875732422,515.3575439453125 380.7659912109375,344.7950744628906 380.7659912109375,344.7950744628906 C397.4439697265625,330.8930969238281 419.69000244140625,342.48699951171875 426.7919921875,347.9389953613281 C426.7919921875,347.9389953613281 460.864990234375,374.7130126953125 460.864990234375,374.7130126953125 C467.9670104980469,380.1650085449219 469.3059997558594,390.34100341796875 463.85400390625,397.4429931640625z M434.14801025390625,364.7659912109375 C490.12200927734375,407.73199462890625 500.6659851074219,487.93798828125 457.70001220703125,543.9119873046875 C414.7340087890625,599.885986328125 334.52801513671875,610.4299926757812 278.5539855957031,567.4639892578125 C222.5800018310547,524.4979858398438 212.03599548339844,444.2919921875 255.0019989013672,388.3179931640625 C297.9679870605469,332.343994140625 378.17401123046875,321.79998779296875 434.14801025390625,364.7659912109375z"></path></g></g></g><clipPath id="__lottie_element_9075"><path d="M0,0 L1080,0 L1080,1080 L0,1080z"></path></clipPath><mask id="__lottie_element_9074_1" mask-type="alpha"><use xlink:href="#__lottie_element_9074"></use></mask><g id="__lottie_element_9084"><g clip-path="url(#__lottie_element_9085)" transform="matrix(0.999995231628418,-0.003089227946475148,0.003089227946475148,0.999995231628418,-1.4486083984375,1.509765625)" opacity="1" style="display: block;"><g transform="matrix(1,0,0,1,0,0)" opacity="1" style="display: block;"><path fill="rgb(206,125,251)" fill-opacity="1" d=" M463.85400390625,397.4429931640625 C463.85400390625,397.4429931640625 317.1610107421875,588.5449829101562 317.1610107421875,588.5449829101562 C311.7090148925781,595.64697265625 301.5329895019531,596.9860229492188 294.4309997558594,591.5339965820312 C294.4309997558594,591.5339965820312 258.3320007324219,564.3790283203125 258.3320007324219,564.3790283203125 C248.7830047607422,556.5859985351562 239.26739501953125,541.153564453125 246.6003875732422,515.3575439453125 C246.6003875732422,515.3575439453125 380.7659912109375,344.7950744628906 380.7659912109375,344.7950744628906 C397.4439697265625,330.8930969238281 419.69000244140625,342.48699951171875 426.7919921875,347.9389953613281 C426.7919921875,347.9389953613281 460.864990234375,374.7130126953125 460.864990234375,374.7130126953125 C467.9670104980469,380.1650085449219 469.3059997558594,390.34100341796875 463.85400390625,397.4429931640625z M434.14801025390625,364.7659912109375 C490.12200927734375,407.73199462890625 500.6659851074219,487.93798828125 457.70001220703125,543.9119873046875 C414.7340087890625,599.885986328125 334.52801513671875,610.4299926757812 278.5539855957031,567.4639892578125 C222.5800018310547,524.4979858398438 212.03599548339844,444.2919921875 255.0019989013672,388.3179931640625 C297.9679870605469,332.343994140625 378.17401123046875,321.79998779296875 434.14801025390625,364.7659912109375z"></path></g></g></g><clipPath id="__lottie_element_9085"><path d="M0,0 L1080,0 L1080,1080 L0,1080z"></path></clipPath><clipPath id="__lottie_element_9093"><path d="M0,0 L1080,0 L1080,1080 L0,1080z"></path></clipPath><mask id="__lottie_element_9084_1" mask-type="alpha"><use xlink:href="#__lottie_element_9084"></use></mask><g id="__lottie_element_9069"><g transform="matrix(0.4297585189342499,0.9908117055892944,-0.9908117055892944,0.4297585189342499,446.2852478027344,611.4520874023438)" opacity="1" style="display: block;"><g opacity="0" transform="matrix(1,0,0,1,-179.322998046875,-70.26499938964844)"><path fill="rgb(255,0,0)" fill-opacity="1" d=" M218.99549865722656,-150.26699829101562 C218.99549865722656,-150.26699829101562 218.99549865722656,150.26699829101562 218.99549865722656,150.26699829101562 C218.99549865722656,150.26699829101562 -218.99549865722656,150.26699829101562 -218.99549865722656,150.26699829101562 C-218.99549865722656,150.26699829101562 -218.99549865722656,-150.26699829101562 -218.99549865722656,-150.26699829101562 C-218.99549865722656,-150.26699829101562 218.99549865722656,-150.26699829101562 218.99549865722656,-150.26699829101562z"></path></g><g opacity="1" transform="matrix(1,0,0,1,-181.5,-71.5)"><path fill="url(#__lottie_element_9103)" mask="url(#__lottie_element_9105)" fill-opacity="1" d="M0 0 M0,-112.5 C62.088748931884766,-112.5 112.5,-62.088748931884766 112.5,0 C112.5,62.088748931884766 62.088748931884766,112.5 0,112.5 C-62.088748931884766,112.5 -112.5,62.088748931884766 -112.5,0 C-112.5,-62.088748931884766 -62.088748931884766,-112.5 0,-112.5z"></path></g></g></g><radialGradient id="__lottie_element_9103" spreadMethod="pad" gradientUnits="userSpaceOnUse" cx="0" cy="0" r="166.70816112918143" fx="0" fy="0"><stop offset="1%" stop-color="rgb(250,237,198)"></stop><stop offset="42%" stop-color="rgb(248,215,155)"></stop><stop offset="83%" stop-color="rgb(246,193,112)"></stop></radialGradient><mask id="__lottie_element_9105"><path fill="url(#__lottie_element_9104)" d=" M0,-112.5 C62.088748931884766,-112.5 112.5,-62.088748931884766 112.5,0 C112.5,62.088748931884766 62.088748931884766,112.5 0,112.5 C-62.088748931884766,112.5 -112.5,62.088748931884766 -112.5,0 C-112.5,-62.088748931884766 -62.088748931884766,-112.5 0,-112.5z"></path></mask><radialGradient id="__lottie_element_9104" spreadMethod="pad" gradientUnits="userSpaceOnUse" cx="0" cy="0" r="166.70816112918143" fx="0" fy="0"><stop stop-color="rgb(255,255,255)" offset="4%" stop-opacity="0"></stop><stop stop-color="rgb(255,255,255)" offset="32%" stop-opacity="0.5"></stop><stop stop-color="rgb(255,255,255)" offset="60%" stop-opacity="1"></stop></radialGradient><clipPath id="__lottie_element_9107"><path d="M0,0 L1080,0 L1080,1080 L0,1080z"></path></clipPath><mask id="__lottie_element_9108"><rect fill="#ffffff" width="1080" height="1080" transform="matrix(1,0,0,1,0.00006103515625,-0.001708984375)"></rect><path fill="#000000" clip-rule="nonzero" d=" M426.2330017089844,370.9530029296875 C311.5,316.5 226.5,398.5 240.93800354003906,491.73199462890625 C253.36199951171875,571.9609985351562 385,627 445.7070007324219,540.4569702148438 C485.7409973144531,483.385009765625 481.1159973144531,397.0010070800781 426.2330017089844,370.9530029296875" fill-opacity="1"></path></mask><g id="__lottie_element_9110"><g clip-path="url(#__lottie_element_9111)" transform="matrix(0.999995231628418,-0.003089227946475148,0.003089227946475148,0.999995231628418,-1.4486083984375,1.509765625)" opacity="1" style="display: block;"><g transform="matrix(1,0,0,1,0,0)" opacity="1" style="display: block;"><path fill="rgb(206,125,251)" fill-opacity="1" d=" M463.85400390625,397.4429931640625 C463.85400390625,397.4429931640625 317.1610107421875,588.5449829101562 317.1610107421875,588.5449829101562 C311.7090148925781,595.64697265625 301.5329895019531,596.9860229492188 294.4309997558594,591.5339965820312 C294.4309997558594,591.5339965820312 258.3320007324219,564.3790283203125 258.3320007324219,564.3790283203125 C248.7830047607422,556.5859985351562 239.26739501953125,541.153564453125 246.6003875732422,515.3575439453125 C246.6003875732422,515.3575439453125 380.7659912109375,344.7950744628906 380.7659912109375,344.7950744628906 C397.4439697265625,330.8930969238281 419.69000244140625,342.48699951171875 426.7919921875,347.9389953613281 C426.7919921875,347.9389953613281 460.864990234375,374.7130126953125 460.864990234375,374.7130126953125 C467.9670104980469,380.1650085449219 469.3059997558594,390.34100341796875 463.85400390625,397.4429931640625z M434.14801025390625,364.7659912109375 C490.12200927734375,407.73199462890625 500.6659851074219,487.93798828125 457.70001220703125,543.9119873046875 C414.7340087890625,599.885986328125 334.52801513671875,610.4299926757812 278.5539855957031,567.4639892578125 C222.5800018310547,524.4979858398438 212.03599548339844,444.2919921875 255.0019989013672,388.3179931640625 C297.9679870605469,332.343994140625 378.17401123046875,321.79998779296875 434.14801025390625,364.7659912109375z"></path></g></g></g><clipPath id="__lottie_element_9111"><path d="M0,0 L1080,0 L1080,1080 L0,1080z"></path></clipPath><mask id="__lottie_element_9110_1" mask-type="alpha"><use xlink:href="#__lottie_element_9110"></use></mask><g id="__lottie_element_9120"><g clip-path="url(#__lottie_element_9121)" transform="matrix(0.999995231628418,-0.003089227946475148,0.003089227946475148,0.999995231628418,-1.4486083984375,1.509765625)" opacity="1" style="display: block;"><g transform="matrix(1,0,0,1,0,0)" opacity="1" style="display: block;"><path fill="rgb(206,125,251)" fill-opacity="1" d=" M463.85400390625,397.4429931640625 C463.85400390625,397.4429931640625 317.1610107421875,588.5449829101562 317.1610107421875,588.5449829101562 C311.7090148925781,595.64697265625 301.5329895019531,596.9860229492188 294.4309997558594,591.5339965820312 C294.4309997558594,591.5339965820312 258.3320007324219,564.3790283203125 258.3320007324219,564.3790283203125 C248.7830047607422,556.5859985351562 239.26739501953125,541.153564453125 246.6003875732422,515.3575439453125 C246.6003875732422,515.3575439453125 380.7659912109375,344.7950744628906 380.7659912109375,344.7950744628906 C397.4439697265625,330.8930969238281 419.69000244140625,342.48699951171875 426.7919921875,347.9389953613281 C426.7919921875,347.9389953613281 460.864990234375,374.7130126953125 460.864990234375,374.7130126953125 C467.9670104980469,380.1650085449219 469.3059997558594,390.34100341796875 463.85400390625,397.4429931640625z M434.14801025390625,364.7659912109375 C490.12200927734375,407.73199462890625 500.6659851074219,487.93798828125 457.70001220703125,543.9119873046875 C414.7340087890625,599.885986328125 334.52801513671875,610.4299926757812 278.5539855957031,567.4639892578125 C222.5800018310547,524.4979858398438 212.03599548339844,444.2919921875 255.0019989013672,388.3179931640625 C297.9679870605469,332.343994140625 378.17401123046875,321.79998779296875 434.14801025390625,364.7659912109375z"></path></g></g></g><clipPath id="__lottie_element_9121"><path d="M0,0 L1080,0 L1080,1080 L0,1080z"></path></clipPath><clipPath id="__lottie_element_9129"><path d="M0,0 L1080,0 L1080,1080 L0,1080z"></path></clipPath><mask id="__lottie_element_9120_1" mask-type="alpha"><use xlink:href="#__lottie_element_9120"></use></mask><g id="__lottie_element_9137"><g clip-path="url(#__lottie_element_9138)" transform="matrix(0.3979245126247406,0.9174181818962097,-0.9174181818962097,0.3979245126247406,725.9490966796875,-113.5882568359375)" opacity="1" style="display: block;"><g clip-path="url(#__lottie_element_9160)" transform="matrix(0.999995231628418,-0.003089227946475148,0.003089227946475148,0.999995231628418,-1.4486083984375,1.509765625)" opacity="1" style="display: block;"><g transform="matrix(1,0,0,1,0,0)" opacity="1" style="display: block;"><path fill="rgb(206,125,251)" fill-opacity="1" d=" M463.85400390625,397.4429931640625 C463.85400390625,397.4429931640625 317.1610107421875,588.5449829101562 317.1610107421875,588.5449829101562 C311.7090148925781,595.64697265625 301.5329895019531,596.9860229492188 294.4309997558594,591.5339965820312 C294.4309997558594,591.5339965820312 258.3320007324219,564.3790283203125 258.3320007324219,564.3790283203125 C248.7830047607422,556.5859985351562 239.26739501953125,541.153564453125 246.6003875732422,515.3575439453125 C246.6003875732422,515.3575439453125 380.7659912109375,344.7950744628906 380.7659912109375,344.7950744628906 C397.4439697265625,330.8930969238281 419.69000244140625,342.48699951171875 426.7919921875,347.9389953613281 C426.7919921875,347.9389953613281 460.864990234375,374.7130126953125 460.864990234375,374.7130126953125 C467.9670104980469,380.1650085449219 469.3059997558594,390.34100341796875 463.85400390625,397.4429931640625z M434.14801025390625,364.7659912109375 C490.12200927734375,407.73199462890625 500.6659851074219,487.93798828125 457.70001220703125,543.9119873046875 C414.7340087890625,599.885986328125 334.52801513671875,610.4299926757812 278.5539855957031,567.4639892578125 C222.5800018310547,524.4979858398438 212.03599548339844,444.2919921875 255.0019989013672,388.3179931640625 C297.9679870605469,332.343994140625 378.17401123046875,321.79998779296875 434.14801025390625,364.7659912109375z"></path></g></g><g mask="url(#__lottie_element_9151_1)" style="display: block;"><g transform="matrix(0.999995231628418,-0.003089227946475148,0.003089227946475148,0.999995231628418,-2.1595168113708496,0.24596454203128815)" opacity="1"><path fill="rgb(233,169,255)" fill-opacity="1" d=" M326.11468505859375,334.2921447753906 C319.4296875,330.734130859375 294.2577819824219,324.9627380371094 276.7637634277344,328.40875244140625 C272.57977294921875,329.2327575683594 270.78076171875,334.23358154296875 273.4087829589844,337.5915832519531 C273.4087829589844,337.5915832519531 294.79168701171875,361.7619934082031 294.79168701171875,361.7619934082031 C296.7126770019531,364.2159729003906 300.398681640625,364.504150390625 302.9056701660156,362.65313720703125 C302.9056701660156,362.65313720703125 328.8106689453125,344.2841491699219 328.8106689453125,344.2841491699219 C332.4336853027344,341.3631286621094 331.7356872558594,337.28314208984375 326.11468505859375,334.2921447753906z M418.7908935546875,380.6104736328125 C410.89288330078125,384.8124694824219 394.447021484375,389.97442626953125 385.3720397949219,398.2044677734375 C379.0839538574219,403.8753967285156 372.6800537109375,402.8024597167969 365.37005615234375,397.08746337890625 C365.37005615234375,397.08746337890625 344.98175048828125,380.18499755859375 344.98175048828125,380.18499755859375 C341.4317626953125,375.61798095703125 340.46160888671875,373.7738342285156 345.99859619140625,367.3768310546875 C351.5356140136719,360.9798278808594 374.9233703613281,351.4746398925781 381.900390625,348.9196472167969 C388.87738037109375,346.3646545410156 394.473388671875,347.2446594238281 399.6993713378906,352.5706481933594 C399.6993713378906,352.5706481933594 418.6048889160156,366.4944763183594 418.6048889160156,366.4944763183594 C422.1549072265625,371.06146240234375 426.68890380859375,376.4084777832031 418.7908935546875,380.6104736328125z"></path><path fill="rgb(233,169,255)" fill-opacity="1" d=" M418.7908935546875,380.6104736328125 C410.89288330078125,384.8124694824219 394.447021484375,389.97442626953125 385.3720397949219,398.2044677734375 C379.0839538574219,403.8753967285156 372.6800537109375,402.8024597167969 365.37005615234375,397.08746337890625 C365.37005615234375,397.08746337890625 344.98175048828125,380.18499755859375 344.98175048828125,380.18499755859375 C341.4317626953125,375.61798095703125 340.46160888671875,373.7738342285156 345.99859619140625,367.3768310546875 C351.5356140136719,360.9798278808594 374.9233703613281,351.4746398925781 381.900390625,348.9196472167969 C388.87738037109375,346.3646545410156 394.473388671875,347.2446594238281 399.6993713378906,352.5706481933594 C399.6993713378906,352.5706481933594 418.6048889160156,366.4944763183594 418.6048889160156,366.4944763183594 C422.1549072265625,371.06146240234375 426.68890380859375,376.4084777832031 418.7908935546875,380.6104736328125z"></path></g></g><g mask="url(#__lottie_element_9141_1)" style="display: block;"><g transform="matrix(0.999995231628418,-0.003089227946475148,0.003089227946475148,0.999995231628418,355.989013671875,466.1570129394531)" opacity="1"><path stroke-linecap="butt" stroke-linejoin="miter" fill-opacity="0" stroke-miterlimit="4" stroke="rgb(180,86,233)" stroke-opacity="1" stroke-width="11" d=" M114.94296264648438,-66.44194793701172 C38.882938385009766,-86.18952178955078 -62.4903564453125,41.17144012451172 -32.98099899291992,126.81900024414062 M31.830644607543945,-129.16297912597656 C-75.18368530273438,-110.19600677490234 -131.20498657226562,1.6368850469589233 -115.62750244140625,68.31959533691406"></path></g></g></g></g><clipPath id="__lottie_element_9138"><path d="M0,0 L1080,0 L1080,1080 L0,1080z"></path></clipPath><g id="__lottie_element_9141"><g clip-path="url(#__lottie_element_9142)" transform="matrix(0.999995231628418,-0.003089227946475148,0.003089227946475148,0.999995231628418,-1.4486083984375,1.509765625)" opacity="1" style="display: block;"><g transform="matrix(1,0,0,1,0,0)" opacity="1" style="display: block;"><path fill="rgb(206,125,251)" fill-opacity="1" d=" M463.85400390625,397.4429931640625 C463.85400390625,397.4429931640625 317.1610107421875,588.5449829101562 317.1610107421875,588.5449829101562 C311.7090148925781,595.64697265625 301.5329895019531,596.9860229492188 294.4309997558594,591.5339965820312 C294.4309997558594,591.5339965820312 258.3320007324219,564.3790283203125 258.3320007324219,564.3790283203125 C248.7830047607422,556.5859985351562 239.26739501953125,541.153564453125 246.6003875732422,515.3575439453125 C246.6003875732422,515.3575439453125 380.7659912109375,344.7950744628906 380.7659912109375,344.7950744628906 C397.4439697265625,330.8930969238281 419.69000244140625,342.48699951171875 426.7919921875,347.9389953613281 C426.7919921875,347.9389953613281 460.864990234375,374.7130126953125 460.864990234375,374.7130126953125 C467.9670104980469,380.1650085449219 469.3059997558594,390.34100341796875 463.85400390625,397.4429931640625z M434.14801025390625,364.7659912109375 C490.12200927734375,407.73199462890625 500.6659851074219,487.93798828125 457.70001220703125,543.9119873046875 C414.7340087890625,599.885986328125 334.52801513671875,610.4299926757812 278.5539855957031,567.4639892578125 C222.5800018310547,524.4979858398438 212.03599548339844,444.2919921875 255.0019989013672,388.3179931640625 C297.9679870605469,332.343994140625 378.17401123046875,321.79998779296875 434.14801025390625,364.7659912109375z"></path></g></g></g><clipPath id="__lottie_element_9142"><path d="M0,0 L1080,0 L1080,1080 L0,1080z"></path></clipPath><mask id="__lottie_element_9141_1" mask-type="alpha"><use xlink:href="#__lottie_element_9141"></use></mask><g id="__lottie_element_9151"><g clip-path="url(#__lottie_element_9152)" transform="matrix(0.999995231628418,-0.003089227946475148,0.003089227946475148,0.999995231628418,-1.4486083984375,1.509765625)" opacity="1" style="display: block;"><g transform="matrix(1,0,0,1,0,0)" opacity="1" style="display: block;"><path fill="rgb(206,125,251)" fill-opacity="1" d=" M463.85400390625,397.4429931640625 C463.85400390625,397.4429931640625 317.1610107421875,588.5449829101562 317.1610107421875,588.5449829101562 C311.7090148925781,595.64697265625 301.5329895019531,596.9860229492188 294.4309997558594,591.5339965820312 C294.4309997558594,591.5339965820312 258.3320007324219,564.3790283203125 258.3320007324219,564.3790283203125 C248.7830047607422,556.5859985351562 239.26739501953125,541.153564453125 246.6003875732422,515.3575439453125 C246.6003875732422,515.3575439453125 380.7659912109375,344.7950744628906 380.7659912109375,344.7950744628906 C397.4439697265625,330.8930969238281 419.69000244140625,342.48699951171875 426.7919921875,347.9389953613281 C426.7919921875,347.9389953613281 460.864990234375,374.7130126953125 460.864990234375,374.7130126953125 C467.9670104980469,380.1650085449219 469.3059997558594,390.34100341796875 463.85400390625,397.4429931640625z M434.14801025390625,364.7659912109375 C490.12200927734375,407.73199462890625 500.6659851074219,487.93798828125 457.70001220703125,543.9119873046875 C414.7340087890625,599.885986328125 334.52801513671875,610.4299926757812 278.5539855957031,567.4639892578125 C222.5800018310547,524.4979858398438 212.03599548339844,444.2919921875 255.0019989013672,388.3179931640625 C297.9679870605469,332.343994140625 378.17401123046875,321.79998779296875 434.14801025390625,364.7659912109375z"></path></g></g></g><clipPath id="__lottie_element_9152"><path d="M0,0 L1080,0 L1080,1080 L0,1080z"></path></clipPath><clipPath id="__lottie_element_9160"><path d="M0,0 L1080,0 L1080,1080 L0,1080z"></path></clipPath><mask id="__lottie_element_9151_1" mask-type="alpha"><use xlink:href="#__lottie_element_9151"></use></mask><radialGradient id="__lottie_element_9174" spreadMethod="pad" gradientUnits="userSpaceOnUse" cx="-16.541000366210938" cy="-1.5470000505447388" r="112.18357489199718" fx="-25.098777163483554" fy="1.156598464688587"><stop offset="0%" stop-color="rgb(124,17,184)"></stop><stop offset="50%" stop-color="rgb(121,18,180)"></stop><stop offset="100%" stop-color="rgb(119,19,175)"></stop></radialGradient><mask id="__lottie_element_9176"><path fill="url(#__lottie_element_9175)" d=" M0,-181.60699462890625 C100.29900360107422,-181.60699462890625 181.60699462890625,-100.29900360107422 181.60699462890625,0 C181.60699462890625,100.29900360107422 100.29900360107422,181.60699462890625 0,181.60699462890625 C-100.29900360107422,181.60699462890625 -181.60699462890625,100.29900360107422 -181.60699462890625,0 C-181.60699462890625,-100.29900360107422 -100.29900360107422,-181.60699462890625 0,-181.60699462890625z"></path></mask><radialGradient id="__lottie_element_9175" spreadMethod="pad" gradientUnits="userSpaceOnUse" cx="-16.541000366210938" cy="-1.5470000505447388" r="112.18357489199718" fx="-25.098777163483554" fy="1.156598464688587"><stop stop-color="rgb(255,255,255)" offset="0%" stop-opacity="1"></stop><stop stop-color="rgb(255,255,255)" offset="36%" stop-opacity="1"></stop><stop stop-color="rgb(255,255,255)" offset="73%" stop-opacity="1"></stop><stop stop-color="rgb(255,255,255)" offset="85%" stop-opacity="0.5"></stop><stop stop-color="rgb(255,255,255)" offset="92%" stop-opacity="0"></stop></radialGradient><mask id="__lottie_element_9137_1" mask-type="alpha"><use xlink:href="#__lottie_element_9137"></use></mask><g id="__lottie_element_9186"><g clip-path="url(#__lottie_element_9189)" transform="matrix(0.9940869212150574,0.1085873618721962,-0.1085873618721962,0.9940869212150574,123.96871948242188,-110.290283203125)" opacity="1" style="display: block;"><g transform="matrix(0.9999952912330627,0.0030717747285962105,-0.0030717747285962105,0.9999952912330627,-28.9005126953125,-49.16229248046875)" opacity="1" style="display: none;"><g opacity="1" transform="matrix(1,0,0,1,505.7860107421875,399.95599365234375)"><g opacity="1" transform="matrix(1,0,0,1,0,0)"><path fill="rgb(255,255,255)" fill-opacity="1" d=" M42.92314529418945,14.14447021484375 C42.54179382324219,-12.14647388458252 5.750921249389648,-30.3074951171875 -14.224920272827148,-30.500442504882812 C-39.535255432128906,-30.793212890625 -42.19499969482422,-16.419464111328125 -42.89400100708008,-13.593462944030762 C-43.566001892089844,-10.879463195800781 -43.657657623291016,0.49549397826194763 -35.92991638183594,8.083036422729492 C-24.40267562866211,14.33718204498291 10.685531616210938,33.10858917236328 27.98676109313965,31.46274185180664 C33.21599578857422,30.97723388671875 43.074520111083984,26.088523864746094 42.92314529418945,14.14447021484375z"></path></g></g><g opacity="1" transform="matrix(1,0,0,1,603.1409912109375,400.05999755859375)"><g opacity="1" transform="matrix(1,0,0,1,0,0)"><path fill="rgb(255,255,255)" fill-opacity="1" d=" M-42.564395904541016,14.013484001159668 C-42.38041305541992,-12.369451522827148 -5.719577789306641,-30.200632095336914 14.665602684020996,-30.384601593017578 C38.19822692871094,-30.466455459594727 41.477054595947266,-16.70745849609375 42.318424224853516,-14.082185745239258 C42.61212921142578,-13.670269012451172 42.95580291748047,-13.24257755279541 42.995052337646484,-12.377476692199707 C43.419151306152344,-6.082101821899414 38.4866943359375,2.598780393600464 32.937618255615234,6.219674587249756 C3.5971145629882812,25.412708282470703 -18.8913516998291,32.60171890258789 -27.628013610839844,31.138900756835938 C-32.81260681152344,30.282163619995117 -42.61936950683594,25.82063102722168 -42.564395904541016,14.013484001159668z"></path></g></g></g></g></g><clipPath id="__lottie_element_9189"><path d="M0,0 L1080,0 L1080,1080 L0,1080z"></path></clipPath><clipPath id="__lottie_element_9197"><path d="M0,0 L1080,0 L1080,1080 L0,1080z"></path></clipPath><mask id="__lottie_element_9186_1" mask-type="alpha"><use xlink:href="#__lottie_element_9186"></use></mask><g id="__lottie_element_9205"><g clip-path="url(#__lottie_element_9206)" transform="matrix(0.9940869212150574,0.1085873618721962,-0.1085873618721962,0.9940869212150574,123.912841796875,-109.79345703125)" opacity="1" style="display: block;"><g transform="matrix(0.9999952912330627,0.0030717747285962105,-0.0030717747285962105,0.9999952912330627,-28.9005126953125,-49.16229248046875)" opacity="1" style="display: none;"><g opacity="1" transform="matrix(1,0,0,1,505.7860107421875,399.95599365234375)"><g opacity="1" transform="matrix(1,0,0,1,0,0)"><path fill="rgb(255,255,255)" fill-opacity="1" d=" M42.92314529418945,14.14447021484375 C42.54179382324219,-12.14647388458252 5.750921249389648,-30.3074951171875 -14.224920272827148,-30.500442504882812 C-39.535255432128906,-30.793212890625 -42.19499969482422,-16.419464111328125 -42.89400100708008,-13.593462944030762 C-43.566001892089844,-10.879463195800781 -43.657657623291016,0.49549397826194763 -35.92991638183594,8.083036422729492 C-24.40267562866211,14.33718204498291 10.685531616210938,33.10858917236328 27.98676109313965,31.46274185180664 C33.21599578857422,30.97723388671875 43.074520111083984,26.088523864746094 42.92314529418945,14.14447021484375z"></path></g></g><g opacity="1" transform="matrix(1,0,0,1,603.1409912109375,400.05999755859375)"><g opacity="1" transform="matrix(1,0,0,1,0,0)"><path fill="rgb(255,255,255)" fill-opacity="1" d=" M-42.564395904541016,14.013484001159668 C-42.38041305541992,-12.369451522827148 -5.719577789306641,-30.200632095336914 14.665602684020996,-30.384601593017578 C38.19822692871094,-30.466455459594727 41.477054595947266,-16.70745849609375 42.318424224853516,-14.082185745239258 C42.61212921142578,-13.670269012451172 42.95580291748047,-13.24257755279541 42.995052337646484,-12.377476692199707 C43.419151306152344,-6.082101821899414 38.4866943359375,2.598780393600464 32.937618255615234,6.219674587249756 C3.5971145629882812,25.412708282470703 -18.8913516998291,32.60171890258789 -27.628013610839844,31.138900756835938 C-32.81260681152344,30.282163619995117 -42.61936950683594,25.82063102722168 -42.564395904541016,14.013484001159668z"></path></g></g></g></g></g><clipPath id="__lottie_element_9206"><path d="M0,0 L1080,0 L1080,1080 L0,1080z"></path></clipPath><mask id="__lottie_element_9205_1" mask-type="alpha"><use xlink:href="#__lottie_element_9205"></use></mask><clipPath id="__lottie_element_9252"><path fill="#ffffff" clip-rule="nonzero" d=" M400.05999755859375,420.1189880371094 C400.05999755859375,420.1189880371094 314.55999755859375,684.718017578125 314.55999755859375,684.718017578125 C314.55999755859375,684.718017578125 799.5430297851562,679.7100219726562 799.5430297851562,679.7100219726562 C799.5430297851562,679.7100219726562 659.0430297851562,436.81201171875 659.0430297851562,436.81201171875 C659.0430297851562,436.81201171875 400.05999755859375,420.1189880371094 400.05999755859375,420.1189880371094" fill-opacity="1"></path></clipPath><g id="__lottie_element_9257"><g clip-path="url(#__lottie_element_9258)" style="display: block;" transform="matrix(1,0,0,1,0,0)" opacity="1"><g style="display: block;" transform="matrix(1,0,0,1,0,0)" opacity="1"><path stroke-linecap="round" stroke-linejoin="miter" fill-opacity="0" stroke-miterlimit="4" stroke="rgb(255,183,227)" stroke-opacity="1" stroke-width="76" d=" M530.27197265625,640.0460205078125 C511.864990234375,682.364013671875 517.0230102539062,736.0460205078125 534.75,777.5910034179688 M591.6290283203125,639.510009765625 C586.7429809570312,676.010009765625 574.3729858398438,747.2760009765625 621.10498046875,717.3309936523438"></path></g></g></g><clipPath id="__lottie_element_9258"><path d="M0,0 L1080,0 L1080,1080 L0,1080z"></path></clipPath><mask id="__lottie_element_9257_1" mask-type="alpha"><use xlink:href="#__lottie_element_9257"></use></mask><clipPath id="__lottie_element_9269"><path fill="#ffffff" clip-rule="nonzero" d=" M-58.779998779296875,86.75 C-58.779998779296875,86.75 -22.82539176940918,253.8234405517578 18.420000076293945,243.25999450683594 C63.18580627441406,231.79563903808594 32.21799850463867,176.03599548339844 32.21799850463867,176.03599548339844 C32.21799850463867,176.03599548339844 55.71699905395508,194.90699768066406 82.00299835205078,186.56500244140625 C109.16200256347656,177.9459991455078 65.5719985961914,91.66999816894531 65.5719985961914,91.66999816894531 C65.5719985961914,91.66999816894531 17.90999984741211,86 17.90999984741211,86 C17.90999984741211,86 -58.779998779296875,86.75 -58.779998779296875,86.75" fill-opacity="1"></path></clipPath><clipPath id="__lottie_element_9290"><path d="M0,0 L1080,0 L1080,1080 L0,1080z"></path></clipPath><mask id="__lottie_element_9069_1" mask-type="alpha"><use xlink:href="#__lottie_element_9069"></use></mask></defs><g clip-path="url(#__lottie_element_9026)"><g transform="matrix(0.9999954104423523,0,0,0.9999954104423523,576.135986328125,829.239013671875)" opacity="0.3" style="display: block;"><path fill="rgb(175,175,175)" fill-opacity="1" d=" M0,-100.77050018310547 C71.42855834960938,-100.77050018310547 129.42300415039062,-55.615238189697266 129.42300415039062,0 C129.42300415039062,55.615238189697266 71.42855834960938,100.77050018310547 0,100.77050018310547 C-71.42855834960938,100.77050018310547 -129.42300415039062,55.615238189697266 -129.42300415039062,0 C-129.42300415039062,-55.615238189697266 -71.42855834960938,-100.77050018310547 0,-100.77050018310547z"></path></g><g transform="matrix(0.9979726076126099,0.06364478915929794,-0.06364478915929794,0.9979726076126099,557.7218627929688,537.0562744140625)" opacity="1" style="display: block;"><path stroke-linecap="round" stroke-linejoin="miter" fill-opacity="0" stroke-miterlimit="4" stroke="rgb(255,134,208)" stroke-opacity="1" stroke-width="35" d=" M-21.5,293.5 C-21.5,293.5 3.75,269.75 3.75,269.75"></path></g><g transform="matrix(0.9968082308769226,0.07983340322971344,-0.07983340322971344,0.9968082308769226,639.559814453125,431.7721252441406)" opacity="1" style="display: block;"><path stroke-linecap="round" stroke-linejoin="miter" fill-opacity="0" stroke-miterlimit="4" stroke="rgb(255,134,208)" stroke-opacity="1" stroke-width="35" d=" M47.5,293 C47.5,293 21.75,266.5 21.75,266.5"></path></g><g transform="matrix(1,0,0,1,540.5475463867188,548.2860717773438)" opacity="1" style="display: none;"><path stroke-linecap="round" stroke-linejoin="miter" fill-opacity="0" stroke-miterlimit="4" stroke="rgb(28,176,246)" stroke-opacity="1" stroke-width="46" d=" M68.77999877929688,-22.993122100830078 C85.5850601196289,2.7616536617279053 114.40320587158203,42.908077239990234 114.40320587158203,42.908077239990234"></path></g><g transform="matrix(1,0,0,1,540.4540405273438,540.0349731445312)" opacity="1" style="display: block;"><path stroke-linecap="round" stroke-linejoin="miter" fill-opacity="0" stroke-miterlimit="4" stroke="rgb(28,176,246)" stroke-opacity="1" stroke-width="46" d=" M6,-27.5 C-7.978086471557617,-13.042410850524902 -29.489614486694336,1.9517751932144165 -32.520748138427734,7.848188877105713 C-32.96875,8.72019100189209 -110.13117980957031,18.21639060974121 -110.13117980957031,18.21639060974121"></path></g><g transform="matrix(0.9826173186302185,0.18564260005950928,-0.18564260005950928,0.9826173186302185,134.2216796875,-111.15289306640625)" opacity="1" style="display: block;"><path fill="rgb(255,183,227)" fill-opacity="1" d=" M554.9959716796875,548.0570068359375 C604.7760009765625,548.0570068359375 645.3560180664062,581.1079711914062 645.3560180664062,626.843017578125 C645.3560180664062,672.5780029296875 602.0280151367188,702.8410034179688 552.2479858398438,702.8410034179688 C502.4679870605469,702.8410034179688 460.33099365234375,667.6669921875 467.3609924316406,616.1619873046875 C473.5459899902344,570.8469848632812 505.21600341796875,548.0570068359375 554.9959716796875,548.0570068359375z"></path></g><g clip-path="url(#__lottie_element_9290)" transform="matrix(1,0,0,1,0,0)" opacity="1" style="display: block;"><g transform="matrix(1,0,0,1,0,0)" opacity="1" style="display: block;"><path stroke-linecap="round" stroke-linejoin="miter" fill-opacity="0" stroke-miterlimit="4" stroke="rgb(255,183,227)" stroke-opacity="1" stroke-width="76" d=" M530.27197265625,640.0460205078125 C511.864990234375,682.364013671875 517.0230102539062,736.0460205078125 534.75,777.5910034179688 M591.6290283203125,639.510009765625 C586.7429809570312,676.010009765625 574.3729858398438,747.2760009765625 621.10498046875,717.3309936523438"></path></g></g><g transform="matrix(0.9826173186302185,0.18564260005950928,-0.18564260005950928,0.9826173186302185,569.3055419921875,556.1029052734375)" opacity="1" style="display: block;"><path fill="rgb(255,134,208)" fill-opacity="1" d=" M0,-33.05400085449219 C30.853416442871094,-33.05400085449219 55.90399932861328,-18.242502212524414 55.90399932861328,0 C55.90399932861328,18.242502212524414 30.853416442871094,33.05400085449219 0,33.05400085449219 C-30.853416442871094,33.05400085449219 -55.90399932861328,18.242502212524414 -55.90399932861328,0 C-55.90399932861328,-18.242502212524414 -30.853416442871094,-33.05400085449219 0,-33.05400085449219z"></path></g><g transform="matrix(0.9826173186302185,0.18564260005950928,-0.18564260005950928,0.9826173186302185,601.0029907226562,581.4661865234375)" opacity="1" style="display: block;"><path fill="rgb(255,183,227)" fill-opacity="1" d=" M-64.74049377441406,-15.184499740600586 C-64.74049377441406,-15.184499740600586 -64.74049377441406,15.184499740600586 -64.74049377441406,15.184499740600586 C-64.74049377441406,15.184499740600586 -77.65950012207031,15.184499740600586 -77.65950012207031,15.184499740600586 C-77.65950012207031,15.184499740600586 -77.65950012207031,-15.184499740600586 -77.65950012207031,-15.184499740600586 C-77.65950012207031,-15.184499740600586 -64.74049377441406,-15.184499740600586 -64.74049377441406,-15.184499740600586z M6.459499835968018,-15.184499740600586 C6.459499835968018,-15.184499740600586 6.459499835968018,15.184499740600586 6.459499835968018,15.184499740600586 C6.459499835968018,15.184499740600586 -6.459499835968018,15.184499740600586 -6.459499835968018,15.184499740600586 C-6.459499835968018,15.184499740600586 -6.459499835968018,-15.184499740600586 -6.459499835968018,-15.184499740600586 C-6.459499835968018,-15.184499740600586 6.459499835968018,-15.184499740600586 6.459499835968018,-15.184499740600586z"></path></g><g transform="matrix(0.9989637136459351,0.04551292210817337,-0.04551292210817337,0.9989637136459351,542.434326171875,538.9300537109375)" opacity="1" style="display: block;"><path fill="rgb(28,176,246)" fill-opacity="1" d=" M96.04199981689453,-20.91900062561035 C89.45800018310547,-47.47600173950195 75.43099975585938,-33.86600112915039 65.43099975585938,-24.865999221801758 C55.430999755859375,-15.866000175476074 60.39699935913086,31.274999618530273 81.5,15 C86.66200256347656,11.019000053405762 99.55000305175781,-6.769999980926514 96.04199981689453,-20.91900062561035z"></path></g><g transform="matrix(0.9826173186302185,0.18564260005950928,-0.18564260005950928,0.9826173186302185,131.576904296875,-97.36932373046875)" opacity="1" style="display: block;"><path fill="rgb(28,176,246)" fill-opacity="1" d=" M499.9849853515625,544.27099609375 C499.9849853515625,537.9609985351562 507.99798583984375,517.10302734375 512.0050048828125,507.4630126953125 C512.0050048828125,507.4630126953125 592.3809814453125,507.4630126953125 592.3809814453125,507.4630126953125 C597.3889770507812,516.3519897460938 607.405029296875,536.1580200195312 607.405029296875,544.27099609375 C607.405029296875,554.4119873046875 589.9010009765625,576.197021484375 551.2150268554688,576.197021484375 C512.5289916992188,576.197021484375 499.9849853515625,552.1589965820312 499.9849853515625,544.27099609375z"></path></g><g transform="matrix(1,0,0,1,540.0064697265625,541.0217895507812)" opacity="1" style="display: none;"><g opacity="1" transform="matrix(1,0,0,1,0,0)"><path stroke-linecap="round" stroke-linejoin="miter" fill-opacity="0" stroke-miterlimit="4" stroke="rgb(255,161,218)" stroke-opacity="1" stroke-width="7" d=" M0.5910000205039978,152.04100036621094 C8.088000297546387,154.08799743652344 16.375,154.23500061035156 24.259000778198242,151.9510040283203"></path></g></g><g transform="matrix(0.9782273769378662,0.20753608644008636,-0.20753608644008636,0.9782273769378662,578.6825561523438,520.5470581054688)" opacity="1" style="display: block;"><g opacity="1" transform="matrix(1,0,0,1,0,0)"><path stroke-linecap="round" stroke-linejoin="miter" fill-opacity="0" stroke-miterlimit="4" stroke="rgb(255,161,218)" stroke-opacity="1" stroke-width="7" d=" M0.5,152 C7.125,154.5 18,154.25 24.25,151.875"></path></g></g><g clip-path="url(#__lottie_element_9269)" transform="matrix(0.9933031797409058,0.11553706228733063,-0.11553706228733063,0.9933031797409058,552.7332763671875,567.1987915039062)" opacity="1" style="display: none;"><path stroke-linecap="butt" stroke-linejoin="miter" fill-opacity="0" stroke-miterlimit="4" stroke="rgb(255,161,218)" stroke-opacity="1" stroke-width="7" d=" M14.802842140197754,105.78239440917969 C14.253539085388184,113.16400146484375 4.255646228790283,165.09869384765625 42.751007080078125,188.441162109375"></path></g><g mask="url(#__lottie_element_9257_1)" style="display: block;"><g transform="matrix(0.9837693572044373,0.1794375479221344,-0.1794375479221344,0.9837693572044373,555.6240234375,566.8489990234375)" opacity="1"><path stroke-linecap="butt" stroke-linejoin="miter" fill-opacity="0" stroke-miterlimit="4" stroke="rgb(255,161,218)" stroke-opacity="1" stroke-width="7" d=" M20.714000701904297,105.04499816894531 C20.195999145507812,112.53199768066406 9.58899974822998,161.1529998779297 48.784000396728516,183.55999755859375"></path></g></g><g transform="matrix(0.40075671672821045,0.9161845445632935,-0.9161845445632935,0.40075671672821045,723.9894409179688,-114.31646728515625)" opacity="1" style="display: block;"><g opacity="1" transform="matrix(1,0,0,1,488.7055969238281,564.1105346679688)"><path fill="rgb(225,142,112)" fill-opacity="1" d=" M-5.2829999923706055,-22.452999114990234 C-5.2829999923706055,-22.452999114990234 -13.079999923706055,18.999000549316406 -13.079999923706055,18.999000549316406 C-14.034000396728516,24.06999969482422 -10.696999549865723,28.95400047302246 -5.625999927520752,29.908000946044922 C-5.625999927520752,29.908000946044922 -5.625999927520752,29.908000946044922 -5.625999927520752,29.908000946044922 C-0.5550000071525574,30.86199951171875 4.328999996185303,27.52400016784668 5.2829999923706055,22.452999114990234 C5.2829999923706055,22.452999114990234 13.079999923706055,-18.999000549316406 13.079999923706055,-18.999000549316406 C14.034000396728516,-24.06999969482422 10.696999549865723,-28.95400047302246 5.625999927520752,-29.908000946044922 C5.625999927520752,-29.908000946044922 5.625999927520752,-29.908000946044922 5.625999927520752,-29.908000946044922 C0.5550000071525574,-30.86199951171875 -4.328999996185303,-27.52400016784668 -5.2829999923706055,-22.452999114990234z"></path></g><g opacity="1" transform="matrix(1,0,0,1,544.4229736328125,624.64599609375)"><path fill="rgb(225,142,112)" fill-opacity="1" d=" M-21.283000946044922,8.892000198364258 C-21.283000946044922,8.892000198364258 20.88599967956543,9.788999557495117 20.88599967956543,9.788999557495117 C26.045000076293945,9.89900016784668 30.315000534057617,5.806000232696533 30.424999237060547,0.6470000147819519 C30.424999237060547,0.6470000147819519 30.424999237060547,0.6470000147819519 30.424999237060547,0.6470000147819519 C30.53499984741211,-4.51200008392334 26.441999435424805,-8.781999588012695 21.283000946044922,-8.892000198364258 C21.283000946044922,-8.892000198364258 -20.88599967956543,-9.788999557495117 -20.88599967956543,-9.788999557495117 C-26.045000076293945,-9.89900016784668 -30.315000534057617,-5.806000232696533 -30.424999237060547,-0.6470000147819519 C-30.424999237060547,-0.6470000147819519 -30.424999237060547,-0.6470000147819519 -30.424999237060547,-0.6470000147819519 C-30.53499984741211,4.51200008392334 -26.441999435424805,8.781999588012695 -21.283000946044922,8.892000198364258z"></path></g></g><g transform="matrix(0.9826173186302185,0.18564260005950928,-0.18564260005950928,0.9826173186302185,563.0993041992188,525.136474609375)" opacity="1" style="display: block;"><g opacity="1" transform="matrix(1,0,0,1,0,0)"><path stroke-linecap="round" stroke-linejoin="miter" fill-opacity="0" stroke-miterlimit="4" stroke="rgb(28,176,246)" stroke-opacity="1" stroke-width="51" d=" M49.469661712646484,-9.286831855773926 C49.469661712646484,-9.286831855773926 -9.287178993225098,79.8678970336914 -13.351179122924805,82.22989654541016 C-24.74717903137207,88.85289764404297 -125.25206756591797,129.20797729492188 -125.25206756591797,129.20797729492188"></path></g></g><g clip-path="url(#__lottie_element_9252)" transform="matrix(0.9826173186302185,0.18564260005950928,-0.16680915653705597,0.8829307556152344,124.783203125,-61.19439697265625)" opacity="1" style="display: block;"><g opacity="1" transform="matrix(1,0,0,1,603.4860229492188,527.9829711914062)"><path fill="rgb(255,183,227)" fill-opacity="1" d=" M-26.416000366210938,-16.236000061035156 C-27.305999755859375,-21.724000930786133 0.014999999664723873,-38.23400115966797 7.2729997634887695,-26.639999389648438 C7.2729997634887695,-26.639999389648438 27.42884635925293,-14.07419490814209 34.99923324584961,-12.713704109191895 C42.56962203979492,-11.353214263916016 44.54050827026367,-6.598913192749023 44.46162033081055,0.9296441078186035 C44.396705627441406,7.131850242614746 43.81683349609375,9.94710922241211 44.26326370239258,17.62983512878418 C44.0340690612793,26.052614212036133 39.567649841308594,27.120426177978516 28.40167808532715,24.04551887512207 C-3.381695032119751,15.374520301818848 -26.416000366210938,-16.236000061035156 -26.416000366210938,-16.236000061035156z"></path></g></g><g transform="matrix(0.9826173186302185,0.18564260005950928,-0.18564260005950928,0.9826173186302185,134.2216796875,-111.15289306640625)" opacity="1" style="display: block;"><g opacity="1" transform="matrix(1,0,0,1,553.6950073242188,503.2139892578125)"><path fill="rgb(255,183,227)" fill-opacity="1" d=" M0,-30.170000076293945 C33.88100051879883,-30.170000076293945 61.34700012207031,-16.663000106811523 61.34700012207031,0 C61.34700012207031,16.663000106811523 33.88100051879883,30.170000076293945 0,30.170000076293945 C-33.88100051879883,30.170000076293945 -61.34700012207031,16.663000106811523 -61.34700012207031,0 C-61.34700012207031,-16.663000106811523 -33.88100051879883,-30.170000076293945 0,-30.170000076293945z"></path></g><g opacity="1" transform="matrix(1,0,0,1,553.6950073242188,336.60699462890625)"><path fill="rgb(255,183,227)" fill-opacity="1" d=" M0,-181.60699462890625 C100.29900360107422,-181.60699462890625 181.60699462890625,-100.29900360107422 181.60699462890625,0 C181.60699462890625,100.29900360107422 100.29900360107422,181.60699462890625 0,181.60699462890625 C-100.29900360107422,181.60699462890625 -181.60699462890625,100.29900360107422 -181.60699462890625,0 C-181.60699462890625,-100.29900360107422 -100.29900360107422,-181.60699462890625 0,-181.60699462890625z"></path></g><g opacity="0" transform="matrix(1,0,0,1,551.427001953125,488.6679992675781)"><path fill="rgb(255,155,216)" fill-opacity="1" d=" M-59.777000427246094,18.66900062561035 C-65.80899810791016,16.47599983215332 -71.69200134277344,13.972999572753906 -77.40699768066406,11.178000450134277 C5.592353343963623,14.8100004196167 86.9020004272461,-9.083000183105469 111.88300323486328,-52.28099822998047 C111.88300323486328,-52.28099822998047 115.33599853515625,-45.18299865722656 115.33599853515625,-45.18299865722656 C84.2249984741211,3.380000114440918 7.697999954223633,23.059999465942383 -59.777000427246094,18.66900062561035z"></path></g><g opacity="1" transform="matrix(1,0,0,1,553.6959838867188,379.0329895019531)"><path fill="rgb(225,142,112)" fill-opacity="1" d=" M1.7330000400543213,-153.10299682617188 C79.7979965209961,-153.10299682617188 128.38099670410156,-103.45899963378906 133.62100219726562,-40.91699981689453 C138.95399475097656,22.731000900268555 96.12999725341797,95.75 -16.52899932861328,93.04399871826172 C-105.17500305175781,90.91500091552734 -144.45199584960938,21.329999923706055 -143.0189971923828,-40.46799850463867 C-141.53799438476562,-104.32099914550781 -76.33200073242188,-153.10299682617188 1.7330000400543213,-153.10299682617188z"></path></g></g><g transform="matrix(1,0,0,1,539.4470825195312,544.4353637695312)" opacity="1" style="display: none;"><path stroke-linecap="round" stroke-linejoin="miter" fill-opacity="0" stroke-miterlimit="4" stroke="rgb(28,176,246)" stroke-opacity="1" stroke-width="51" d=" M-68.00049591064453,57.49787521362305 C-68.00049591064453,57.49787521362305 -85.00055694580078,67.99889373779297 -85.00055694580078,67.99889373779297"></path></g><g transform="matrix(0.9846543073654175,0.17451611161231995,-0.17451611161231995,0.9846543073654175,502.7408142089844,538.716552734375)" opacity="1" style="display: none;"><g opacity="1" transform="matrix(1,0,0,1,53.702999114990234,-219.14100646972656)"><path fill="rgb(255,255,255)" fill-opacity="1" d=" M0,-43.65999984741211 C24.0959529876709,-43.65999984741211 43.65999984741211,-24.0959529876709 43.65999984741211,0 C43.65999984741211,24.0959529876709 24.0959529876709,43.65999984741211 0,43.65999984741211 C-24.0959529876709,43.65999984741211 -43.65999984741211,24.0959529876709 -43.65999984741211,0 C-43.65999984741211,-24.0959529876709 -24.0959529876709,-43.65999984741211 0,-43.65999984741211z"></path></g><g opacity="1" transform="matrix(0.44378983974456787,0,0,0.44378983974456787,53.702999114990234,-219.14100646972656)"><path fill="rgb(61,61,61)" fill-opacity="1" d=" M0,-43.65999984741211 C24.0959529876709,-43.65999984741211 43.65999984741211,-24.0959529876709 43.65999984741211,0 C43.65999984741211,24.0959529876709 24.0959529876709,43.65999984741211 0,43.65999984741211 C-24.0959529876709,43.65999984741211 -43.65999984741211,24.0959529876709 -43.65999984741211,0 C-43.65999984741211,-24.0959529876709 -24.0959529876709,-43.65999984741211 0,-43.65999984741211z"></path></g><g opacity="1" transform="matrix(1,0,0,1,-33.03499984741211,-217.93800354003906)"><path fill="rgb(255,255,255)" fill-opacity="1" d=" M0,-43.65999984741211 C24.0959529876709,-43.65999984741211 43.65999984741211,-24.0959529876709 43.65999984741211,0 C43.65999984741211,24.0959529876709 24.0959529876709,43.65999984741211 0,43.65999984741211 C-24.0959529876709,43.65999984741211 -43.65999984741211,24.0959529876709 -43.65999984741211,0 C-43.65999984741211,-24.0959529876709 -24.0959529876709,-43.65999984741211 0,-43.65999984741211z"></path></g><g opacity="1" transform="matrix(0.44378983974456787,0,0,0.44378983974456787,-33.03499984741211,-217.93800354003906)"><path fill="rgb(61,61,61)" fill-opacity="1" d=" M0,-43.65999984741211 C24.0959529876709,-43.65999984741211 43.65999984741211,-24.0959529876709 43.65999984741211,0 C43.65999984741211,24.0959529876709 24.0959529876709,43.65999984741211 0,43.65999984741211 C-24.0959529876709,43.65999984741211 -43.65999984741211,24.0959529876709 -43.65999984741211,0 C-43.65999984741211,-24.0959529876709 -24.0959529876709,-43.65999984741211 0,-43.65999984741211z"></path></g></g><g transform="matrix(0.9846543073654175,0.17451611161231995,-0.17451611161231995,0.9846543073654175,503.90924072265625,538.9202270507812)" opacity="1" style="display: none;"><g opacity="1" transform="matrix(1,0,0,1,67.66999816894531,-209.3300018310547)"><path fill="rgb(255,255,255)" fill-opacity="1" d=" M0,-7.670000076293945 C4.2330732345581055,-7.670000076293945 7.670000076293945,-4.2330732345581055 7.670000076293945,0 C7.670000076293945,4.2330732345581055 4.2330732345581055,7.670000076293945 0,7.670000076293945 C-4.2330732345581055,7.670000076293945 -7.670000076293945,4.2330732345581055 -7.670000076293945,0 C-7.670000076293945,-4.2330732345581055 -4.2330732345581055,-7.670000076293945 0,-7.670000076293945z"></path></g><g opacity="1" transform="matrix(1,0,0,1,-17.243999481201172,-209.3300018310547)"><path fill="rgb(255,255,255)" fill-opacity="1" d=" M0,-7.670000076293945 C4.2330732345581055,-7.670000076293945 7.670000076293945,-4.2330732345581055 7.670000076293945,0 C7.670000076293945,4.2330732345581055 4.2330732345581055,7.670000076293945 0,7.670000076293945 C-4.2330732345581055,7.670000076293945 -7.670000076293945,4.2330732345581055 -7.670000076293945,0 C-7.670000076293945,-4.2330732345581055 -4.2330732345581055,-7.670000076293945 0,-7.670000076293945z"></path></g><g opacity="1" transform="matrix(1.1662172079086304,-1.250614881515503,1.250614881515503,1.1662172079086304,49.85599899291992,-222.9340057373047)"><path fill="rgb(255,255,255)" fill-opacity="1" d=" M-0.27000001072883606,-7.625999927520752 C3.9660000801086426,-7.625999927520752 7.711999893188477,-3.4730000495910645 7.906000137329102,-0.5740000009536743 C8.026000022888184,1.215000033378601 4.00600004196167,0.6880000233650208 -0.2280000001192093,0.8309999704360962 C-4.755000114440918,0.984000027179718 -7.995999813079834,1.4079999923706055 -8.270000457763672,0.24799999594688416 C-8.86400032043457,-2.9769999980926514 -4.50600004196167,-7.625999927520752 -0.27000001072883606,-7.625999927520752z"></path></g><g opacity="1" transform="matrix(1.0025376081466675,-1.075089931488037,1.075089931488037,1.0025376081466675,-38.67100143432617,-221.33700561523438)"><path fill="rgb(255,255,255)" fill-opacity="1" d=" M-0.27000001072883606,-7.625999927520752 C3.9660000801086426,-7.625999927520752 7.711999893188477,-3.4730000495910645 7.906000137329102,-0.5740000009536743 C8.026000022888184,1.215000033378601 4.00600004196167,0.6880000233650208 -0.2280000001192093,0.8309999704360962 C-4.755000114440918,0.984000027179718 -7.995999813079834,1.4079999923706055 -8.270000457763672,0.24799999594688416 C-8.86400032043457,-2.9769999980926514 -4.50600004196167,-7.625999927520752 -0.27000001072883606,-7.625999927520752z"></path></g></g><g transform="matrix(0.993748664855957,0.11164046078920364,-0.11164046078920364,0.993748664855957,601.7135620117188,339.7332763671875)" opacity="1" style="display: block;"><path fill="rgb(165,84,55)" fill-opacity="1" d=" M6.8979997634887695,2.555999994277954 C6.2820000648498535,9.107000350952148 0.47200000286102295,13.918000221252441 -6.078000068664551,13.302000045776367 C-12.628000259399414,12.685999870300293 -22.457000732421875,8.486000061035156 -18.95800018310547,-3.9130001068115234 C-17.17099952697754,-10.244999885559082 -3.484999895095825,-20.350000381469727 -0.1889999955892563,-20.040000915527344 C3.1070001125335693,-19.729999542236328 7.513999938964844,-3.994999885559082 6.8979997634887695,2.555999994277954z"></path></g><g transform="matrix(0.9999768733978271,-0.006791212595999241,0.006791212595999241,0.9999768733978271,481.71173095703125,497.63934326171875)" opacity="1" style="display: block;"><path fill="rgb(180,86,233)" fill-opacity="1" d=" M90,-140.5 C74.20355224609375,-137.58116149902344 55.14561080932617,-91.97814178466797 48.096405029296875,-57.71112823486328 C40.41730499267578,-20.409826278686523 82.71387481689453,-15.683451652526855 93.82014465332031,-35.46462631225586 C104.86009979248047,-55.1015510559082 111.5707778930664,-93.4345932006836 131,-126 C102.5,-122.5 94.5,-138.5 90,-140.5z"></path></g><g transform="matrix(0.993748664855957,0.11164046078920364,-0.11164046078920364,0.993748664855957,576.3052978515625,434.6852722167969)" opacity="1" style="display: block;"><path stroke-linecap="round" stroke-linejoin="round" fill-opacity="0" stroke="rgb(158,77,49)" stroke-opacity="1" stroke-width="8.432" d=" M-16.579559326171875,-82.6702651977539 C-13.165069580078125,-68.1587905883789 19.39230728149414,-55.97433090209961 45.06013107299805,-77.55207824707031"></path></g><g transform="matrix(0.9845903515815735,0.17487700283527374,-0.17487700283527374,0.9845903515815735,504.2486267089844,538.475830078125)" opacity="1" style="display: none;"><g opacity="1" transform="matrix(1,0,0,1,0,0)"><path fill="rgb(136,27,27)" fill-opacity="1" d=" M10.402999877929688,-150.83399963378906 C-7.0970001220703125,-151.33399963378906 -16.73699951171875,-159.35699462890625 -23.02400016784668,-152.17999267578125 C-32.78099822998047,-141.04200744628906 -21.714000701904297,-127.95500183105469 6.5,-127.5 C37.5,-127 54.79899978637695,-140.4250030517578 44.50699996948242,-153.3990020751953 C37.83599853515625,-161.80799865722656 27.902999877929688,-150.33399963378906 10.402999877929688,-150.83399963378906z"></path></g><g opacity="1" transform="matrix(1,0,0,1,0,0)"><path fill="rgb(177,46,46)" fill-opacity="1" d=" M45.48400115966797,-140.3090057373047 C29.836999893188477,-153.0449981689453 -9.657999992370605,-149.49099731445312 -18.753000259399414,-133.69000244140625 C6.006999969482422,-120.26300048828125 43.61600112915039,-132.31399536132812 45.48400115966797,-140.3090057373047z"></path></g></g><g transform="matrix(0.9996600151062012,0.026071980595588684,-0.026071980595588684,0.9996600151062012,484.678466796875,486.1770324707031)" opacity="1" style="display: none;"><path fill="rgb(180,86,233)" fill-opacity="1" d=" M121.76399993896484,-130.79400634765625 C121.66400146484375,-130.656005859375 92.9010009765625,-138.81900024414062 83.53700256347656,-126.63800048828125 C62.47200012207031,-101.16500091552734 105.37200164794922,-87.25 129.45799255371094,-107.91699981689453 C138.71499633789062,-116.3239974975586 145.10499572753906,-117.04100036621094 146.5489959716797,-116.56999969482422 C133.95599365234375,-116.96199798583984 126.26399993896484,-128.79400634765625 121.76399993896484,-130.79400634765625z"></path></g><g transform="matrix(0.6620759963989258,0.11708146333694458,-0.11708146333694458,0.6620759963989258,577.1577758789062,413.5214538574219)" opacity="1" style="display: none;"><path fill="rgb(255,255,255)" fill-opacity="1" d=" M0,-7.784999847412109 C4.296541213989258,-7.784999847412109 7.784999847412109,-4.296541213989258 7.784999847412109,0 C7.784999847412109,4.296541213989258 4.296541213989258,7.784999847412109 0,7.784999847412109 C-4.296541213989258,7.784999847412109 -7.784999847412109,4.296541213989258 -7.784999847412109,0 C-7.784999847412109,-4.296541213989258 -4.296541213989258,-7.784999847412109 0,-7.784999847412109z"></path></g><g transform="matrix(0.996806800365448,-0.07985123991966248,0.07985123991966248,0.996806800365448,553.7169799804688,561.6484985351562)" opacity="1" style="display: none;"><path stroke-linecap="round" stroke-linejoin="miter" fill-opacity="0" stroke-miterlimit="4" stroke="rgb(165,84,55)" stroke-opacity="1" stroke-width="7" d=" M122.20279693603516,-207.7655792236328 C93.63108825683594,-202.50953674316406 65.42012786865234,-199.55943298339844 63.75,-198.75 C60.8494873046875,-197.5595245361328 91.39574432373047,-192.30221557617188 116.16683959960938,-189.69464111328125 M-8.802441596984863,-232.25161743164062 C6.381000995635986,-219.6658172607422 33.52299880981445,-211.10800170898438 35.814998626708984,-210.5240020751953 C38.106998443603516,-209.94000244140625 19.731897354125977,-227.5484619140625 3.1140527725219727,-245.3240203857422"></path></g><g transform="matrix(0.9948221445083618,-0.10163120925426483,0.10163120925426483,0.9948221445083618,579.79931640625,519.9664916992188)" opacity="1" style="display: block;"><g opacity="1" transform="matrix(1,0,0,1,0,0)"><path stroke-linecap="round" stroke-linejoin="miter" fill-opacity="0" stroke-miterlimit="4" stroke="rgb(165,84,55)" stroke-opacity="1" stroke-width="7" d=" M62.54542541503906,-210.6569366455078 C65.39093017578125,-195.52967834472656 92.74029541015625,-181.53060913085938 118.29900360107422,-196.7050018310547"></path></g><g opacity="1" transform="matrix(1,0,0,1,0,0)"><path stroke-linecap="round" stroke-linejoin="miter" fill-opacity="0" stroke-miterlimit="4" stroke="rgb(165,84,55)" stroke-opacity="1" stroke-width="7" d=" M-26.745195388793945,-230.04214477539062 C-25.60426139831543,-210.73916625976562 15.223937034606934,-201.54652404785156 31.712621688842773,-215.1038055419922"></path></g></g><g clip-path="url(#__lottie_element_9197)" transform="matrix(0.9940869212150574,0.1085873618721962,-0.1085873618721962,0.9940869212150574,123.96871948242188,-110.290283203125)" opacity="1" style="display: block;"><g transform="matrix(0.9999952912330627,0.0030717747285962105,-0.0030717747285962105,0.9999952912330627,-28.9005126953125,-49.16229248046875)" opacity="1" style="display: none;"><g opacity="1" transform="matrix(1,0,0,1,505.7860107421875,399.95599365234375)"><g opacity="1" transform="matrix(1,0,0,1,0,0)"><path fill="rgb(255,255,255)" fill-opacity="1" d=" M42.92314529418945,14.14447021484375 C42.54179382324219,-12.14647388458252 5.750921249389648,-30.3074951171875 -14.224920272827148,-30.500442504882812 C-39.535255432128906,-30.793212890625 -42.19499969482422,-16.419464111328125 -42.89400100708008,-13.593462944030762 C-43.566001892089844,-10.879463195800781 -43.657657623291016,0.49549397826194763 -35.92991638183594,8.083036422729492 C-24.40267562866211,14.33718204498291 10.685531616210938,33.10858917236328 27.98676109313965,31.46274185180664 C33.21599578857422,30.97723388671875 43.074520111083984,26.088523864746094 42.92314529418945,14.14447021484375z"></path></g></g><g opacity="1" transform="matrix(1,0,0,1,603.1409912109375,400.05999755859375)"><g opacity="1" transform="matrix(1,0,0,1,0,0)"><path fill="rgb(255,255,255)" fill-opacity="1" d=" M-42.564395904541016,14.013484001159668 C-42.38041305541992,-12.369451522827148 -5.719577789306641,-30.200632095336914 14.665602684020996,-30.384601593017578 C38.19822692871094,-30.466455459594727 41.477054595947266,-16.70745849609375 42.318424224853516,-14.082185745239258 C42.61212921142578,-13.670269012451172 42.95580291748047,-13.24257755279541 42.995052337646484,-12.377476692199707 C43.419151306152344,-6.082101821899414 38.4866943359375,2.598780393600464 32.937618255615234,6.219674587249756 C3.5971145629882812,25.412708282470703 -18.8913516998291,32.60171890258789 -27.628013610839844,31.138900756835938 C-32.81260681152344,30.282163619995117 -42.61936950683594,25.82063102722168 -42.564395904541016,14.013484001159668z"></path></g></g></g></g><g mask="url(#__lottie_element_9205_1)" style="display: none;"><g transform="matrix(0.9999769926071167,0.006779941264539957,-0.006779941264539957,0.9999769926071167,-34.0687255859375,-67.26080322265625)" opacity="1"><g opacity="1" transform="matrix(1,0,0,1,523.1339721679688,411.4100036621094)"><g opacity="1" transform="matrix(1,0,0,1,0,0)"><path fill="rgb(61,61,61)" fill-opacity="1" d=" M-3.4719998836517334,18.22100067138672 C-0.23000000417232513,15.206999778747559 1.0169999599456787,9.336999893188477 1.0169999599456787,4.289999961853027 C1.0169999599456787,4.289999961853027 1.0169999599456787,-4.539000034332275 1.0169999599456787,-4.539000034332275 C1.0169999599456787,-14.82800006866455 -7.2789998054504395,-24.041000366210938 -17.51099967956543,-25.115999221801758 C-27.743000030517578,-26.19099998474121 -36.03799819946289,-18.722999572753906 -36.03799819946289,-8.434000015258789 C-36.03799819946289,-8.434000015258789 -36.03799819946289,0.3959999978542328 -36.03799819946289,0.3959999978542328 C-36.03799819946289,1.4600000381469727 -34.94599914550781,11.01200008392334 -34.775001525878906,12.045999526977539 C-32.82699966430664,24.844999313354492 -12.326000213623047,29.086999893188477 -3.4719998836517334,18.22100067138672z"></path></g></g><g opacity="1" transform="matrix(1,0,0,1,585.10400390625,412.4100036621094)"><g opacity="1" transform="matrix(1,0,0,1,0,0)"><path fill="rgb(61,61,61)" fill-opacity="1" d=" M-11.774999618530273,19.96299934387207 C-15.017000198364258,16.948999404907227 -17.013999938964844,12.579000473022461 -17.013999938964844,7.5320000648498535 C-17.013999938964844,7.5320000648498535 -17.013999938964844,-1.2970000505447388 -17.013999938964844,-1.2970000505447388 C-17.013999938964844,-11.586000442504883 -8.718000411987305,-20.798999786376953 1.5140000581741333,-21.874000549316406 C11.746000289916992,-22.948999404907227 20.041000366210938,-15.480999946594238 20.041000366210938,-5.191999912261963 C20.041000366210938,-5.191999912261963 20.041000366210938,3.638000011444092 20.041000366210938,3.638000011444092 C20.041000366210938,4.702000141143799 20.204999923706055,12.753999710083008 20.034000396728516,13.788000106811523 C13.47700023651123,27.802000045776367 -4.771999835968018,29.05900001525879 -11.774999618530273,19.96299934387207z"></path></g></g></g></g><g mask="url(#__lottie_element_9186_1)" style="display: none;"><g transform="matrix(0.9999769926071167,0.006779941264539957,-0.006779941264539957,0.9999769926071167,-25.61639404296875,-60.2037353515625)" opacity="1"><g opacity="1" transform="matrix(1,0,0,1,1136,788.3330078125)"><g opacity="1" transform="matrix(1,0,0,1,0,0)"></g><path fill="rgb(255,255,255)" fill-opacity="1" d=" M-579.6619873046875,-397.78399658203125 C-579.6619873046875,-391.3030090332031 -574.4080200195312,-386.04901123046875 -567.927001953125,-386.04901123046875 C-561.4459838867188,-386.04901123046875 -556.1920166015625,-391.3030090332031 -556.1920166015625,-397.78399658203125 C-556.1920166015625,-404.2650146484375 -561.4459838867188,-409.51800537109375 -567.927001953125,-409.51800537109375 C-574.4080200195312,-409.51800537109375 -579.6619873046875,-404.2650146484375 -579.6619873046875,-397.78399658203125z"></path></g><g opacity="1" transform="matrix(1,0,0,1,482.7770080566406,386.17401123046875)"><path fill="rgb(255,255,255)" fill-opacity="1" d=" M11.734999656677246,0 C11.734999656677246,6.480999946594238 6.480999946594238,11.734000205993652 0,11.734000205993652 C-6.480999946594238,11.734000205993652 -11.734999656677246,6.480999946594238 -11.734999656677246,0 C-11.734999656677246,-6.480999946594238 -6.480999946594238,-11.734000205993652 0,-11.734000205993652 C6.480999946594238,-11.734000205993652 11.734999656677246,-6.480999946594238 11.734999656677246,0z"></path></g></g></g><g transform="matrix(0.9826173186302185,0.18564260005950928,-0.18564260005950928,0.9826173186302185,573.2044677734375,303.234130859375)" opacity="1" style="display: block;"><path fill="rgb(61,61,61)" fill-opacity="1" d=" M-65.50199890136719,-20.163000106811523 C-1.1319999694824219,-13.395999908447266 118.18689727783203,-40.722957611083984 127.82989501953125,-77.19195556640625 C79.19389343261719,-118.3549575805664 6.570000171661377,-106.6760025024414 5.1529998779296875,-106.24299621582031 C-58.3390007019043,-91.96399688720703 -64.70800018310547,-81.1449966430664 -87.5260009765625,-91.40499877929688 C-100.56999969482422,-97.30799865722656 -103.4260025024414,-113.84500122070312 -113.61499786376953,-109.05599975585938 C-120.59700012207031,-105.53600311279297 -146.80799865722656,-28.62700080871582 -65.50199890136719,-20.163000106811523z"></path></g><g transform="matrix(0.9872788190841675,-0.15899837017059326,0.15899837017059326,0.9872788190841675,-85.30352783203125,91.23919677734375)" opacity="1" style="display: none;"><path stroke-linecap="round" stroke-linejoin="miter" fill-opacity="0" stroke-miterlimit="10" stroke="rgb(165,102,70)" stroke-opacity="1" stroke-width="20" d=" M461.8590087890625,543.719970703125 C461.8590087890625,543.719970703125 668.9130249023438,706.0419921875 668.9130249023438,706.0419921875"></path></g><g mask="url(#__lottie_element_9137_1)" style="display: block;"><g transform="matrix(0.9826173186302185,0.18564260005950928,-0.18564260005950928,0.9826173186302185,134.2216796875,-111.15289306640625)" opacity="1"><g opacity="1" transform="matrix(1.840000033378601,0,0,1.840000033378601,555.2540283203125,339.76300048828125)"><path fill="url(#__lottie_element_9174)" mask="url(#__lottie_element_9176)" fill-opacity="1" d="M0 0 M0,-181.60699462890625 C100.29900360107422,-181.60699462890625 181.60699462890625,-100.29900360107422 181.60699462890625,0 C181.60699462890625,100.29900360107422 100.29900360107422,181.60699462890625 0,181.60699462890625 C-100.29900360107422,181.60699462890625 -181.60699462890625,100.29900360107422 -181.60699462890625,0 C-181.60699462890625,-100.29900360107422 -100.29900360107422,-181.60699462890625 0,-181.60699462890625z"></path></g></g></g><g clip-path="url(#__lottie_element_9107)" transform="matrix(0.3979245126247406,0.9174181818962097,-0.9174181818962097,0.3979245126247406,725.9490966796875,-113.5882568359375)" opacity="1" style="display: block;"><g mask="url(#__lottie_element_9108)"><g clip-path="url(#__lottie_element_9129)" transform="matrix(0.999995231628418,-0.003089227946475148,0.003089227946475148,0.999995231628418,-1.4486083984375,1.509765625)" opacity="1" style="display: block;"><g transform="matrix(1,0,0,1,0,0)" opacity="1" style="display: block;"><path fill="rgb(206,125,251)" fill-opacity="1" d=" M463.85400390625,397.4429931640625 C463.85400390625,397.4429931640625 317.1610107421875,588.5449829101562 317.1610107421875,588.5449829101562 C311.7090148925781,595.64697265625 301.5329895019531,596.9860229492188 294.4309997558594,591.5339965820312 C294.4309997558594,591.5339965820312 258.3320007324219,564.3790283203125 258.3320007324219,564.3790283203125 C248.7830047607422,556.5859985351562 239.26739501953125,541.153564453125 246.6003875732422,515.3575439453125 C246.6003875732422,515.3575439453125 380.7659912109375,344.7950744628906 380.7659912109375,344.7950744628906 C397.4439697265625,330.8930969238281 419.69000244140625,342.48699951171875 426.7919921875,347.9389953613281 C426.7919921875,347.9389953613281 460.864990234375,374.7130126953125 460.864990234375,374.7130126953125 C467.9670104980469,380.1650085449219 469.3059997558594,390.34100341796875 463.85400390625,397.4429931640625z M434.14801025390625,364.7659912109375 C490.12200927734375,407.73199462890625 500.6659851074219,487.93798828125 457.70001220703125,543.9119873046875 C414.7340087890625,599.885986328125 334.52801513671875,610.4299926757812 278.5539855957031,567.4639892578125 C222.5800018310547,524.4979858398438 212.03599548339844,444.2919921875 255.0019989013672,388.3179931640625 C297.9679870605469,332.343994140625 378.17401123046875,321.79998779296875 434.14801025390625,364.7659912109375z"></path></g></g><g mask="url(#__lottie_element_9120_1)" style="display: block;"><g transform="matrix(0.999995231628418,-0.003089227946475148,0.003089227946475148,0.999995231628418,-2.1595168113708496,0.24596454203128815)" opacity="1"><path fill="rgb(233,169,255)" fill-opacity="1" d=" M326.11468505859375,334.2921447753906 C319.4296875,330.734130859375 294.2577819824219,324.9627380371094 276.7637634277344,328.40875244140625 C272.57977294921875,329.2327575683594 270.78076171875,334.23358154296875 273.4087829589844,337.5915832519531 C273.4087829589844,337.5915832519531 294.79168701171875,361.7619934082031 294.79168701171875,361.7619934082031 C296.7126770019531,364.2159729003906 300.398681640625,364.504150390625 302.9056701660156,362.65313720703125 C302.9056701660156,362.65313720703125 328.8106689453125,344.2841491699219 328.8106689453125,344.2841491699219 C332.4336853027344,341.3631286621094 331.7356872558594,337.28314208984375 326.11468505859375,334.2921447753906z M418.7908935546875,380.6104736328125 C410.89288330078125,384.8124694824219 394.447021484375,389.97442626953125 385.3720397949219,398.2044677734375 C379.0839538574219,403.8753967285156 372.6800537109375,402.8024597167969 365.37005615234375,397.08746337890625 C365.37005615234375,397.08746337890625 344.98175048828125,380.18499755859375 344.98175048828125,380.18499755859375 C341.4317626953125,375.61798095703125 340.46160888671875,373.7738342285156 345.99859619140625,367.3768310546875 C351.5356140136719,360.9798278808594 374.9233703613281,351.4746398925781 381.900390625,348.9196472167969 C388.87738037109375,346.3646545410156 394.473388671875,347.2446594238281 399.6993713378906,352.5706481933594 C399.6993713378906,352.5706481933594 418.6048889160156,366.4944763183594 418.6048889160156,366.4944763183594 C422.1549072265625,371.06146240234375 426.68890380859375,376.4084777832031 418.7908935546875,380.6104736328125z"></path><path fill="rgb(233,169,255)" fill-opacity="1" d=" M418.7908935546875,380.6104736328125 C410.89288330078125,384.8124694824219 394.447021484375,389.97442626953125 385.3720397949219,398.2044677734375 C379.0839538574219,403.8753967285156 372.6800537109375,402.8024597167969 365.37005615234375,397.08746337890625 C365.37005615234375,397.08746337890625 344.98175048828125,380.18499755859375 344.98175048828125,380.18499755859375 C341.4317626953125,375.61798095703125 340.46160888671875,373.7738342285156 345.99859619140625,367.3768310546875 C351.5356140136719,360.9798278808594 374.9233703613281,351.4746398925781 381.900390625,348.9196472167969 C388.87738037109375,346.3646545410156 394.473388671875,347.2446594238281 399.6993713378906,352.5706481933594 C399.6993713378906,352.5706481933594 418.6048889160156,366.4944763183594 418.6048889160156,366.4944763183594 C422.1549072265625,371.06146240234375 426.68890380859375,376.4084777832031 418.7908935546875,380.6104736328125z"></path></g></g><g mask="url(#__lottie_element_9110_1)" style="display: block;"><g transform="matrix(0.999995231628418,-0.003089227946475148,0.003089227946475148,0.999995231628418,355.989013671875,466.1570129394531)" opacity="1"><path stroke-linecap="butt" stroke-linejoin="miter" fill-opacity="0" stroke-miterlimit="4" stroke="rgb(180,86,233)" stroke-opacity="1" stroke-width="11" d=" M114.94296264648438,-66.44194793701172 C38.882938385009766,-86.18952178955078 -62.4903564453125,41.17144012451172 -32.98099899291992,126.81900024414062 M31.830644607543945,-129.16297912597656 C-75.18368530273438,-110.19600677490234 -131.20498657226562,1.6368850469589233 -115.62750244140625,68.31959533691406"></path></g></g></g></g><g mask="url(#__lottie_element_9069_1)" style="display: block;"><g clip-path="url(#__lottie_element_9071)" transform="matrix(0.3979245126247406,0.9174181818962097,-0.9174181818962097,0.3979245126247406,725.9490966796875,-113.5882568359375)" opacity="1"><g clip-path="url(#__lottie_element_9093)" transform="matrix(0.999995231628418,-0.003089227946475148,0.003089227946475148,0.999995231628418,-1.4486083984375,1.509765625)" opacity="1" style="display: block;"><g transform="matrix(1,0,0,1,0,0)" opacity="1" style="display: block;"><path fill="rgb(206,125,251)" fill-opacity="1" d=" M463.85400390625,397.4429931640625 C463.85400390625,397.4429931640625 317.1610107421875,588.5449829101562 317.1610107421875,588.5449829101562 C311.7090148925781,595.64697265625 301.5329895019531,596.9860229492188 294.4309997558594,591.5339965820312 C294.4309997558594,591.5339965820312 258.3320007324219,564.3790283203125 258.3320007324219,564.3790283203125 C248.7830047607422,556.5859985351562 239.26739501953125,541.153564453125 246.6003875732422,515.3575439453125 C246.6003875732422,515.3575439453125 380.7659912109375,344.7950744628906 380.7659912109375,344.7950744628906 C397.4439697265625,330.8930969238281 419.69000244140625,342.48699951171875 426.7919921875,347.9389953613281 C426.7919921875,347.9389953613281 460.864990234375,374.7130126953125 460.864990234375,374.7130126953125 C467.9670104980469,380.1650085449219 469.3059997558594,390.34100341796875 463.85400390625,397.4429931640625z M434.14801025390625,364.7659912109375 C490.12200927734375,407.73199462890625 500.6659851074219,487.93798828125 457.70001220703125,543.9119873046875 C414.7340087890625,599.885986328125 334.52801513671875,610.4299926757812 278.5539855957031,567.4639892578125 C222.5800018310547,524.4979858398438 212.03599548339844,444.2919921875 255.0019989013672,388.3179931640625 C297.9679870605469,332.343994140625 378.17401123046875,321.79998779296875 434.14801025390625,364.7659912109375z"></path></g></g><g mask="url(#__lottie_element_9084_1)" style="display: block;"><g transform="matrix(0.999995231628418,-0.003089227946475148,0.003089227946475148,0.999995231628418,-2.1595168113708496,0.24596454203128815)" opacity="1"><path fill="rgb(233,169,255)" fill-opacity="1" d=" M326.11468505859375,334.2921447753906 C319.4296875,330.734130859375 294.2577819824219,324.9627380371094 276.7637634277344,328.40875244140625 C272.57977294921875,329.2327575683594 270.78076171875,334.23358154296875 273.4087829589844,337.5915832519531 C273.4087829589844,337.5915832519531 294.79168701171875,361.7619934082031 294.79168701171875,361.7619934082031 C296.7126770019531,364.2159729003906 300.398681640625,364.504150390625 302.9056701660156,362.65313720703125 C302.9056701660156,362.65313720703125 328.8106689453125,344.2841491699219 328.8106689453125,344.2841491699219 C332.4336853027344,341.3631286621094 331.7356872558594,337.28314208984375 326.11468505859375,334.2921447753906z M418.7908935546875,380.6104736328125 C410.89288330078125,384.8124694824219 394.447021484375,389.97442626953125 385.3720397949219,398.2044677734375 C379.0839538574219,403.8753967285156 372.6800537109375,402.8024597167969 365.37005615234375,397.08746337890625 C365.37005615234375,397.08746337890625 344.98175048828125,380.18499755859375 344.98175048828125,380.18499755859375 C341.4317626953125,375.61798095703125 340.46160888671875,373.7738342285156 345.99859619140625,367.3768310546875 C351.5356140136719,360.9798278808594 374.9233703613281,351.4746398925781 381.900390625,348.9196472167969 C388.87738037109375,346.3646545410156 394.473388671875,347.2446594238281 399.6993713378906,352.5706481933594 C399.6993713378906,352.5706481933594 418.6048889160156,366.4944763183594 418.6048889160156,366.4944763183594 C422.1549072265625,371.06146240234375 426.68890380859375,376.4084777832031 418.7908935546875,380.6104736328125z"></path><path fill="rgb(233,169,255)" fill-opacity="1" d=" M418.7908935546875,380.6104736328125 C410.89288330078125,384.8124694824219 394.447021484375,389.97442626953125 385.3720397949219,398.2044677734375 C379.0839538574219,403.8753967285156 372.6800537109375,402.8024597167969 365.37005615234375,397.08746337890625 C365.37005615234375,397.08746337890625 344.98175048828125,380.18499755859375 344.98175048828125,380.18499755859375 C341.4317626953125,375.61798095703125 340.46160888671875,373.7738342285156 345.99859619140625,367.3768310546875 C351.5356140136719,360.9798278808594 374.9233703613281,351.4746398925781 381.900390625,348.9196472167969 C388.87738037109375,346.3646545410156 394.473388671875,347.2446594238281 399.6993713378906,352.5706481933594 C399.6993713378906,352.5706481933594 418.6048889160156,366.4944763183594 418.6048889160156,366.4944763183594 C422.1549072265625,371.06146240234375 426.68890380859375,376.4084777832031 418.7908935546875,380.6104736328125z"></path></g></g><g mask="url(#__lottie_element_9074_1)" style="display: block;"><g transform="matrix(0.999995231628418,-0.003089227946475148,0.003089227946475148,0.999995231628418,355.989013671875,466.1570129394531)" opacity="1"><path stroke-linecap="butt" stroke-linejoin="miter" fill-opacity="0" stroke-miterlimit="4" stroke="rgb(180,86,233)" stroke-opacity="1" stroke-width="11" d=" M114.94296264648438,-66.44194793701172 C38.882938385009766,-86.18952178955078 -62.4903564453125,41.17144012451172 -32.98099899291992,126.81900024414062 M31.830644607543945,-129.16297912597656 C-75.18368530273438,-110.19600677490234 -131.20498657226562,1.6368850469589233 -115.62750244140625,68.31959533691406"></path></g></g></g></g><g clip-path="url(#__lottie_element_9039)" transform="matrix(0.3979245126247406,0.9174181818962097,-0.9174181818962097,0.3979245126247406,725.9490966796875,-113.5882568359375)" opacity="0.9" style="display: block;"><g clip-path="url(#__lottie_element_9061)" transform="matrix(0.999995231628418,-0.003089227946475148,0.003089227946475148,0.999995231628418,-1.4486083984375,1.509765625)" opacity="1" style="display: block;"><g transform="matrix(1,0,0,1,0,0)" opacity="1" style="display: block;"><path fill="rgb(206,125,251)" fill-opacity="1" d=" M463.85400390625,397.4429931640625 C463.85400390625,397.4429931640625 317.1610107421875,588.5449829101562 317.1610107421875,588.5449829101562 C311.7090148925781,595.64697265625 301.5329895019531,596.9860229492188 294.4309997558594,591.5339965820312 C294.4309997558594,591.5339965820312 258.3320007324219,564.3790283203125 258.3320007324219,564.3790283203125 C248.7830047607422,556.5859985351562 239.26739501953125,541.153564453125 246.6003875732422,515.3575439453125 C246.6003875732422,515.3575439453125 380.7659912109375,344.7950744628906 380.7659912109375,344.7950744628906 C397.4439697265625,330.8930969238281 419.69000244140625,342.48699951171875 426.7919921875,347.9389953613281 C426.7919921875,347.9389953613281 460.864990234375,374.7130126953125 460.864990234375,374.7130126953125 C467.9670104980469,380.1650085449219 469.3059997558594,390.34100341796875 463.85400390625,397.4429931640625z M434.14801025390625,364.7659912109375 C490.12200927734375,407.73199462890625 500.6659851074219,487.93798828125 457.70001220703125,543.9119873046875 C414.7340087890625,599.885986328125 334.52801513671875,610.4299926757812 278.5539855957031,567.4639892578125 C222.5800018310547,524.4979858398438 212.03599548339844,444.2919921875 255.0019989013672,388.3179931640625 C297.9679870605469,332.343994140625 378.17401123046875,321.79998779296875 434.14801025390625,364.7659912109375z"></path></g></g><g mask="url(#__lottie_element_9052_1)" style="display: block;"><g transform="matrix(0.999995231628418,-0.003089227946475148,0.003089227946475148,0.999995231628418,-2.1595168113708496,0.24596454203128815)" opacity="1"><path fill="rgb(233,169,255)" fill-opacity="1" d=" M326.11468505859375,334.2921447753906 C319.4296875,330.734130859375 294.2577819824219,324.9627380371094 276.7637634277344,328.40875244140625 C272.57977294921875,329.2327575683594 270.78076171875,334.23358154296875 273.4087829589844,337.5915832519531 C273.4087829589844,337.5915832519531 294.79168701171875,361.7619934082031 294.79168701171875,361.7619934082031 C296.7126770019531,364.2159729003906 300.398681640625,364.504150390625 302.9056701660156,362.65313720703125 C302.9056701660156,362.65313720703125 328.8106689453125,344.2841491699219 328.8106689453125,344.2841491699219 C332.4336853027344,341.3631286621094 331.7356872558594,337.28314208984375 326.11468505859375,334.2921447753906z M418.7908935546875,380.6104736328125 C410.89288330078125,384.8124694824219 394.447021484375,389.97442626953125 385.3720397949219,398.2044677734375 C379.0839538574219,403.8753967285156 372.6800537109375,402.8024597167969 365.37005615234375,397.08746337890625 C365.37005615234375,397.08746337890625 344.98175048828125,380.18499755859375 344.98175048828125,380.18499755859375 C341.4317626953125,375.61798095703125 340.46160888671875,373.7738342285156 345.99859619140625,367.3768310546875 C351.5356140136719,360.9798278808594 374.9233703613281,351.4746398925781 381.900390625,348.9196472167969 C388.87738037109375,346.3646545410156 394.473388671875,347.2446594238281 399.6993713378906,352.5706481933594 C399.6993713378906,352.5706481933594 418.6048889160156,366.4944763183594 418.6048889160156,366.4944763183594 C422.1549072265625,371.06146240234375 426.68890380859375,376.4084777832031 418.7908935546875,380.6104736328125z"></path><path fill="rgb(233,169,255)" fill-opacity="1" d=" M418.7908935546875,380.6104736328125 C410.89288330078125,384.8124694824219 394.447021484375,389.97442626953125 385.3720397949219,398.2044677734375 C379.0839538574219,403.8753967285156 372.6800537109375,402.8024597167969 365.37005615234375,397.08746337890625 C365.37005615234375,397.08746337890625 344.98175048828125,380.18499755859375 344.98175048828125,380.18499755859375 C341.4317626953125,375.61798095703125 340.46160888671875,373.7738342285156 345.99859619140625,367.3768310546875 C351.5356140136719,360.9798278808594 374.9233703613281,351.4746398925781 381.900390625,348.9196472167969 C388.87738037109375,346.3646545410156 394.473388671875,347.2446594238281 399.6993713378906,352.5706481933594 C399.6993713378906,352.5706481933594 418.6048889160156,366.4944763183594 418.6048889160156,366.4944763183594 C422.1549072265625,371.06146240234375 426.68890380859375,376.4084777832031 418.7908935546875,380.6104736328125z"></path></g></g><g mask="url(#__lottie_element_9042_1)" style="display: block;"><g transform="matrix(0.999995231628418,-0.003089227946475148,0.003089227946475148,0.999995231628418,355.989013671875,466.1570129394531)" opacity="1"><path stroke-linecap="butt" stroke-linejoin="miter" fill-opacity="0" stroke-miterlimit="4" stroke="rgb(180,86,233)" stroke-opacity="1" stroke-width="11" d=" M114.94296264648438,-66.44194793701172 C38.882938385009766,-86.18952178955078 -62.4903564453125,41.17144012451172 -32.98099899291992,126.81900024414062 M31.830644607543945,-129.16297912597656 C-75.18368530273438,-110.19600677490234 -131.20498657226562,1.6368850469589233 -115.62750244140625,68.31959533691406"></path></g></g></g><g transform="matrix(0.40075671672821045,0.9161845445632935,-0.9161845445632935,0.40075671672821045,723.9894409179688,-114.31646728515625)" opacity="1" style="display: block;"><path stroke-linecap="round" stroke-linejoin="miter" fill-opacity="0" stroke-miterlimit="10" stroke="rgb(165,102,70)" stroke-opacity="1" stroke-width="20" d=" M438.8810119628906,526.1400146484375 C438.8810119628906,526.1400146484375 626.2260131835938,664.1580200195312 626.2260131835938,664.1580200195312"></path></g><g transform="matrix(0.40075671672821045,0.9161845445632935,-0.9161845445632935,0.40075671672821045,387.5609130859375,629.8750610351562)" opacity="1" style="display: block;"><path fill="rgb(225,142,112)" fill-opacity="1" d=" M0,-36.13050079345703 C19.9404239654541,-36.13050079345703 36.13050079345703,-19.9404239654541 36.13050079345703,0 C36.13050079345703,19.9404239654541 19.9404239654541,36.13050079345703 0,36.13050079345703 C-19.9404239654541,36.13050079345703 -36.13050079345703,19.9404239654541 -36.13050079345703,0 C-36.13050079345703,-19.9404239654541 -19.9404239654541,-36.13050079345703 0,-36.13050079345703z"></path></g><g transform="matrix(0.40075671672821045,0.9161845445632935,-0.9161845445632935,0.40075671672821045,404.62127685546875,551.4921264648438)" opacity="1" style="display: block;"><path fill="rgb(225,142,112)" fill-opacity="1" d=" M0,-36.13050079345703 C19.9404239654541,-36.13050079345703 36.13050079345703,-19.9404239654541 36.13050079345703,0 C36.13050079345703,19.9404239654541 19.9404239654541,36.13050079345703 0,36.13050079345703 C-19.9404239654541,36.13050079345703 -36.13050079345703,19.9404239654541 -36.13050079345703,0 C-36.13050079345703,-19.9404239654541 -19.9404239654541,-36.13050079345703 0,-36.13050079345703z"></path></g></g></svg>