<svg xmlns="http://www.w3.org/2000/svg" xmlns:xlink="http://www.w3.org/1999/xlink" viewBox="0 0 1080 1080" width="1080" height="1080" preserveAspectRatio="xMidYMid meet" style="width: 100%; height: 100%; transform: translate3d(0px, 0px, 0px); content-visibility: visible;"><defs><clipPath id="__lottie_element_9026"><rect width="1080" height="1080" x="0" y="0"></rect></clipPath><clipPath id="__lottie_element_9039"><path d="M0,0 L1080,0 L1080,1080 L0,1080z"></path></clipPath><g id="__lottie_element_9042"><g clip-path="url(#__lottie_element_9043)" transform="matrix(0.999995231628418,-0.003089227946475148,0.003089227946475148,0.999995231628418,-1.4486083984375,1.509765625)" opacity="1" style="display: block;"><g transform="matrix(1,0,0,1,0,0)" opacity="1" style="display: block;"><path fill="rgb(206,125,251)" fill-opacity="1" d=" M463.85400390625,397.4429931640625 C463.85400390625,397.4429931640625 317.1610107421875,588.5449829101562 317.1610107421875,588.5449829101562 C311.7090148925781,595.64697265625 301.5329895019531,596.9860229492188 294.4309997558594,591.5339965820312 C294.4309997558594,591.5339965820312 251.19900512695312,558.3480224609375 251.19900512695312,558.3480224609375 C244.0970001220703,552.89599609375 242.75799560546875,542.719970703125 248.2100067138672,535.6179809570312 C248.2100067138672,535.6179809570312 394.90301513671875,344.5159912109375 394.90301513671875,344.5159912109375 C400.3550109863281,337.41400146484375 410.531005859375,336.07501220703125 417.63299560546875,341.5270080566406 C417.63299560546875,341.5270080566406 460.864990234375,374.7130126953125 460.864990234375,374.7130126953125 C467.9670104980469,380.1650085449219 469.3059997558594,390.34100341796875 463.85400390625,397.4429931640625z M434.14801025390625,364.7659912109375 C490.12200927734375,407.73199462890625 500.6659851074219,487.93798828125 457.70001220703125,543.9119873046875 C414.7340087890625,599.885986328125 334.52801513671875,610.4299926757812 278.5539855957031,567.4639892578125 C222.5800018310547,524.4979858398438 212.03599548339844,444.2919921875 255.0019989013672,388.3179931640625 C297.9679870605469,332.343994140625 378.17401123046875,321.79998779296875 434.14801025390625,364.7659912109375z"></path></g></g></g><clipPath id="__lottie_element_9043"><path d="M0,0 L1080,0 L1080,1080 L0,1080z"></path></clipPath><mask id="__lottie_element_9042_1" mask-type="alpha"><use xlink:href="#__lottie_element_9042"></use></mask><g id="__lottie_element_9052"><g clip-path="url(#__lottie_element_9053)" transform="matrix(0.999995231628418,-0.003089227946475148,0.003089227946475148,0.999995231628418,-1.4486083984375,1.509765625)" opacity="1" style="display: block;"><g transform="matrix(1,0,0,1,0,0)" opacity="1" style="display: block;"><path fill="rgb(206,125,251)" fill-opacity="1" d=" M463.85400390625,397.4429931640625 C463.85400390625,397.4429931640625 317.1610107421875,588.5449829101562 317.1610107421875,588.5449829101562 C311.7090148925781,595.64697265625 301.5329895019531,596.9860229492188 294.4309997558594,591.5339965820312 C294.4309997558594,591.5339965820312 251.19900512695312,558.3480224609375 251.19900512695312,558.3480224609375 C244.0970001220703,552.89599609375 242.75799560546875,542.719970703125 248.2100067138672,535.6179809570312 C248.2100067138672,535.6179809570312 394.90301513671875,344.5159912109375 394.90301513671875,344.5159912109375 C400.3550109863281,337.41400146484375 410.531005859375,336.07501220703125 417.63299560546875,341.5270080566406 C417.63299560546875,341.5270080566406 460.864990234375,374.7130126953125 460.864990234375,374.7130126953125 C467.9670104980469,380.1650085449219 469.3059997558594,390.34100341796875 463.85400390625,397.4429931640625z M434.14801025390625,364.7659912109375 C490.12200927734375,407.73199462890625 500.6659851074219,487.93798828125 457.70001220703125,543.9119873046875 C414.7340087890625,599.885986328125 334.52801513671875,610.4299926757812 278.5539855957031,567.4639892578125 C222.5800018310547,524.4979858398438 212.03599548339844,444.2919921875 255.0019989013672,388.3179931640625 C297.9679870605469,332.343994140625 378.17401123046875,321.79998779296875 434.14801025390625,364.7659912109375z"></path></g></g></g><clipPath id="__lottie_element_9053"><path d="M0,0 L1080,0 L1080,1080 L0,1080z"></path></clipPath><clipPath id="__lottie_element_9061"><path d="M0,0 L1080,0 L1080,1080 L0,1080z"></path></clipPath><mask id="__lottie_element_9052_1" mask-type="alpha"><use xlink:href="#__lottie_element_9052"></use></mask><clipPath id="__lottie_element_9071"><path d="M0,0 L1080,0 L1080,1080 L0,1080z"></path></clipPath><g id="__lottie_element_9074"><g clip-path="url(#__lottie_element_9075)" transform="matrix(0.999995231628418,-0.003089227946475148,0.003089227946475148,0.999995231628418,-1.4486083984375,1.509765625)" opacity="1" style="display: block;"><g transform="matrix(1,0,0,1,0,0)" opacity="1" style="display: block;"><path fill="rgb(206,125,251)" fill-opacity="1" d=" M463.85400390625,397.4429931640625 C463.85400390625,397.4429931640625 317.1610107421875,588.5449829101562 317.1610107421875,588.5449829101562 C311.7090148925781,595.64697265625 301.5329895019531,596.9860229492188 294.4309997558594,591.5339965820312 C294.4309997558594,591.5339965820312 251.19900512695312,558.3480224609375 251.19900512695312,558.3480224609375 C244.0970001220703,552.89599609375 242.75799560546875,542.719970703125 248.2100067138672,535.6179809570312 C248.2100067138672,535.6179809570312 394.90301513671875,344.5159912109375 394.90301513671875,344.5159912109375 C400.3550109863281,337.41400146484375 410.531005859375,336.07501220703125 417.63299560546875,341.5270080566406 C417.63299560546875,341.5270080566406 460.864990234375,374.7130126953125 460.864990234375,374.7130126953125 C467.9670104980469,380.1650085449219 469.3059997558594,390.34100341796875 463.85400390625,397.4429931640625z M434.14801025390625,364.7659912109375 C490.12200927734375,407.73199462890625 500.6659851074219,487.93798828125 457.70001220703125,543.9119873046875 C414.7340087890625,599.885986328125 334.52801513671875,610.4299926757812 278.5539855957031,567.4639892578125 C222.5800018310547,524.4979858398438 212.03599548339844,444.2919921875 255.0019989013672,388.3179931640625 C297.9679870605469,332.343994140625 378.17401123046875,321.79998779296875 434.14801025390625,364.7659912109375z"></path></g></g></g><clipPath id="__lottie_element_9075"><path d="M0,0 L1080,0 L1080,1080 L0,1080z"></path></clipPath><mask id="__lottie_element_9074_1" mask-type="alpha"><use xlink:href="#__lottie_element_9074"></use></mask><g id="__lottie_element_9084"><g clip-path="url(#__lottie_element_9085)" transform="matrix(0.999995231628418,-0.003089227946475148,0.003089227946475148,0.999995231628418,-1.4486083984375,1.509765625)" opacity="1" style="display: block;"><g transform="matrix(1,0,0,1,0,0)" opacity="1" style="display: block;"><path fill="rgb(206,125,251)" fill-opacity="1" d=" M463.85400390625,397.4429931640625 C463.85400390625,397.4429931640625 317.1610107421875,588.5449829101562 317.1610107421875,588.5449829101562 C311.7090148925781,595.64697265625 301.5329895019531,596.9860229492188 294.4309997558594,591.5339965820312 C294.4309997558594,591.5339965820312 251.19900512695312,558.3480224609375 251.19900512695312,558.3480224609375 C244.0970001220703,552.89599609375 242.75799560546875,542.719970703125 248.2100067138672,535.6179809570312 C248.2100067138672,535.6179809570312 394.90301513671875,344.5159912109375 394.90301513671875,344.5159912109375 C400.3550109863281,337.41400146484375 410.531005859375,336.07501220703125 417.63299560546875,341.5270080566406 C417.63299560546875,341.5270080566406 460.864990234375,374.7130126953125 460.864990234375,374.7130126953125 C467.9670104980469,380.1650085449219 469.3059997558594,390.34100341796875 463.85400390625,397.4429931640625z M434.14801025390625,364.7659912109375 C490.12200927734375,407.73199462890625 500.6659851074219,487.93798828125 457.70001220703125,543.9119873046875 C414.7340087890625,599.885986328125 334.52801513671875,610.4299926757812 278.5539855957031,567.4639892578125 C222.5800018310547,524.4979858398438 212.03599548339844,444.2919921875 255.0019989013672,388.3179931640625 C297.9679870605469,332.343994140625 378.17401123046875,321.79998779296875 434.14801025390625,364.7659912109375z"></path></g></g></g><clipPath id="__lottie_element_9085"><path d="M0,0 L1080,0 L1080,1080 L0,1080z"></path></clipPath><clipPath id="__lottie_element_9093"><path d="M0,0 L1080,0 L1080,1080 L0,1080z"></path></clipPath><mask id="__lottie_element_9084_1" mask-type="alpha"><use xlink:href="#__lottie_element_9084"></use></mask><g id="__lottie_element_9069"><g transform="matrix(1.0800000429153442,0,0,1.0800000429153442,553.8799438476562,545.081787109375)" opacity="1" style="display: block;"><g opacity="0" transform="matrix(1,0,0,1,-179.322998046875,-70.26499938964844)"><path fill="rgb(255,0,0)" fill-opacity="1" d=" M218.99549865722656,-150.26699829101562 C218.99549865722656,-150.26699829101562 218.99549865722656,150.26699829101562 218.99549865722656,150.26699829101562 C218.99549865722656,150.26699829101562 -218.99549865722656,150.26699829101562 -218.99549865722656,150.26699829101562 C-218.99549865722656,150.26699829101562 -218.99549865722656,-150.26699829101562 -218.99549865722656,-150.26699829101562 C-218.99549865722656,-150.26699829101562 218.99549865722656,-150.26699829101562 218.99549865722656,-150.26699829101562z"></path></g><g opacity="1" transform="matrix(1,0,0,1,-181.5,-71.5)"><path fill="url(#__lottie_element_9103)" mask="url(#__lottie_element_9105)" fill-opacity="1" d="M0 0 M0,-112.5 C62.088748931884766,-112.5 112.5,-62.088748931884766 112.5,0 C112.5,62.088748931884766 62.088748931884766,112.5 0,112.5 C-62.088748931884766,112.5 -112.5,62.088748931884766 -112.5,0 C-112.5,-62.088748931884766 -62.088748931884766,-112.5 0,-112.5z"></path></g></g></g><radialGradient id="__lottie_element_9103" spreadMethod="pad" gradientUnits="userSpaceOnUse" cx="0" cy="0" r="166.70816112918143" fx="0" fy="0"><stop offset="1%" stop-color="rgb(250,237,198)"></stop><stop offset="42%" stop-color="rgb(248,215,155)"></stop><stop offset="83%" stop-color="rgb(246,193,112)"></stop></radialGradient><mask id="__lottie_element_9105"><path fill="url(#__lottie_element_9104)" d=" M0,-112.5 C62.088748931884766,-112.5 112.5,-62.088748931884766 112.5,0 C112.5,62.088748931884766 62.088748931884766,112.5 0,112.5 C-62.088748931884766,112.5 -112.5,62.088748931884766 -112.5,0 C-112.5,-62.088748931884766 -62.088748931884766,-112.5 0,-112.5z"></path></mask><radialGradient id="__lottie_element_9104" spreadMethod="pad" gradientUnits="userSpaceOnUse" cx="0" cy="0" r="166.70816112918143" fx="0" fy="0"><stop stop-color="rgb(255,255,255)" offset="4%" stop-opacity="0"></stop><stop stop-color="rgb(255,255,255)" offset="32%" stop-opacity="0.5"></stop><stop stop-color="rgb(255,255,255)" offset="60%" stop-opacity="1"></stop></radialGradient><clipPath id="__lottie_element_9107"><path d="M0,0 L1080,0 L1080,1080 L0,1080z"></path></clipPath><mask id="__lottie_element_9108"><rect fill="#ffffff" width="1080" height="1080" transform="matrix(1,0,0,1,0.00006103515625,-0.001708984375)"></rect><path fill="#000000" clip-rule="nonzero" d=" M426.2330017089844,370.9530029296875 C311.5,316.5 226.5,398.5 240.93800354003906,491.73199462890625 C253.36199951171875,571.9609985351562 385,627 445.7070007324219,540.4569702148438 C485.7409973144531,483.385009765625 481.1159973144531,397.0010070800781 426.2330017089844,370.9530029296875" fill-opacity="1"></path></mask><g id="__lottie_element_9110"><g clip-path="url(#__lottie_element_9111)" transform="matrix(0.999995231628418,-0.003089227946475148,0.003089227946475148,0.999995231628418,-1.4486083984375,1.509765625)" opacity="1" style="display: block;"><g transform="matrix(1,0,0,1,0,0)" opacity="1" style="display: block;"><path fill="rgb(206,125,251)" fill-opacity="1" d=" M463.85400390625,397.4429931640625 C463.85400390625,397.4429931640625 317.1610107421875,588.5449829101562 317.1610107421875,588.5449829101562 C311.7090148925781,595.64697265625 301.5329895019531,596.9860229492188 294.4309997558594,591.5339965820312 C294.4309997558594,591.5339965820312 251.19900512695312,558.3480224609375 251.19900512695312,558.3480224609375 C244.0970001220703,552.89599609375 242.75799560546875,542.719970703125 248.2100067138672,535.6179809570312 C248.2100067138672,535.6179809570312 394.90301513671875,344.5159912109375 394.90301513671875,344.5159912109375 C400.3550109863281,337.41400146484375 410.531005859375,336.07501220703125 417.63299560546875,341.5270080566406 C417.63299560546875,341.5270080566406 460.864990234375,374.7130126953125 460.864990234375,374.7130126953125 C467.9670104980469,380.1650085449219 469.3059997558594,390.34100341796875 463.85400390625,397.4429931640625z M434.14801025390625,364.7659912109375 C490.12200927734375,407.73199462890625 500.6659851074219,487.93798828125 457.70001220703125,543.9119873046875 C414.7340087890625,599.885986328125 334.52801513671875,610.4299926757812 278.5539855957031,567.4639892578125 C222.5800018310547,524.4979858398438 212.03599548339844,444.2919921875 255.0019989013672,388.3179931640625 C297.9679870605469,332.343994140625 378.17401123046875,321.79998779296875 434.14801025390625,364.7659912109375z"></path></g></g></g><clipPath id="__lottie_element_9111"><path d="M0,0 L1080,0 L1080,1080 L0,1080z"></path></clipPath><mask id="__lottie_element_9110_1" mask-type="alpha"><use xlink:href="#__lottie_element_9110"></use></mask><g id="__lottie_element_9120"><g clip-path="url(#__lottie_element_9121)" transform="matrix(0.999995231628418,-0.003089227946475148,0.003089227946475148,0.999995231628418,-1.4486083984375,1.509765625)" opacity="1" style="display: block;"><g transform="matrix(1,0,0,1,0,0)" opacity="1" style="display: block;"><path fill="rgb(206,125,251)" fill-opacity="1" d=" M463.85400390625,397.4429931640625 C463.85400390625,397.4429931640625 317.1610107421875,588.5449829101562 317.1610107421875,588.5449829101562 C311.7090148925781,595.64697265625 301.5329895019531,596.9860229492188 294.4309997558594,591.5339965820312 C294.4309997558594,591.5339965820312 251.19900512695312,558.3480224609375 251.19900512695312,558.3480224609375 C244.0970001220703,552.89599609375 242.75799560546875,542.719970703125 248.2100067138672,535.6179809570312 C248.2100067138672,535.6179809570312 394.90301513671875,344.5159912109375 394.90301513671875,344.5159912109375 C400.3550109863281,337.41400146484375 410.531005859375,336.07501220703125 417.63299560546875,341.5270080566406 C417.63299560546875,341.5270080566406 460.864990234375,374.7130126953125 460.864990234375,374.7130126953125 C467.9670104980469,380.1650085449219 469.3059997558594,390.34100341796875 463.85400390625,397.4429931640625z M434.14801025390625,364.7659912109375 C490.12200927734375,407.73199462890625 500.6659851074219,487.93798828125 457.70001220703125,543.9119873046875 C414.7340087890625,599.885986328125 334.52801513671875,610.4299926757812 278.5539855957031,567.4639892578125 C222.5800018310547,524.4979858398438 212.03599548339844,444.2919921875 255.0019989013672,388.3179931640625 C297.9679870605469,332.343994140625 378.17401123046875,321.79998779296875 434.14801025390625,364.7659912109375z"></path></g></g></g><clipPath id="__lottie_element_9121"><path d="M0,0 L1080,0 L1080,1080 L0,1080z"></path></clipPath><clipPath id="__lottie_element_9129"><path d="M0,0 L1080,0 L1080,1080 L0,1080z"></path></clipPath><mask id="__lottie_element_9120_1" mask-type="alpha"><use xlink:href="#__lottie_element_9120"></use></mask><g id="__lottie_element_9137"><g clip-path="url(#__lottie_element_9138)" transform="matrix(1,0,0,1,-0.00006103515625,0.001708984375)" opacity="1" style="display: block;"><g clip-path="url(#__lottie_element_9160)" transform="matrix(0.999995231628418,-0.003089227946475148,0.003089227946475148,0.999995231628418,-1.4486083984375,1.509765625)" opacity="1" style="display: block;"><g transform="matrix(1,0,0,1,0,0)" opacity="1" style="display: block;"><path fill="rgb(206,125,251)" fill-opacity="1" d=" M463.85400390625,397.4429931640625 C463.85400390625,397.4429931640625 317.1610107421875,588.5449829101562 317.1610107421875,588.5449829101562 C311.7090148925781,595.64697265625 301.5329895019531,596.9860229492188 294.4309997558594,591.5339965820312 C294.4309997558594,591.5339965820312 251.19900512695312,558.3480224609375 251.19900512695312,558.3480224609375 C244.0970001220703,552.89599609375 242.75799560546875,542.719970703125 248.2100067138672,535.6179809570312 C248.2100067138672,535.6179809570312 394.90301513671875,344.5159912109375 394.90301513671875,344.5159912109375 C400.3550109863281,337.41400146484375 410.531005859375,336.07501220703125 417.63299560546875,341.5270080566406 C417.63299560546875,341.5270080566406 460.864990234375,374.7130126953125 460.864990234375,374.7130126953125 C467.9670104980469,380.1650085449219 469.3059997558594,390.34100341796875 463.85400390625,397.4429931640625z M434.14801025390625,364.7659912109375 C490.12200927734375,407.73199462890625 500.6659851074219,487.93798828125 457.70001220703125,543.9119873046875 C414.7340087890625,599.885986328125 334.52801513671875,610.4299926757812 278.5539855957031,567.4639892578125 C222.5800018310547,524.4979858398438 212.03599548339844,444.2919921875 255.0019989013672,388.3179931640625 C297.9679870605469,332.343994140625 378.17401123046875,321.79998779296875 434.14801025390625,364.7659912109375z"></path></g></g><g mask="url(#__lottie_element_9151_1)" style="display: block;"><g transform="matrix(0.999995231628418,-0.003089227946475148,0.003089227946475148,0.999995231628418,-2.1595168113708496,0.24596454203128815)" opacity="1"><path fill="rgb(233,169,255)" fill-opacity="1" d=" M357.8280029296875,352.093994140625 C350.4410095214844,350.4280090332031 325.4649963378906,349.7019958496094 309.50201416015625,357.6449890136719 C305.6839904785156,359.5450134277344 305.2699890136719,364.8429870605469 308.6919860839844,367.38800048828125 C308.6919860839844,367.38800048828125 334.8710021972656,386.8599853515625 334.8710021972656,386.8599853515625 C337.37200927734375,388.7200012207031 341.00299072265625,388.0249938964844 342.9320068359375,385.5769958496094 C342.9320068359375,385.5769958496094 363.0660095214844,361.0190124511719 363.0660095214844,361.0190124511719 C365.78900146484375,357.2449951171875 364.03900146484375,353.4949951171875 357.8280029296875,352.093994140625z M437.02398681640625,406.9010009765625 C437.02398681640625,406.9010009765625 414.45599365234375,436.3009948730469 414.45599365234375,436.3009948730469 C410.9339904785156,440.8900146484375 404.3590087890625,441.7539978027344 399.7699890136719,438.23199462890625 C399.7699890136719,438.23199462890625 370.6960144042969,415.9150085449219 370.6960144042969,415.9150085449219 C366.10699462890625,412.39300537109375 365.2439880371094,405.8179931640625 368.7659912109375,401.22900390625 C368.7659912109375,401.22900390625 391.3340148925781,371.8280029296875 391.3340148925781,371.8280029296875 C394.8559875488281,367.239013671875 401.4309997558594,366.3760070800781 406.0199890136719,369.89801025390625 C406.0199890136719,369.89801025390625 435.0929870605469,392.2149963378906 435.0929870605469,392.2149963378906 C439.6820068359375,395.73699951171875 440.5459899902344,402.31201171875 437.02398681640625,406.9010009765625z"></path><path fill="rgb(233,169,255)" fill-opacity="1" d=" M437.02398681640625,406.9010009765625 C437.02398681640625,406.9010009765625 414.45599365234375,436.3009948730469 414.45599365234375,436.3009948730469 C410.9339904785156,440.8900146484375 404.3590087890625,441.7539978027344 399.7699890136719,438.23199462890625 C399.7699890136719,438.23199462890625 370.6960144042969,415.9150085449219 370.6960144042969,415.9150085449219 C366.10699462890625,412.39300537109375 365.2439880371094,405.8179931640625 368.7659912109375,401.22900390625 C368.7659912109375,401.22900390625 391.3340148925781,371.8280029296875 391.3340148925781,371.8280029296875 C394.8559875488281,367.239013671875 401.4309997558594,366.3760070800781 406.0199890136719,369.89801025390625 C406.0199890136719,369.89801025390625 435.0929870605469,392.2149963378906 435.0929870605469,392.2149963378906 C439.6820068359375,395.73699951171875 440.5459899902344,402.31201171875 437.02398681640625,406.9010009765625z"></path></g></g><g mask="url(#__lottie_element_9141_1)" style="display: block;"><g transform="matrix(0.999995231628418,-0.003089227946475148,0.003089227946475148,0.999995231628418,355.989013671875,466.1570129394531)" opacity="1"><path stroke-linecap="butt" stroke-linejoin="miter" fill-opacity="0" stroke-miterlimit="4" stroke="rgb(180,86,233)" stroke-opacity="1" stroke-width="11" d=" M113.51499938964844,-63.933998107910156 C113.51499938964844,-63.933998107910156 -33.98500061035156,128.0659942626953 -33.98500061035156,128.0659942626953 M36.702999114990234,-125.04499816894531 C36.702999114990234,-125.04499816894531 -112.2969970703125,69.95500183105469 -112.2969970703125,69.95500183105469"></path></g></g></g></g><clipPath id="__lottie_element_9138"><path d="M0,0 L1080,0 L1080,1080 L0,1080z"></path></clipPath><g id="__lottie_element_9141"><g clip-path="url(#__lottie_element_9142)" transform="matrix(0.999995231628418,-0.003089227946475148,0.003089227946475148,0.999995231628418,-1.4486083984375,1.509765625)" opacity="1" style="display: block;"><g transform="matrix(1,0,0,1,0,0)" opacity="1" style="display: block;"><path fill="rgb(206,125,251)" fill-opacity="1" d=" M463.85400390625,397.4429931640625 C463.85400390625,397.4429931640625 317.1610107421875,588.5449829101562 317.1610107421875,588.5449829101562 C311.7090148925781,595.64697265625 301.5329895019531,596.9860229492188 294.4309997558594,591.5339965820312 C294.4309997558594,591.5339965820312 251.19900512695312,558.3480224609375 251.19900512695312,558.3480224609375 C244.0970001220703,552.89599609375 242.75799560546875,542.719970703125 248.2100067138672,535.6179809570312 C248.2100067138672,535.6179809570312 394.90301513671875,344.5159912109375 394.90301513671875,344.5159912109375 C400.3550109863281,337.41400146484375 410.531005859375,336.07501220703125 417.63299560546875,341.5270080566406 C417.63299560546875,341.5270080566406 460.864990234375,374.7130126953125 460.864990234375,374.7130126953125 C467.9670104980469,380.1650085449219 469.3059997558594,390.34100341796875 463.85400390625,397.4429931640625z M434.14801025390625,364.7659912109375 C490.12200927734375,407.73199462890625 500.6659851074219,487.93798828125 457.70001220703125,543.9119873046875 C414.7340087890625,599.885986328125 334.52801513671875,610.4299926757812 278.5539855957031,567.4639892578125 C222.5800018310547,524.4979858398438 212.03599548339844,444.2919921875 255.0019989013672,388.3179931640625 C297.9679870605469,332.343994140625 378.17401123046875,321.79998779296875 434.14801025390625,364.7659912109375z"></path></g></g></g><clipPath id="__lottie_element_9142"><path d="M0,0 L1080,0 L1080,1080 L0,1080z"></path></clipPath><mask id="__lottie_element_9141_1" mask-type="alpha"><use xlink:href="#__lottie_element_9141"></use></mask><g id="__lottie_element_9151"><g clip-path="url(#__lottie_element_9152)" transform="matrix(0.999995231628418,-0.003089227946475148,0.003089227946475148,0.999995231628418,-1.4486083984375,1.509765625)" opacity="1" style="display: block;"><g transform="matrix(1,0,0,1,0,0)" opacity="1" style="display: block;"><path fill="rgb(206,125,251)" fill-opacity="1" d=" M463.85400390625,397.4429931640625 C463.85400390625,397.4429931640625 317.1610107421875,588.5449829101562 317.1610107421875,588.5449829101562 C311.7090148925781,595.64697265625 301.5329895019531,596.9860229492188 294.4309997558594,591.5339965820312 C294.4309997558594,591.5339965820312 251.19900512695312,558.3480224609375 251.19900512695312,558.3480224609375 C244.0970001220703,552.89599609375 242.75799560546875,542.719970703125 248.2100067138672,535.6179809570312 C248.2100067138672,535.6179809570312 394.90301513671875,344.5159912109375 394.90301513671875,344.5159912109375 C400.3550109863281,337.41400146484375 410.531005859375,336.07501220703125 417.63299560546875,341.5270080566406 C417.63299560546875,341.5270080566406 460.864990234375,374.7130126953125 460.864990234375,374.7130126953125 C467.9670104980469,380.1650085449219 469.3059997558594,390.34100341796875 463.85400390625,397.4429931640625z M434.14801025390625,364.7659912109375 C490.12200927734375,407.73199462890625 500.6659851074219,487.93798828125 457.70001220703125,543.9119873046875 C414.7340087890625,599.885986328125 334.52801513671875,610.4299926757812 278.5539855957031,567.4639892578125 C222.5800018310547,524.4979858398438 212.03599548339844,444.2919921875 255.0019989013672,388.3179931640625 C297.9679870605469,332.343994140625 378.17401123046875,321.79998779296875 434.14801025390625,364.7659912109375z"></path></g></g></g><clipPath id="__lottie_element_9152"><path d="M0,0 L1080,0 L1080,1080 L0,1080z"></path></clipPath><clipPath id="__lottie_element_9160"><path d="M0,0 L1080,0 L1080,1080 L0,1080z"></path></clipPath><mask id="__lottie_element_9151_1" mask-type="alpha"><use xlink:href="#__lottie_element_9151"></use></mask><radialGradient id="__lottie_element_9174" spreadMethod="pad" gradientUnits="userSpaceOnUse" cx="-16.541000366210938" cy="-1.5470000505447388" r="112.18357489199718" fx="-25.098777163483554" fy="1.156598464688587"><stop offset="0%" stop-color="rgb(124,17,184)"></stop><stop offset="50%" stop-color="rgb(121,18,180)"></stop><stop offset="100%" stop-color="rgb(119,19,175)"></stop></radialGradient><mask id="__lottie_element_9176"><path fill="url(#__lottie_element_9175)" d=" M0,-181.60699462890625 C100.29900360107422,-181.60699462890625 181.60699462890625,-100.29900360107422 181.60699462890625,0 C181.60699462890625,100.29900360107422 100.29900360107422,181.60699462890625 0,181.60699462890625 C-100.29900360107422,181.60699462890625 -181.60699462890625,100.29900360107422 -181.60699462890625,0 C-181.60699462890625,-100.29900360107422 -100.29900360107422,-181.60699462890625 0,-181.60699462890625z"></path></mask><radialGradient id="__lottie_element_9175" spreadMethod="pad" gradientUnits="userSpaceOnUse" cx="-16.541000366210938" cy="-1.5470000505447388" r="112.18357489199718" fx="-25.098777163483554" fy="1.156598464688587"><stop stop-color="rgb(255,255,255)" offset="0%" stop-opacity="1"></stop><stop stop-color="rgb(255,255,255)" offset="36%" stop-opacity="1"></stop><stop stop-color="rgb(255,255,255)" offset="73%" stop-opacity="1"></stop><stop stop-color="rgb(255,255,255)" offset="85%" stop-opacity="0.5"></stop><stop stop-color="rgb(255,255,255)" offset="92%" stop-opacity="0"></stop></radialGradient><mask id="__lottie_element_9137_1" mask-type="alpha"><use xlink:href="#__lottie_element_9137"></use></mask><g id="__lottie_element_9186"><g clip-path="url(#__lottie_element_9189)" transform="matrix(0.9999952912330627,-0.0030717747285962105,0.0030717747285962105,0.9999952912330627,31.05084228515625,49.19830322265625)" opacity="1" style="display: block;"><g transform="matrix(0.9999952912330627,0.0030717747285962105,-0.0030717747285962105,0.9999952912330627,-28.9005126953125,-49.16229248046875)" opacity="1" style="display: block;"><g opacity="1" transform="matrix(1,0,0,1,505.7860107421875,399.95599365234375)"><g opacity="1" transform="matrix(1,0,0,1,0,0)"><path fill="rgb(255,255,255)" fill-opacity="1" d=" M43.11600112915039,13.402999877929688 C43.11600112915039,-14.225000381469727 6.2769999504089355,-32.47999954223633 -14.114999771118164,-32.47999954223633 C-39.441001892089844,-32.47999954223633 -42.19499969482422,-17.052000045776367 -42.89400100708008,-14.22599983215332 C-43.566001892089844,-11.51200008392334 -42.78799819946289,-2.372999906539917 -39.48500061035156,-0.12099999934434891 C-10.168999671936035,7.48799991607666 21.489999771118164,32.47999954223633 27.656999588012695,32.47999954223633 C32.91899871826172,32.47999954223633 43.11600112915039,26.06599998474121 43.11600112915039,13.402999877929688z"></path></g></g><g opacity="1" transform="matrix(1,0,0,1,603.1409912109375,400.05999755859375)"><g opacity="1" transform="matrix(1,0,0,1,0,0)"><path fill="rgb(255,255,255)" fill-opacity="1" d=" M-43.11399841308594,13.298999786376953 C-43.11399841308594,-14.329000473022461 -6.276000022888184,-32.58399963378906 14.116000175476074,-32.58399963378906 C39.44200134277344,-32.58399963378906 42.196998596191406,-17.1560001373291 42.895999908447266,-14.329999923706055 C42.97999954223633,-13.991000175476074 43.04199981689453,-13.550999641418457 43.077999114990234,-13.036999702453613 C43.54800033569336,-6.421999931335449 39.42399978637695,-0.3109999895095825 33.18899917602539,1.9459999799728394 C0.5680000185966492,13.75100040435791 -22.0049991607666,30.540000915527344 -27.655000686645508,32.375999450683594 C-32.65999984741211,34.00299835205078 -43.11399841308594,25.961999893188477 -43.11399841308594,13.298999786376953z"></path></g></g></g></g></g><clipPath id="__lottie_element_9189"><path d="M0,0 L1080,0 L1080,1080 L0,1080z"></path></clipPath><clipPath id="__lottie_element_9197"><path d="M0,0 L1080,0 L1080,1080 L0,1080z"></path></clipPath><mask id="__lottie_element_9186_1" mask-type="alpha"><use xlink:href="#__lottie_element_9186"></use></mask><g id="__lottie_element_9205"><g clip-path="url(#__lottie_element_9206)" transform="matrix(0.9999952912330627,-0.0030717747285962105,0.0030717747285962105,0.9999952912330627,31.05084228515625,49.69830322265625)" opacity="1" style="display: block;"><g transform="matrix(0.9999952912330627,0.0030717747285962105,-0.0030717747285962105,0.9999952912330627,-28.9005126953125,-49.16229248046875)" opacity="1" style="display: block;"><g opacity="1" transform="matrix(1,0,0,1,505.7860107421875,399.95599365234375)"><g opacity="1" transform="matrix(1,0,0,1,0,0)"><path fill="rgb(255,255,255)" fill-opacity="1" d=" M43.11600112915039,13.402999877929688 C43.11600112915039,-14.225000381469727 6.2769999504089355,-32.47999954223633 -14.114999771118164,-32.47999954223633 C-39.441001892089844,-32.47999954223633 -42.19499969482422,-17.052000045776367 -42.89400100708008,-14.22599983215332 C-43.566001892089844,-11.51200008392334 -42.78799819946289,-2.372999906539917 -39.48500061035156,-0.12099999934434891 C-10.168999671936035,7.48799991607666 21.489999771118164,32.47999954223633 27.656999588012695,32.47999954223633 C32.91899871826172,32.47999954223633 43.11600112915039,26.06599998474121 43.11600112915039,13.402999877929688z"></path></g></g><g opacity="1" transform="matrix(1,0,0,1,603.1409912109375,400.05999755859375)"><g opacity="1" transform="matrix(1,0,0,1,0,0)"><path fill="rgb(255,255,255)" fill-opacity="1" d=" M-43.11399841308594,13.298999786376953 C-43.11399841308594,-14.329000473022461 -6.276000022888184,-32.58399963378906 14.116000175476074,-32.58399963378906 C39.44200134277344,-32.58399963378906 42.196998596191406,-17.1560001373291 42.895999908447266,-14.329999923706055 C42.97999954223633,-13.991000175476074 43.04199981689453,-13.550999641418457 43.077999114990234,-13.036999702453613 C43.54800033569336,-6.421999931335449 39.42399978637695,-0.3109999895095825 33.18899917602539,1.9459999799728394 C0.5680000185966492,13.75100040435791 -22.0049991607666,30.540000915527344 -27.655000686645508,32.375999450683594 C-32.65999984741211,34.00299835205078 -43.11399841308594,25.961999893188477 -43.11399841308594,13.298999786376953z"></path></g></g></g></g></g><clipPath id="__lottie_element_9206"><path d="M0,0 L1080,0 L1080,1080 L0,1080z"></path></clipPath><mask id="__lottie_element_9205_1" mask-type="alpha"><use xlink:href="#__lottie_element_9205"></use></mask><clipPath id="__lottie_element_9252"><path fill="#ffffff" clip-rule="nonzero" d=" M400.05999755859375,420.1189880371094 C400.05999755859375,420.1189880371094 314.55999755859375,684.718017578125 314.55999755859375,684.718017578125 C314.55999755859375,684.718017578125 799.5430297851562,679.7100219726562 799.5430297851562,679.7100219726562 C799.5430297851562,679.7100219726562 659.0430297851562,436.81201171875 659.0430297851562,436.81201171875 C659.0430297851562,436.81201171875 400.05999755859375,420.1189880371094 400.05999755859375,420.1189880371094" fill-opacity="1"></path></clipPath><g id="__lottie_element_9257"><g clip-path="url(#__lottie_element_9258)" style="display: none;" transform="matrix(1,0,0,1,0,0)" opacity="1"><g style="display: block;" transform="matrix(1,0,0,1,0,0)" opacity="1"><path stroke-linecap="round" stroke-linejoin="miter" fill-opacity="0" stroke-miterlimit="4" stroke="rgb(255,183,227)" stroke-opacity="1" stroke-width="76" d=" M526.8671875,641.34130859375 C506.47491455078125,693.3810424804688 515.5135498046875,742.7012939453125 530.1743774414062,778.0901489257812 M590.8294067382812,640.9652709960938 C591.8828735351562,684.4083862304688 582.1151733398438,742.2697143554688 612.1192016601562,734.5274658203125"></path></g></g></g><clipPath id="__lottie_element_9258"><path d="M0,0 L1080,0 L1080,1080 L0,1080z"></path></clipPath><mask id="__lottie_element_9257_1" mask-type="alpha"><use xlink:href="#__lottie_element_9257"></use></mask><clipPath id="__lottie_element_9269"><path fill="#ffffff" clip-rule="nonzero" d=" M-59.654998779296875,88.75 C-59.654998779296875,88.75 -77.677001953125,222.81900024414062 -35.529998779296875,228.85000610351562 C2.0299999713897705,234.22500610351562 13.03499984741211,206.625 13.03499984741211,206.625 C13.03499984741211,206.625 29.415000915527344,234.47500610351562 57.03499984741211,227.47500610351562 C84.65499877929688,220.47500610351562 64.6969985961914,93.66999816894531 64.6969985961914,93.66999816894531 C64.6969985961914,93.66999816894531 17.03499984741211,88 17.03499984741211,88 C17.03499984741211,88 -59.654998779296875,88.75 -59.654998779296875,88.75" fill-opacity="1"></path></clipPath><clipPath id="__lottie_element_9290"><path d="M0,0 L1080,0 L1080,1080 L0,1080z"></path></clipPath><mask id="__lottie_element_9069_1" mask-type="alpha"><use xlink:href="#__lottie_element_9069"></use></mask></defs><g clip-path="url(#__lottie_element_9026)"><g transform="matrix(1,0,0,1,557.135986328125,829.239013671875)" opacity="0.3" style="display: block;"><path fill="rgb(175,175,175)" fill-opacity="1" d=" M0,-100.77050018310547 C71.42855834960938,-100.77050018310547 129.42300415039062,-55.615238189697266 129.42300415039062,0 C129.42300415039062,55.615238189697266 71.42855834960938,100.77050018310547 0,100.77050018310547 C-71.42855834960938,100.77050018310547 -129.42300415039062,55.615238189697266 -129.42300415039062,0 C-129.42300415039062,-55.615238189697266 -71.42855834960938,-100.77050018310547 0,-100.77050018310547z"></path></g><g transform="matrix(1,0,0,1,540.5460205078125,536.7479858398438)" opacity="1" style="display: block;"><path stroke-linecap="round" stroke-linejoin="miter" fill-opacity="0" stroke-miterlimit="4" stroke="rgb(255,134,208)" stroke-opacity="1" stroke-width="35" d=" M-21.5,293.5 C-21.5,293.5 3.75,269.75 3.75,269.75"></path></g><g transform="matrix(1,0,0,1,540.5460205078125,536.7479858398438)" opacity="1" style="display: block;"><path stroke-linecap="round" stroke-linejoin="miter" fill-opacity="0" stroke-miterlimit="4" stroke="rgb(255,134,208)" stroke-opacity="1" stroke-width="35" d=" M47.5,293 C47.5,293 21.75,266.5 21.75,266.5"></path></g><g transform="matrix(1,0,0,1,540.5460815429688,540.2479858398438)" opacity="1" style="display: block;"><path stroke-linecap="round" stroke-linejoin="miter" fill-opacity="0" stroke-miterlimit="4" stroke="rgb(28,176,246)" stroke-opacity="1" stroke-width="46" d=" M58.5,-26.5 C89.5,14.5 114.5,45.5 114.5,45.5"></path></g><g transform="matrix(1,0,0,1,540.4540405273438,540.0349731445312)" opacity="1" style="display: block;"><path stroke-linecap="round" stroke-linejoin="miter" fill-opacity="0" stroke-miterlimit="4" stroke="rgb(28,176,246)" stroke-opacity="1" stroke-width="46" d=" M-33,-19.5 C-52.07400131225586,14.5600004196167 -67.08899688720703,37.86899948120117 -72.2020034790039,46.42900085449219 C-76.33000183105469,53.3390007019043 -86.1709976196289,70.66000366210938 -87,72.5"></path></g><g transform="matrix(1,0,0,1,0.00006103515625,0)" opacity="1" style="display: block;"><path fill="rgb(255,183,227)" fill-opacity="1" d=" M553.6959838867188,529.1019897460938 C603.4760131835938,529.1019897460938 643.8319702148438,566.177001953125 643.8319702148438,611.9119873046875 C643.8319702148438,657.64697265625 603.4760131835938,694.7230224609375 553.6959838867188,694.7230224609375 C503.9159851074219,694.7230224609375 463.5610046386719,657.64697265625 463.5610046386719,611.9119873046875 C463.5610046386719,566.177001953125 503.9159851074219,529.1019897460938 553.6959838867188,529.1019897460938z"></path></g><g clip-path="url(#__lottie_element_9290)" transform="matrix(1,0,0,1,0,0)" opacity="1" style="display: block;"><g transform="matrix(1,0,0,1,0,0)" opacity="1" style="display: block;"><path stroke-linecap="round" stroke-linejoin="miter" fill-opacity="0" stroke-miterlimit="4" stroke="rgb(255,183,227)" stroke-opacity="1" stroke-width="76" d=" M517.25,644.93798828125 C517.25,678.43798828125 517.25,763.43798828125 517.25,779.43798828125 M589,644.125 C589,677.625 589,762.625 589,778.625"></path></g></g><g transform="matrix(1,0,0,1,553.6870727539062,557.1890258789062)" opacity="1" style="display: block;"><path fill="rgb(255,134,208)" fill-opacity="1" d=" M0,-33.05400085449219 C30.853416442871094,-33.05400085449219 55.90399932861328,-18.242502212524414 55.90399932861328,0 C55.90399932861328,18.242502212524414 30.853416442871094,33.05400085449219 0,33.05400085449219 C-30.853416442871094,33.05400085449219 -55.90399932861328,18.242502212524414 -55.90399932861328,0 C-55.90399932861328,-18.242502212524414 -30.853416442871094,-33.05400085449219 0,-33.05400085449219z"></path></g><g transform="matrix(1,0,0,1,589.5420532226562,576.22705078125)" opacity="1" style="display: block;"><path fill="rgb(255,183,227)" fill-opacity="1" d=" M-64.74049377441406,-15.184499740600586 C-64.74049377441406,-15.184499740600586 -64.74049377441406,15.184499740600586 -64.74049377441406,15.184499740600586 C-64.74049377441406,15.184499740600586 -77.65950012207031,15.184499740600586 -77.65950012207031,15.184499740600586 C-77.65950012207031,15.184499740600586 -77.65950012207031,-15.184499740600586 -77.65950012207031,-15.184499740600586 C-77.65950012207031,-15.184499740600586 -64.74049377441406,-15.184499740600586 -64.74049377441406,-15.184499740600586z M6.459499835968018,-15.184499740600586 C6.459499835968018,-15.184499740600586 6.459499835968018,15.184499740600586 6.459499835968018,15.184499740600586 C6.459499835968018,15.184499740600586 -6.459499835968018,15.184499740600586 -6.459499835968018,15.184499740600586 C-6.459499835968018,15.184499740600586 -6.459499835968018,-15.184499740600586 -6.459499835968018,-15.184499740600586 C-6.459499835968018,-15.184499740600586 6.459499835968018,-15.184499740600586 6.459499835968018,-15.184499740600586z"></path></g><g transform="matrix(0.9917057156562805,-0.1285294145345688,0.1285294145345688,0.9917057156562805,522.552001953125,548.9497680664062)" opacity="1" style="display: none;"><path fill="rgb(28,176,246)" fill-opacity="1" d=" M96.04199981689453,-20.91900062561035 C89.45800018310547,-47.47600173950195 75.43099975585938,-33.86600112915039 65.43099975585938,-24.865999221801758 C55.430999755859375,-15.866000175476074 60.39699935913086,31.274999618530273 81.5,15 C86.66200256347656,11.019000053405762 99.55000305175781,-6.769999980926514 96.04199981689453,-20.91900062561035z"></path></g><g transform="matrix(1,0,0,1,0.00006103515625,0)" opacity="1" style="display: block;"><path fill="rgb(28,176,246)" fill-opacity="1" d=" M499.9849853515625,544.27099609375 C499.9849853515625,537.9609985351562 507.99798583984375,517.10302734375 512.0050048828125,507.4630126953125 C512.0050048828125,507.4630126953125 592.3809814453125,507.4630126953125 592.3809814453125,507.4630126953125 C597.3889770507812,516.3519897460938 607.405029296875,536.1580200195312 607.405029296875,544.27099609375 C607.405029296875,554.4119873046875 589.9010009765625,576.197021484375 551.2150268554688,576.197021484375 C512.5289916992188,576.197021484375 499.9849853515625,552.1589965820312 499.9849853515625,544.27099609375z"></path></g><g transform="matrix(1,0,0,1,540.0000610351562,540)" opacity="1" style="display: block;"><g opacity="1" transform="matrix(1,0,0,1,0,0)"><path stroke-linecap="round" stroke-linejoin="miter" fill-opacity="0" stroke-miterlimit="4" stroke="rgb(255,161,218)" stroke-opacity="1" stroke-width="7" d=" M0.5910000205039978,152.04100036621094 C8.088000297546387,154.08799743652344 16.375,154.23500061035156 24.259000778198242,151.9510040283203"></path></g></g><g transform="matrix(0.9782273769378662,0.20753608644008636,-0.20753608644008636,0.9782273769378662,572.6825561523438,539.5470581054688)" opacity="1" style="display: none;"><g opacity="1" transform="matrix(1,0,0,1,0,0)"><path stroke-linecap="round" stroke-linejoin="miter" fill-opacity="0" stroke-miterlimit="4" stroke="rgb(255,161,218)" stroke-opacity="1" stroke-width="7" d=" M-0.9539999961853027,155.7740020751953 C6.039000034332275,156.88499450683594 16.639999389648438,154.4459991455078 22.281999588012695,150.85800170898438"></path></g></g><g clip-path="url(#__lottie_element_9269)" transform="matrix(1,0,0,1,540.0950927734375,587.8989868164062)" opacity="1" style="display: block;"><path stroke-linecap="butt" stroke-linejoin="miter" fill-opacity="0" stroke-miterlimit="4" stroke="rgb(255,161,218)" stroke-opacity="1" stroke-width="7" d=" M13.095000267028809,106.5 C13.095000267028809,115.75 13.78499984741211,205.75 13.78499984741211,220.75"></path></g><g mask="url(#__lottie_element_9257_1)" style="display: none;"><g transform="matrix(0.9837693572044373,0.1794375479221344,-0.1794375479221344,0.9837693572044373,555.6240234375,566.8489990234375)" opacity="1"><path stroke-linecap="butt" stroke-linejoin="miter" fill-opacity="0" stroke-miterlimit="4" stroke="rgb(255,161,218)" stroke-opacity="1" stroke-width="7" d=" M20.714000701904297,105.04499816894531 C20.195999145507812,112.53199768066406 9.58899974822998,161.1529998779297 48.784000396728516,183.55999755859375"></path></g></g><g transform="matrix(0.999995231628418,-0.003089227946475148,0.003089227946475148,0.999995231628418,-1.447998046875,1.509765625)" opacity="1" style="display: block;"><g opacity="1" transform="matrix(1,0,0,1,486.9320068359375,564.9459838867188)"><path fill="rgb(225,142,112)" fill-opacity="1" d=" M-5.2829999923706055,-22.452999114990234 C-5.2829999923706055,-22.452999114990234 -13.079999923706055,18.999000549316406 -13.079999923706055,18.999000549316406 C-14.034000396728516,24.06999969482422 -10.696999549865723,28.95400047302246 -5.625999927520752,29.908000946044922 C-5.625999927520752,29.908000946044922 -5.625999927520752,29.908000946044922 -5.625999927520752,29.908000946044922 C-0.5550000071525574,30.86199951171875 4.328999996185303,27.52400016784668 5.2829999923706055,22.452999114990234 C5.2829999923706055,22.452999114990234 13.079999923706055,-18.999000549316406 13.079999923706055,-18.999000549316406 C14.034000396728516,-24.06999969482422 10.696999549865723,-28.95400047302246 5.625999927520752,-29.908000946044922 C5.625999927520752,-29.908000946044922 5.625999927520752,-29.908000946044922 5.625999927520752,-29.908000946044922 C0.5550000071525574,-30.86199951171875 -4.328999996185303,-27.52400016784668 -5.2829999923706055,-22.452999114990234z"></path></g><g opacity="1" transform="matrix(1,0,0,1,563.9949951171875,627.4299926757812)"><path fill="rgb(225,142,112)" fill-opacity="1" d=" M-21.283000946044922,8.892000198364258 C-21.283000946044922,8.892000198364258 20.88599967956543,9.788999557495117 20.88599967956543,9.788999557495117 C26.045000076293945,9.89900016784668 30.315000534057617,5.806000232696533 30.424999237060547,0.6470000147819519 C30.424999237060547,0.6470000147819519 30.424999237060547,0.6470000147819519 30.424999237060547,0.6470000147819519 C30.53499984741211,-4.51200008392334 26.441999435424805,-8.781999588012695 21.283000946044922,-8.892000198364258 C21.283000946044922,-8.892000198364258 -20.88599967956543,-9.788999557495117 -20.88599967956543,-9.788999557495117 C-26.045000076293945,-9.89900016784668 -30.315000534057617,-5.806000232696533 -30.424999237060547,-0.6470000147819519 C-30.424999237060547,-0.6470000147819519 -30.424999237060547,-0.6470000147819519 -30.424999237060547,-0.6470000147819519 C-30.53499984741211,4.51200008392334 -26.441999435424805,8.781999588012695 -21.283000946044922,8.892000198364258z"></path></g></g><g transform="matrix(1,0,0,1,539.5450439453125,545.6110229492188)" opacity="1" style="display: block;"><g opacity="1" transform="matrix(1,0,0,1,0,0)"><path stroke-linecap="round" stroke-linejoin="miter" fill-opacity="0" stroke-miterlimit="4" stroke="rgb(28,176,246)" stroke-opacity="1" stroke-width="51" d=" M112,40.75 C112,40.75 110.74500274658203,42.18199920654297 110.74500274658203,42.18199920654297 C110.74500274658203,42.18199920654297 58,79 58,79"></path></g></g><g clip-path="url(#__lottie_element_9252)" transform="matrix(1,0,0,0.8985499739646912,0.00006103515625,50.842254638671875)" opacity="1" style="display: block;"><g opacity="1" transform="matrix(1,0,0,1,603.4860229492188,527.9829711914062)"><path fill="rgb(255,183,227)" fill-opacity="1" d=" M-24.916000366210938,-17.9060001373291 C-25.805999755859375,-23.395000457763672 0.014999999664723873,-38.23400115966797 7.2729997634887695,-26.639999389648438 C7.2729997634887695,-26.639999389648438 23.55900001525879,-0.3449999988079071 23.55900001525879,-0.3449999988079071 C26.326000213623047,4.123000144958496 25.12299919128418,9.973999977111816 20.81599998474121,12.987000465393066 C20.81599998474121,12.987000465393066 -2.8340001106262207,29.5310001373291 -2.8340001106262207,29.5310001373291 C-8.817999839782715,33.71699905395508 -17.121000289916992,30.208999633789062 -18.288999557495117,22.999000549316406 C-18.288999557495117,22.999000549316406 -24.916000366210938,-17.9060001373291 -24.916000366210938,-17.9060001373291z"></path></g></g><g transform="matrix(1,0,0,1,0.00006103515625,0)" opacity="1" style="display: block;"><g opacity="1" transform="matrix(1,0,0,1,553.6950073242188,503.2139892578125)"><path fill="rgb(255,183,227)" fill-opacity="1" d=" M0,-30.170000076293945 C33.88100051879883,-30.170000076293945 61.34700012207031,-16.663000106811523 61.34700012207031,0 C61.34700012207031,16.663000106811523 33.88100051879883,30.170000076293945 0,30.170000076293945 C-33.88100051879883,30.170000076293945 -61.34700012207031,16.663000106811523 -61.34700012207031,0 C-61.34700012207031,-16.663000106811523 -33.88100051879883,-30.170000076293945 0,-30.170000076293945z"></path></g><g opacity="1" transform="matrix(1,0,0,1,553.6950073242188,336.60699462890625)"><path fill="rgb(255,183,227)" fill-opacity="1" d=" M0,-181.60699462890625 C100.29900360107422,-181.60699462890625 181.60699462890625,-100.29900360107422 181.60699462890625,0 C181.60699462890625,100.29900360107422 100.29900360107422,181.60699462890625 0,181.60699462890625 C-100.29900360107422,181.60699462890625 -181.60699462890625,100.29900360107422 -181.60699462890625,0 C-181.60699462890625,-100.29900360107422 -100.29900360107422,-181.60699462890625 0,-181.60699462890625z"></path></g><g opacity="0" transform="matrix(1,0,0,1,551.427001953125,488.6679992675781)"><path fill="rgb(255,155,216)" fill-opacity="1" d=" M-59.777000427246094,18.66900062561035 C-65.80899810791016,16.47599983215332 -71.69200134277344,13.972999572753906 -77.40699768066406,11.178000450134277 C-15.734000205993652,10.234000205993652 24.538999557495117,5.370999813079834 73.9540023803711,-18.66900062561035 C73.9540023803711,-18.66900062561035 77.40699768066406,-11.571000099182129 77.40699768066406,-11.571000099182129 C31.413999557495117,10.803999900817871 -6.985000133514404,16.98200035095215 -59.777000427246094,18.66900062561035z"></path></g><g opacity="1" transform="matrix(1,0,0,1,553.6959838867188,379.0329895019531)"><path fill="rgb(225,142,112)" fill-opacity="1" d=" M0,-115.64800262451172 C78.06500244140625,-115.64800262451172 141.34800720214844,-63.87099838256836 141.34800720214844,0 C141.34800720214844,63.87099838256836 78.06500244140625,115.64800262451172 0,115.64800262451172 C-78.06500244140625,115.64800262451172 -141.34800720214844,63.87099838256836 -141.34800720214844,0 C-141.34800720214844,-63.87099838256836 -78.06500244140625,-115.64800262451172 0,-115.64800262451172z"></path></g></g><g transform="matrix(1,0,0,1,540.0000610351562,540)" opacity="1" style="display: block;"><path stroke-linecap="round" stroke-linejoin="miter" fill-opacity="0" stroke-miterlimit="4" stroke="rgb(28,176,246)" stroke-opacity="1" stroke-width="51" d=" M-53.5,51 C-53.5,51 -84,73 -84,73"></path></g><g transform="matrix(0.9863626956939697,0.16458597779273987,-0.16458597779273987,0.9863626956939697,505.0789794921875,538.9521484375)" opacity="1" style="display: none;"><g opacity="1" transform="matrix(1,0,0,1,53.702999114990234,-219.14100646972656)"><path fill="rgb(255,255,255)" fill-opacity="1" d=" M0,-43.65999984741211 C24.0959529876709,-43.65999984741211 43.65999984741211,-24.0959529876709 43.65999984741211,0 C43.65999984741211,24.0959529876709 24.0959529876709,43.65999984741211 0,43.65999984741211 C-24.0959529876709,43.65999984741211 -43.65999984741211,24.0959529876709 -43.65999984741211,0 C-43.65999984741211,-24.0959529876709 -24.0959529876709,-43.65999984741211 0,-43.65999984741211z"></path></g><g opacity="1" transform="matrix(0.4609035551548004,0,0,0.4609035551548004,53.702999114990234,-219.14100646972656)"><path fill="rgb(61,61,61)" fill-opacity="1" d=" M0,-43.65999984741211 C24.0959529876709,-43.65999984741211 43.65999984741211,-24.0959529876709 43.65999984741211,0 C43.65999984741211,24.0959529876709 24.0959529876709,43.65999984741211 0,43.65999984741211 C-24.0959529876709,43.65999984741211 -43.65999984741211,24.0959529876709 -43.65999984741211,0 C-43.65999984741211,-24.0959529876709 -24.0959529876709,-43.65999984741211 0,-43.65999984741211z"></path></g><g opacity="1" transform="matrix(1,0,0,1,-33.03499984741211,-217.93800354003906)"><path fill="rgb(255,255,255)" fill-opacity="1" d=" M0,-43.65999984741211 C24.0959529876709,-43.65999984741211 43.65999984741211,-24.0959529876709 43.65999984741211,0 C43.65999984741211,24.0959529876709 24.0959529876709,43.65999984741211 0,43.65999984741211 C-24.0959529876709,43.65999984741211 -43.65999984741211,24.0959529876709 -43.65999984741211,0 C-43.65999984741211,-24.0959529876709 -24.0959529876709,-43.65999984741211 0,-43.65999984741211z"></path></g><g opacity="1" transform="matrix(0.4609035551548004,0,0,0.4609035551548004,-33.03499984741211,-217.93800354003906)"><path fill="rgb(61,61,61)" fill-opacity="1" d=" M0,-43.65999984741211 C24.0959529876709,-43.65999984741211 43.65999984741211,-24.0959529876709 43.65999984741211,0 C43.65999984741211,24.0959529876709 24.0959529876709,43.65999984741211 0,43.65999984741211 C-24.0959529876709,43.65999984741211 -43.65999984741211,24.0959529876709 -43.65999984741211,0 C-43.65999984741211,-24.0959529876709 -24.0959529876709,-43.65999984741211 0,-43.65999984741211z"></path></g></g><g transform="matrix(0.9863626956939697,0.16458597779273987,-0.16458597779273987,0.9863626956939697,506.2493591308594,539.1439819335938)" opacity="1" style="display: none;"><g opacity="1" transform="matrix(1,0,0,1,67.66999816894531,-209.3300018310547)"><path fill="rgb(255,255,255)" fill-opacity="1" d=" M0,-7.670000076293945 C4.2330732345581055,-7.670000076293945 7.670000076293945,-4.2330732345581055 7.670000076293945,0 C7.670000076293945,4.2330732345581055 4.2330732345581055,7.670000076293945 0,7.670000076293945 C-4.2330732345581055,7.670000076293945 -7.670000076293945,4.2330732345581055 -7.670000076293945,0 C-7.670000076293945,-4.2330732345581055 -4.2330732345581055,-7.670000076293945 0,-7.670000076293945z"></path></g><g opacity="1" transform="matrix(1,0,0,1,-17.243999481201172,-209.3300018310547)"><path fill="rgb(255,255,255)" fill-opacity="1" d=" M0,-7.670000076293945 C4.2330732345581055,-7.670000076293945 7.670000076293945,-4.2330732345581055 7.670000076293945,0 C7.670000076293945,4.2330732345581055 4.2330732345581055,7.670000076293945 0,7.670000076293945 C-4.2330732345581055,7.670000076293945 -7.670000076293945,4.2330732345581055 -7.670000076293945,0 C-7.670000076293945,-4.2330732345581055 -4.2330732345581055,-7.670000076293945 0,-7.670000076293945z"></path></g><g opacity="1" transform="matrix(1.1662172079086304,-1.250614881515503,1.250614881515503,1.1662172079086304,49.85599899291992,-222.9340057373047)"><path fill="rgb(255,255,255)" fill-opacity="1" d=" M-0.27000001072883606,-7.625999927520752 C3.9660000801086426,-7.625999927520752 7.711999893188477,-3.4730000495910645 7.906000137329102,-0.5740000009536743 C8.026000022888184,1.215000033378601 4.00600004196167,0.6880000233650208 -0.2280000001192093,0.8309999704360962 C-4.755000114440918,0.984000027179718 -7.995999813079834,1.4079999923706055 -8.270000457763672,0.24799999594688416 C-8.86400032043457,-2.9769999980926514 -4.50600004196167,-7.625999927520752 -0.27000001072883606,-7.625999927520752z"></path></g><g opacity="1" transform="matrix(1.0025376081466675,-1.075089931488037,1.075089931488037,1.0025376081466675,-38.67100143432617,-221.33700561523438)"><path fill="rgb(255,255,255)" fill-opacity="1" d=" M-0.27000001072883606,-7.625999927520752 C3.9660000801086426,-7.625999927520752 7.711999893188477,-3.4730000495910645 7.906000137329102,-0.5740000009536743 C8.026000022888184,1.215000033378601 4.00600004196167,0.6880000233650208 -0.2280000001192093,0.8309999704360962 C-4.755000114440918,0.984000027179718 -7.995999813079834,1.4079999923706055 -8.270000457763672,0.24799999594688416 C-8.86400032043457,-2.9769999980926514 -4.50600004196167,-7.625999927520752 -0.27000001072883606,-7.625999927520752z"></path></g></g><g transform="matrix(1,0,0,1,556.050048828125,443.072998046875)" opacity="1" style="display: block;"><path fill="rgb(165,84,55)" fill-opacity="1" d=" M11.911999702453613,4.65500020980835 C11.991999626159668,11.234000205993652 6.7230000495910645,16.631000518798828 0.14399999380111694,16.711000442504883 C-6.434999942779541,16.791000366210938 -11.831999778747559,11.522000312805176 -11.911999702453613,4.942999839782715 C-11.991999626159668,-1.6360000371932983 -3.571000099182129,-16.672000885009766 -0.25999999046325684,-16.711999893188477 C3.0510001182556152,-16.75200080871582 11.833000183105469,-1.9240000247955322 11.911999702453613,4.65500020980835z"></path></g><g transform="matrix(0.9999668598175049,0.008142576552927494,-0.008142576552927494,0.9999668598175049,482.33526611328125,493.9977722167969)" opacity="1" style="display: none;"><path fill="rgb(180,86,233)" fill-opacity="1" d=" M89.95030212402344,-141.97067260742188 C86.44891357421875,-138.4227752685547 76.6238784790039,-124.48828887939453 69.43907928466797,-101.33563995361328 C61.399539947509766,-75.25391387939453 104.71737670898438,-62.0338134765625 114.25515747070312,-86.53466033935547 C120.95226287841797,-103.36907196044922 124.21539306640625,-120.21218872070312 131,-126 C102.5,-122.5 94.45030212402344,-139.97067260742188 89.95030212402344,-141.97067260742188z"></path></g><g transform="matrix(1,0,0,1,541.4010620117188,540.2680053710938)" opacity="1" style="display: block;"><path stroke-linecap="round" stroke-linejoin="round" fill-opacity="0" stroke="rgb(158,77,49)" stroke-opacity="1" stroke-width="8.432" d=" M-8.961999893188477,-80.1240005493164 C-1.4450000524520874,-69.74600219726562 18.53499984741211,-55.21699905395508 38.321998596191406,-80.1240005493164"></path></g><g transform="matrix(0.9863023161888123,0.1649474948644638,-0.1649474948644638,0.9863023161888123,506.584228515625,538.6962890625)" opacity="1" style="display: none;"><g opacity="1" transform="matrix(1,0,0,1,0,0)"><path fill="rgb(136,27,27)" fill-opacity="1" d=" M10.402999877929688,-150.83399963378906 C-7.0970001220703125,-151.33399963378906 -16.73699951171875,-159.35699462890625 -23.02400016784668,-152.17999267578125 C-32.78099822998047,-141.04200744628906 -21.714000701904297,-127.95500183105469 6.5,-127.5 C37.5,-127 54.79899978637695,-140.4250030517578 44.50699996948242,-153.3990020751953 C37.83599853515625,-161.80799865722656 27.902999877929688,-150.33399963378906 10.402999877929688,-150.83399963378906z"></path></g><g opacity="1" transform="matrix(1,0,0,1,0,0)"><path fill="rgb(177,46,46)" fill-opacity="1" d=" M45.48400115966797,-140.3090057373047 C29.836999893188477,-153.0449981689453 -9.657999992370605,-149.49099731445312 -18.753000259399414,-133.69000244140625 C6.006999969482422,-120.26300048828125 43.61600112915039,-132.31399536132812 45.48400115966797,-140.3090057373047z"></path></g></g><g transform="matrix(0.9998196363449097,0.018990566954016685,-0.018990566954016685,0.9998196363449097,483.46844482421875,489.96588134765625)" opacity="1" style="display: none;"><path fill="rgb(180,86,233)" fill-opacity="1" d=" M119.38217163085938,-131.07974243164062 C119.28217315673828,-130.94174194335938 89.36359405517578,-138.09585571289062 78.93913269042969,-124.48040771484375 C58.81349182128906,-99.40813446044922 101.38916778564453,-84.14311218261719 122.9149398803711,-105.22077941894531 C133.49942016601562,-116.49896240234375 144.43685913085938,-116.9829330444336 145.880859375,-116.51193237304688 C135.41490173339844,-117.42423248291016 123.88217163085938,-129.07974243164062 119.38217163085938,-131.07974243164062z"></path></g><g transform="matrix(0.6781060695648193,0.11288219690322876,-0.11288219690322876,0.6781060695648193,578.2306518554688,413.0135803222656)" opacity="1" style="display: none;"><path fill="rgb(255,255,255)" fill-opacity="1" d=" M0,-7.784999847412109 C4.296541213989258,-7.784999847412109 7.784999847412109,-4.296541213989258 7.784999847412109,0 C7.784999847412109,4.296541213989258 4.296541213989258,7.784999847412109 0,7.784999847412109 C-4.296541213989258,7.784999847412109 -7.784999847412109,4.296541213989258 -7.784999847412109,0 C-7.784999847412109,-4.296541213989258 -4.296541213989258,-7.784999847412109 0,-7.784999847412109z"></path></g><g transform="matrix(0.9932233691215515,-0.11622058600187302,0.11622058600187302,0.9932233691215515,531.3480224609375,653.6566772460938)" opacity="1" style="display: none;"><path stroke-linecap="round" stroke-linejoin="miter" fill-opacity="0" stroke-miterlimit="4" stroke="rgb(165,84,55)" stroke-opacity="1" stroke-width="7" d=" M120.55699920654297,-210.70799255371094 C91.47799682617188,-217.177001953125 62.93899917602539,-207.58700561523438 63.93899917602539,-204.33700561523438 C64.93900299072266,-201.08700561523438 99.47100067138672,-202.13999938964844 117.33699798583984,-193.30299377441406 M-25.356000900268555,-228.75999450683594 C-0.10599999874830246,-230.00999450683594 33.52299880981445,-211.10800170898438 35.814998626708984,-210.5240020751953 C38.106998443603516,-209.94000244140625 11.873000144958496,-237.00900268554688 -9.8100004196167,-243.21499633789062"></path></g><g transform="matrix(0.9772570133209229,-0.21205827593803406,0.21205827593803406,0.9772570133209229,553.4052734375,668.0347290039062)" opacity="1" style="display: none;"><g opacity="1" transform="matrix(1,0,0,1,0,0)"><path stroke-linecap="round" stroke-linejoin="miter" fill-opacity="0" stroke-miterlimit="4" stroke="rgb(165,84,55)" stroke-opacity="1" stroke-width="7" d=" M59.43000030517578,-200.3800048828125 C65.59100341796875,-190.69500732421875 86.66100311279297,-182.31100463867188 117.62100219726562,-191.2239990234375"></path></g><g opacity="1" transform="matrix(1,0,0,1,0,0)"><path stroke-linecap="round" stroke-linejoin="miter" fill-opacity="0" stroke-miterlimit="4" stroke="rgb(165,84,55)" stroke-opacity="1" stroke-width="7" d=" M-29.50200080871582,-223.7449951171875 C-17.058000564575195,-206.3560028076172 11.645000457763672,-198.45899963378906 30.677000045776367,-205.6439971923828"></path></g></g><g clip-path="url(#__lottie_element_9197)" transform="matrix(0.9999952912330627,-0.0030717747285962105,0.0030717747285962105,0.9999952912330627,31.05084228515625,49.19830322265625)" opacity="1" style="display: block;"><g transform="matrix(0.9999952912330627,0.0030717747285962105,-0.0030717747285962105,0.9999952912330627,-28.9005126953125,-49.16229248046875)" opacity="1" style="display: block;"><g opacity="1" transform="matrix(1,0,0,1,505.7860107421875,399.95599365234375)"><g opacity="1" transform="matrix(1,0,0,1,0,0)"><path fill="rgb(255,255,255)" fill-opacity="1" d=" M43.11600112915039,13.402999877929688 C43.11600112915039,-14.225000381469727 6.2769999504089355,-32.47999954223633 -14.114999771118164,-32.47999954223633 C-39.441001892089844,-32.47999954223633 -42.19499969482422,-17.052000045776367 -42.89400100708008,-14.22599983215332 C-43.566001892089844,-11.51200008392334 -42.78799819946289,-2.372999906539917 -39.48500061035156,-0.12099999934434891 C-10.168999671936035,7.48799991607666 21.489999771118164,32.47999954223633 27.656999588012695,32.47999954223633 C32.91899871826172,32.47999954223633 43.11600112915039,26.06599998474121 43.11600112915039,13.402999877929688z"></path></g></g><g opacity="1" transform="matrix(1,0,0,1,603.1409912109375,400.05999755859375)"><g opacity="1" transform="matrix(1,0,0,1,0,0)"><path fill="rgb(255,255,255)" fill-opacity="1" d=" M-43.11399841308594,13.298999786376953 C-43.11399841308594,-14.329000473022461 -6.276000022888184,-32.58399963378906 14.116000175476074,-32.58399963378906 C39.44200134277344,-32.58399963378906 42.196998596191406,-17.1560001373291 42.895999908447266,-14.329999923706055 C42.97999954223633,-13.991000175476074 43.04199981689453,-13.550999641418457 43.077999114990234,-13.036999702453613 C43.54800033569336,-6.421999931335449 39.42399978637695,-0.3109999895095825 33.18899917602539,1.9459999799728394 C0.5680000185966492,13.75100040435791 -22.0049991607666,30.540000915527344 -27.655000686645508,32.375999450683594 C-32.65999984741211,34.00299835205078 -43.11399841308594,25.961999893188477 -43.11399841308594,13.298999786376953z"></path></g></g></g></g><g mask="url(#__lottie_element_9205_1)" style="display: block;"><g transform="matrix(1,0,0,1,2.0008544921875,0.12506103515625)" opacity="1"><g opacity="1" transform="matrix(1,0,0,1,523.1339721679688,411.4100036621094)"><g opacity="1" transform="matrix(1,0,0,1,0,0)"><path fill="rgb(61,61,61)" fill-opacity="1" d=" M14.038999557495117,22.469999313354492 C17.2810001373291,19.45599937438965 18.527000427246094,13.586000442504883 18.527000427246094,8.538999557495117 C18.527000427246094,8.538999557495117 18.527000427246094,-0.28999999165534973 18.527000427246094,-0.28999999165534973 C18.527000427246094,-10.579000473022461 10.232000350952148,-19.79199981689453 0,-20.867000579833984 C-10.232000350952148,-21.941999435424805 -18.527000427246094,-14.473999977111816 -18.527000427246094,-4.184999942779541 C-18.527000427246094,-4.184999942779541 -18.527000427246094,4.644999980926514 -18.527000427246094,4.644999980926514 C-18.527000427246094,5.709000110626221 -17.43600082397461,15.26099967956543 -17.264999389648438,16.295000076293945 C-15.317000389099121,29.0939998626709 5.184999942779541,33.33599853515625 14.038999557495117,22.469999313354492z"></path></g></g><g opacity="1" transform="matrix(1,0,0,1,585.10400390625,412.4100036621094)"><g opacity="1" transform="matrix(1,0,0,1,0,0)"><path fill="rgb(61,61,61)" fill-opacity="1" d=" M-13.288000106811523,20.969999313354492 C-16.530000686645508,17.95599937438965 -18.527000427246094,13.586000442504883 -18.527000427246094,8.538999557495117 C-18.527000427246094,8.538999557495117 -18.527000427246094,-0.28999999165534973 -18.527000427246094,-0.28999999165534973 C-18.527000427246094,-10.579000473022461 -10.232000350952148,-19.79199981689453 0,-20.867000579833984 C10.232000350952148,-21.941999435424805 18.527000427246094,-14.473999977111816 18.527000427246094,-4.184999942779541 C18.527000427246094,-4.184999942779541 18.527000427246094,4.644999980926514 18.527000427246094,4.644999980926514 C18.527000427246094,5.709000110626221 18.691999435424805,13.76099967956543 18.520999908447266,14.795000076293945 C11.96399974822998,28.80900001525879 -6.284999847412109,30.06599998474121 -13.288000106811523,20.969999313354492z"></path></g></g></g></g><g mask="url(#__lottie_element_9186_1)" style="display: block;"><g transform="matrix(1,0,0,1,2.00030517578125,0.12481689453125)" opacity="1"><g opacity="1" transform="matrix(1,0,0,1,1136,795)"><g opacity="1" transform="matrix(1,0,0,1,0,0)"></g><path fill="rgb(255,255,255)" fill-opacity="1" d=" M-579.6619873046875,-397.78399658203125 C-579.6619873046875,-391.3030090332031 -574.4080200195312,-386.04901123046875 -567.927001953125,-386.04901123046875 C-561.4459838867188,-386.04901123046875 -556.1920166015625,-391.3030090332031 -556.1920166015625,-397.78399658203125 C-556.1920166015625,-404.2650146484375 -561.4459838867188,-409.51800537109375 -567.927001953125,-409.51800537109375 C-574.4080200195312,-409.51800537109375 -579.6619873046875,-404.2650146484375 -579.6619873046875,-397.78399658203125z"></path></g><g opacity="1" transform="matrix(1,0,0,1,505.25,395.5)"><path fill="rgb(255,255,255)" fill-opacity="1" d=" M11.734999656677246,0 C11.734999656677246,6.480999946594238 6.480999946594238,11.734000205993652 0,11.734000205993652 C-6.480999946594238,11.734000205993652 -11.734999656677246,6.480999946594238 -11.734999656677246,0 C-11.734999656677246,-6.480999946594238 -6.480999946594238,-11.734000205993652 0,-11.734000205993652 C6.480999946594238,-11.734000205993652 11.734999656677246,-6.480999946594238 11.734999656677246,0z"></path></g></g></g><g transform="matrix(1,0,0,1,508.2800598144531,325.6899719238281)" opacity="1" style="display: block;"><path fill="rgb(61,61,61)" fill-opacity="1" d=" M-31.496000289916992,63.69200134277344 C74.54299926757812,63.69200134277344 117.13500213623047,-4.802999973297119 126.77799987792969,-41.27199935913086 C67.80899810791016,-84.7699966430664 6.888999938964844,-62.69300079345703 6.888999938964844,-62.69300079345703 C-50.279998779296875,-46.73500061035156 -65.77999877929688,-11.734999656677246 -95.68399810791016,-13.463000297546387 C-109.9800033569336,-14.288999557495117 -118.10900115966797,-26.823999404907227 -125.91000366210938,-18.70599937438965 C-131.1699981689453,-12.920000076293945 -114.07599639892578,63.69200134277344 -31.496000289916992,63.69200134277344z"></path></g><g transform="matrix(0.999995231628418,-0.003089227946475148,0.003089227946475148,0.999995231628418,-1.447998046875,1.509765625)" opacity="1" style="display: block;"><path stroke-linecap="round" stroke-linejoin="miter" fill-opacity="0" stroke-miterlimit="10" stroke="rgb(165,102,70)" stroke-opacity="1" stroke-width="20" d=" M461.8590087890625,543.719970703125 C461.8590087890625,543.719970703125 668.9130249023438,706.0419921875 668.9130249023438,706.0419921875"></path></g><g mask="url(#__lottie_element_9137_1)" style="display: block;"><g transform="matrix(1,0,0,1,0.00006103515625,0)" opacity="1"><g opacity="1" transform="matrix(1.840000033378601,0,0,1.840000033378601,555.2540283203125,339.76300048828125)"><path fill="url(#__lottie_element_9174)" mask="url(#__lottie_element_9176)" fill-opacity="1" d="M0 0 M0,-181.60699462890625 C100.29900360107422,-181.60699462890625 181.60699462890625,-100.29900360107422 181.60699462890625,0 C181.60699462890625,100.29900360107422 100.29900360107422,181.60699462890625 0,181.60699462890625 C-100.29900360107422,181.60699462890625 -181.60699462890625,100.29900360107422 -181.60699462890625,0 C-181.60699462890625,-100.29900360107422 -100.29900360107422,-181.60699462890625 0,-181.60699462890625z"></path></g></g></g><g clip-path="url(#__lottie_element_9107)" transform="matrix(1,0,0,1,-0.00006103515625,0.001708984375)" opacity="1" style="display: block;"><g mask="url(#__lottie_element_9108)"><g clip-path="url(#__lottie_element_9129)" transform="matrix(0.999995231628418,-0.003089227946475148,0.003089227946475148,0.999995231628418,-1.4486083984375,1.509765625)" opacity="1" style="display: block;"><g transform="matrix(1,0,0,1,0,0)" opacity="1" style="display: block;"><path fill="rgb(206,125,251)" fill-opacity="1" d=" M463.85400390625,397.4429931640625 C463.85400390625,397.4429931640625 317.1610107421875,588.5449829101562 317.1610107421875,588.5449829101562 C311.7090148925781,595.64697265625 301.5329895019531,596.9860229492188 294.4309997558594,591.5339965820312 C294.4309997558594,591.5339965820312 251.19900512695312,558.3480224609375 251.19900512695312,558.3480224609375 C244.0970001220703,552.89599609375 242.75799560546875,542.719970703125 248.2100067138672,535.6179809570312 C248.2100067138672,535.6179809570312 394.90301513671875,344.5159912109375 394.90301513671875,344.5159912109375 C400.3550109863281,337.41400146484375 410.531005859375,336.07501220703125 417.63299560546875,341.5270080566406 C417.63299560546875,341.5270080566406 460.864990234375,374.7130126953125 460.864990234375,374.7130126953125 C467.9670104980469,380.1650085449219 469.3059997558594,390.34100341796875 463.85400390625,397.4429931640625z M434.14801025390625,364.7659912109375 C490.12200927734375,407.73199462890625 500.6659851074219,487.93798828125 457.70001220703125,543.9119873046875 C414.7340087890625,599.885986328125 334.52801513671875,610.4299926757812 278.5539855957031,567.4639892578125 C222.5800018310547,524.4979858398438 212.03599548339844,444.2919921875 255.0019989013672,388.3179931640625 C297.9679870605469,332.343994140625 378.17401123046875,321.79998779296875 434.14801025390625,364.7659912109375z"></path></g></g><g mask="url(#__lottie_element_9120_1)" style="display: block;"><g transform="matrix(0.999995231628418,-0.003089227946475148,0.003089227946475148,0.999995231628418,-2.1595168113708496,0.24596454203128815)" opacity="1"><path fill="rgb(233,169,255)" fill-opacity="1" d=" M357.8280029296875,352.093994140625 C350.4410095214844,350.4280090332031 325.4649963378906,349.7019958496094 309.50201416015625,357.6449890136719 C305.6839904785156,359.5450134277344 305.2699890136719,364.8429870605469 308.6919860839844,367.38800048828125 C308.6919860839844,367.38800048828125 334.8710021972656,386.8599853515625 334.8710021972656,386.8599853515625 C337.37200927734375,388.7200012207031 341.00299072265625,388.0249938964844 342.9320068359375,385.5769958496094 C342.9320068359375,385.5769958496094 363.0660095214844,361.0190124511719 363.0660095214844,361.0190124511719 C365.78900146484375,357.2449951171875 364.03900146484375,353.4949951171875 357.8280029296875,352.093994140625z M437.02398681640625,406.9010009765625 C437.02398681640625,406.9010009765625 414.45599365234375,436.3009948730469 414.45599365234375,436.3009948730469 C410.9339904785156,440.8900146484375 404.3590087890625,441.7539978027344 399.7699890136719,438.23199462890625 C399.7699890136719,438.23199462890625 370.6960144042969,415.9150085449219 370.6960144042969,415.9150085449219 C366.10699462890625,412.39300537109375 365.2439880371094,405.8179931640625 368.7659912109375,401.22900390625 C368.7659912109375,401.22900390625 391.3340148925781,371.8280029296875 391.3340148925781,371.8280029296875 C394.8559875488281,367.239013671875 401.4309997558594,366.3760070800781 406.0199890136719,369.89801025390625 C406.0199890136719,369.89801025390625 435.0929870605469,392.2149963378906 435.0929870605469,392.2149963378906 C439.6820068359375,395.73699951171875 440.5459899902344,402.31201171875 437.02398681640625,406.9010009765625z"></path><path fill="rgb(233,169,255)" fill-opacity="1" d=" M437.02398681640625,406.9010009765625 C437.02398681640625,406.9010009765625 414.45599365234375,436.3009948730469 414.45599365234375,436.3009948730469 C410.9339904785156,440.8900146484375 404.3590087890625,441.7539978027344 399.7699890136719,438.23199462890625 C399.7699890136719,438.23199462890625 370.6960144042969,415.9150085449219 370.6960144042969,415.9150085449219 C366.10699462890625,412.39300537109375 365.2439880371094,405.8179931640625 368.7659912109375,401.22900390625 C368.7659912109375,401.22900390625 391.3340148925781,371.8280029296875 391.3340148925781,371.8280029296875 C394.8559875488281,367.239013671875 401.4309997558594,366.3760070800781 406.0199890136719,369.89801025390625 C406.0199890136719,369.89801025390625 435.0929870605469,392.2149963378906 435.0929870605469,392.2149963378906 C439.6820068359375,395.73699951171875 440.5459899902344,402.31201171875 437.02398681640625,406.9010009765625z"></path></g></g><g mask="url(#__lottie_element_9110_1)" style="display: block;"><g transform="matrix(0.999995231628418,-0.003089227946475148,0.003089227946475148,0.999995231628418,355.989013671875,466.1570129394531)" opacity="1"><path stroke-linecap="butt" stroke-linejoin="miter" fill-opacity="0" stroke-miterlimit="4" stroke="rgb(180,86,233)" stroke-opacity="1" stroke-width="11" d=" M113.51499938964844,-63.933998107910156 C113.51499938964844,-63.933998107910156 -33.98500061035156,128.0659942626953 -33.98500061035156,128.0659942626953 M36.702999114990234,-125.04499816894531 C36.702999114990234,-125.04499816894531 -112.2969970703125,69.95500183105469 -112.2969970703125,69.95500183105469"></path></g></g></g></g><g mask="url(#__lottie_element_9069_1)" style="display: block;"><g clip-path="url(#__lottie_element_9071)" transform="matrix(1,0,0,1,-0.00006103515625,0.001708984375)" opacity="1"><g clip-path="url(#__lottie_element_9093)" transform="matrix(0.999995231628418,-0.003089227946475148,0.003089227946475148,0.999995231628418,-1.4486083984375,1.509765625)" opacity="1" style="display: block;"><g transform="matrix(1,0,0,1,0,0)" opacity="1" style="display: block;"><path fill="rgb(206,125,251)" fill-opacity="1" d=" M463.85400390625,397.4429931640625 C463.85400390625,397.4429931640625 317.1610107421875,588.5449829101562 317.1610107421875,588.5449829101562 C311.7090148925781,595.64697265625 301.5329895019531,596.9860229492188 294.4309997558594,591.5339965820312 C294.4309997558594,591.5339965820312 251.19900512695312,558.3480224609375 251.19900512695312,558.3480224609375 C244.0970001220703,552.89599609375 242.75799560546875,542.719970703125 248.2100067138672,535.6179809570312 C248.2100067138672,535.6179809570312 394.90301513671875,344.5159912109375 394.90301513671875,344.5159912109375 C400.3550109863281,337.41400146484375 410.531005859375,336.07501220703125 417.63299560546875,341.5270080566406 C417.63299560546875,341.5270080566406 460.864990234375,374.7130126953125 460.864990234375,374.7130126953125 C467.9670104980469,380.1650085449219 469.3059997558594,390.34100341796875 463.85400390625,397.4429931640625z M434.14801025390625,364.7659912109375 C490.12200927734375,407.73199462890625 500.6659851074219,487.93798828125 457.70001220703125,543.9119873046875 C414.7340087890625,599.885986328125 334.52801513671875,610.4299926757812 278.5539855957031,567.4639892578125 C222.5800018310547,524.4979858398438 212.03599548339844,444.2919921875 255.0019989013672,388.3179931640625 C297.9679870605469,332.343994140625 378.17401123046875,321.79998779296875 434.14801025390625,364.7659912109375z"></path></g></g><g mask="url(#__lottie_element_9084_1)" style="display: block;"><g transform="matrix(0.999995231628418,-0.003089227946475148,0.003089227946475148,0.999995231628418,-2.1595168113708496,0.24596454203128815)" opacity="1"><path fill="rgb(233,169,255)" fill-opacity="1" d=" M357.8280029296875,352.093994140625 C350.4410095214844,350.4280090332031 325.4649963378906,349.7019958496094 309.50201416015625,357.6449890136719 C305.6839904785156,359.5450134277344 305.2699890136719,364.8429870605469 308.6919860839844,367.38800048828125 C308.6919860839844,367.38800048828125 334.8710021972656,386.8599853515625 334.8710021972656,386.8599853515625 C337.37200927734375,388.7200012207031 341.00299072265625,388.0249938964844 342.9320068359375,385.5769958496094 C342.9320068359375,385.5769958496094 363.0660095214844,361.0190124511719 363.0660095214844,361.0190124511719 C365.78900146484375,357.2449951171875 364.03900146484375,353.4949951171875 357.8280029296875,352.093994140625z M437.02398681640625,406.9010009765625 C437.02398681640625,406.9010009765625 414.45599365234375,436.3009948730469 414.45599365234375,436.3009948730469 C410.9339904785156,440.8900146484375 404.3590087890625,441.7539978027344 399.7699890136719,438.23199462890625 C399.7699890136719,438.23199462890625 370.6960144042969,415.9150085449219 370.6960144042969,415.9150085449219 C366.10699462890625,412.39300537109375 365.2439880371094,405.8179931640625 368.7659912109375,401.22900390625 C368.7659912109375,401.22900390625 391.3340148925781,371.8280029296875 391.3340148925781,371.8280029296875 C394.8559875488281,367.239013671875 401.4309997558594,366.3760070800781 406.0199890136719,369.89801025390625 C406.0199890136719,369.89801025390625 435.0929870605469,392.2149963378906 435.0929870605469,392.2149963378906 C439.6820068359375,395.73699951171875 440.5459899902344,402.31201171875 437.02398681640625,406.9010009765625z"></path><path fill="rgb(233,169,255)" fill-opacity="1" d=" M437.02398681640625,406.9010009765625 C437.02398681640625,406.9010009765625 414.45599365234375,436.3009948730469 414.45599365234375,436.3009948730469 C410.9339904785156,440.8900146484375 404.3590087890625,441.7539978027344 399.7699890136719,438.23199462890625 C399.7699890136719,438.23199462890625 370.6960144042969,415.9150085449219 370.6960144042969,415.9150085449219 C366.10699462890625,412.39300537109375 365.2439880371094,405.8179931640625 368.7659912109375,401.22900390625 C368.7659912109375,401.22900390625 391.3340148925781,371.8280029296875 391.3340148925781,371.8280029296875 C394.8559875488281,367.239013671875 401.4309997558594,366.3760070800781 406.0199890136719,369.89801025390625 C406.0199890136719,369.89801025390625 435.0929870605469,392.2149963378906 435.0929870605469,392.2149963378906 C439.6820068359375,395.73699951171875 440.5459899902344,402.31201171875 437.02398681640625,406.9010009765625z"></path></g></g><g mask="url(#__lottie_element_9074_1)" style="display: block;"><g transform="matrix(0.999995231628418,-0.003089227946475148,0.003089227946475148,0.999995231628418,355.989013671875,466.1570129394531)" opacity="1"><path stroke-linecap="butt" stroke-linejoin="miter" fill-opacity="0" stroke-miterlimit="4" stroke="rgb(180,86,233)" stroke-opacity="1" stroke-width="11" d=" M113.51499938964844,-63.933998107910156 C113.51499938964844,-63.933998107910156 -33.98500061035156,128.0659942626953 -33.98500061035156,128.0659942626953 M36.702999114990234,-125.04499816894531 C36.702999114990234,-125.04499816894531 -112.2969970703125,69.95500183105469 -112.2969970703125,69.95500183105469"></path></g></g></g></g><g clip-path="url(#__lottie_element_9039)" transform="matrix(1,0,0,1,-0.00006103515625,0.001708984375)" opacity="0.9" style="display: block;"><g clip-path="url(#__lottie_element_9061)" transform="matrix(0.999995231628418,-0.003089227946475148,0.003089227946475148,0.999995231628418,-1.4486083984375,1.509765625)" opacity="1" style="display: block;"><g transform="matrix(1,0,0,1,0,0)" opacity="1" style="display: block;"><path fill="rgb(206,125,251)" fill-opacity="1" d=" M463.85400390625,397.4429931640625 C463.85400390625,397.4429931640625 317.1610107421875,588.5449829101562 317.1610107421875,588.5449829101562 C311.7090148925781,595.64697265625 301.5329895019531,596.9860229492188 294.4309997558594,591.5339965820312 C294.4309997558594,591.5339965820312 251.19900512695312,558.3480224609375 251.19900512695312,558.3480224609375 C244.0970001220703,552.89599609375 242.75799560546875,542.719970703125 248.2100067138672,535.6179809570312 C248.2100067138672,535.6179809570312 394.90301513671875,344.5159912109375 394.90301513671875,344.5159912109375 C400.3550109863281,337.41400146484375 410.531005859375,336.07501220703125 417.63299560546875,341.5270080566406 C417.63299560546875,341.5270080566406 460.864990234375,374.7130126953125 460.864990234375,374.7130126953125 C467.9670104980469,380.1650085449219 469.3059997558594,390.34100341796875 463.85400390625,397.4429931640625z M434.14801025390625,364.7659912109375 C490.12200927734375,407.73199462890625 500.6659851074219,487.93798828125 457.70001220703125,543.9119873046875 C414.7340087890625,599.885986328125 334.52801513671875,610.4299926757812 278.5539855957031,567.4639892578125 C222.5800018310547,524.4979858398438 212.03599548339844,444.2919921875 255.0019989013672,388.3179931640625 C297.9679870605469,332.343994140625 378.17401123046875,321.79998779296875 434.14801025390625,364.7659912109375z"></path></g></g><g mask="url(#__lottie_element_9052_1)" style="display: block;"><g transform="matrix(0.999995231628418,-0.003089227946475148,0.003089227946475148,0.999995231628418,-2.1595168113708496,0.24596454203128815)" opacity="1"><path fill="rgb(233,169,255)" fill-opacity="1" d=" M357.8280029296875,352.093994140625 C350.4410095214844,350.4280090332031 325.4649963378906,349.7019958496094 309.50201416015625,357.6449890136719 C305.6839904785156,359.5450134277344 305.2699890136719,364.8429870605469 308.6919860839844,367.38800048828125 C308.6919860839844,367.38800048828125 334.8710021972656,386.8599853515625 334.8710021972656,386.8599853515625 C337.37200927734375,388.7200012207031 341.00299072265625,388.0249938964844 342.9320068359375,385.5769958496094 C342.9320068359375,385.5769958496094 363.0660095214844,361.0190124511719 363.0660095214844,361.0190124511719 C365.78900146484375,357.2449951171875 364.03900146484375,353.4949951171875 357.8280029296875,352.093994140625z M437.02398681640625,406.9010009765625 C437.02398681640625,406.9010009765625 414.45599365234375,436.3009948730469 414.45599365234375,436.3009948730469 C410.9339904785156,440.8900146484375 404.3590087890625,441.7539978027344 399.7699890136719,438.23199462890625 C399.7699890136719,438.23199462890625 370.6960144042969,415.9150085449219 370.6960144042969,415.9150085449219 C366.10699462890625,412.39300537109375 365.2439880371094,405.8179931640625 368.7659912109375,401.22900390625 C368.7659912109375,401.22900390625 391.3340148925781,371.8280029296875 391.3340148925781,371.8280029296875 C394.8559875488281,367.239013671875 401.4309997558594,366.3760070800781 406.0199890136719,369.89801025390625 C406.0199890136719,369.89801025390625 435.0929870605469,392.2149963378906 435.0929870605469,392.2149963378906 C439.6820068359375,395.73699951171875 440.5459899902344,402.31201171875 437.02398681640625,406.9010009765625z"></path><path fill="rgb(233,169,255)" fill-opacity="1" d=" M437.02398681640625,406.9010009765625 C437.02398681640625,406.9010009765625 414.45599365234375,436.3009948730469 414.45599365234375,436.3009948730469 C410.9339904785156,440.8900146484375 404.3590087890625,441.7539978027344 399.7699890136719,438.23199462890625 C399.7699890136719,438.23199462890625 370.6960144042969,415.9150085449219 370.6960144042969,415.9150085449219 C366.10699462890625,412.39300537109375 365.2439880371094,405.8179931640625 368.7659912109375,401.22900390625 C368.7659912109375,401.22900390625 391.3340148925781,371.8280029296875 391.3340148925781,371.8280029296875 C394.8559875488281,367.239013671875 401.4309997558594,366.3760070800781 406.0199890136719,369.89801025390625 C406.0199890136719,369.89801025390625 435.0929870605469,392.2149963378906 435.0929870605469,392.2149963378906 C439.6820068359375,395.73699951171875 440.5459899902344,402.31201171875 437.02398681640625,406.9010009765625z"></path></g></g><g mask="url(#__lottie_element_9042_1)" style="display: block;"><g transform="matrix(0.999995231628418,-0.003089227946475148,0.003089227946475148,0.999995231628418,355.989013671875,466.1570129394531)" opacity="1"><path stroke-linecap="butt" stroke-linejoin="miter" fill-opacity="0" stroke-miterlimit="4" stroke="rgb(180,86,233)" stroke-opacity="1" stroke-width="11" d=" M113.51499938964844,-63.933998107910156 C113.51499938964844,-63.933998107910156 -33.98500061035156,128.0659942626953 -33.98500061035156,128.0659942626953 M36.702999114990234,-125.04499816894531 C36.702999114990234,-125.04499816894531 -112.2969970703125,69.95500183105469 -112.2969970703125,69.95500183105469"></path></g></g></g><g transform="matrix(0.9473796486854553,-0.3201122283935547,0.3201122283935547,0.9473796486854553,-160.25384521484375,189.93609619140625)" opacity="1" style="display: none;"><path stroke-linecap="round" stroke-linejoin="miter" fill-opacity="0" stroke-miterlimit="10" stroke="rgb(165,102,70)" stroke-opacity="1" stroke-width="20" d=" M460.1784973144531,542.1875610351562 C460.1784973144531,542.1875610351562 668.9130249023438,706.0419921875 668.9130249023438,706.0419921875"></path></g><g transform="matrix(0.999995231628418,-0.003089227946475148,0.003089227946475148,0.999995231628418,585.6436767578125,626.5430908203125)" opacity="1" style="display: block;"><path fill="rgb(225,142,112)" fill-opacity="1" d=" M0,-36.13050079345703 C19.9404239654541,-36.13050079345703 36.13050079345703,-19.9404239654541 36.13050079345703,0 C36.13050079345703,19.9404239654541 19.9404239654541,36.13050079345703 0,36.13050079345703 C-19.9404239654541,36.13050079345703 -36.13050079345703,19.9404239654541 -36.13050079345703,0 C-36.13050079345703,-19.9404239654541 -19.9404239654541,-36.13050079345703 0,-36.13050079345703z"></path></g><g transform="matrix(0.999995231628418,-0.003089227946475148,0.003089227946475148,0.999995231628418,500.654296875,574.4424438476562)" opacity="1" style="display: block;"><path fill="rgb(225,142,112)" fill-opacity="1" d=" M0,-36.13050079345703 C19.9404239654541,-36.13050079345703 36.13050079345703,-19.9404239654541 36.13050079345703,0 C36.13050079345703,19.9404239654541 19.9404239654541,36.13050079345703 0,36.13050079345703 C-19.9404239654541,36.13050079345703 -36.13050079345703,19.9404239654541 -36.13050079345703,0 C-36.13050079345703,-19.9404239654541 -19.9404239654541,-36.13050079345703 0,-36.13050079345703z"></path></g></g></svg>