<svg xmlns="http://www.w3.org/2000/svg" xmlns:xlink="http://www.w3.org/1999/xlink" viewBox="0 0 1080 1080" width="1080" height="1080" preserveAspectRatio="xMidYMid meet" style="width: 100%; height: 100%; transform: translate3d(0px, 0px, 0px); content-visibility: visible;"><defs><clipPath id="__lottie_element_9026"><rect width="1080" height="1080" x="0" y="0"></rect></clipPath><clipPath id="__lottie_element_9039"><path d="M0,0 L1080,0 L1080,1080 L0,1080z"></path></clipPath><g id="__lottie_element_9042"><g clip-path="url(#__lottie_element_9043)" transform="matrix(0.999995231628418,-0.003089227946475148,0.003089227946475148,0.999995231628418,-1.4486083984375,1.509765625)" opacity="1" style="display: block;"><g transform="matrix(1,0,0,1,0,0)" opacity="1" style="display: block;"><path fill="rgb(206,125,251)" fill-opacity="1" d=" M463.85400390625,397.4429931640625 C463.85400390625,397.4429931640625 317.1610107421875,588.5449829101562 317.1610107421875,588.5449829101562 C311.7090148925781,595.64697265625 301.5329895019531,596.9860229492188 294.4309997558594,591.5339965820312 C294.4309997558594,591.5339965820312 258.3320007324219,564.3790283203125 258.3320007324219,564.3790283203125 C248.7830047607422,556.5859985351562 238.1840057373047,540.218017578125 245.51699829101562,514.4219970703125 C245.51699829101562,514.4219970703125 380.2300109863281,344.3590087890625 380.2300109863281,344.3590087890625 C396.9079895019531,330.4570007324219 419.69000244140625,342.48699951171875 426.7919921875,347.9389953613281 C426.7919921875,347.9389953613281 460.864990234375,374.7130126953125 460.864990234375,374.7130126953125 C467.9670104980469,380.1650085449219 469.3059997558594,390.34100341796875 463.85400390625,397.4429931640625z M434.14801025390625,364.7659912109375 C490.12200927734375,407.73199462890625 500.6659851074219,487.93798828125 457.70001220703125,543.9119873046875 C414.7340087890625,599.885986328125 334.52801513671875,610.4299926757812 278.5539855957031,567.4639892578125 C222.5800018310547,524.4979858398438 212.03599548339844,444.2919921875 255.0019989013672,388.3179931640625 C297.9679870605469,332.343994140625 378.17401123046875,321.79998779296875 434.14801025390625,364.7659912109375z"></path></g></g></g><clipPath id="__lottie_element_9043"><path d="M0,0 L1080,0 L1080,1080 L0,1080z"></path></clipPath><mask id="__lottie_element_9042_1" mask-type="alpha"><use xlink:href="#__lottie_element_9042"></use></mask><g id="__lottie_element_9052"><g clip-path="url(#__lottie_element_9053)" transform="matrix(0.999995231628418,-0.003089227946475148,0.003089227946475148,0.999995231628418,-1.4486083984375,1.509765625)" opacity="1" style="display: block;"><g transform="matrix(1,0,0,1,0,0)" opacity="1" style="display: block;"><path fill="rgb(206,125,251)" fill-opacity="1" d=" M463.85400390625,397.4429931640625 C463.85400390625,397.4429931640625 317.1610107421875,588.5449829101562 317.1610107421875,588.5449829101562 C311.7090148925781,595.64697265625 301.5329895019531,596.9860229492188 294.4309997558594,591.5339965820312 C294.4309997558594,591.5339965820312 258.3320007324219,564.3790283203125 258.3320007324219,564.3790283203125 C248.7830047607422,556.5859985351562 238.1840057373047,540.218017578125 245.51699829101562,514.4219970703125 C245.51699829101562,514.4219970703125 380.2300109863281,344.3590087890625 380.2300109863281,344.3590087890625 C396.9079895019531,330.4570007324219 419.69000244140625,342.48699951171875 426.7919921875,347.9389953613281 C426.7919921875,347.9389953613281 460.864990234375,374.7130126953125 460.864990234375,374.7130126953125 C467.9670104980469,380.1650085449219 469.3059997558594,390.34100341796875 463.85400390625,397.4429931640625z M434.14801025390625,364.7659912109375 C490.12200927734375,407.73199462890625 500.6659851074219,487.93798828125 457.70001220703125,543.9119873046875 C414.7340087890625,599.885986328125 334.52801513671875,610.4299926757812 278.5539855957031,567.4639892578125 C222.5800018310547,524.4979858398438 212.03599548339844,444.2919921875 255.0019989013672,388.3179931640625 C297.9679870605469,332.343994140625 378.17401123046875,321.79998779296875 434.14801025390625,364.7659912109375z"></path></g></g></g><clipPath id="__lottie_element_9053"><path d="M0,0 L1080,0 L1080,1080 L0,1080z"></path></clipPath><clipPath id="__lottie_element_9061"><path d="M0,0 L1080,0 L1080,1080 L0,1080z"></path></clipPath><mask id="__lottie_element_9052_1" mask-type="alpha"><use xlink:href="#__lottie_element_9052"></use></mask><clipPath id="__lottie_element_9071"><path d="M0,0 L1080,0 L1080,1080 L0,1080z"></path></clipPath><g id="__lottie_element_9074"><g clip-path="url(#__lottie_element_9075)" transform="matrix(0.999995231628418,-0.003089227946475148,0.003089227946475148,0.999995231628418,-1.4486083984375,1.509765625)" opacity="1" style="display: block;"><g transform="matrix(1,0,0,1,0,0)" opacity="1" style="display: block;"><path fill="rgb(206,125,251)" fill-opacity="1" d=" M463.85400390625,397.4429931640625 C463.85400390625,397.4429931640625 317.1610107421875,588.5449829101562 317.1610107421875,588.5449829101562 C311.7090148925781,595.64697265625 301.5329895019531,596.9860229492188 294.4309997558594,591.5339965820312 C294.4309997558594,591.5339965820312 258.3320007324219,564.3790283203125 258.3320007324219,564.3790283203125 C248.7830047607422,556.5859985351562 238.1840057373047,540.218017578125 245.51699829101562,514.4219970703125 C245.51699829101562,514.4219970703125 380.2300109863281,344.3590087890625 380.2300109863281,344.3590087890625 C396.9079895019531,330.4570007324219 419.69000244140625,342.48699951171875 426.7919921875,347.9389953613281 C426.7919921875,347.9389953613281 460.864990234375,374.7130126953125 460.864990234375,374.7130126953125 C467.9670104980469,380.1650085449219 469.3059997558594,390.34100341796875 463.85400390625,397.4429931640625z M434.14801025390625,364.7659912109375 C490.12200927734375,407.73199462890625 500.6659851074219,487.93798828125 457.70001220703125,543.9119873046875 C414.7340087890625,599.885986328125 334.52801513671875,610.4299926757812 278.5539855957031,567.4639892578125 C222.5800018310547,524.4979858398438 212.03599548339844,444.2919921875 255.0019989013672,388.3179931640625 C297.9679870605469,332.343994140625 378.17401123046875,321.79998779296875 434.14801025390625,364.7659912109375z"></path></g></g></g><clipPath id="__lottie_element_9075"><path d="M0,0 L1080,0 L1080,1080 L0,1080z"></path></clipPath><mask id="__lottie_element_9074_1" mask-type="alpha"><use xlink:href="#__lottie_element_9074"></use></mask><g id="__lottie_element_9084"><g clip-path="url(#__lottie_element_9085)" transform="matrix(0.999995231628418,-0.003089227946475148,0.003089227946475148,0.999995231628418,-1.4486083984375,1.509765625)" opacity="1" style="display: block;"><g transform="matrix(1,0,0,1,0,0)" opacity="1" style="display: block;"><path fill="rgb(206,125,251)" fill-opacity="1" d=" M463.85400390625,397.4429931640625 C463.85400390625,397.4429931640625 317.1610107421875,588.5449829101562 317.1610107421875,588.5449829101562 C311.7090148925781,595.64697265625 301.5329895019531,596.9860229492188 294.4309997558594,591.5339965820312 C294.4309997558594,591.5339965820312 258.3320007324219,564.3790283203125 258.3320007324219,564.3790283203125 C248.7830047607422,556.5859985351562 238.1840057373047,540.218017578125 245.51699829101562,514.4219970703125 C245.51699829101562,514.4219970703125 380.2300109863281,344.3590087890625 380.2300109863281,344.3590087890625 C396.9079895019531,330.4570007324219 419.69000244140625,342.48699951171875 426.7919921875,347.9389953613281 C426.7919921875,347.9389953613281 460.864990234375,374.7130126953125 460.864990234375,374.7130126953125 C467.9670104980469,380.1650085449219 469.3059997558594,390.34100341796875 463.85400390625,397.4429931640625z M434.14801025390625,364.7659912109375 C490.12200927734375,407.73199462890625 500.6659851074219,487.93798828125 457.70001220703125,543.9119873046875 C414.7340087890625,599.885986328125 334.52801513671875,610.4299926757812 278.5539855957031,567.4639892578125 C222.5800018310547,524.4979858398438 212.03599548339844,444.2919921875 255.0019989013672,388.3179931640625 C297.9679870605469,332.343994140625 378.17401123046875,321.79998779296875 434.14801025390625,364.7659912109375z"></path></g></g></g><clipPath id="__lottie_element_9085"><path d="M0,0 L1080,0 L1080,1080 L0,1080z"></path></clipPath><clipPath id="__lottie_element_9093"><path d="M0,0 L1080,0 L1080,1080 L0,1080z"></path></clipPath><mask id="__lottie_element_9084_1" mask-type="alpha"><use xlink:href="#__lottie_element_9084"></use></mask><g id="__lottie_element_9069"><g transform="matrix(1.0488520860671997,0.2575063109397888,-0.2575063109397888,1.0488520860671997,531.9886474609375,438.87548828125)" opacity="1" style="display: block;"><g opacity="0" transform="matrix(1,0,0,1,-179.322998046875,-70.26499938964844)"><path fill="rgb(255,0,0)" fill-opacity="1" d=" M218.99549865722656,-150.26699829101562 C218.99549865722656,-150.26699829101562 218.99549865722656,150.26699829101562 218.99549865722656,150.26699829101562 C218.99549865722656,150.26699829101562 -218.99549865722656,150.26699829101562 -218.99549865722656,150.26699829101562 C-218.99549865722656,150.26699829101562 -218.99549865722656,-150.26699829101562 -218.99549865722656,-150.26699829101562 C-218.99549865722656,-150.26699829101562 218.99549865722656,-150.26699829101562 218.99549865722656,-150.26699829101562z"></path></g><g opacity="1" transform="matrix(1,0,0,1,-181.5,-71.5)"><path fill="url(#__lottie_element_9103)" mask="url(#__lottie_element_9105)" fill-opacity="1" d="M0 0 M0,-112.5 C62.088748931884766,-112.5 112.5,-62.088748931884766 112.5,0 C112.5,62.088748931884766 62.088748931884766,112.5 0,112.5 C-62.088748931884766,112.5 -112.5,62.088748931884766 -112.5,0 C-112.5,-62.088748931884766 -62.088748931884766,-112.5 0,-112.5z"></path></g></g></g><radialGradient id="__lottie_element_9103" spreadMethod="pad" gradientUnits="userSpaceOnUse" cx="0" cy="0" r="166.70816112918143" fx="0" fy="0"><stop offset="1%" stop-color="rgb(250,237,198)"></stop><stop offset="42%" stop-color="rgb(248,215,155)"></stop><stop offset="83%" stop-color="rgb(246,193,112)"></stop></radialGradient><mask id="__lottie_element_9105"><path fill="url(#__lottie_element_9104)" d=" M0,-112.5 C62.088748931884766,-112.5 112.5,-62.088748931884766 112.5,0 C112.5,62.088748931884766 62.088748931884766,112.5 0,112.5 C-62.088748931884766,112.5 -112.5,62.088748931884766 -112.5,0 C-112.5,-62.088748931884766 -62.088748931884766,-112.5 0,-112.5z"></path></mask><radialGradient id="__lottie_element_9104" spreadMethod="pad" gradientUnits="userSpaceOnUse" cx="0" cy="0" r="166.70816112918143" fx="0" fy="0"><stop stop-color="rgb(255,255,255)" offset="4%" stop-opacity="0"></stop><stop stop-color="rgb(255,255,255)" offset="32%" stop-opacity="0.5"></stop><stop stop-color="rgb(255,255,255)" offset="60%" stop-opacity="1"></stop></radialGradient><clipPath id="__lottie_element_9107"><path d="M0,0 L1080,0 L1080,1080 L0,1080z"></path></clipPath><mask id="__lottie_element_9108"><rect fill="#ffffff" width="1080" height="1080" transform="matrix(1,0,0,1,0.00006103515625,-0.001708984375)"></rect><path fill="#000000" clip-rule="nonzero" d=" M426.2330017089844,370.9530029296875 C311.5,316.5 226.5,398.5 240.93800354003906,491.73199462890625 C253.36199951171875,571.9609985351562 385,627 445.7070007324219,540.4569702148438 C485.7409973144531,483.385009765625 481.1159973144531,397.0010070800781 426.2330017089844,370.9530029296875" fill-opacity="1"></path></mask><g id="__lottie_element_9110"><g clip-path="url(#__lottie_element_9111)" transform="matrix(0.999995231628418,-0.003089227946475148,0.003089227946475148,0.999995231628418,-1.4486083984375,1.509765625)" opacity="1" style="display: block;"><g transform="matrix(1,0,0,1,0,0)" opacity="1" style="display: block;"><path fill="rgb(206,125,251)" fill-opacity="1" d=" M463.85400390625,397.4429931640625 C463.85400390625,397.4429931640625 317.1610107421875,588.5449829101562 317.1610107421875,588.5449829101562 C311.7090148925781,595.64697265625 301.5329895019531,596.9860229492188 294.4309997558594,591.5339965820312 C294.4309997558594,591.5339965820312 258.3320007324219,564.3790283203125 258.3320007324219,564.3790283203125 C248.7830047607422,556.5859985351562 238.1840057373047,540.218017578125 245.51699829101562,514.4219970703125 C245.51699829101562,514.4219970703125 380.2300109863281,344.3590087890625 380.2300109863281,344.3590087890625 C396.9079895019531,330.4570007324219 419.69000244140625,342.48699951171875 426.7919921875,347.9389953613281 C426.7919921875,347.9389953613281 460.864990234375,374.7130126953125 460.864990234375,374.7130126953125 C467.9670104980469,380.1650085449219 469.3059997558594,390.34100341796875 463.85400390625,397.4429931640625z M434.14801025390625,364.7659912109375 C490.12200927734375,407.73199462890625 500.6659851074219,487.93798828125 457.70001220703125,543.9119873046875 C414.7340087890625,599.885986328125 334.52801513671875,610.4299926757812 278.5539855957031,567.4639892578125 C222.5800018310547,524.4979858398438 212.03599548339844,444.2919921875 255.0019989013672,388.3179931640625 C297.9679870605469,332.343994140625 378.17401123046875,321.79998779296875 434.14801025390625,364.7659912109375z"></path></g></g></g><clipPath id="__lottie_element_9111"><path d="M0,0 L1080,0 L1080,1080 L0,1080z"></path></clipPath><mask id="__lottie_element_9110_1" mask-type="alpha"><use xlink:href="#__lottie_element_9110"></use></mask><g id="__lottie_element_9120"><g clip-path="url(#__lottie_element_9121)" transform="matrix(0.999995231628418,-0.003089227946475148,0.003089227946475148,0.999995231628418,-1.4486083984375,1.509765625)" opacity="1" style="display: block;"><g transform="matrix(1,0,0,1,0,0)" opacity="1" style="display: block;"><path fill="rgb(206,125,251)" fill-opacity="1" d=" M463.85400390625,397.4429931640625 C463.85400390625,397.4429931640625 317.1610107421875,588.5449829101562 317.1610107421875,588.5449829101562 C311.7090148925781,595.64697265625 301.5329895019531,596.9860229492188 294.4309997558594,591.5339965820312 C294.4309997558594,591.5339965820312 258.3320007324219,564.3790283203125 258.3320007324219,564.3790283203125 C248.7830047607422,556.5859985351562 238.1840057373047,540.218017578125 245.51699829101562,514.4219970703125 C245.51699829101562,514.4219970703125 380.2300109863281,344.3590087890625 380.2300109863281,344.3590087890625 C396.9079895019531,330.4570007324219 419.69000244140625,342.48699951171875 426.7919921875,347.9389953613281 C426.7919921875,347.9389953613281 460.864990234375,374.7130126953125 460.864990234375,374.7130126953125 C467.9670104980469,380.1650085449219 469.3059997558594,390.34100341796875 463.85400390625,397.4429931640625z M434.14801025390625,364.7659912109375 C490.12200927734375,407.73199462890625 500.6659851074219,487.93798828125 457.70001220703125,543.9119873046875 C414.7340087890625,599.885986328125 334.52801513671875,610.4299926757812 278.5539855957031,567.4639892578125 C222.5800018310547,524.4979858398438 212.03599548339844,444.2919921875 255.0019989013672,388.3179931640625 C297.9679870605469,332.343994140625 378.17401123046875,321.79998779296875 434.14801025390625,364.7659912109375z"></path></g></g></g><clipPath id="__lottie_element_9121"><path d="M0,0 L1080,0 L1080,1080 L0,1080z"></path></clipPath><clipPath id="__lottie_element_9129"><path d="M0,0 L1080,0 L1080,1080 L0,1080z"></path></clipPath><mask id="__lottie_element_9120_1" mask-type="alpha"><use xlink:href="#__lottie_element_9120"></use></mask><g id="__lottie_element_9137"><g clip-path="url(#__lottie_element_9138)" transform="matrix(0.9711592197418213,0.23843175172805786,-0.23843175172805786,0.9711592197418213,124.04733276367188,-222.54656982421875)" opacity="1" style="display: block;"><g clip-path="url(#__lottie_element_9160)" transform="matrix(0.999995231628418,-0.003089227946475148,0.003089227946475148,0.999995231628418,-1.4486083984375,1.509765625)" opacity="1" style="display: block;"><g transform="matrix(1,0,0,1,0,0)" opacity="1" style="display: block;"><path fill="rgb(206,125,251)" fill-opacity="1" d=" M463.85400390625,397.4429931640625 C463.85400390625,397.4429931640625 317.1610107421875,588.5449829101562 317.1610107421875,588.5449829101562 C311.7090148925781,595.64697265625 301.5329895019531,596.9860229492188 294.4309997558594,591.5339965820312 C294.4309997558594,591.5339965820312 258.3320007324219,564.3790283203125 258.3320007324219,564.3790283203125 C248.7830047607422,556.5859985351562 238.1840057373047,540.218017578125 245.51699829101562,514.4219970703125 C245.51699829101562,514.4219970703125 380.2300109863281,344.3590087890625 380.2300109863281,344.3590087890625 C396.9079895019531,330.4570007324219 419.69000244140625,342.48699951171875 426.7919921875,347.9389953613281 C426.7919921875,347.9389953613281 460.864990234375,374.7130126953125 460.864990234375,374.7130126953125 C467.9670104980469,380.1650085449219 469.3059997558594,390.34100341796875 463.85400390625,397.4429931640625z M434.14801025390625,364.7659912109375 C490.12200927734375,407.73199462890625 500.6659851074219,487.93798828125 457.70001220703125,543.9119873046875 C414.7340087890625,599.885986328125 334.52801513671875,610.4299926757812 278.5539855957031,567.4639892578125 C222.5800018310547,524.4979858398438 212.03599548339844,444.2919921875 255.0019989013672,388.3179931640625 C297.9679870605469,332.343994140625 378.17401123046875,321.79998779296875 434.14801025390625,364.7659912109375z"></path></g></g><g mask="url(#__lottie_element_9151_1)" style="display: block;"><g transform="matrix(0.999995231628418,-0.003089227946475148,0.003089227946475148,0.999995231628418,-2.1595168113708496,0.24596454203128815)" opacity="1"><path fill="rgb(233,169,255)" fill-opacity="1" d=" M324.5320129394531,333.8739929199219 C317.84698486328125,330.3160095214844 293.95001220703125,323.02099609375 276.45599365234375,326.4670104980469 C272.2720031738281,327.2909851074219 270.4729919433594,332.2919921875 273.10101318359375,335.6499938964844 C273.10101318359375,335.6499938964844 293.2090148925781,361.343994140625 293.2090148925781,361.343994140625 C295.1300048828125,363.7980041503906 298.8160095214844,364.08599853515625 301.322998046875,362.2349853515625 C301.322998046875,362.2349853515625 327.2279968261719,343.8659973144531 327.2279968261719,343.8659973144531 C330.85101318359375,340.94500732421875 330.15301513671875,336.864990234375 324.5320129394531,333.8739929199219z M416.69024658203125,377.65740966796875 C409.3731689453125,380.864013671875 388.7954406738281,387.8830261230469 379.779052734375,395.93572998046875 C373.5892639160156,401.4560546875 368.27593994140625,400.5711975097656 361.5719909667969,395.7430114746094 C361.5719909667969,395.7430114746094 342.1470642089844,378.4217224121094 342.1470642089844,378.4217224121094 C338.5970764160156,373.854736328125 339.27264404296875,371.2244567871094 343.9897155761719,366.03106689453125 C350.49981689453125,359.0208740234375 373.51043701171875,350.0983581542969 380.6448669433594,347.8383483886719 C387.7195739746094,345.5939636230469 391.37786865234375,346.4877014160156 396.1244201660156,350.92974853515625 C396.1244201660156,350.92974853515625 414.8070068359375,365.1499938964844 414.8070068359375,365.1499938964844 C418.3958740234375,369.1915588378906 424.3611145019531,374.3393859863281 416.69024658203125,377.65740966796875z"></path><path fill="rgb(233,169,255)" fill-opacity="1" d=" M416.69024658203125,377.65740966796875 C409.3731689453125,380.864013671875 388.7954406738281,387.8830261230469 379.779052734375,395.93572998046875 C373.5892639160156,401.4560546875 368.27593994140625,400.5711975097656 361.5719909667969,395.7430114746094 C361.5719909667969,395.7430114746094 342.1470642089844,378.4217224121094 342.1470642089844,378.4217224121094 C338.5970764160156,373.854736328125 339.27264404296875,371.2244567871094 343.9897155761719,366.03106689453125 C350.49981689453125,359.0208740234375 373.51043701171875,350.0983581542969 380.6448669433594,347.8383483886719 C387.7195739746094,345.5939636230469 391.37786865234375,346.4877014160156 396.1244201660156,350.92974853515625 C396.1244201660156,350.92974853515625 414.8070068359375,365.1499938964844 414.8070068359375,365.1499938964844 C418.3958740234375,369.1915588378906 424.3611145019531,374.3393859863281 416.69024658203125,377.65740966796875z"></path></g></g><g mask="url(#__lottie_element_9141_1)" style="display: block;"><g transform="matrix(0.999995231628418,-0.003089227946475148,0.003089227946475148,0.999995231628418,355.989013671875,466.1570129394531)" opacity="1"><path stroke-linecap="butt" stroke-linejoin="miter" fill-opacity="0" stroke-miterlimit="4" stroke="rgb(180,86,233)" stroke-opacity="1" stroke-width="11" d=" M115.02300262451172,-66.68000030517578 C28.85099983215332,-110.56900024414062 -84.10399627685547,37.08399963378906 -35.481998443603516,127.06099700927734 M34.20399856567383,-131.63999938964844 C-72.10399627685547,-125.37999725341797 -132.00999450683594,6.436999797821045 -115.85700225830078,65.43699645996094"></path></g></g></g></g><clipPath id="__lottie_element_9138"><path d="M0,0 L1080,0 L1080,1080 L0,1080z"></path></clipPath><g id="__lottie_element_9141"><g clip-path="url(#__lottie_element_9142)" transform="matrix(0.999995231628418,-0.003089227946475148,0.003089227946475148,0.999995231628418,-1.4486083984375,1.509765625)" opacity="1" style="display: block;"><g transform="matrix(1,0,0,1,0,0)" opacity="1" style="display: block;"><path fill="rgb(206,125,251)" fill-opacity="1" d=" M463.85400390625,397.4429931640625 C463.85400390625,397.4429931640625 317.1610107421875,588.5449829101562 317.1610107421875,588.5449829101562 C311.7090148925781,595.64697265625 301.5329895019531,596.9860229492188 294.4309997558594,591.5339965820312 C294.4309997558594,591.5339965820312 258.3320007324219,564.3790283203125 258.3320007324219,564.3790283203125 C248.7830047607422,556.5859985351562 238.1840057373047,540.218017578125 245.51699829101562,514.4219970703125 C245.51699829101562,514.4219970703125 380.2300109863281,344.3590087890625 380.2300109863281,344.3590087890625 C396.9079895019531,330.4570007324219 419.69000244140625,342.48699951171875 426.7919921875,347.9389953613281 C426.7919921875,347.9389953613281 460.864990234375,374.7130126953125 460.864990234375,374.7130126953125 C467.9670104980469,380.1650085449219 469.3059997558594,390.34100341796875 463.85400390625,397.4429931640625z M434.14801025390625,364.7659912109375 C490.12200927734375,407.73199462890625 500.6659851074219,487.93798828125 457.70001220703125,543.9119873046875 C414.7340087890625,599.885986328125 334.52801513671875,610.4299926757812 278.5539855957031,567.4639892578125 C222.5800018310547,524.4979858398438 212.03599548339844,444.2919921875 255.0019989013672,388.3179931640625 C297.9679870605469,332.343994140625 378.17401123046875,321.79998779296875 434.14801025390625,364.7659912109375z"></path></g></g></g><clipPath id="__lottie_element_9142"><path d="M0,0 L1080,0 L1080,1080 L0,1080z"></path></clipPath><mask id="__lottie_element_9141_1" mask-type="alpha"><use xlink:href="#__lottie_element_9141"></use></mask><g id="__lottie_element_9151"><g clip-path="url(#__lottie_element_9152)" transform="matrix(0.999995231628418,-0.003089227946475148,0.003089227946475148,0.999995231628418,-1.4486083984375,1.509765625)" opacity="1" style="display: block;"><g transform="matrix(1,0,0,1,0,0)" opacity="1" style="display: block;"><path fill="rgb(206,125,251)" fill-opacity="1" d=" M463.85400390625,397.4429931640625 C463.85400390625,397.4429931640625 317.1610107421875,588.5449829101562 317.1610107421875,588.5449829101562 C311.7090148925781,595.64697265625 301.5329895019531,596.9860229492188 294.4309997558594,591.5339965820312 C294.4309997558594,591.5339965820312 258.3320007324219,564.3790283203125 258.3320007324219,564.3790283203125 C248.7830047607422,556.5859985351562 238.1840057373047,540.218017578125 245.51699829101562,514.4219970703125 C245.51699829101562,514.4219970703125 380.2300109863281,344.3590087890625 380.2300109863281,344.3590087890625 C396.9079895019531,330.4570007324219 419.69000244140625,342.48699951171875 426.7919921875,347.9389953613281 C426.7919921875,347.9389953613281 460.864990234375,374.7130126953125 460.864990234375,374.7130126953125 C467.9670104980469,380.1650085449219 469.3059997558594,390.34100341796875 463.85400390625,397.4429931640625z M434.14801025390625,364.7659912109375 C490.12200927734375,407.73199462890625 500.6659851074219,487.93798828125 457.70001220703125,543.9119873046875 C414.7340087890625,599.885986328125 334.52801513671875,610.4299926757812 278.5539855957031,567.4639892578125 C222.5800018310547,524.4979858398438 212.03599548339844,444.2919921875 255.0019989013672,388.3179931640625 C297.9679870605469,332.343994140625 378.17401123046875,321.79998779296875 434.14801025390625,364.7659912109375z"></path></g></g></g><clipPath id="__lottie_element_9152"><path d="M0,0 L1080,0 L1080,1080 L0,1080z"></path></clipPath><clipPath id="__lottie_element_9160"><path d="M0,0 L1080,0 L1080,1080 L0,1080z"></path></clipPath><mask id="__lottie_element_9151_1" mask-type="alpha"><use xlink:href="#__lottie_element_9151"></use></mask><radialGradient id="__lottie_element_9174" spreadMethod="pad" gradientUnits="userSpaceOnUse" cx="-16.541000366210938" cy="-1.5470000505447388" r="112.18357489199718" fx="-25.098777163483554" fy="1.156598464688587"><stop offset="0%" stop-color="rgb(124,17,184)"></stop><stop offset="50%" stop-color="rgb(121,18,180)"></stop><stop offset="100%" stop-color="rgb(119,19,175)"></stop></radialGradient><mask id="__lottie_element_9176"><path fill="url(#__lottie_element_9175)" d=" M0,-181.60699462890625 C100.29900360107422,-181.60699462890625 181.60699462890625,-100.29900360107422 181.60699462890625,0 C181.60699462890625,100.29900360107422 100.29900360107422,181.60699462890625 0,181.60699462890625 C-100.29900360107422,181.60699462890625 -181.60699462890625,100.29900360107422 -181.60699462890625,0 C-181.60699462890625,-100.29900360107422 -100.29900360107422,-181.60699462890625 0,-181.60699462890625z"></path></mask><radialGradient id="__lottie_element_9175" spreadMethod="pad" gradientUnits="userSpaceOnUse" cx="-16.541000366210938" cy="-1.5470000505447388" r="112.18357489199718" fx="-25.098777163483554" fy="1.156598464688587"><stop stop-color="rgb(255,255,255)" offset="0%" stop-opacity="1"></stop><stop stop-color="rgb(255,255,255)" offset="36%" stop-opacity="1"></stop><stop stop-color="rgb(255,255,255)" offset="73%" stop-opacity="1"></stop><stop stop-color="rgb(255,255,255)" offset="85%" stop-opacity="0.5"></stop><stop stop-color="rgb(255,255,255)" offset="92%" stop-opacity="0"></stop></radialGradient><mask id="__lottie_element_9137_1" mask-type="alpha"><use xlink:href="#__lottie_element_9137"></use></mask><g id="__lottie_element_9186"><g clip-path="url(#__lottie_element_9189)" transform="matrix(0.9999952912330627,-0.0030717747285962105,0.0030717747285962105,0.9999952912330627,28.05084228515625,-30.05169677734375)" opacity="1" style="display: block;"><g transform="matrix(0.9999952912330627,0.0030717747285962105,-0.0030717747285962105,0.9999952912330627,-28.9005126953125,-49.16229248046875)" opacity="1" style="display: none;"><g opacity="1" transform="matrix(1,0,0,1,505.7860107421875,399.95599365234375)"><g opacity="1" transform="matrix(1,0,0,1,0,0)"><path fill="rgb(255,255,255)" fill-opacity="1" d=" M41.641265869140625,19.090835571289062 C38.71808624267578,1.7161855697631836 2.242405414581299,-15.83151626586914 -14.95765495300293,-17.312028884887695 C-40.16563415527344,-19.557676315307617 -42.19499969482422,-12.206645011901855 -42.89400100708008,-9.380644798278809 C-43.566001892089844,-6.66664457321167 -42.530120849609375,-3.100755214691162 -38.4449348449707,0.09444058686494827 C-12.2735595703125,7.463934898376465 21.843894958496094,23.985958099365234 30.184965133666992,24.68535041809082 C35.36708450317383,25.398052215576172 42.79913330078125,26.243682861328125 41.641265869140625,19.090835571289062z"></path></g></g><g opacity="1" transform="matrix(1,0,0,1,603.1409912109375,400.05999755859375)"><g opacity="1" transform="matrix(1,0,0,1,0,0)"><path fill="rgb(255,255,255)" fill-opacity="1" d=" M-38.90072250366211,18.776260375976562 C-37.48847579956055,0.6954853534698486 -2.0055384635925293,-14.319296836853027 18.32927703857422,-15.730718612670898 C29.913936614990234,-16.356843948364258 36.68584442138672,-13.72371768951416 38.47197341918945,-12.433938026428223 C40.161285400390625,-11.535428047180176 42.390411376953125,-11.18815803527832 42.44509506225586,-7.981068134307861 C42.567813873291016,-3.8140358924865723 33.611812591552734,-0.6725310683250427 27.381994247436523,1.4666470289230347 C2.8050787448883057,10.39651870727539 -21.248775482177734,21.643192291259766 -27.44442367553711,22.896039962768555 C-32.481170654296875,24.083974838256836 -39.3228759765625,24.875873565673828 -38.90072250366211,18.776260375976562z"></path></g></g></g></g></g><clipPath id="__lottie_element_9189"><path d="M0,0 L1080,0 L1080,1080 L0,1080z"></path></clipPath><clipPath id="__lottie_element_9197"><path d="M0,0 L1080,0 L1080,1080 L0,1080z"></path></clipPath><mask id="__lottie_element_9186_1" mask-type="alpha"><use xlink:href="#__lottie_element_9186"></use></mask><g id="__lottie_element_9205"><g clip-path="url(#__lottie_element_9206)" transform="matrix(0.9999952912330627,-0.0030717747285962105,0.0030717747285962105,0.9999952912330627,28.05084228515625,-29.55169677734375)" opacity="1" style="display: block;"><g transform="matrix(0.9999952912330627,0.0030717747285962105,-0.0030717747285962105,0.9999952912330627,-28.9005126953125,-49.16229248046875)" opacity="1" style="display: none;"><g opacity="1" transform="matrix(1,0,0,1,505.7860107421875,399.95599365234375)"><g opacity="1" transform="matrix(1,0,0,1,0,0)"><path fill="rgb(255,255,255)" fill-opacity="1" d=" M41.641265869140625,19.090835571289062 C38.71808624267578,1.7161855697631836 2.242405414581299,-15.83151626586914 -14.95765495300293,-17.312028884887695 C-40.16563415527344,-19.557676315307617 -42.19499969482422,-12.206645011901855 -42.89400100708008,-9.380644798278809 C-43.566001892089844,-6.66664457321167 -42.530120849609375,-3.100755214691162 -38.4449348449707,0.09444058686494827 C-12.2735595703125,7.463934898376465 21.843894958496094,23.985958099365234 30.184965133666992,24.68535041809082 C35.36708450317383,25.398052215576172 42.79913330078125,26.243682861328125 41.641265869140625,19.090835571289062z"></path></g></g><g opacity="1" transform="matrix(1,0,0,1,603.1409912109375,400.05999755859375)"><g opacity="1" transform="matrix(1,0,0,1,0,0)"><path fill="rgb(255,255,255)" fill-opacity="1" d=" M-38.90072250366211,18.776260375976562 C-37.48847579956055,0.6954853534698486 -2.0055384635925293,-14.319296836853027 18.32927703857422,-15.730718612670898 C29.913936614990234,-16.356843948364258 36.68584442138672,-13.72371768951416 38.47197341918945,-12.433938026428223 C40.161285400390625,-11.535428047180176 42.390411376953125,-11.18815803527832 42.44509506225586,-7.981068134307861 C42.567813873291016,-3.8140358924865723 33.611812591552734,-0.6725310683250427 27.381994247436523,1.4666470289230347 C2.8050787448883057,10.39651870727539 -21.248775482177734,21.643192291259766 -27.44442367553711,22.896039962768555 C-32.481170654296875,24.083974838256836 -39.3228759765625,24.875873565673828 -38.90072250366211,18.776260375976562z"></path></g></g></g></g></g><clipPath id="__lottie_element_9206"><path d="M0,0 L1080,0 L1080,1080 L0,1080z"></path></clipPath><mask id="__lottie_element_9205_1" mask-type="alpha"><use xlink:href="#__lottie_element_9205"></use></mask><clipPath id="__lottie_element_9252"><path fill="#ffffff" clip-rule="nonzero" d=" M495.55999755859375,436.81201171875 C495.55999755859375,436.81201171875 551.5599975585938,520.5659790039062 551.5599975585938,520.5659790039062 C551.5599975585938,520.5659790039062 614.0430297851562,540.041015625 614.0430297851562,540.041015625 C614.0430297851562,540.041015625 659.0430297851562,436.81201171875 659.0430297851562,436.81201171875 C659.0430297851562,436.81201171875 495.55999755859375,436.81201171875 495.55999755859375,436.81201171875" fill-opacity="1"></path></clipPath><g id="__lottie_element_9257"><g clip-path="url(#__lottie_element_9258)" style="display: none;" transform="matrix(1,0,0,1,0,0)" opacity="1"><g style="display: block;" transform="matrix(1,0,0,1,0,0)" opacity="1"><path stroke-linecap="round" stroke-linejoin="miter" fill-opacity="0" stroke-miterlimit="4" stroke="rgb(255,183,227)" stroke-opacity="1" stroke-width="76" d=" M526.7194213867188,641.3975219726562 C506.240966796875,693.8592529296875 515.4480590820312,742.9901733398438 529.9757690429688,778.11181640625 M590.7948608398438,641.0281982421875 C592.10498046875,684.7713623046875 582.44970703125,742.0534057617188 611.7308959960938,735.2705688476562"></path></g></g></g><clipPath id="__lottie_element_9258"><path d="M0,0 L1080,0 L1080,1080 L0,1080z"></path></clipPath><mask id="__lottie_element_9257_1" mask-type="alpha"><use xlink:href="#__lottie_element_9257"></use></mask><clipPath id="__lottie_element_9269"><path fill="#ffffff" clip-rule="nonzero" d=" M-58.404998779296875,87.75 C-58.404998779296875,87.75 -72.11699676513672,245.8509979248047 -31.20400047302246,257.635009765625 C-1.8009999990463257,266.10400390625 13.843000411987305,241.03599548339844 13.843000411987305,241.03599548339844 C13.843000411987305,241.03599548339844 29.091999053955078,259.1570129394531 55.37799835205078,250.81500244140625 C82.53600311279297,242.1959991455078 65.9469985961914,92.66999816894531 65.9469985961914,92.66999816894531 C65.9469985961914,92.66999816894531 18.28499984741211,87 18.28499984741211,87 C18.28499984741211,87 -58.404998779296875,87.75 -58.404998779296875,87.75" fill-opacity="1"></path></clipPath><clipPath id="__lottie_element_9290"><path d="M0,0 L1080,0 L1080,1080 L0,1080z"></path></clipPath><mask id="__lottie_element_9069_1" mask-type="alpha"><use xlink:href="#__lottie_element_9069"></use></mask></defs><g clip-path="url(#__lottie_element_9026)"><g transform="matrix(0.8900021910667419,0,0,0.8900021910667419,557.135986328125,829.239013671875)" opacity="0.3" style="display: block;"><path fill="rgb(175,175,175)" fill-opacity="1" d=" M0,-100.77050018310547 C71.42855834960938,-100.77050018310547 129.42300415039062,-55.615238189697266 129.42300415039062,0 C129.42300415039062,55.615238189697266 71.42855834960938,100.77050018310547 0,100.77050018310547 C-71.42855834960938,100.77050018310547 -129.42300415039062,55.615238189697266 -129.42300415039062,0 C-129.42300415039062,-55.615238189697266 -71.42855834960938,-100.77050018310547 0,-100.77050018310547z"></path></g><g transform="matrix(0.8571679592132568,-0.515036940574646,0.515036940574646,0.8571679592132568,387.6708068847656,567.496337890625)" opacity="1" style="display: block;"><path stroke-linecap="round" stroke-linejoin="miter" fill-opacity="0" stroke-miterlimit="4" stroke="rgb(255,134,208)" stroke-opacity="1" stroke-width="35" d=" M-21.5,293.5 C-21.5,293.5 3.75,269.75 3.75,269.75"></path></g><g transform="matrix(0.8660260438919067,0.49999889731407166,-0.49999889731407166,0.8660260438919067,691.70849609375,552.6004638671875)" opacity="1" style="display: block;"><path stroke-linecap="round" stroke-linejoin="miter" fill-opacity="0" stroke-miterlimit="4" stroke="rgb(255,134,208)" stroke-opacity="1" stroke-width="35" d=" M47.5,293 C47.5,293 21.75,266.5 21.75,266.5"></path></g><g transform="matrix(1,0.000005811197752336739,-0.000005811197752336739,1,540.5490112304688,548.3133544921875)" opacity="1" style="display: none;"><path stroke-linecap="round" stroke-linejoin="miter" fill-opacity="0" stroke-miterlimit="4" stroke="rgb(28,176,246)" stroke-opacity="1" stroke-width="46" d=" M68.78144836425781,-22.98841667175293 C85.59160614013672,2.7757277488708496 114.4183120727539,42.91853332519531 114.4183120727539,42.91853332519531"></path></g><g transform="matrix(1,0,0,1,540.4540405273438,540.0349731445312)" opacity="1" style="display: block;"><path stroke-linecap="round" stroke-linejoin="miter" fill-opacity="0" stroke-miterlimit="4" stroke="rgb(28,176,246)" stroke-opacity="1" stroke-width="46" d=" M-54,-58.5 C-64.42500305175781,-35.52000045776367 -75.42500305175781,-15.520000457763672 -77.47100067138672,-14.692000389099121 C-78.04399871826172,-14.460000038146973 -85.25,-87.75 -85.25,-87.75"></path></g><g transform="matrix(1,0,0,1,0.00006103515625,-28)" opacity="1" style="display: block;"><path fill="rgb(255,183,227)" fill-opacity="1" d=" M553.6959838867188,529.1019897460938 C603.4760131835938,529.1019897460938 643.8319702148438,566.177001953125 643.8319702148438,611.9119873046875 C643.8319702148438,657.64697265625 603.4760131835938,694.7230224609375 553.6959838867188,694.7230224609375 C503.9159851074219,694.7230224609375 463.5610046386719,657.64697265625 463.5610046386719,611.9119873046875 C463.5610046386719,566.177001953125 503.9159851074219,529.1019897460938 553.6959838867188,529.1019897460938z"></path></g><g clip-path="url(#__lottie_element_9290)" transform="matrix(1,0,0,1,0,0)" opacity="1" style="display: block;"><g transform="matrix(1,0,0,1,0,0)" opacity="1" style="display: block;"><path stroke-linecap="round" stroke-linejoin="miter" fill-opacity="0" stroke-miterlimit="4" stroke="rgb(255,183,227)" stroke-opacity="1" stroke-width="76" d=" M518.0438842773438,639.3378295898438 C520.0438842773438,688.8378295898438 522.0438842773438,720.8378295898438 523.0438842773438,757.8378295898438 M589.0702514648438,644.982421875 C587.5702514648438,681.482421875 585.5702514648438,715.482421875 584.0702514648438,752.482421875"></path></g></g><g transform="matrix(1,0,0,1,553.6870727539062,529.1890258789062)" opacity="1" style="display: block;"><path fill="rgb(255,134,208)" fill-opacity="1" d=" M0,-33.05400085449219 C30.853416442871094,-33.05400085449219 55.90399932861328,-18.242502212524414 55.90399932861328,0 C55.90399932861328,18.242502212524414 30.853416442871094,33.05400085449219 0,33.05400085449219 C-30.853416442871094,33.05400085449219 -55.90399932861328,18.242502212524414 -55.90399932861328,0 C-55.90399932861328,-18.242502212524414 -30.853416442871094,-33.05400085449219 0,-33.05400085449219z"></path></g><g transform="matrix(1,0,0,1,589.5420532226562,548.22705078125)" opacity="1" style="display: block;"><path fill="rgb(255,183,227)" fill-opacity="1" d=" M-64.74049377441406,-15.184499740600586 C-64.74049377441406,-15.184499740600586 -64.74049377441406,15.184499740600586 -64.74049377441406,15.184499740600586 C-64.74049377441406,15.184499740600586 -77.65950012207031,15.184499740600586 -77.65950012207031,15.184499740600586 C-77.65950012207031,15.184499740600586 -77.65950012207031,-15.184499740600586 -77.65950012207031,-15.184499740600586 C-77.65950012207031,-15.184499740600586 -64.74049377441406,-15.184499740600586 -64.74049377441406,-15.184499740600586z M6.459499835968018,-15.184499740600586 C6.459499835968018,-15.184499740600586 6.459499835968018,15.184499740600586 6.459499835968018,15.184499740600586 C6.459499835968018,15.184499740600586 -6.459499835968018,15.184499740600586 -6.459499835968018,15.184499740600586 C-6.459499835968018,15.184499740600586 -6.459499835968018,-15.184499740600586 -6.459499835968018,-15.184499740600586 C-6.459499835968018,-15.184499740600586 6.459499835968018,-15.184499740600586 6.459499835968018,-15.184499740600586z"></path></g><g transform="matrix(0.9924560785293579,-0.1226007416844368,0.1226007416844368,0.9924560785293579,522.940185546875,549.1368408203125)" opacity="1" style="display: none;"><path fill="rgb(28,176,246)" fill-opacity="1" d=" M96.04199981689453,-20.91900062561035 C89.45800018310547,-47.47600173950195 75.43099975585938,-33.86600112915039 65.43099975585938,-24.865999221801758 C55.430999755859375,-15.866000175476074 60.39699935913086,31.274999618530273 81.5,15 C86.66200256347656,11.019000053405762 99.55000305175781,-6.769999980926514 96.04199981689453,-20.91900062561035z"></path></g><g transform="matrix(1,0,0,1,0.00006103515625,-28)" opacity="1" style="display: block;"><path fill="rgb(28,176,246)" fill-opacity="1" d=" M499.9849853515625,544.27099609375 C499.9849853515625,537.9609985351562 507.99798583984375,517.10302734375 512.0050048828125,507.4630126953125 C512.0050048828125,507.4630126953125 592.3809814453125,507.4630126953125 592.3809814453125,507.4630126953125 C597.3889770507812,516.3519897460938 607.405029296875,536.1580200195312 607.405029296875,544.27099609375 C607.405029296875,554.4119873046875 589.9010009765625,576.197021484375 551.2150268554688,576.197021484375 C512.5289916992188,576.197021484375 499.9849853515625,552.1589965820312 499.9849853515625,544.27099609375z"></path></g><g transform="matrix(1,0,0,1,542.0000610351562,489)" opacity="1" style="display: block;"><g opacity="1" transform="matrix(1,0,0,1,0,0)"><path stroke-linecap="round" stroke-linejoin="miter" fill-opacity="0" stroke-miterlimit="4" stroke="rgb(255,161,218)" stroke-opacity="1" stroke-width="7" d=" M0.5910000205039978,152.04100036621094 C8.088000297546387,154.08799743652344 16.375,154.23500061035156 24.259000778198242,151.9510040283203"></path></g></g><g transform="matrix(0.9782273769378662,0.20753608644008636,-0.20753608644008636,0.9782273769378662,572.6825561523438,539.5470581054688)" opacity="1" style="display: none;"><g opacity="1" transform="matrix(1,0,0,1,0,0)"><path stroke-linecap="round" stroke-linejoin="miter" fill-opacity="0" stroke-miterlimit="4" stroke="rgb(255,161,218)" stroke-opacity="1" stroke-width="7" d=" M-0.9539999961853027,155.7740020751953 C6.039000034332275,156.88499450683594 16.639999389648438,154.4459991455078 22.281999588012695,150.85800170898438"></path></g></g><g clip-path="url(#__lottie_element_9269)" transform="matrix(1,0,0,1,542.0950927734375,536.8989868164062)" opacity="1" style="display: block;"><path stroke-linecap="butt" stroke-linejoin="miter" fill-opacity="0" stroke-miterlimit="4" stroke="rgb(255,161,218)" stroke-opacity="1" stroke-width="7" d=" M13.75,105.25 C13.75,114.5 15.232522964477539,233.8468780517578 15.232522964477539,248.8468780517578"></path></g><g mask="url(#__lottie_element_9257_1)" style="display: none;"><g transform="matrix(0.9837693572044373,0.1794375479221344,-0.1794375479221344,0.9837693572044373,555.6240234375,566.8489990234375)" opacity="1"><path stroke-linecap="butt" stroke-linejoin="miter" fill-opacity="0" stroke-miterlimit="4" stroke="rgb(255,161,218)" stroke-opacity="1" stroke-width="7" d=" M20.714000701904297,105.04499816894531 C20.195999145507812,112.53199768066406 9.58899974822998,161.1529998779297 48.784000396728516,183.55999755859375"></path></g></g><g transform="matrix(0.9718911647796631,0.2354304939508438,-0.2354304939508438,0.9718911647796631,122.28155517578125,-221.42730712890625)" opacity="1" style="display: block;"><g opacity="1" transform="matrix(1,0,0,1,489.9320068359375,543.9459838867188)"><path fill="rgb(225,142,112)" fill-opacity="1" d=" M-5.2829999923706055,-22.452999114990234 C-5.2829999923706055,-22.452999114990234 -13.079999923706055,18.999000549316406 -13.079999923706055,18.999000549316406 C-14.034000396728516,24.06999969482422 -10.696999549865723,28.95400047302246 -5.625999927520752,29.908000946044922 C-5.625999927520752,29.908000946044922 -5.625999927520752,29.908000946044922 -5.625999927520752,29.908000946044922 C-0.5550000071525574,30.86199951171875 4.328999996185303,27.52400016784668 5.2829999923706055,22.452999114990234 C5.2829999923706055,22.452999114990234 13.079999923706055,-18.999000549316406 13.079999923706055,-18.999000549316406 C14.034000396728516,-24.06999969482422 10.696999549865723,-28.95400047302246 5.625999927520752,-29.908000946044922 C5.625999927520752,-29.908000946044922 5.625999927520752,-29.908000946044922 5.625999927520752,-29.908000946044922 C0.5550000071525574,-30.86199951171875 -4.328999996185303,-27.52400016784668 -5.2829999923706055,-22.452999114990234z"></path></g><g opacity="1" transform="matrix(1,0,0,1,539.66015625,615.4345703125)"><path fill="rgb(225,142,112)" fill-opacity="1" d=" M-21.283000946044922,8.892000198364258 C-21.283000946044922,8.892000198364258 20.88599967956543,9.788999557495117 20.88599967956543,9.788999557495117 C26.045000076293945,9.89900016784668 30.315000534057617,5.806000232696533 30.424999237060547,0.6470000147819519 C30.424999237060547,0.6470000147819519 30.424999237060547,0.6470000147819519 30.424999237060547,0.6470000147819519 C30.53499984741211,-4.51200008392334 26.441999435424805,-8.781999588012695 21.283000946044922,-8.892000198364258 C21.283000946044922,-8.892000198364258 -20.88599967956543,-9.788999557495117 -20.88599967956543,-9.788999557495117 C-26.045000076293945,-9.89900016784668 -30.315000534057617,-5.806000232696533 -30.424999237060547,-0.6470000147819519 C-30.424999237060547,-0.6470000147819519 -30.424999237060547,-0.6470000147819519 -30.424999237060547,-0.6470000147819519 C-30.53499984741211,4.51200008392334 -26.441999435424805,8.781999588012695 -21.283000946044922,8.892000198364258z"></path></g></g><g transform="matrix(1,0,0,1,538.2950439453125,517.6110229492188)" opacity="1" style="display: block;"><g opacity="1" transform="matrix(1,0,0,1,0,0)"><path stroke-linecap="round" stroke-linejoin="miter" fill-opacity="0" stroke-miterlimit="4" stroke="rgb(28,176,246)" stroke-opacity="1" stroke-width="51" d=" M74.95800018310547,-36.50199890136719 C74.95800018310547,-36.50199890136719 93.03299713134766,17.42099952697754 88.2229995727539,20.5 C77.12200164794922,27.606000900268555 4.125,-11.368000030517578 4.125,-11.368000030517578"></path></g></g><g clip-path="url(#__lottie_element_9252)" transform="matrix(1,0,0,0.8985499739646912,0.00006103515625,22.84222412109375)" opacity="1" style="display: block;"><g opacity="1" transform="matrix(1,0,0,1,603.4860229492188,527.9829711914062)"><path fill="rgb(255,183,227)" fill-opacity="1" d=" M-31.430999755859375,-24.233999252319336 C-32.32099914550781,-29.722000122070312 -14.970999717712402,-43.196998596191406 -7.7129998207092285,-31.60300064086914 C-7.7129998207092285,-31.60300064086914 5.335999965667725,0.6259999871253967 5.335999965667725,0.6259999871253967 C6.5970001220703125,5.728000164031982 3.6540000438690186,10.927000045776367 -1.3700000047683716,12.470999717712402 C-1.3700000047683716,12.470999717712402 -20.48699951171875,19.586999893188477 -20.48699951171875,19.586999893188477 C-27.468000411987305,21.732999801635742 -34.29199981689453,15.843999862670898 -33.18899917602539,8.62399959564209 C-33.18899917602539,8.62399959564209 -31.430999755859375,-24.233999252319336 -31.430999755859375,-24.233999252319336z"></path></g></g><g transform="matrix(1,0,0,1,0.00006103515625,-42)" opacity="1" style="display: block;"><g opacity="1" transform="matrix(1,0,0,1,553.6950073242188,503.2139892578125)"><path fill="rgb(255,183,227)" fill-opacity="1" d=" M0,-30.170000076293945 C33.88100051879883,-30.170000076293945 61.34700012207031,-16.663000106811523 61.34700012207031,0 C61.34700012207031,16.663000106811523 33.88100051879883,30.170000076293945 0,30.170000076293945 C-33.88100051879883,30.170000076293945 -61.34700012207031,16.663000106811523 -61.34700012207031,0 C-61.34700012207031,-16.663000106811523 -33.88100051879883,-30.170000076293945 0,-30.170000076293945z"></path></g><g opacity="1" transform="matrix(1,0,0,1,553.6950073242188,336.60699462890625)"><path fill="rgb(255,183,227)" fill-opacity="1" d=" M0,-181.60699462890625 C100.29900360107422,-181.60699462890625 181.60699462890625,-100.29900360107422 181.60699462890625,0 C181.60699462890625,100.29900360107422 100.29900360107422,181.60699462890625 0,181.60699462890625 C-100.29900360107422,181.60699462890625 -181.60699462890625,100.29900360107422 -181.60699462890625,0 C-181.60699462890625,-100.29900360107422 -100.29900360107422,-181.60699462890625 0,-181.60699462890625z"></path></g><g opacity="0" transform="matrix(1,0,0,1,551.427001953125,488.6679992675781)"><path fill="rgb(255,155,216)" fill-opacity="1" d=" M-59.777000427246094,18.66900062561035 C-65.80899810791016,16.47599983215332 -71.69200134277344,13.972999572753906 -77.40699768066406,11.178000450134277 C-15.734000205993652,10.234000205993652 24.538999557495117,5.370999813079834 73.9540023803711,-18.66900062561035 C73.9540023803711,-18.66900062561035 77.40699768066406,-11.571000099182129 77.40699768066406,-11.571000099182129 C31.413999557495117,10.803999900817871 -6.985000133514404,16.98200035095215 -59.777000427246094,18.66900062561035z"></path></g><g opacity="1" transform="matrix(1,0,0,1,553.6959838867188,379.0329895019531)"><path fill="rgb(225,142,112)" fill-opacity="1" d=" M0,-115.64800262451172 C78.06500244140625,-115.64800262451172 141.34800720214844,-63.87099838256836 141.34800720214844,0 C141.34800720214844,63.87099838256836 78.06500244140625,115.64800262451172 0,115.64800262451172 C-78.06500244140625,115.64800262451172 -141.34800720214844,63.87099838256836 -141.34800720214844,0 C-141.34800720214844,-63.87099838256836 -78.06500244140625,-115.64800262451172 0,-115.64800262451172z"></path></g></g><g transform="matrix(1,0.000005811197752336739,-0.000005811197752336739,1,539.476806640625,544.59423828125)" opacity="1" style="display: none;"><path stroke-linecap="round" stroke-linejoin="miter" fill-opacity="0" stroke-miterlimit="4" stroke="rgb(28,176,246)" stroke-opacity="1" stroke-width="51" d=" M-68.00043487548828,57.498146057128906 C-68.00043487548828,57.498146057128906 -85.00048065185547,67.99903106689453 -85.00048065185547,67.99903106689453"></path></g><g transform="matrix(0.9999958872795105,0.002862336114048958,-0.002862336114048958,0.9999958872795105,541.5150146484375,541.1160278320312)" opacity="1" style="display: block;"><g opacity="1" transform="matrix(1,0,0,1,53.702999114990234,-219.14100646972656)"><path fill="rgb(255,255,255)" fill-opacity="1" d=" M0,-43.65999984741211 C24.0959529876709,-43.65999984741211 43.65999984741211,-24.0959529876709 43.65999984741211,0 C43.65999984741211,24.0959529876709 24.0959529876709,43.65999984741211 0,43.65999984741211 C-24.0959529876709,43.65999984741211 -43.65999984741211,24.0959529876709 -43.65999984741211,0 C-43.65999984741211,-24.0959529876709 -24.0959529876709,-43.65999984741211 0,-43.65999984741211z"></path></g><g opacity="1" transform="matrix(0.8599929213523865,0,0,0.8599929213523865,53.702999114990234,-219.14100646972656)"><path fill="rgb(61,61,61)" fill-opacity="1" d=" M0,-43.65999984741211 C24.0959529876709,-43.65999984741211 43.65999984741211,-24.0959529876709 43.65999984741211,0 C43.65999984741211,24.0959529876709 24.0959529876709,43.65999984741211 0,43.65999984741211 C-24.0959529876709,43.65999984741211 -43.65999984741211,24.0959529876709 -43.65999984741211,0 C-43.65999984741211,-24.0959529876709 -24.0959529876709,-43.65999984741211 0,-43.65999984741211z"></path></g><g opacity="1" transform="matrix(1,0,0,1,-33.03499984741211,-217.93800354003906)"><path fill="rgb(255,255,255)" fill-opacity="1" d=" M0,-43.65999984741211 C24.0959529876709,-43.65999984741211 43.65999984741211,-24.0959529876709 43.65999984741211,0 C43.65999984741211,24.0959529876709 24.0959529876709,43.65999984741211 0,43.65999984741211 C-24.0959529876709,43.65999984741211 -43.65999984741211,24.0959529876709 -43.65999984741211,0 C-43.65999984741211,-24.0959529876709 -24.0959529876709,-43.65999984741211 0,-43.65999984741211z"></path></g><g opacity="1" transform="matrix(0.8599929213523865,0,0,0.8599929213523865,-33.03499984741211,-217.93800354003906)"><path fill="rgb(61,61,61)" fill-opacity="1" d=" M0,-43.65999984741211 C24.0959529876709,-43.65999984741211 43.65999984741211,-24.0959529876709 43.65999984741211,0 C43.65999984741211,24.0959529876709 24.0959529876709,43.65999984741211 0,43.65999984741211 C-24.0959529876709,43.65999984741211 -43.65999984741211,24.0959529876709 -43.65999984741211,0 C-43.65999984741211,-24.0959529876709 -24.0959529876709,-43.65999984741211 0,-43.65999984741211z"></path></g></g><g transform="matrix(0.9999958872795105,0.002862336114048958,-0.002862336114048958,0.9999958872795105,542.7010498046875,541.1160278320312)" opacity="1" style="display: block;"><g opacity="1" transform="matrix(1,0,0,1,67.66999816894531,-209.3300018310547)"><path fill="rgb(255,255,255)" fill-opacity="1" d=" M0,-7.670000076293945 C4.2330732345581055,-7.670000076293945 7.670000076293945,-4.2330732345581055 7.670000076293945,0 C7.670000076293945,4.2330732345581055 4.2330732345581055,7.670000076293945 0,7.670000076293945 C-4.2330732345581055,7.670000076293945 -7.670000076293945,4.2330732345581055 -7.670000076293945,0 C-7.670000076293945,-4.2330732345581055 -4.2330732345581055,-7.670000076293945 0,-7.670000076293945z"></path></g><g opacity="1" transform="matrix(1,0,0,1,-17.243999481201172,-209.3300018310547)"><path fill="rgb(255,255,255)" fill-opacity="1" d=" M0,-7.670000076293945 C4.2330732345581055,-7.670000076293945 7.670000076293945,-4.2330732345581055 7.670000076293945,0 C7.670000076293945,4.2330732345581055 4.2330732345581055,7.670000076293945 0,7.670000076293945 C-4.2330732345581055,7.670000076293945 -7.670000076293945,4.2330732345581055 -7.670000076293945,0 C-7.670000076293945,-4.2330732345581055 -4.2330732345581055,-7.670000076293945 0,-7.670000076293945z"></path></g><g opacity="1" transform="matrix(2.1482949256896973,-2.3037643432617188,2.3037643432617188,2.1482949256896973,49.85599899291992,-222.9340057373047)"><path fill="rgb(255,255,255)" fill-opacity="1" d=" M-0.27000001072883606,-7.625999927520752 C3.9660000801086426,-7.625999927520752 7.711999893188477,-3.4730000495910645 7.906000137329102,-0.5740000009536743 C8.026000022888184,1.215000033378601 4.00600004196167,0.6880000233650208 -0.2280000001192093,0.8309999704360962 C-4.755000114440918,0.984000027179718 -7.995999813079834,1.4079999923706055 -8.270000457763672,0.24799999594688416 C-8.86400032043457,-2.9769999980926514 -4.50600004196167,-7.625999927520752 -0.27000001072883606,-7.625999927520752z"></path></g><g opacity="1" transform="matrix(2.1482949256896973,-2.3037643432617188,2.3037643432617188,2.1482949256896973,-38.67100143432617,-221.33700561523438)"><path fill="rgb(255,255,255)" fill-opacity="1" d=" M-0.27000001072883606,-7.625999927520752 C3.9660000801086426,-7.625999927520752 7.711999893188477,-3.4730000495910645 7.906000137329102,-0.5740000009536743 C8.026000022888184,1.215000033378601 4.00600004196167,0.6880000233650208 -0.2280000001192093,0.8309999704360962 C-4.755000114440918,0.984000027179718 -7.995999813079834,1.4079999923706055 -8.270000457763672,0.24799999594688416 C-8.86400032043457,-2.9769999980926514 -4.50600004196167,-7.625999927520752 -0.27000001072883606,-7.625999927520752z"></path></g></g><g transform="matrix(1,0,0,1,553.050048828125,363.822998046875)" opacity="1" style="display: block;"><path fill="rgb(165,84,55)" fill-opacity="1" d=" M11.911999702453613,4.65500020980835 C11.991999626159668,11.234000205993652 6.7230000495910645,16.631000518798828 0.14399999380111694,16.711000442504883 C-6.434999942779541,16.791000366210938 -11.831999778747559,11.522000312805176 -11.911999702453613,4.942999839782715 C-11.991999626159668,-1.6360000371932983 -3.571000099182129,-16.672000885009766 -0.25999999046325684,-16.711999893188477 C3.0510001182556152,-16.75200080871582 11.833000183105469,-1.9240000247955322 11.911999702453613,4.65500020980835z"></path></g><g transform="matrix(0.9999018311500549,0.014011632651090622,-0.014011632651090622,0.9999018311500549,482.8605041503906,491.9749755859375)" opacity="1" style="display: none;"><path fill="rgb(180,86,233)" fill-opacity="1" d=" M114.41960144042969,-132.00860595703125 C114.24789428710938,-131.8599853515625 83.41105651855469,-136.54930114746094 71.52336883544922,-120.40790557861328 C53.411678314208984,-96.0128173828125 95.48023986816406,-78.7208023071289 112.55569458007812,-100.60872650146484 C125.0273208618164,-116.51386260986328 142.6086883544922,-117.21661376953125 144.2017364501953,-116.83340454101562 C136.2457275390625,-118.35963439941406 118.91960144042969,-130.00860595703125 114.41960144042969,-132.00860595703125z"></path></g><g transform="matrix(1,0,0,1,542.1153564453125,544.4854125976562)" opacity="1" style="display: none;"><path stroke-linecap="round" stroke-linejoin="round" fill-opacity="0" stroke="rgb(158,77,49)" stroke-opacity="1" stroke-width="8.432" d=" M-14.5385160446167,-81.98802185058594 C-10.024803161621094,-68.58406066894531 19.162601470947266,-55.77141189575195 43.254722595214844,-78.24119567871094"></path></g><g transform="matrix(0.9999948143959045,0.0032288534566760063,-0.0032288534566760063,0.9999948143959045,542.9590454101562,540.6199951171875)" opacity="1" style="display: block;"><g opacity="1" transform="matrix(1,0,0,1,0,0)"><path fill="rgb(136,27,27)" fill-opacity="1" d=" M10.5,-155.5 C-7,-156 -25.5,-169.5 -31.5,-157 C-37.90700149536133,-143.6510009765625 -21.714000701904297,-127.95500183105469 6.5,-127.5 C37.5,-127 56.5,-142.5 48.5,-157 C42.62300109863281,-167.65199279785156 28,-155 10.5,-155.5z"></path></g><g opacity="1" transform="matrix(1,0,0,1,0,0)"><path fill="rgb(177,46,46)" fill-opacity="1" d=" M45.48400115966797,-140.3090057373047 C29.836999893188477,-153.0449981689453 -9.657999992370605,-149.49099731445312 -18.753000259399414,-133.69000244140625 C6.006999969482422,-120.26300048828125 43.61600112915039,-132.31399536132812 45.48400115966797,-140.3090057373047z"></path></g></g><g transform="matrix(0.9996691942214966,0.025718744844198227,-0.025718744844198227,0.9996691942214966,484.606201171875,486.4027099609375)" opacity="1" style="display: none;"><path fill="rgb(180,86,233)" fill-opacity="1" d=" M121.76399993896484,-130.79400634765625 C121.66400146484375,-130.656005859375 92.9010009765625,-138.81900024414062 83.53700256347656,-126.63800048828125 C62.47200012207031,-101.16500091552734 105.37200164794922,-87.25 129.45799255371094,-107.91699981689453 C138.71499633789062,-116.3239974975586 145.10499572753906,-117.04100036621094 146.5489959716797,-116.56999969482422 C133.95599365234375,-116.96199798583984 126.26399993896484,-128.79400634765625 121.76399993896484,-130.79400634765625z"></path></g><g transform="matrix(0.9999969601631165,0.0024783648550510406,-0.0024783648550510406,0.9999969601631165,593.3312377929688,405.0028991699219)" opacity="1" style="display: block;"><path fill="rgb(255,255,255)" fill-opacity="1" d=" M0,-7.784999847412109 C4.296541213989258,-7.784999847412109 7.784999847412109,-4.296541213989258 7.784999847412109,0 C7.784999847412109,4.296541213989258 4.296541213989258,7.784999847412109 0,7.784999847412109 C-4.296541213989258,7.784999847412109 -7.784999847412109,4.296541213989258 -7.784999847412109,0 C-7.784999847412109,-4.296541213989258 -4.296541213989258,-7.784999847412109 0,-7.784999847412109z"></path></g><g transform="matrix(0.9772570133209229,-0.21205827593803406,0.21205827593803406,0.9772570133209229,555.1983642578125,629.3353881835938)" opacity="1" style="display: none;"><path stroke-linecap="round" stroke-linejoin="miter" fill-opacity="0" stroke-miterlimit="4" stroke="rgb(165,84,55)" stroke-opacity="1" stroke-width="7" d=" M121.96492767333984,-211.4091796875 C95.04320526123047,-214.2018280029297 62.76393508911133,-202.4119415283203 63.76393508911133,-199.1619415283203 C64.7639389038086,-195.9119415283203 98.55955505371094,-200.67185974121094 117.7278823852539,-191.68295288085938 M-17.636974334716797,-232.53372192382812 C7.208787441253662,-229.5881805419922 27.58915138244629,-208.74282836914062 29.88115119934082,-208.15882873535156 C32.17314910888672,-207.5748291015625 17.393404006958008,-234.88653564453125 -5.561732292175293,-246.60792541503906"></path></g><g transform="matrix(0.9992965459823608,-0.03750067576766014,0.03750067576766014,0.9992965459823608,575.6614990234375,508.1897888183594)" opacity="1" style="display: none;"><g opacity="1" transform="matrix(1,0,0,1,0,0)"><path stroke-linecap="round" stroke-linejoin="miter" fill-opacity="0" stroke-miterlimit="4" stroke="rgb(165,84,55)" stroke-opacity="1" stroke-width="7" d=" M62.45262145996094,-210.47433471679688 C65.42436218261719,-195.55429077148438 92.5346450805664,-181.76901245117188 118.29900360107422,-196.7050018310547"></path></g><g opacity="1" transform="matrix(1,0,0,1,0,0)"><path stroke-linecap="round" stroke-linejoin="miter" fill-opacity="0" stroke-miterlimit="4" stroke="rgb(165,84,55)" stroke-opacity="1" stroke-width="7" d=" M-26.824384689331055,-230.0110626220703 C-25.25308609008789,-210.7809600830078 15.113484382629395,-201.63766479492188 31.699005126953125,-214.95230102539062"></path></g></g><g clip-path="url(#__lottie_element_9197)" transform="matrix(0.9999952912330627,-0.0030717747285962105,0.0030717747285962105,0.9999952912330627,28.05084228515625,-30.05169677734375)" opacity="1" style="display: block;"><g transform="matrix(0.9999952912330627,0.0030717747285962105,-0.0030717747285962105,0.9999952912330627,-28.9005126953125,-49.16229248046875)" opacity="1" style="display: none;"><g opacity="1" transform="matrix(1,0,0,1,505.7860107421875,399.95599365234375)"><g opacity="1" transform="matrix(1,0,0,1,0,0)"><path fill="rgb(255,255,255)" fill-opacity="1" d=" M41.641265869140625,19.090835571289062 C38.71808624267578,1.7161855697631836 2.242405414581299,-15.83151626586914 -14.95765495300293,-17.312028884887695 C-40.16563415527344,-19.557676315307617 -42.19499969482422,-12.206645011901855 -42.89400100708008,-9.380644798278809 C-43.566001892089844,-6.66664457321167 -42.530120849609375,-3.100755214691162 -38.4449348449707,0.09444058686494827 C-12.2735595703125,7.463934898376465 21.843894958496094,23.985958099365234 30.184965133666992,24.68535041809082 C35.36708450317383,25.398052215576172 42.79913330078125,26.243682861328125 41.641265869140625,19.090835571289062z"></path></g></g><g opacity="1" transform="matrix(1,0,0,1,603.1409912109375,400.05999755859375)"><g opacity="1" transform="matrix(1,0,0,1,0,0)"><path fill="rgb(255,255,255)" fill-opacity="1" d=" M-38.90072250366211,18.776260375976562 C-37.48847579956055,0.6954853534698486 -2.0055384635925293,-14.319296836853027 18.32927703857422,-15.730718612670898 C29.913936614990234,-16.356843948364258 36.68584442138672,-13.72371768951416 38.47197341918945,-12.433938026428223 C40.161285400390625,-11.535428047180176 42.390411376953125,-11.18815803527832 42.44509506225586,-7.981068134307861 C42.567813873291016,-3.8140358924865723 33.611812591552734,-0.6725310683250427 27.381994247436523,1.4666470289230347 C2.8050787448883057,10.39651870727539 -21.248775482177734,21.643192291259766 -27.44442367553711,22.896039962768555 C-32.481170654296875,24.083974838256836 -39.3228759765625,24.875873565673828 -38.90072250366211,18.776260375976562z"></path></g></g></g></g><g mask="url(#__lottie_element_9205_1)" style="display: none;"><g transform="matrix(0.9974864721298218,0.0708569660782814,-0.0708569660782814,0.9974864721298218,40.899078369140625,6.17974853515625)" opacity="1"><g opacity="1" transform="matrix(1,0,0,1,523.1339721679688,411.4100036621094)"><g opacity="1" transform="matrix(1,0,0,1,0,0)"><path fill="rgb(61,61,61)" fill-opacity="1" d=" M14.038999557495117,22.469999313354492 C17.2810001373291,19.45599937438965 18.527000427246094,13.586000442504883 18.527000427246094,8.538999557495117 C18.527000427246094,8.538999557495117 18.527000427246094,-0.28999999165534973 18.527000427246094,-0.28999999165534973 C18.527000427246094,-10.579000473022461 10.232000350952148,-19.79199981689453 0,-20.867000579833984 C-10.232000350952148,-21.941999435424805 -18.527000427246094,-14.473999977111816 -18.527000427246094,-4.184999942779541 C-18.527000427246094,-4.184999942779541 -18.527000427246094,4.644999980926514 -18.527000427246094,4.644999980926514 C-18.527000427246094,5.709000110626221 -17.43600082397461,15.26099967956543 -17.264999389648438,16.295000076293945 C-15.317000389099121,29.0939998626709 5.184999942779541,33.33599853515625 14.038999557495117,22.469999313354492z"></path></g></g><g opacity="1" transform="matrix(1,0,0,1,585.10400390625,412.4100036621094)"><g opacity="1" transform="matrix(1,0,0,1,0,0)"><path fill="rgb(61,61,61)" fill-opacity="1" d=" M-13.288000106811523,20.969999313354492 C-16.530000686645508,17.95599937438965 -18.527000427246094,13.586000442504883 -18.527000427246094,8.538999557495117 C-18.527000427246094,8.538999557495117 -18.527000427246094,-0.28999999165534973 -18.527000427246094,-0.28999999165534973 C-18.527000427246094,-10.579000473022461 -10.232000350952148,-19.79199981689453 0,-20.867000579833984 C10.232000350952148,-21.941999435424805 18.527000427246094,-14.473999977111816 18.527000427246094,-4.184999942779541 C18.527000427246094,-4.184999942779541 18.527000427246094,4.644999980926514 18.527000427246094,4.644999980926514 C18.527000427246094,5.709000110626221 18.691999435424805,13.76099967956543 18.520999908447266,14.795000076293945 C11.96399974822998,28.80900001525879 -6.284999847412109,30.06599998474121 -13.288000106811523,20.969999313354492z"></path></g></g></g></g><g mask="url(#__lottie_element_9186_1)" style="display: none;"><g transform="matrix(0.9974864721298218,0.0708569660782814,-0.0708569660782814,0.9974864721298218,40.8985595703125,6.17950439453125)" opacity="1"><g opacity="1" transform="matrix(1,0,0,1,1136,795)"><g opacity="1" transform="matrix(1,0,0,1,0,0)"></g><path fill="rgb(255,255,255)" fill-opacity="1" d=" M-579.6619873046875,-397.78399658203125 C-579.6619873046875,-391.3030090332031 -574.4080200195312,-386.04901123046875 -567.927001953125,-386.04901123046875 C-561.4459838867188,-386.04901123046875 -556.1920166015625,-391.3030090332031 -556.1920166015625,-397.78399658203125 C-556.1920166015625,-404.2650146484375 -561.4459838867188,-409.51800537109375 -567.927001953125,-409.51800537109375 C-574.4080200195312,-409.51800537109375 -579.6619873046875,-404.2650146484375 -579.6619873046875,-397.78399658203125z"></path></g><g opacity="1" transform="matrix(1,0,0,1,505.25,395.5)"><path fill="rgb(255,255,255)" fill-opacity="1" d=" M11.734999656677246,0 C11.734999656677246,6.480999946594238 6.480999946594238,11.734000205993652 0,11.734000205993652 C-6.480999946594238,11.734000205993652 -11.734999656677246,6.480999946594238 -11.734999656677246,0 C-11.734999656677246,-6.480999946594238 -6.480999946594238,-11.734000205993652 0,-11.734000205993652 C6.480999946594238,-11.734000205993652 11.734999656677246,-6.480999946594238 11.734999656677246,0z"></path></g></g></g><g transform="matrix(1,0,0,1,508.2800598144531,283.6899719238281)" opacity="1" style="display: block;"><path fill="rgb(61,61,61)" fill-opacity="1" d=" M-62.941001892089844,5.84499979019165 C34.266998291015625,40.89899826049805 116.37907409667969,-13.305155754089355 127.59807586669922,-41.13015365600586 C70.61808013916016,-78.26215362548828 10.805999755859375,-66.01899719238281 10.805999755859375,-66.01899719238281 C-54.37799835205078,-58.422000885009766 -80.30899810791016,-37.57099914550781 -111.98899841308594,-47.65399932861328 C-125.625,-51.99399948120117 -118.94400024414062,-56.277000427246094 -128.11199951171875,-52.55400085449219 C-134.36099243164062,-49.810001373291016 -138.6439971923828,-21.45400047302246 -62.941001892089844,5.84499979019165z"></path></g><g transform="matrix(0.9875762462615967,-0.15714050829410553,0.15714050829410553,0.9875762462615967,-84.37939453125,90.034912109375)" opacity="1" style="display: none;"><path stroke-linecap="round" stroke-linejoin="miter" fill-opacity="0" stroke-miterlimit="10" stroke="rgb(165,102,70)" stroke-opacity="1" stroke-width="20" d=" M461.8590087890625,543.719970703125 C461.8590087890625,543.719970703125 668.9130249023438,706.0419921875 668.9130249023438,706.0419921875"></path></g><g mask="url(#__lottie_element_9137_1)" style="display: block;"><g transform="matrix(1,0,0,1,0.00006103515625,-42)" opacity="1"><g opacity="1" transform="matrix(1.840000033378601,0,0,1.840000033378601,555.2540283203125,339.76300048828125)"><path fill="url(#__lottie_element_9174)" mask="url(#__lottie_element_9176)" fill-opacity="1" d="M0 0 M0,-181.60699462890625 C100.29900360107422,-181.60699462890625 181.60699462890625,-100.29900360107422 181.60699462890625,0 C181.60699462890625,100.29900360107422 100.29900360107422,181.60699462890625 0,181.60699462890625 C-100.29900360107422,181.60699462890625 -181.60699462890625,100.29900360107422 -181.60699462890625,0 C-181.60699462890625,-100.29900360107422 -100.29900360107422,-181.60699462890625 0,-181.60699462890625z"></path></g></g></g><g clip-path="url(#__lottie_element_9107)" transform="matrix(0.9711592197418213,0.23843175172805786,-0.23843175172805786,0.9711592197418213,124.04733276367188,-222.54656982421875)" opacity="1" style="display: block;"><g mask="url(#__lottie_element_9108)"><g clip-path="url(#__lottie_element_9129)" transform="matrix(0.999995231628418,-0.003089227946475148,0.003089227946475148,0.999995231628418,-1.4486083984375,1.509765625)" opacity="1" style="display: block;"><g transform="matrix(1,0,0,1,0,0)" opacity="1" style="display: block;"><path fill="rgb(206,125,251)" fill-opacity="1" d=" M463.85400390625,397.4429931640625 C463.85400390625,397.4429931640625 317.1610107421875,588.5449829101562 317.1610107421875,588.5449829101562 C311.7090148925781,595.64697265625 301.5329895019531,596.9860229492188 294.4309997558594,591.5339965820312 C294.4309997558594,591.5339965820312 258.3320007324219,564.3790283203125 258.3320007324219,564.3790283203125 C248.7830047607422,556.5859985351562 238.1840057373047,540.218017578125 245.51699829101562,514.4219970703125 C245.51699829101562,514.4219970703125 380.2300109863281,344.3590087890625 380.2300109863281,344.3590087890625 C396.9079895019531,330.4570007324219 419.69000244140625,342.48699951171875 426.7919921875,347.9389953613281 C426.7919921875,347.9389953613281 460.864990234375,374.7130126953125 460.864990234375,374.7130126953125 C467.9670104980469,380.1650085449219 469.3059997558594,390.34100341796875 463.85400390625,397.4429931640625z M434.14801025390625,364.7659912109375 C490.12200927734375,407.73199462890625 500.6659851074219,487.93798828125 457.70001220703125,543.9119873046875 C414.7340087890625,599.885986328125 334.52801513671875,610.4299926757812 278.5539855957031,567.4639892578125 C222.5800018310547,524.4979858398438 212.03599548339844,444.2919921875 255.0019989013672,388.3179931640625 C297.9679870605469,332.343994140625 378.17401123046875,321.79998779296875 434.14801025390625,364.7659912109375z"></path></g></g><g mask="url(#__lottie_element_9120_1)" style="display: block;"><g transform="matrix(0.999995231628418,-0.003089227946475148,0.003089227946475148,0.999995231628418,-2.1595168113708496,0.24596454203128815)" opacity="1"><path fill="rgb(233,169,255)" fill-opacity="1" d=" M324.5320129394531,333.8739929199219 C317.84698486328125,330.3160095214844 293.95001220703125,323.02099609375 276.45599365234375,326.4670104980469 C272.2720031738281,327.2909851074219 270.4729919433594,332.2919921875 273.10101318359375,335.6499938964844 C273.10101318359375,335.6499938964844 293.2090148925781,361.343994140625 293.2090148925781,361.343994140625 C295.1300048828125,363.7980041503906 298.8160095214844,364.08599853515625 301.322998046875,362.2349853515625 C301.322998046875,362.2349853515625 327.2279968261719,343.8659973144531 327.2279968261719,343.8659973144531 C330.85101318359375,340.94500732421875 330.15301513671875,336.864990234375 324.5320129394531,333.8739929199219z M416.69024658203125,377.65740966796875 C409.3731689453125,380.864013671875 388.7954406738281,387.8830261230469 379.779052734375,395.93572998046875 C373.5892639160156,401.4560546875 368.27593994140625,400.5711975097656 361.5719909667969,395.7430114746094 C361.5719909667969,395.7430114746094 342.1470642089844,378.4217224121094 342.1470642089844,378.4217224121094 C338.5970764160156,373.854736328125 339.27264404296875,371.2244567871094 343.9897155761719,366.03106689453125 C350.49981689453125,359.0208740234375 373.51043701171875,350.0983581542969 380.6448669433594,347.8383483886719 C387.7195739746094,345.5939636230469 391.37786865234375,346.4877014160156 396.1244201660156,350.92974853515625 C396.1244201660156,350.92974853515625 414.8070068359375,365.1499938964844 414.8070068359375,365.1499938964844 C418.3958740234375,369.1915588378906 424.3611145019531,374.3393859863281 416.69024658203125,377.65740966796875z"></path><path fill="rgb(233,169,255)" fill-opacity="1" d=" M416.69024658203125,377.65740966796875 C409.3731689453125,380.864013671875 388.7954406738281,387.8830261230469 379.779052734375,395.93572998046875 C373.5892639160156,401.4560546875 368.27593994140625,400.5711975097656 361.5719909667969,395.7430114746094 C361.5719909667969,395.7430114746094 342.1470642089844,378.4217224121094 342.1470642089844,378.4217224121094 C338.5970764160156,373.854736328125 339.27264404296875,371.2244567871094 343.9897155761719,366.03106689453125 C350.49981689453125,359.0208740234375 373.51043701171875,350.0983581542969 380.6448669433594,347.8383483886719 C387.7195739746094,345.5939636230469 391.37786865234375,346.4877014160156 396.1244201660156,350.92974853515625 C396.1244201660156,350.92974853515625 414.8070068359375,365.1499938964844 414.8070068359375,365.1499938964844 C418.3958740234375,369.1915588378906 424.3611145019531,374.3393859863281 416.69024658203125,377.65740966796875z"></path></g></g><g mask="url(#__lottie_element_9110_1)" style="display: block;"><g transform="matrix(0.999995231628418,-0.003089227946475148,0.003089227946475148,0.999995231628418,355.989013671875,466.1570129394531)" opacity="1"><path stroke-linecap="butt" stroke-linejoin="miter" fill-opacity="0" stroke-miterlimit="4" stroke="rgb(180,86,233)" stroke-opacity="1" stroke-width="11" d=" M115.02300262451172,-66.68000030517578 C28.85099983215332,-110.56900024414062 -84.10399627685547,37.08399963378906 -35.481998443603516,127.06099700927734 M34.20399856567383,-131.63999938964844 C-72.10399627685547,-125.37999725341797 -132.00999450683594,6.436999797821045 -115.85700225830078,65.43699645996094"></path></g></g></g></g><g mask="url(#__lottie_element_9069_1)" style="display: block;"><g clip-path="url(#__lottie_element_9071)" transform="matrix(0.9711592197418213,0.23843175172805786,-0.23843175172805786,0.9711592197418213,124.04733276367188,-222.54656982421875)" opacity="1"><g clip-path="url(#__lottie_element_9093)" transform="matrix(0.999995231628418,-0.003089227946475148,0.003089227946475148,0.999995231628418,-1.4486083984375,1.509765625)" opacity="1" style="display: block;"><g transform="matrix(1,0,0,1,0,0)" opacity="1" style="display: block;"><path fill="rgb(206,125,251)" fill-opacity="1" d=" M463.85400390625,397.4429931640625 C463.85400390625,397.4429931640625 317.1610107421875,588.5449829101562 317.1610107421875,588.5449829101562 C311.7090148925781,595.64697265625 301.5329895019531,596.9860229492188 294.4309997558594,591.5339965820312 C294.4309997558594,591.5339965820312 258.3320007324219,564.3790283203125 258.3320007324219,564.3790283203125 C248.7830047607422,556.5859985351562 238.1840057373047,540.218017578125 245.51699829101562,514.4219970703125 C245.51699829101562,514.4219970703125 380.2300109863281,344.3590087890625 380.2300109863281,344.3590087890625 C396.9079895019531,330.4570007324219 419.69000244140625,342.48699951171875 426.7919921875,347.9389953613281 C426.7919921875,347.9389953613281 460.864990234375,374.7130126953125 460.864990234375,374.7130126953125 C467.9670104980469,380.1650085449219 469.3059997558594,390.34100341796875 463.85400390625,397.4429931640625z M434.14801025390625,364.7659912109375 C490.12200927734375,407.73199462890625 500.6659851074219,487.93798828125 457.70001220703125,543.9119873046875 C414.7340087890625,599.885986328125 334.52801513671875,610.4299926757812 278.5539855957031,567.4639892578125 C222.5800018310547,524.4979858398438 212.03599548339844,444.2919921875 255.0019989013672,388.3179931640625 C297.9679870605469,332.343994140625 378.17401123046875,321.79998779296875 434.14801025390625,364.7659912109375z"></path></g></g><g mask="url(#__lottie_element_9084_1)" style="display: block;"><g transform="matrix(0.999995231628418,-0.003089227946475148,0.003089227946475148,0.999995231628418,-2.1595168113708496,0.24596454203128815)" opacity="1"><path fill="rgb(233,169,255)" fill-opacity="1" d=" M324.5320129394531,333.8739929199219 C317.84698486328125,330.3160095214844 293.95001220703125,323.02099609375 276.45599365234375,326.4670104980469 C272.2720031738281,327.2909851074219 270.4729919433594,332.2919921875 273.10101318359375,335.6499938964844 C273.10101318359375,335.6499938964844 293.2090148925781,361.343994140625 293.2090148925781,361.343994140625 C295.1300048828125,363.7980041503906 298.8160095214844,364.08599853515625 301.322998046875,362.2349853515625 C301.322998046875,362.2349853515625 327.2279968261719,343.8659973144531 327.2279968261719,343.8659973144531 C330.85101318359375,340.94500732421875 330.15301513671875,336.864990234375 324.5320129394531,333.8739929199219z M416.69024658203125,377.65740966796875 C409.3731689453125,380.864013671875 388.7954406738281,387.8830261230469 379.779052734375,395.93572998046875 C373.5892639160156,401.4560546875 368.27593994140625,400.5711975097656 361.5719909667969,395.7430114746094 C361.5719909667969,395.7430114746094 342.1470642089844,378.4217224121094 342.1470642089844,378.4217224121094 C338.5970764160156,373.854736328125 339.27264404296875,371.2244567871094 343.9897155761719,366.03106689453125 C350.49981689453125,359.0208740234375 373.51043701171875,350.0983581542969 380.6448669433594,347.8383483886719 C387.7195739746094,345.5939636230469 391.37786865234375,346.4877014160156 396.1244201660156,350.92974853515625 C396.1244201660156,350.92974853515625 414.8070068359375,365.1499938964844 414.8070068359375,365.1499938964844 C418.3958740234375,369.1915588378906 424.3611145019531,374.3393859863281 416.69024658203125,377.65740966796875z"></path><path fill="rgb(233,169,255)" fill-opacity="1" d=" M416.69024658203125,377.65740966796875 C409.3731689453125,380.864013671875 388.7954406738281,387.8830261230469 379.779052734375,395.93572998046875 C373.5892639160156,401.4560546875 368.27593994140625,400.5711975097656 361.5719909667969,395.7430114746094 C361.5719909667969,395.7430114746094 342.1470642089844,378.4217224121094 342.1470642089844,378.4217224121094 C338.5970764160156,373.854736328125 339.27264404296875,371.2244567871094 343.9897155761719,366.03106689453125 C350.49981689453125,359.0208740234375 373.51043701171875,350.0983581542969 380.6448669433594,347.8383483886719 C387.7195739746094,345.5939636230469 391.37786865234375,346.4877014160156 396.1244201660156,350.92974853515625 C396.1244201660156,350.92974853515625 414.8070068359375,365.1499938964844 414.8070068359375,365.1499938964844 C418.3958740234375,369.1915588378906 424.3611145019531,374.3393859863281 416.69024658203125,377.65740966796875z"></path></g></g><g mask="url(#__lottie_element_9074_1)" style="display: block;"><g transform="matrix(0.999995231628418,-0.003089227946475148,0.003089227946475148,0.999995231628418,355.989013671875,466.1570129394531)" opacity="1"><path stroke-linecap="butt" stroke-linejoin="miter" fill-opacity="0" stroke-miterlimit="4" stroke="rgb(180,86,233)" stroke-opacity="1" stroke-width="11" d=" M115.02300262451172,-66.68000030517578 C28.85099983215332,-110.56900024414062 -84.10399627685547,37.08399963378906 -35.481998443603516,127.06099700927734 M34.20399856567383,-131.63999938964844 C-72.10399627685547,-125.37999725341797 -132.00999450683594,6.436999797821045 -115.85700225830078,65.43699645996094"></path></g></g></g></g><g clip-path="url(#__lottie_element_9039)" transform="matrix(0.9711592197418213,0.23843175172805786,-0.23843175172805786,0.9711592197418213,124.04733276367188,-222.54656982421875)" opacity="0.9" style="display: block;"><g clip-path="url(#__lottie_element_9061)" transform="matrix(0.999995231628418,-0.003089227946475148,0.003089227946475148,0.999995231628418,-1.4486083984375,1.509765625)" opacity="1" style="display: block;"><g transform="matrix(1,0,0,1,0,0)" opacity="1" style="display: block;"><path fill="rgb(206,125,251)" fill-opacity="1" d=" M463.85400390625,397.4429931640625 C463.85400390625,397.4429931640625 317.1610107421875,588.5449829101562 317.1610107421875,588.5449829101562 C311.7090148925781,595.64697265625 301.5329895019531,596.9860229492188 294.4309997558594,591.5339965820312 C294.4309997558594,591.5339965820312 258.3320007324219,564.3790283203125 258.3320007324219,564.3790283203125 C248.7830047607422,556.5859985351562 238.1840057373047,540.218017578125 245.51699829101562,514.4219970703125 C245.51699829101562,514.4219970703125 380.2300109863281,344.3590087890625 380.2300109863281,344.3590087890625 C396.9079895019531,330.4570007324219 419.69000244140625,342.48699951171875 426.7919921875,347.9389953613281 C426.7919921875,347.9389953613281 460.864990234375,374.7130126953125 460.864990234375,374.7130126953125 C467.9670104980469,380.1650085449219 469.3059997558594,390.34100341796875 463.85400390625,397.4429931640625z M434.14801025390625,364.7659912109375 C490.12200927734375,407.73199462890625 500.6659851074219,487.93798828125 457.70001220703125,543.9119873046875 C414.7340087890625,599.885986328125 334.52801513671875,610.4299926757812 278.5539855957031,567.4639892578125 C222.5800018310547,524.4979858398438 212.03599548339844,444.2919921875 255.0019989013672,388.3179931640625 C297.9679870605469,332.343994140625 378.17401123046875,321.79998779296875 434.14801025390625,364.7659912109375z"></path></g></g><g mask="url(#__lottie_element_9052_1)" style="display: block;"><g transform="matrix(0.999995231628418,-0.003089227946475148,0.003089227946475148,0.999995231628418,-2.1595168113708496,0.24596454203128815)" opacity="1"><path fill="rgb(233,169,255)" fill-opacity="1" d=" M324.5320129394531,333.8739929199219 C317.84698486328125,330.3160095214844 293.95001220703125,323.02099609375 276.45599365234375,326.4670104980469 C272.2720031738281,327.2909851074219 270.4729919433594,332.2919921875 273.10101318359375,335.6499938964844 C273.10101318359375,335.6499938964844 293.2090148925781,361.343994140625 293.2090148925781,361.343994140625 C295.1300048828125,363.7980041503906 298.8160095214844,364.08599853515625 301.322998046875,362.2349853515625 C301.322998046875,362.2349853515625 327.2279968261719,343.8659973144531 327.2279968261719,343.8659973144531 C330.85101318359375,340.94500732421875 330.15301513671875,336.864990234375 324.5320129394531,333.8739929199219z M416.69024658203125,377.65740966796875 C409.3731689453125,380.864013671875 388.7954406738281,387.8830261230469 379.779052734375,395.93572998046875 C373.5892639160156,401.4560546875 368.27593994140625,400.5711975097656 361.5719909667969,395.7430114746094 C361.5719909667969,395.7430114746094 342.1470642089844,378.4217224121094 342.1470642089844,378.4217224121094 C338.5970764160156,373.854736328125 339.27264404296875,371.2244567871094 343.9897155761719,366.03106689453125 C350.49981689453125,359.0208740234375 373.51043701171875,350.0983581542969 380.6448669433594,347.8383483886719 C387.7195739746094,345.5939636230469 391.37786865234375,346.4877014160156 396.1244201660156,350.92974853515625 C396.1244201660156,350.92974853515625 414.8070068359375,365.1499938964844 414.8070068359375,365.1499938964844 C418.3958740234375,369.1915588378906 424.3611145019531,374.3393859863281 416.69024658203125,377.65740966796875z"></path><path fill="rgb(233,169,255)" fill-opacity="1" d=" M416.69024658203125,377.65740966796875 C409.3731689453125,380.864013671875 388.7954406738281,387.8830261230469 379.779052734375,395.93572998046875 C373.5892639160156,401.4560546875 368.27593994140625,400.5711975097656 361.5719909667969,395.7430114746094 C361.5719909667969,395.7430114746094 342.1470642089844,378.4217224121094 342.1470642089844,378.4217224121094 C338.5970764160156,373.854736328125 339.27264404296875,371.2244567871094 343.9897155761719,366.03106689453125 C350.49981689453125,359.0208740234375 373.51043701171875,350.0983581542969 380.6448669433594,347.8383483886719 C387.7195739746094,345.5939636230469 391.37786865234375,346.4877014160156 396.1244201660156,350.92974853515625 C396.1244201660156,350.92974853515625 414.8070068359375,365.1499938964844 414.8070068359375,365.1499938964844 C418.3958740234375,369.1915588378906 424.3611145019531,374.3393859863281 416.69024658203125,377.65740966796875z"></path></g></g><g mask="url(#__lottie_element_9042_1)" style="display: block;"><g transform="matrix(0.999995231628418,-0.003089227946475148,0.003089227946475148,0.999995231628418,355.989013671875,466.1570129394531)" opacity="1"><path stroke-linecap="butt" stroke-linejoin="miter" fill-opacity="0" stroke-miterlimit="4" stroke="rgb(180,86,233)" stroke-opacity="1" stroke-width="11" d=" M115.02300262451172,-66.68000030517578 C28.85099983215332,-110.56900024414062 -84.10399627685547,37.08399963378906 -35.481998443603516,127.06099700927734 M34.20399856567383,-131.63999938964844 C-72.10399627685547,-125.37999725341797 -132.00999450683594,6.436999797821045 -115.85700225830078,65.43699645996094"></path></g></g></g><g transform="matrix(0.9718911647796631,0.2354304939508438,-0.2354304939508438,0.9718911647796631,122.28155517578125,-221.42730712890625)" opacity="1" style="display: block;"><path stroke-linecap="round" stroke-linejoin="miter" fill-opacity="0" stroke-miterlimit="10" stroke="rgb(165,102,70)" stroke-opacity="1" stroke-width="20" d=" M439.00799560546875,515.5919799804688 C439.00799560546875,515.5919799804688 638.2020263671875,679.7039794921875 638.2020263671875,679.7039794921875"></path></g><g transform="matrix(0.9718911647796631,0.2354304939508438,-0.2354304939508438,0.9718911647796631,513.6409912109375,497.3506164550781)" opacity="1" style="display: block;"><path fill="rgb(225,142,112)" fill-opacity="1" d=" M0,-36.13050079345703 C19.9404239654541,-36.13050079345703 36.13050079345703,-19.9404239654541 36.13050079345703,0 C36.13050079345703,19.9404239654541 19.9404239654541,36.13050079345703 0,36.13050079345703 C-19.9404239654541,36.13050079345703 -36.13050079345703,19.9404239654541 -36.13050079345703,0 C-36.13050079345703,-19.9404239654541 -19.9404239654541,-36.13050079345703 0,-36.13050079345703z"></path></g><g transform="matrix(0.9718911647796631,0.2354304939508438,-0.2354304939508438,0.9718911647796631,452.55682373046875,430.4737548828125)" opacity="1" style="display: block;"><path fill="rgb(225,142,112)" fill-opacity="1" d=" M0,-36.13050079345703 C19.9404239654541,-36.13050079345703 36.13050079345703,-19.9404239654541 36.13050079345703,0 C36.13050079345703,19.9404239654541 19.9404239654541,36.13050079345703 0,36.13050079345703 C-19.9404239654541,36.13050079345703 -36.13050079345703,19.9404239654541 -36.13050079345703,0 C-36.13050079345703,-19.9404239654541 -19.9404239654541,-36.13050079345703 0,-36.13050079345703z"></path></g></g></svg>