<?xml version="1.0" encoding="utf-8"?>
<!-- Generator: Adobe Illustrator 27.1.0, SVG Export Plug-In . SVG Version: 6.00 Build 0)  -->
<svg version="1.1" id="Background" xmlns="http://www.w3.org/2000/svg" xmlns:xlink="http://www.w3.org/1999/xlink" x="0px" y="0px"
	 viewBox="0 0 750 500" style="enable-background:new 0 0 750 500;" xml:space="preserve">
<style type="text/css">
	.st0{clip-path:url(#SVGID_00000080923681823045327590000004612572523194965889_);fill:#14182B;}
	.st1{clip-path:url(#SVGID_00000080923681823045327590000004612572523194965889_);}
	.st2{fill:url(#SVGID_00000021081187335347849190000001043775998553955509_);}
	.st3{fill:url(#SVGID_00000101796263491105801180000001610168018501374367_);}
	.st4{fill:url(#SVGID_00000144308694048213371890000018033258992575045553_);}
	.st5{fill:url(#SVGID_00000090282208169600143540000017185952162061087675_);}
	.st6{fill:url(#SVGID_00000056396225545808182340000015303522290948439427_);}
	.st7{opacity:0.38;}
	.st8{fill:url(#SVGID_00000043421605313894016060000005005536813186249640_);}
	.st9{fill:url(#SVGID_00000008144545846577938490000009027093923000323720_);}
	.st10{fill:url(#SVGID_00000003065971935922764560000013467128514155890332_);}
	.st11{fill:url(#SVGID_00000148623569642921110170000009375601168646613891_);}
</style>
<g>
	<defs>
		<rect id="SVGID_1_" x="0" width="750" height="500"/>
	</defs>
	<clipPath id="SVGID_00000085214904234184604290000002548384437059784583_">
		<use xlink:href="#SVGID_1_"  style="overflow:visible;"/>
	</clipPath>
	
		<rect x="0" style="clip-path:url(#SVGID_00000085214904234184604290000002548384437059784583_);fill:#14182B;" width="750" height="500"/>
	<g style="clip-path:url(#SVGID_00000085214904234184604290000002548384437059784583_);">
		<g>
			
				<image style="overflow:visible;opacity:0.3;" width="653" height="482" xlink:href="94CBB50B.png"  transform="matrix(1 0 0 1 151.2854 62.9697)">
			</image>
			<g>
				
					<linearGradient id="SVGID_00000177449140498640372450000005165576813355036857_" gradientUnits="userSpaceOnUse" x1="456.6114" y1="444.598" x2="377.2364" y2="348.9576" gradientTransform="matrix(1.1374 7.222700e-02 -0.1366 1.0828 105.9555 -98.7436)">
					<stop  offset="0" style="stop-color:#14182B"/>
					<stop  offset="0.3253" style="stop-color:#181D34"/>
					<stop  offset="0.8464" style="stop-color:#232A4B"/>
					<stop  offset="0.9766" style="stop-color:#262E52"/>
				</linearGradient>
				<path style="fill:url(#SVGID_00000177449140498640372450000005165576813355036857_);" d="M562.8,513.8
					c73.9-14.4,146.3-34.7,216.4-60.7V104.5C657.5,281,459.5,433.7,199.6,513.8H562.8z"/>
			</g>
		</g>
		<g>
			
				<image style="overflow:visible;opacity:0.3;" width="639" height="346" xlink:href="94CBB509.png"  transform="matrix(1 0 0 1 146.2854 190.9697)">
			</image>
			<g>
				
					<linearGradient id="SVGID_00000049198338769278943390000018080383352240944040_" gradientUnits="userSpaceOnUse" x1="470.8422" y1="497.3471" x2="391.4671" y2="401.7068" gradientTransform="matrix(1.0963 0.2294 -0.283 1.0445 159.088 -145.9639)">
					<stop  offset="0" style="stop-color:#14182B"/>
					<stop  offset="0.3253" style="stop-color:#181D34"/>
					<stop  offset="0.8464" style="stop-color:#232A4B"/>
					<stop  offset="0.9766" style="stop-color:#262E52"/>
				</linearGradient>
				<path style="fill:url(#SVGID_00000049198338769278943390000018080383352240944040_);" d="M760.7,505.9V233.1
					c-139.4,132.1-333,233.7-566.1,272.8H760.7z"/>
			</g>
		</g>
		<g>
			
				<image style="overflow:visible;opacity:0.3;" width="460" height="278" xlink:href="94CBB50F.png"  transform="matrix(1 0 0 1 325.2854 258.9697)">
			</image>
			<g>
				
					<linearGradient id="SVGID_00000117659234435092598610000003872294506278474421_" gradientUnits="userSpaceOnUse" x1="541.9498" y1="494.4231" x2="462.5747" y2="398.7827" gradientTransform="matrix(1.0963 0.2294 -0.283 1.0445 159.088 -145.9639)">
					<stop  offset="0" style="stop-color:#14182B"/>
					<stop  offset="0.3253" style="stop-color:#181D34"/>
					<stop  offset="0.8464" style="stop-color:#232A4B"/>
					<stop  offset="0.9766" style="stop-color:#262E52"/>
				</linearGradient>
				<path style="fill:url(#SVGID_00000117659234435092598610000003872294506278474421_);" d="M760.7,505.9v-205
					c-104.9,88.5-235.7,160.5-387.6,205H760.7z"/>
			</g>
		</g>
		<g>
			
				<image style="overflow:visible;opacity:0.75;" width="344" height="212" xlink:href="94CBB508.png"  transform="matrix(1 0 0 1 449.0807 321.765)">
			</image>
			<g>
				<g>
					
						<linearGradient id="SVGID_00000142872209978002786920000001038453585441397434_" gradientUnits="userSpaceOnUse" x1="459.9646" y1="423.5645" x2="767.1672" y2="423.5645">
						<stop  offset="6.893530e-02" style="stop-color:#2E3865"/>
						<stop  offset="0.9766" style="stop-color:#2E3763"/>
					</linearGradient>
					<path style="fill:url(#SVGID_00000142872209978002786920000001038453585441397434_);" d="M461.1,511.1l-1.1-3
						C572.5,465.5,675.2,407.6,765.2,336l2,2.5C676.9,410.4,574,468.4,461.1,511.1z"/>
				</g>
			</g>
		</g>
		<g>
			
				<image style="overflow:visible;opacity:0.3;" width="323" height="203" xlink:href="94CBB506.png"  transform="matrix(1 0 0 1 468.2854 340.9697)">
			</image>
			<g>
				
					<linearGradient id="SVGID_00000069365119545178373050000007560700970726440889_" gradientUnits="userSpaceOnUse" x1="601.4516" y1="502.2299" x2="517.4902" y2="401.0634" gradientTransform="matrix(1.0963 0.2294 -0.283 1.0445 159.088 -145.9639)">
					<stop  offset="0" style="stop-color:#14182B"/>
					<stop  offset="0.9766" style="stop-color:#262E52"/>
				</linearGradient>
				<path style="fill:url(#SVGID_00000069365119545178373050000007560700970726440889_);" d="M766.7,512.6V383.4
					c-73.8,51.7-157.7,95.7-250.4,129.2H766.7z"/>
			</g>
		</g>
		<g class="st7">
			
				<image style="overflow:visible;" width="785" height="571" xlink:href="94CBB507.png"  transform="matrix(1 0 0 1 -13.1241 -30.4398)">
			</image>
		</g>
	</g>
	<g style="clip-path:url(#SVGID_00000085214904234184604290000002548384437059784583_);">
		<g>
			
				<image style="overflow:visible;opacity:0.3;" width="588" height="424" xlink:href="94CBB517.png"  transform="matrix(1 0 0 1 -115.6971 -60.0128)">
			</image>
			<g>
				
					<linearGradient id="SVGID_00000078035921729911399890000005083713285683767734_" gradientUnits="userSpaceOnUse" x1="-239.082" y1="345.793" x2="-309.4973" y2="260.9484" gradientTransform="matrix(-1.1353 -0.1002 0.1632 -1.0791 -215.2876 403.3673)">
					<stop  offset="0" style="stop-color:#14182B"/>
					<stop  offset="0.3253" style="stop-color:#181D34"/>
					<stop  offset="0.8464" style="stop-color:#232A4B"/>
					<stop  offset="0.9766" style="stop-color:#262E52"/>
				</linearGradient>
				<path style="fill:url(#SVGID_00000078035921729911399890000005083713285683767734_);" d="M116.3-32.8
					C50.5-21.6-14.2-5.2-76.9,16.2l-7.6,309.2c111.8-153.9,290.7-285,523-350.3L116.3-32.8z"/>
			</g>
		</g>
		<g>
			
				<image style="overflow:visible;opacity:0.3;" width="565" height="348" xlink:href="94CBB519.png"  transform="matrix(1 0 0 1 -108.6841 -75.9998)">
			</image>
			<g>
				
					<linearGradient id="SVGID_00000123436584374538839510000007088709904600792737_" gradientUnits="userSpaceOnUse" x1="-221.5459" y1="496.609" x2="-291.9608" y2="411.7649" gradientTransform="matrix(-1.1113 -0.1391 0.1968 -1.0641 -229.6204 495.0746)">
					<stop  offset="0" style="stop-color:#14182B"/>
					<stop  offset="0.3253" style="stop-color:#181D34"/>
					<stop  offset="0.8464" style="stop-color:#232A4B"/>
					<stop  offset="0.9766" style="stop-color:#262E52"/>
				</linearGradient>
				<path style="fill:url(#SVGID_00000123436584374538839510000007088709904600792737_);" d="M-87.4-7.8l19.8,241.2
					C46,106.5,209.8,2.7,413.1-48.7L-87.4-7.8z"/>
			</g>
		</g>
		<g>
			
				<image style="overflow:visible;opacity:0.3;" width="408" height="272" xlink:href="94CBB51B.png"  transform="matrix(1 0 0 1 -98.6971 -67.0128)">
			</image>
			<g>
				
					<linearGradient id="SVGID_00000042731309599033834130000003924028309054662539_" gradientUnits="userSpaceOnUse" x1="-164.657" y1="491.9972" x2="-235.0721" y2="407.1529" gradientTransform="matrix(-1.1104 -0.146 0.2034 -1.0629 -229.1099 484.1783)">
					<stop  offset="0" style="stop-color:#14182B"/>
					<stop  offset="0.3253" style="stop-color:#181D34"/>
					<stop  offset="0.8464" style="stop-color:#232A4B"/>
					<stop  offset="0.9766" style="stop-color:#262E52"/>
				</linearGradient>
				<path style="fill:url(#SVGID_00000042731309599033834130000003924028309054662539_);" d="M-77.3-14.7l13.7,181.3
					C23.2,81.3,134.2,8.8,265.5-40.6L-77.3-14.7z"/>
			</g>
		</g>
		<g>
			
				<image style="overflow:visible;opacity:0.3;" width="287" height="187" xlink:href="81712AA8.png"  transform="matrix(1 0 0 1 -80.6971 -56.0128)">
			</image>
			<g>
				
					<linearGradient id="SVGID_00000085968633141143358150000013686453533553504445_" gradientUnits="userSpaceOnUse" x1="-123.5171" y1="500.6935" x2="-193.932" y2="415.8494" gradientTransform="matrix(-1.1041 -0.1881 0.2437 -1.0544 -242.9632 467.8236)">
					<stop  offset="0" style="stop-color:#14182B"/>
					<stop  offset="0.2079" style="stop-color:#191E37"/>
					<stop  offset="0.5794" style="stop-color:#283055"/>
					<stop  offset="0.9766" style="stop-color:#3A467D"/>
				</linearGradient>
				<path style="fill:url(#SVGID_00000085968633141143358150000013686453533553504445_);" d="M-59.5-21.2l4.3,114.5
					C8.4,45,81.4,3.2,162.5-29.5L-59.5-21.2z"/>
			</g>
		</g>
		<g class="st7">
			
				<image style="overflow:visible;" width="804" height="564" xlink:href="81712AAF.png"  transform="matrix(1 0 0 1 -141.1241 -45.4398)">
			</image>
		</g>
	</g>
</g>
</svg>
